<?xml version="1.0" encoding="UTF-8" standalone="no"?>
<svg
   xmlns:dc="http://purl.org/dc/elements/1.1/"
   xmlns:cc="http://creativecommons.org/ns#"
   xmlns:rdf="http://www.w3.org/1999/02/22-rdf-syntax-ns#"
   xmlns:svg="http://www.w3.org/2000/svg"
   xmlns="http://www.w3.org/2000/svg"
   xmlns:sodipodi="http://sodipodi.sourceforge.net/DTD/sodipodi-0.dtd"
   xmlns:inkscape="http://www.inkscape.org/namespaces/inkscape"
   height="102.29034"
   width="400"
   inkscape:version="1.0 (4035a4fb49, 2020-05-01)"
   sodipodi:docname="logo_mages.svg"
   id="svg20"
   version="1.1"
   viewBox="0 0 400.00002 102.29034">
  <metadata
     id="metadata24">
    <rdf:RDF>
      <cc:Work
         rdf:about="">
        <dc:format>image/svg+xml</dc:format>
        <dc:type
           rdf:resource="http://purl.org/dc/dcmitype/StillImage" />
        <dc:title>MAGES</dc:title>
      </cc:Work>
    </rdf:RDF>
  </metadata>
  <sodipodi:namedview
     fit-margin-bottom="0"
     fit-margin-right="0"
     fit-margin-left="0"
     fit-margin-top="0"
     inkscape:current-layer="svg20"
     inkscape:window-maximized="1"
     inkscape:window-y="-8"
     inkscape:window-x="-8"
     inkscape:cy="74.245003"
     inkscape:cx="290.48499"
     inkscape:zoom="1.5852799"
     showgrid="false"
     id="namedview22"
     inkscape:window-height="837"
     inkscape:window-width="1600"
     inkscape:pageshadow="2"
     inkscape:pageopacity="0"
     guidetolerance="10"
     gridtolerance="10"
     objecttolerance="10"
     borderopacity="1"
     bordercolor="#666666"
     pagecolor="#ffffff" />
  <defs
     id="defs4">
    <style
       id="style2">.cls-1{fill:#fff;}</style>
  </defs>
  <title
     id="title6">MAGES</title>
  <path
     style="fill:#191919;fill-opacity:1;stroke-width:0.688468"
     id="path8"
     d="m 181.2117,70.91222 c 0,-3.951807 3.02238,-8.364888 6.71945,-9.82444 L 233.2599,43.277108 c 3.69707,-1.452667 6.72633,-0.908778 6.72633,1.211704 0,2.120482 -3.02926,5.032703 -6.72633,6.48537 l -25.73494,10.120482 c -3.70396,1.459553 -6.71945,5.872634 -6.71945,9.824441 V 87.35284 a 7.222031,7.222031 0 0 0 7.22203,7.180723 h 5.13597 a 7.2289157,7.2289157 0 0 0 7.22892,-7.180723 v -8.736661 c 0,-3.703959 2.86402,-7.173838 6.83649,-7.180723 h 6.02409 c 3.97246,0 6.73322,3.2358 6.73322,7.180723 v 16.433735 a 7.222031,7.222031 0 0 1 -7.22203,7.180726 h -44.32358 a 7.2358003,7.2358003 0 0 1 -7.2358,-7.180726 z"
     class="cls-1" />
  <path
     style="fill:#191919;fill-opacity:1;stroke-width:0.688468"
     id="path10"
     d="m 263.88296,70.91222 c 0,-3.951807 3.03614,-8.364888 6.71945,-9.82444 l 45.33563,-17.803787 c 3.69707,-1.452668 6.72633,-0.908778 6.72633,1.211704 0,2.120482 -3.02926,5.032702 -6.72633,6.48537 l -25.74183,10.113597 c -3.69019,1.459553 -6.71256,2.946644 -6.71256,6.492255 0,2.113597 1.29432,3.855422 5.27366,3.855422 h 18.54045 c 3.97246,0 5.56971,1.728055 5.56971,3.855421 0,2.127367 -1.59725,3.841653 -5.56971,3.841653 h -16.59208 a 7.2289157,7.2289157 0 0 0 -7.22203,7.187607 v 1.032703 a 7.222031,7.222031 0 0 0 7.22203,7.180723 h 26.38898 c 3.97247,0 5.56971,1.734939 5.56971,3.848537 0,2.113595 -1.59724,3.848535 -5.57659,3.848535 h -45.96902 a 7.2289157,7.2289157 0 0 1 -7.2358,-7.180721 z"
     class="cls-1" />
  <path
     style="fill:#191919;fill-opacity:1;stroke-width:0.688468"
     id="path12"
     d="m 393.2599,50.981067 c 3.69707,-1.452668 6.71945,-4.364888 6.71945,-6.48537 0,-2.120482 -3.02238,-2.657487 -6.71945,-1.211704 l -45.34252,17.810671 c -3.69019,1.459553 -6.71945,4.901894 -6.71945,8.853701 v 2.003442 a 7.2289157,7.2289157 0 0 0 7.2358,7.180723 h 24.71601 a 7.2289157,7.2289157 0 0 1 7.22203,7.187608 v 1.032702 a 7.222031,7.222031 0 0 1 -7.22203,7.180723 h -26.37521 c -3.97246,0 -5.5766,1.73494 -5.5766,3.848537 0,2.1136 1.59725,3.84854 5.5766,3.84854 h 45.96902 A 7.2289157,7.2289157 0 0 0 400,95.056799 V 78.623064 a 7.2151463,7.2151463 0 0 0 -7.22892,-7.180723 h -26.69879 c -3.97935,0 -5.27367,-1.73494 -5.27367,-3.848537 0,-3.497418 3.02238,-5.039587 6.71945,-6.49914 z"
     class="cls-1" />
  <path
     style="fill:#191919;fill-opacity:1;stroke-width:0.688468"
     id="path14"
     d="M 65.886403,0 43.910499,13.769363 v 13.969019 l 13.335628,8.351119 3.545611,-5.679862 -3.44234,-2.17556 v -7.931153 l 8.537005,-5.363167 8.571428,5.363167 v 8.192771 c 0,0 -5.769363,4.275387 -8.722891,6.884682 -6.244406,5.507745 -5.858864,10.017211 -10.554217,12.95697 -5.115319,3.201377 -12.041308,8.034424 -12.041308,3.02926 v -4.784853 c 0.0895,-2.753873 -2.960413,-4.254734 -6.802066,-3.297763 A 9.9759036,9.9759036 0 0 0 31.45611,46.27883 c -0.419965,0.454389 -2.299483,3.063683 -3.359724,3.834767 -1.060241,0.771085 -10.292599,5.721171 -12.750431,5.652324 -1.115318,-0.04131 -1.790017,-0.791739 -1.707401,-2.671257 0,0 0,0 0,0 v -1.975903 c 0,-2.753873 -2.333907,-4.247849 -6.1962132,-3.304647 C 4.3304647,48.585198 0,52.227194 0,56.874355 v 38.822719 c 0,4.034423 2.3545611,6.946646 6.3958692,6.533566 A 8.0688468,8.0688468 0 0 0 13.693632,94.306368 V 68.956971 c 0.137693,-3.986231 2.547332,-6.623064 6.657487,-9.177281 0.784853,-0.488812 5.686747,-3.490533 6.450946,-3.903614 0.7642,-0.413081 2.065405,-0.688468 2.065405,0.8537 v 38.967298 c 0,4.034423 2.354561,6.946646 6.395869,6.533566 a 8.0688468,8.0688468 0 0 0 7.297763,-7.924272 c 0,0 0,-28.227194 0,-28.654044 0,-3.201377 3.029259,-6.244407 6.506024,-8.702238 1.679862,-1.19105 5.755593,-3.442341 6.079173,-3.628227 1.948365,-0.963856 2.567987,0.247848 2.567987,1.211704 v 40.144578 a 7.3321859,7.3321859 0 0 0 8.082616,7.573149 8.5920826,8.5920826 0 0 0 8.213425,-8.743545 V 54.292599 c 0,-6.299484 0.75043,-8.743546 3.442341,-11.125645 3.111876,-2.753873 10.409638,-8.98451 10.409638,-8.98451 V 13.769363 Z"
     class="cls-1" />
  <path
     style="fill:#191919;fill-opacity:1;stroke-width:0.688468"
     id="path16"
     d="m 105.23924,61.101549 c -3.69707,1.452668 -6.719447,5.865749 -6.719447,9.817556 v 24.130809 a 7.2289157,7.2289157 0 0 0 7.228917,7.180726 h 5.13597 a 7.2289157,7.2289157 0 0 0 7.22892,-7.180726 v -8.729776 a 7.222031,7.222031 0 0 1 7.22891,-7.187608 h 5.13598 a 7.2358003,7.2358003 0 0 1 7.21514,7.187608 v 8.729776 a 7.222031,7.222031 0 0 0 7.22203,7.180726 h 5.1704 a 7.2289157,7.2289157 0 0 0 7.22891,-7.180726 V 47.820998 c 0,-3.951807 -3.02926,-5.982788 -6.73321,-4.537005 z m 33.34252,5.211704 c 0,4.302926 -1.31498,6.354561 -5.65233,6.361446 h -10.16179 c -4.33046,0 -5.50774,-1.879518 -5.50774,-4.185887 0,-3.01549 3.29776,-5.783132 7.3253,-7.373494 l 6.69879,-2.629948 c 4.02754,-1.576592 7.3253,0.640275 7.33219,4.950086 z"
     class="cls-1" />
</svg>
