<?xml version="1.0" encoding="UTF-8" standalone="no"?>
<!-- Created with Inkscape (http://www.inkscape.org/) -->

<svg
   xmlns:dc="http://purl.org/dc/elements/1.1/"
   xmlns:cc="http://creativecommons.org/ns#"
   xmlns:rdf="http://www.w3.org/1999/02/22-rdf-syntax-ns#"
   xmlns:svg="http://www.w3.org/2000/svg"
   xmlns="http://www.w3.org/2000/svg"
   xmlns:sodipodi="http://sodipodi.sourceforge.net/DTD/sodipodi-0.dtd"
   xmlns:inkscape="http://www.inkscape.org/namespaces/inkscape"
   id="svg2"
   version="1.1"
   inkscape:version="0.91 r13725"
   xml:space="preserve"
   viewBox="0 0 520.77002 300" width="417" height="240"

   sodipodi:docname="ACE Team.svg"><metadata
     id="metadata8"><rdf:RDF><cc:Work
         rdf:about=""><dc:format>image/svg+xml</dc:format><dc:type
           rdf:resource="http://purl.org/dc/dcmitype/StillImage" /><dc:title></dc:title></cc:Work></rdf:RDF></metadata><defs
     id="defs6"><clipPath
       clipPathUnits="userSpaceOnUse"
       id="clipPath16"><path
         d="m 0,1164 1906,0 L 1906,0 0,0 0,1164 Z"
         id="path18"
         inkscape:connector-curvature="0" /></clipPath></defs><sodipodi:namedview
     pagecolor="#ffffff"
     bordercolor="#666666"
     borderopacity="1"
     objecttolerance="10"
     gridtolerance="10"
     guidetolerance="10"
     inkscape:pageopacity="0"
     inkscape:pageshadow="2"
     inkscape:window-width="1920"
     inkscape:window-height="1017"
     id="namedview4"
     showgrid="false"
     inkscape:zoom="0.22938447"
     inkscape:cx="2010.4956"
     inkscape:cy="25.664963"
     inkscape:window-x="-8"
     inkscape:window-y="-8"
     inkscape:window-maximized="1"
     inkscape:current-layer="svg2" /><g
     id="g10"
     inkscape:groupmode="layer"
     inkscape:label="ace_team_logo_vector_black"
     transform="matrix(1.0341297,0,0,-1.0341297,-721.0303,968.4418)"><g
       id="g12"><g
         id="g14"
         clip-path="url(#clipPath16)"><g
           id="g20"
           transform="translate(769.543,758.002)"><path
             d="m 0,0 c -7.37,-2.019 -16.831,-6.217 -26.686,-3.73 -15.171,3.827 -25.782,23.609 -19.798,42.754 2.616,8.372 8.077,14.713 12.338,21.52 40.076,62.889 41.607,65.423 41.607,65.423 L 49.067,62.266 c 0,0 11.083,-14.7 14.06,-24.39 1.899,-6.18 1.268,-15.49 -0.573,-20.947 C 55.748,-3.237 38.328,-9.351 16.355,0 c 2.323,-12.143 6.026,-31.564 6.026,-31.564 l 65.997,0 0,210.042 -160.687,0 0,-210.042 64.274,0 c 0,0 5.357,21.044 8.035,31.564"
             style="fill:#100f0d;fill-opacity:1;fill-rule:evenodd;stroke:none"
             id="path22"
             inkscape:connector-curvature="0" /></g><g
           id="g24"
           transform="translate(1030.0864,806.782)"><path
             d="M 0,0 -48.781,-56.241 -114.203,20.66 -49.354,101.577 0,42.754 l 0,86.944 -158.105,0 0,-210.042 L 0,-80.344 0,0 Z"
             style="fill:#100f0d;fill-opacity:1;fill-rule:evenodd;stroke:none"
             id="path26"
             inkscape:connector-curvature="0" /></g><g
           id="g28"
           transform="translate(1138.2632,901.1858)"><path
             d="m 0,0 c 15.442,-2.699 22.368,-9.657 32.424,-17.217 21.022,-15.564 30.129,-22.668 30.129,-22.668 l 0,75.179 -156.67,0 0,-210.042 156.67,0 0,72.883 -12.052,-8.895 c 0,0 -28.523,-25.195 -50.788,-28.98 -22.261,-3.786 -46.196,22.533 -39.598,44.762 3.407,11.477 11.809,15.472 18.938,22.955 -6.746,8.541 -14.928,13.458 -18.364,25.825 C -45.768,-22.96 -23.859,4.17 0,0"
             style="fill:#100f0d;fill-opacity:1;fill-rule:evenodd;stroke:none"
             id="path30"
             inkscape:connector-curvature="0" /></g><path
           d="m 697.234,705.492 503.583,0 0,7.173 -503.583,0 0,-7.173 z"
           style="fill:#100f0d;fill-opacity:1;fill-rule:evenodd;stroke:none"
           id="path32"
           inkscape:connector-curvature="0" /><g
           id="g34"
           transform="translate(1025.208,665.8936)"><path
             d="M 0,0 -11.765,0 -6.026,11.765 0,0.287 0,0 Z m -30.416,-19.512 8.322,0 5.452,10.329 20.946,0 5.452,-10.329 8.608,0 -24.39,48.781 -24.39,-48.781 z"
             style="fill:#100f0d;fill-opacity:1;fill-rule:evenodd;stroke:none"
             id="path36"
             inkscape:connector-curvature="0" /></g><g
           id="g38"
           transform="translate(1172.1221,658.146)"><path
             d="m 0,0 -18.364,36.155 -10.043,-47.92 7.748,0 5.164,22.956 11.478,-22.956 7.46,0 11.478,22.956 5.452,-22.956 8.321,0 L 18.651,36.442 0,0 Z"
             style="fill:#100f0d;fill-opacity:1;fill-rule:evenodd;stroke:none"
             id="path40"
             inkscape:connector-curvature="0" /></g><g
           id="g42"
           transform="translate(697.2339,684.2578)"><path
             d="m 0,0 13.773,0 0,-37.876 8.321,0 0,37.876 14.06,0 0,8.321 L 0,8.321 0,0 Z"
             style="fill:#100f0d;fill-opacity:1;fill-rule:evenodd;stroke:none"
             id="path44"
             inkscape:connector-curvature="0" /></g><g
           id="g46"
           transform="translate(849.0259,646.3813)"><path
             d="m 0,0 35.581,0 0,8.034 -27.26,0 0,10.617 27.26,0 0,8.321 -27.26,0 0,10.617 27.26,0 0,8.609 L 0,46.198 0,0 Z"
             style="fill:#100f0d;fill-opacity:1;fill-rule:evenodd;stroke:none"
             id="path48"
             inkscape:connector-curvature="0" /></g></g></g></g></svg>