<svg height="275.567596" viewBox="0 0 541.86664 411.53168" width="362.887369" xmlns="http://www.w3.org/2000/svg" xmlns:xlink="http://www.w3.org/1999/xlink"><clipPath id="a"><path clip-rule="evenodd" d="m41.52 686.48h209.76v-32.93h-209.76z"/></clipPath><clipPath id="b"><path d="m-2 730h518v-731h-518z"/></clipPath><clipPath id="c"><path d="m.03 727.98h514.98v-727.98h-514.98z"/></clipPath><g clip-path="url(#a)" transform="matrix(15.024339 0 0 -15.024339 -646.01769 10272.005355)"><g clip-path="url(#b)"><g clip-path="url(#c)"><path d="m76.614 668.47c1.169 1.586 1.843 3.513 1.843 5.566 0 5.324-4.536 9.655-10.11 9.655-2.926 0-5.624-1.199-7.499-3.18l-.375 1.041c-.462 1.281-1.685 2.139-3.045 2.139-1.311 0-2.484-.782-2.987-1.992.004.009-4.962-11.502-4.962-11.502-.008-.017-.027-.062-.092-.082-1.236-.376-2.071-1.503-2.071-2.803 0-1.616 1.315-2.932 2.932-2.932h4.382c.616 0 1.188.192 1.661.518.472-.326 1.044-.518 1.66-.518h2.444c.093-.536.325-1.045.679-1.468 1.017-1.212 2.746-1.445 4.111-.555.68.444 1.093.487 1.184.467.352-.078.641-.289 1.211-.721.236-.179.503-.382.804-.589 1.043-.716 2.001-1.334 3.161-1.651 1.553-.425 3.091-.185 4.572.713 2.734 1.659 2.947 4.217 2.947 4.962 0 1.463-1.059 2.68-2.45 2.932zm-8.267 9.004c.57 0 1.617-1.306 1.617-3.438s-1.047-3.438-1.617-3.438c-.571 0-1.618 1.306-1.618 3.438s1.047 3.438 1.618 3.438" fill-rule="evenodd"/><path d="m77.278 661.856c.986 0 1.786-1.244 1.786-2.778s-.8-2.778-1.786-2.778h-28.177c-.986 0-1.785 1.244-1.785 2.778s.799 2.778 1.785 2.778z" fill-rule="evenodd"/><g fill="#fff"><path d="m50.454 657.907h-.163c-.093 0-.155.014-.155.129 0 .039-.007.86-.007.896v.278c0 .043.007.828.007.864 0 .068.062.096.147.096h.147c.016 0 .032.007.032.029v.082c0 .018-.008.032-.032.032-.054 0-.177-.01-.549-.01-.379 0-.58.01-.627.01-.015 0-.023-.007-.023-.025v-.093c0-.018.008-.025.031-.025h.201c.108 0 .147-.035.159-.121.004-.046.011-.689.011-.775v-.25c0-.193-.007-.964-.015-1.014-.015-.096-.101-.103-.178-.103h-.155c-.023 0-.031-.007-.031-.022v-.096c0-.018.008-.025.031-.025.039 0 .209.011.596.011.364 0 .518-.011.565-.011.023 0 .039.007.039.029v.089c0 .018-.016.025-.031.025"/><path d="m53.588 660.313c-.047 0-.139-.01-.372-.01-.263 0-.387.01-.433.01-.031 0-.031-.007-.031-.028v-.082c0-.018 0-.033.023-.033h.124c.093 0 .178-.05.205-.135.019-.061.035-.411.043-.547.008-.178.008-.357.008-.671v-.371h-.016c-.062.071-.666.764-.72.821-.077.1-.836.978-.874 1.014-.023.022-.047.032-.093.032-.023 0-.058-.003-.108-.003-.047-.004-.105-.007-.171-.007-.17 0-.274 0-.344.003-.07.004-.101.007-.12.007-.015 0-.023-.007-.023-.021v-.097c0-.014.008-.021.023-.025h.124c.17 0 .302-.164.302-.378v-.454c0-.571-.023-1.071-.027-1.135-.02-.217-.074-.296-.175-.296h-.131c-.016 0-.023-.014-.023-.022v-.089c0-.025.007-.032.023-.032.038 0 .302.011.402.011.147 0 .379-.011.418-.011.031 0 .031.007.031.029v.082c0 .018 0 .032-.031.032h-.1c-.14 0-.186.086-.194.264-.008.111-.039.611-.039 1.217v.436h.024c.046-.05.665-.764.719-.814.047-.057.349-.393.619-.7.24-.264.449-.485.48-.521.031-.028.077-.057.132-.057.046 0 .046.05.046.1v.943c0 .363.039.963.058 1.206.012.132.05.189.128.189h.108c.016 0 .023.015.023.036v.082c0 .011-.007.025-.038.025"/><path d="m56.397 660.396c-.008.042-.015.057-.039.057-.023 0-.039-.015-.069-.036-.058-.039-.206-.089-.279-.093-.178-.007-.341-.021-.766-.021h-.209c-.379 0-.542.014-.751.021-.108.004-.186.021-.263.093-.023.021-.039.036-.062.036-.015 0-.038-.015-.046-.065-.016-.05-.147-.521-.186-.657-.004-.018 0-.028.015-.036l.078-.024c.019-.008.031.007.043.024.073.122.22.358.344.408.162.05.441.05.565.05h.108v-.893c0-.071 0-1.164-.011-1.257-.004-.053-.051-.096-.128-.096h-.221c-.015 0-.027-.007-.027-.029v-.082c0-.025.008-.032.031-.032.054 0 .217.011.611.011.418 0 .542-.011.581-.011.031 0 .039.015.039.036v.075c0 .018-.008.032-.024.032h-.224c-.093 0-.132.071-.132.343v1.903h.109c.139 0 .487-.007.596-.065.108-.071.251-.3.305-.4.012-.021.02-.032.035-.028l.078.025c.011.003.019.01.015.032-.031.171-.108.614-.116.679"/><path d="m59.136 658.389-.062.036c-.015.006-.027.003-.042-.015-.074-.085-.29-.321-.36-.378-.101-.079-.248-.115-.317-.122-.078-.007-.256-.014-.325-.014-.147 0-.24.014-.302.029-.085.021-.155.092-.155.278 0 .064-.007.414-.011.607l-.004.214c.124 0 .309-.007.449-.021.085-.007.158-.057.193-.129.019-.043.046-.121.062-.178.008-.021.015-.029.031-.025l.085.014c.023.004.031.007.031.025-.008.079-.023.25-.023.393 0 .093 0 .328.007.385.004.022-.007.029-.023.029l-.1.007c-.016 0-.031-.007-.031-.028 0-.065-.039-.154-.062-.2-.047-.086-.093-.115-.178-.129-.047-.01-.325-.018-.441-.018l.008 1.032.587-.014c.109-.004.213-.05.295-.093.092-.05.41-.379.425-.4.012-.018.023-.021.035-.018l.07.029c.015.007.019.018.011.039-.015.036-.162.521-.178.568-.004.014-.011.021-.031.021-.019 0-.093-.003-.154-.003-.171 0-1.06-.007-1.231-.007h-.108c-.318-.004-.457.01-.542.01-.019 0-.023-.007-.023-.025v-.093c0-.018.008-.025.023-.025h.147c.116 0 .155-.028.17-.124.008-.051.016-.493.016-.786v-1.2c0-.132-.016-.153-.194-.153h-.131c-.031 0-.039-.007-.039-.029v-.085c0-.022.008-.029.031-.029.07 0 .209.011.495.011 1.293 0 1.594-.011 1.633-.011.047 0 .074.022.085.054l.186.535c.008.018.004.029-.008.036"/><path d="m64.832 657.907h-.124c-.077 0-.178.043-.248.164-.054.097-.302.76-.394 1.039-.07.228-.372 1.028-.441 1.25-.008.021-.024.064-.047.064-.019 0-.035-.014-.058-.036-.046-.043-.259-.15-.383-.178-.031-.007-.039-.022-.039-.036 0-.011.012-.032.024-.043.023-.021 0-.085-.008-.121-.039-.093-.352-.864-.379-.936-.116-.299-.395-.942-.434-1.006-.07-.111-.139-.161-.247-.161 0 0-.074-.007-.134-.007s-.185.012-.253.067c-.058.05-.305.372-.329.408-.031.043-.271.378-.317.435-.054.064-.124.129-.232.164v.015c.425.064.719.25.719.699 0 .136-.069.286-.209.4-.154.129-.394.225-.704.225-.116 0-.472-.01-.689-.01-.378 0-.502.01-.53.01-.019 0-.027-.007-.027-.025v-.096c0-.015.008-.022.027-.022h.152c.069 0 .123-.057.123-.178v-.939c0-.336 0-.671-.007-1.028 0-.097-.062-.118-.147-.118h-.132c-.016 0-.023-.011-.023-.029v-.082c0-.021.007-.032.031-.032.038 0 .131.011.51.011.403 0 .48-.011.531-.011.03 0 .042.007.042.032v.086c0 .014-.008.025-.031.025h-.193c-.062 0-.089.064-.101.136-.008.053-.016.453-.016.667v.193c.043.004.109.007.124.007.163 0 .252-.096.349-.221.061-.079.17-.243.209-.307.034-.057.185-.314.255-.415.05-.074.124-.171.17-.203.085.004.232.011.341.011h.8c.271 0 .434-.011.488-.011.023 0 .031.015.031.036v.089c0 .011-.008.018-.039.018h-.163c-.077 0-.139.039-.139.086 0 .017 0 .046.008.075.019.096.209.607.24.689h.898c.046-.133.201-.589.232-.718.023-.096-.008-.132-.116-.132h-.101c-.023 0-.031-.007-.031-.029v-.071c0-.021.008-.043.039-.043.085 0 .216.011.541.011.426 0 .503-.011.573-.011.031 0 .039.022.039.043v.075c0 .018-.008.025-.031.025zm-4.562 1.11c-.046 0-.092.007-.147.014l.008 1.029c0 .043.016.086.047.103.03.018.077.022.139.022.193 0 .371-.039.511-.154.096-.082.17-.235.17-.4 0-.164-.124-.614-.728-.614zm2.573-.118c.027.083.375.961.391 1.007.011.032.027.047.05.047.015 0 .023-.022.039-.065.023-.071.286-.885.325-.989z"/><path d="m67.386 658.41c-.012.011-.027 0-.046-.025-.163-.217-.499-.414-.925-.414-.186 0-.41.029-.666.279-.286.285-.356.706-.356.928 0 .514.256 1.028.875 1.028.301 0 .503-.114.673-.264.162-.157.255-.336.302-.464.012-.029.023-.043.042-.036l.074.021c.015.004.019.015.015.036-.015.107-.092.678-.092.743 0 .05-.008.057-.055.057-.046 0-.054 0-.062-.021l-.03-.093c-.008-.029-.024-.029-.078 0-.139.071-.425.171-.781.171-.465 0-.798-.171-1.007-.378-.27-.272-.394-.607-.394-.957 0-.315.131-.729.418-.964.24-.2.518-.336 1.014-.336.549 0 .92.293 1.152.6.008.015.004.025-.007.036z"/><path d="m70.215 660.396c-.008.042-.016.057-.039.057s-.039-.015-.07-.036c-.058-.039-.205-.089-.279-.093-.178-.007-.34-.021-.765-.021h-.209c-.38 0-.542.014-.751.021-.108.004-.186.021-.263.093-.023.021-.039.036-.062.036-.015 0-.039-.015-.047-.065-.015-.05-.147-.521-.185-.657-.005-.018 0-.028.015-.036l.077-.024c.02-.008.032.007.043.024.074.122.221.358.344.408.163.05.441.05.565.05h.109v-.893c0-.071 0-1.164-.012-1.257-.004-.053-.05-.096-.128-.096h-.22c-.015 0-.027-.007-.027-.029v-.082c0-.025.008-.032.031-.032.054 0 .216.011.611.011.418 0 .542-.011.58-.011.031 0 .039.015.039.036v.075c0 .018-.008.032-.023.032h-.225c-.092 0-.131.071-.131.343v1.903h.108c.14 0 .488-.007.596-.065.108-.071.252-.3.306-.4.012-.021.019-.032.034-.028l.078.025c.011.003.019.01.015.032-.031.171-.108.614-.115.679"/><path d="m71.73 657.907h-.162c-.093 0-.155.014-.155.129 0 .039-.008.86-.008.896v.278c0 .043.008.828.008.864 0 .068.062.096.147.096h.147c.016 0 .031.007.031.029v.082c0 .018-.008.032-.031.032-.054 0-.178-.01-.549-.01-.38 0-.581.01-.627.01-.015 0-.023-.007-.023-.025v-.093c0-.018.008-.025.031-.025h.201c.108 0 .147-.035.158-.121.004-.046.012-.689.012-.775v-.25c0-.193-.008-.964-.016-1.014-.015-.096-.1-.103-.177-.103h-.155c-.023 0-.031-.007-.031-.022v-.096c0-.018.008-.025.031-.025.038 0 .209.011.596.011.363 0 .518-.011.565-.011.023 0 .038.007.038.029v.089c0 .018-.015.025-.031.025"/><path d="m77.13 658.389-.062.036c-.016.006-.027.003-.043-.015-.073-.085-.29-.321-.36-.378-.1-.079-.247-.115-.317-.122-.077-.007-.255-.014-.325-.014-.147 0-.24.014-.302.029-.085.021-.154.092-.154.278 0 .064-.008.414-.012.607l-.004.214c.124 0 .31-.007.449-.021.085-.007.158-.057.194-.129.019-.043.046-.121.061-.178.008-.021.016-.029.031-.025l.085.014c.023.004.031.007.031.025-.008.079-.023.25-.023.393 0 .093 0 .328.008.385.004.022-.008.029-.023.029l-.101.007c-.015 0-.031-.007-.031-.028 0-.065-.038-.154-.062-.2-.046-.086-.093-.115-.178-.129-.046-.01-.325-.018-.441-.018l.008 1.032.588-.014c.108-.004.213-.05.294-.093.093-.05.41-.379.426-.4.011-.018.023-.021.034-.018l.07.029c.016.007.02.018.012.039-.016.036-.163.521-.178.568-.004.014-.012.021-.031.021s-.093-.003-.155-.003c-.17 0-1.06-.007-1.23-.007h-.109c-.315-.004-.678 0-.996 0-.248 0-.426.01-.457.01-.023 0-.031-.007-.031-.028v-.082c0-.018.012-.033.027-.033h.105c.108 0 .147-.057.147-.1 0-.146-.24-.685-.302-.853-.039-.107-.286-.7-.379-.9v-.007h-.008c-.062.193-.27.757-.325.893-.077.207-.224.628-.251.757-.012.05-.012.093-.012.121 0 .054.062.089.163.089h.185c.023 0 .031.011.031.036v.079c0 .018-.008.028-.038.028-.031 0-.209-.01-.573-.01-.402 0-.534.01-.573.01-.015 0-.023-.007-.023-.028v-.082c0-.022.008-.033.023-.033h.093c.085 0 .132-.035.167-.114.042-.103.212-.56.313-.817.132-.332.457-1.15.588-1.453.019-.043.039-.083.085-.083.031 0 .062.018.077.047.039.075.503 1.117.581 1.274.108.236.34.793.468.982.089.129.19.164.283.164h.238c.116 0 .154-.028.17-.124.008-.051.015-.493.015-.786v-1.2c0-.132-.015-.153-.193-.153h-.132c-.031 0-.038-.007-.038-.029v-.085c0-.022.007-.029.031-.029.069 0 .209.011.495.011 1.292 0 1.594-.011 1.633-.011.046 0 .073.022.085.054l.185.535c.008.018.004.029-.007.036"/><path d="m76.081 667.51h-.001c-.659-.001-1.217-.312-1.658-.925-.017-.025-.176-.267-.176-.267-.15-.228-.457-.29-.684-.14-.228.15-.291.457-.14.684l.185.281c.003.005.007.01.011.016.497.693 1.069 1.043 1.595 1.207 1.402 1.531 2.233 3.522 2.233 5.67 0 4.766-4.082 8.644-9.099 8.644-3.268 0-6.216-1.652-7.828-4.246l-.997 2.776c-.318.88-1.159 1.47-2.094 1.47-.901 0-1.707-.537-2.054-1.369l-4.967-11.515c-.134-.312-.398-.547-.723-.647-.81-.247-1.357-.985-1.357-1.837 0-1.059.862-1.921 1.921-1.921h4.382c.708 0 1.328.386 1.661.957.333-.571.952-.957 1.66-.957h3.468c-.02-.081-.035-.164-.045-.25-.009-.078-.013-.156-.013-.234 0-.488.172-.969.488-1.346.683-.814 1.854-.964 2.784-.357.754.492 1.466.713 1.952.607.586-.128 1.013-.453 1.606-.903.238-.18.484-.367.765-.56 1.61-1.105 3.816-2.619 6.637-.907 2.282 1.385 2.46 3.486 2.46 4.097 0 1.087-.884 1.972-1.972 1.972zm-7.734 2.078c-1.244 0-2.629 1.826-2.629 4.448s1.385 4.449 2.629 4.449c1.243 0 2.629-1.827 2.629-4.449s-1.386-4.448-2.629-4.448" fill-rule="evenodd"/></g><path d="m76.637 665.538c0-.671-.287-1.982-1.779-2.887-1.988-1.206-3.439-.277-5.101.864-1.003.688-1.679 1.418-2.868 1.679-1.191.26-2.397-.391-3.03-.804-.303-.198-.692-.197-.925.081-.234.278-.209.708.08.926.402.302.745.481 1.348.693.52.183 1.014.294 1.34.717h-1.768c-.111 0-.205.072-.239.171l-3.492 9.717c-.006.017-.01.035-.01.054 0 .084.068.152.152.152.263 0 .521-.222.708-.586 1.015 2.876 3.896 4.95 7.294 4.95 4.243 0 7.683-3.237 7.683-7.229 0-3.376-2.46-6.212-5.787-7.007h.001c-.565-.135-1.957-.399-2.463-.859.749.083 2.043.12 3.215-.406 2.363-1.059 3.83-1.043 4.574-.007.126.175.282.337.511.337.307 0 .556-.249.556-.556zm-12.334 8.498c0-3.239 1.81-5.864 4.044-5.864 2.233 0 4.044 2.625 4.044 5.864s-1.811 5.864-4.044 5.864c-2.234 0-4.044-2.625-4.044-5.864zm-1.232-6.889-4.882 13.585c-.112.311-.41.533-.761.533-.336 0-.625-.206-.747-.498l-3.233-7.496c-.137-.356.041-.756.397-.893s.756.041.893.398l1.459 3.937c.022.058.077.099.142.099.067 0 .123-.043.144-.102l2.701-7.521c.043-.112.067-.233.067-.36 0-.558-.456-1.011-1.019-1.011h-.281c-.279 0-.505-.226-.505-.506 0-.279.226-.505.505-.505h4.883c.139 0 .253.113.253.253 0 .03-.006.06-.016.087zm-8.441.671h-.284c-.557 0-1.007.451-1.007 1.007 0 .144.031.282.085.407l.511 1.376c.143.379-.043.808-.422.961-.38.154-.814-.028-.973-.404l-.834-1.931c-.31-.72-.91-1.225-1.606-1.438-.207-.063-.358-.255-.358-.484 0-.279.226-.505.506-.505h4.382c.28 0 .506.226.506.505 0 .28-.226.506-.506.506" fill-rule="evenodd"/><path d="m49.272 671.011c0-.195-1.403-.354-3.134-.354s-3.134.159-3.134.354c0 .196 1.403.354 3.134.354s3.134-.158 3.134-.354zm2.327 2.482c-4.266 2.08-7.814 3.584-7.924 3.358s3.259-2.096 7.525-4.176c4.266-2.081 7.813-3.585 7.923-3.358.11.225-3.258 2.095-7.524 4.176zm-3.977-.673c-2.503.577-4.572.869-4.623.652-.05-.218 1.938-.863 4.441-1.441 2.503-.577 4.572-.869 4.623-.652.05.218-1.938.863-4.441 1.441" fill="#ed1a2a" fill-rule="evenodd"/></g></g></g></svg>