<!DOCTYPE svg PUBLIC "-//W3C//DTD SVG 20010904//EN" "http://www.w3.org/TR/2001/REC-SVG-20010904/DTD/svg10.dtd">
<svg version="1.0" xmlns="http://www.w3.org/2000/svg" width="230px" height="60px" viewBox="0 0 10000 2610" preserveAspectRatio="xMidYMid meet">
<g id="layer101" fill="#0230fe" stroke="none">
 <path d="M149 2582 c-96 -50 -145 -141 -137 -252 3 -41 102 -316 402 -1114 218 -583 403 -1071 411 -1085 7 -14 31 -43 52 -63 70 -68 69 -68 497 -68 l384 0 53 28 c34 17 64 44 85 72 19 28 119 271 260 634 l229 590 5 -565 c6 -630 3 -604 78 -683 76 -80 35 -76 776 -76 544 0 677 3 763 16 189 28 359 89 468 168 l49 36 15 -46 c18 -58 79 -126 136 -153 43 -20 59 -21 418 -21 l374 0 48 24 48 25 48 -25 48 -24 404 0 403 0 53 27 c55 27 105 84 128 146 6 18 12 82 13 142 l1 110 78 -160 c128 -264 129 -265 481 -265 246 0 257 1 305 24 99 46 150 136 143 253 -3 65 -13 87 -192 455 -103 213 -186 393 -184 401 1 8 55 100 118 205 l114 191 261 -694 c171 -457 271 -709 291 -738 21 -29 50 -53 85 -70 l53 -27 383 0 c427 0 426 0 496 68 21 20 45 48 52 62 7 14 199 502 426 1085 436 1120 435 1117 410 1212 -17 61 -68 123 -130 155 l-53 28 -427 0 c-425 0 -426 0 -476 -24 -99 -46 -92 -32 -316 -633 -68 -183 -126 -333 -129 -333 -4 0 -78 190 -164 423 -102 271 -170 438 -190 467 -20 28 -52 55 -85 72 l-53 28 -522 0 -522 0 -50 -25 c-64 -32 -83 -52 -138 -148 l-44 -77 -22 55 c-33 81 -81 139 -142 169 l-52 26 -403 0 -404 0 -48 -24 -48 -25 -49 25 -49 25 -385 -5 c-212 -2 -394 -4 -405 -4 -11 0 -221 2 -467 4 -438 5 -449 4 -497 -16 -57 -25 -87 -54 -134 -132 l-34 -58 -12 41 c-15 51 -79 122 -135 148 -41 20 -57 21 -863 21 l-821 0 -53 -28 c-30 -15 -67 -46 -84 -68 -20 -26 -82 -181 -190 -471 -88 -237 -163 -429 -166 -425 -4 4 -78 198 -165 432 -106 282 -169 438 -189 464 -17 22 -54 53 -84 68 l-53 28 -263 0 -263 0 -53 -28z m4371 -927 l0 -95 -40 28 c-21 15 -39 30 -40 34 0 8 71 128 76 128 2 0 4 -43 4 -95z"/>
 </g>
<g id="layer102" fill="#feffff" stroke="none">
 <path d="M205 2516 c-66 -30 -109 -95 -108 -166 0 -34 95 -298 402 -1115 248 -661 410 -1078 424 -1093 12 -14 40 -33 62 -43 36 -17 71 -19 388 -19 383 0 389 1 442 61 23 26 109 236 339 829 170 437 313 799 318 805 4 5 8 -343 8 -773 0 -638 3 -789 14 -815 17 -41 66 -83 114 -97 26 -8 231 -10 687 -7 553 3 663 7 735 21 217 42 363 110 475 220 39 39 79 82 88 96 15 24 16 20 17 -85 1 -152 25 -203 113 -240 30 -12 93 -15 372 -15 375 0 379 1 435 68 l34 39 20 -31 c12 -17 41 -41 66 -53 43 -23 50 -23 411 -23 236 0 378 4 396 11 35 13 79 54 101 94 14 25 18 75 22 319 l5 289 148 -314 c82 -173 159 -325 170 -338 50 -54 83 -61 321 -61 204 0 223 2 264 21 62 31 96 86 96 158 1 53 -11 81 -197 460 -108 223 -197 409 -197 414 0 11 326 555 344 574 8 10 81 -174 301 -759 305 -814 309 -824 382 -854 25 -11 110 -14 380 -14 317 0 352 2 388 19 22 10 50 29 62 42 13 14 197 473 439 1094 327 838 417 1080 418 1115 0 57 -32 117 -81 150 l-37 25 -404 3 c-396 3 -405 2 -449 -19 -26 -12 -54 -37 -68 -58 -12 -20 -110 -271 -216 -558 -107 -288 -196 -523 -199 -523 -3 0 -95 240 -205 532 -215 575 -225 596 -304 618 -24 8 -201 10 -527 8 l-490 -3 -40 -26 c-31 -21 -56 -56 -118 -168 -44 -77 -82 -141 -86 -141 -3 0 -35 59 -70 130 -66 132 -102 180 -153 199 -18 7 -161 11 -396 11 -361 0 -368 0 -411 -22 -25 -13 -54 -37 -66 -54 l-20 -31 -34 39 c-56 68 -59 68 -437 68 -304 0 -342 -2 -378 -19 -39 -17 -41 -17 -82 1 -39 17 -71 18 -456 16 l-413 -3 -40 -26 c-32 -22 -57 -59 -144 -217 -58 -106 -108 -192 -112 -192 -4 0 -8 73 -10 163 -3 163 -3 164 -32 202 -16 20 -48 46 -72 57 -41 18 -65 18 -401 14 -197 -2 -365 -4 -373 -4 -8 0 -199 2 -424 4 -401 5 -409 4 -452 -17 -30 -14 -52 -35 -68 -62 -14 -23 -111 -275 -217 -560 -106 -285 -196 -514 -200 -510 -4 5 -96 244 -204 533 -109 289 -206 537 -216 552 -11 14 -39 36 -62 47 -40 19 -60 21 -273 21 -169 -1 -237 -4 -259 -14z m725 -893 c150 -401 278 -738 284 -750 9 -18 51 85 286 718 151 407 278 745 281 750 3 6 145 8 361 7 l356 -3 -406 -1042 -406 -1043 -316 0 -315 0 -391 1045 -391 1045 192 0 192 0 273 -727z m2350 240 c0 -304 4 -483 9 -478 6 6 125 221 267 480 141 259 260 473 263 478 4 4 172 6 374 5 l368 -3 -256 -423 c-140 -233 -255 -427 -255 -431 0 -4 27 -12 59 -19 153 -32 301 -147 366 -284 87 -183 87 -423 1 -604 -83 -174 -265 -278 -551 -313 -56 -7 -311 -11 -677 -11 l-588 0 0 1045 0 1045 310 0 310 0 0 -487z m2120 -558 l0 -1045 -305 0 -305 0 0 1045 0 1045 305 0 305 0 0 -1045z m1130 770 c73 -151 136 -275 139 -275 3 0 75 124 159 275 l154 275 452 0 452 0 280 -745 c153 -410 281 -745 284 -745 3 0 130 334 282 743 l277 742 359 3 360 2 -79 -202 c-43 -112 -226 -582 -407 -1045 l-327 -843 -316 0 -315 0 -349 931 c-192 512 -352 932 -355 934 -4 2 -201 -321 -577 -945 l-22 -36 146 -300 c80 -164 176 -363 213 -441 l69 -143 -187 0 -187 0 -315 665 -315 665 -3 -665 -2 -665 -335 0 -335 0 0 1045 0 1045 333 0 333 0 134 -275z m-1921 -377 c0 -347 -1 -371 -16 -348 -31 48 -178 185 -226 210 -26 14 -47 28 -47 32 0 8 281 478 286 478 2 0 4 -168 3 -372z"/>
 <path d="M3280 825 l0 -388 108 6 c220 13 386 85 458 199 36 57 58 151 50 221 -21 205 -199 327 -503 344 l-113 6 0 -388z"/>
 </g>

</svg>