<?xml version="1.0" encoding="UTF-8" standalone="no"?>
<!-- Generator: Adobe Illustrator 21.0.2, SVG Export Plug-In . SVG Version: 6.00 Build 0)  -->

<svg
   xmlns:dc="http://purl.org/dc/elements/1.1/"
   xmlns:cc="http://creativecommons.org/ns#"
   xmlns:rdf="http://www.w3.org/1999/02/22-rdf-syntax-ns#"
   xmlns:svg="http://www.w3.org/2000/svg"
   xmlns="http://www.w3.org/2000/svg"
   xmlns:sodipodi="http://sodipodi.sourceforge.net/DTD/sodipodi-0.dtd"
   xmlns:inkscape="http://www.inkscape.org/namespaces/inkscape"
   version="1.1"
   id="Layer_1"
   x="0px"
   y="0px"
   viewBox="0 0 300 35.271999"
   xml:space="preserve"
   inkscape:version="0.91 r13725"
   sodipodi:docname="avalanche-WB-lockup.svg"
   width="300"
   height="35.271999"><metadata
     id="metadata106"><rdf:RDF><cc:Work
         rdf:about=""><dc:format>image/svg+xml</dc:format><dc:type
           rdf:resource="http://purl.org/dc/dcmitype/StillImage" /><dc:title>avalanche-WB-locup</dc:title></cc:Work></rdf:RDF></metadata><defs
     id="defs104" /><sodipodi:namedview
     pagecolor="#ffffff"
     bordercolor="#666666"
     borderopacity="1"
     objecttolerance="10"
     gridtolerance="10"
     guidetolerance="10"
     inkscape:pageopacity="0"
     inkscape:pageshadow="2"
     inkscape:window-width="1920"
     inkscape:window-height="1017"
     id="namedview102"
     showgrid="false"
     inkscape:zoom="1.5151515"
     inkscape:cx="115.5"
     inkscape:cy="27"
     inkscape:window-x="-8"
     inkscape:window-y="-6"
     inkscape:window-maximized="1"
     inkscape:current-layer="Layer_1" /><style
     type="text/css"
     id="style3">
	.st0{fill:#FFFFFF;}
	.st1{fill:#2977BD;}
	.st2{fill-rule:evenodd;clip-rule:evenodd;fill:#231F20;}
	.st3{fill:#231F20;}
	.st4{fill:#FFFFFE;}
	.st5{fill-rule:evenodd;clip-rule:evenodd;fill:#FFFFFE;}
</style><title
     id="title5">avalanche-WB-locup</title><desc
     id="desc7">Created with Sketch.</desc><g
     id="Group"
     transform="matrix(1.8761726,0,0,1.8761726,1740.7129,2557.9737)"><path
       style="fill:#000000"
       inkscape:connector-curvature="0"
       d="m -914.6,-1351.7 -5.7,0 2.9,-7.1 2.8,7.1 z m -0.4,-11.4 -5,0 -7.8,18.2 4.7,0 1.5,-3.6 8.3,0 1.5,3.6 4.8,0 -8,-18.2 z"
       class="st0"
       id="Shape" /><path
       style="fill:#000000"
       inkscape:connector-curvature="0"
       d="m -884.8,-1351.7 -5.7,0 2.9,-7.1 2.8,7.1 z m -0.4,-11.4 -5,0 -7.8,18.2 4.7,0 1.5,-3.6 8.3,0 1.5,3.6 4.8,0 -8,-18.2 z"
       class="st0"
       id="Shape_1_" /><path
       style="fill:#000000"
       inkscape:connector-curvature="0"
       d="m -849,-1351.7 -5.7,0 2.9,-7.1 2.8,7.1 z m -0.4,-11.4 -5,0 -7.8,18.2 4.7,0 1.5,-3.6 8.3,0 1.5,3.6 4.8,0 -8,-18.2 z"
       class="st0"
       id="Shape_2_" /><polygon
       style="fill:#000000"
       points="-875.9,-1363.1 -871.6,-1363.1 -871.6,-1348.2 -862.5,-1348.2 -863.9,-1344.9 -875.9,-1344.9 "
       class="st0"
       id="Shape_3_" /><polygon
       style="fill:#000000"
       points="-822.9,-1344.9 -826.5,-1344.9 -836.1,-1356.6 -836.1,-1344.9 -840.4,-1344.9 -840.4,-1363.1 -836.5,-1363.1 -827.2,-1352 -827.2,-1363.1 -822.9,-1363.1 "
       class="st0"
       id="Shape_4_" /><path
       style="fill:#000000"
       inkscape:connector-curvature="0"
       d="m -804.3,-1346.5 c -2.4,1.3 -4.2,1.8 -6.8,1.8 -6.7,0 -10.1,-4.6 -10.1,-9.3 0,-4.9 3.8,-9.4 10.4,-9.4 2.4,0 4.6,0.5 6.3,1.6 l 0,4.1 c -1.9,-1.1 -3.8,-1.9 -6,-1.9 -3.7,0 -6.3,2.3 -6.3,5.6 0,3.3 2.6,5.6 6.2,5.6 2.3,0 3.8,-0.7 6.3,-2 l 0,3.9 z"
       class="st0"
       id="Shape_5_" /><polygon
       style="fill:#000000"
       points="-797.5,-1355.8 -788.9,-1355.8 -788.9,-1363.1 -784.6,-1363.1 -784.6,-1344.9 -788.9,-1344.9 -788.9,-1352.3 -797.5,-1352.3 -797.5,-1344.9 -801.8,-1344.9 -801.8,-1363.1 -797.5,-1363.1 "
       class="st0"
       id="Shape_6_" /><polygon
       style="fill:#000000"
       points="-768.4,-1352.6 -778.2,-1352.6 -778.2,-1348.2 -767.9,-1348.2 -767.9,-1344.9 -782.4,-1344.9 -782.4,-1363.1 -768,-1363.1 -768,-1359.8 -778.2,-1359.8 -778.2,-1355.9 -768.4,-1355.9 "
       class="st0"
       id="Shape_7_" /><polygon
       style="fill:#2977bd"
       points="-893.4,-1363.1 -901.4,-1344.6 -903.9,-1344.6 -911.9,-1363.1 -907.1,-1363.1 -902.7,-1352.7 -898.3,-1363.1 "
       class="st1"
       id="Shape_8_" /></g></svg>