<svg height="205.049883" viewBox="0 0 24.910559 10.382386" width="487.686208" xmlns="http://www.w3.org/2000/svg"><g fill="#ed1c24"><path d="m0 0c0 2.162 1.766 3.921 3.937 3.921 2.168 0 3.934-1.759 3.934-3.921 0-2.161-1.766-3.921-3.934-3.921-2.171 0-3.937 1.76-3.937 3.921m-1.012 0c0-2.717 2.219-4.927 4.949-4.927 2.726 0 4.946 2.21 4.946 4.927s-2.22 4.928-4.946 4.928c-2.73 0-4.949-2.211-4.949-4.928" transform="matrix(.35277777 0 0 -.35277777 21.77683 1.74607)"/><path d="m0 0h-5.663v-1.007h2.325v-8.541h1.013v8.541h2.325z" transform="matrix(.35277777 0 0 -.35277777 21.21214 .11603)"/><path d="m0 0v3.479h2.984v1.007h-2.984v3.045h2.984v1.007h-3.993v-9.548h4.448v1.01z" transform="matrix(.35277777 0 0 -.35277777 14.97792 3.1279)"/><path d="m0 0c1.047 0 1.898-.848 1.898-1.891s-.851-1.89-1.898-1.89-1.898.847-1.898 1.89.851 1.891 1.898 1.891m-2.909-2.294v-6.514h1.011v4.651l3.73-4.653 1.289-.002-3.226 4.028c.035-.001.071-.005.105-.005 1.604 0 2.91 1.3 2.91 2.898 0 1.599-1.306 2.898-2.91 2.898s-2.909-1.299-2.909-2.898z" transform="matrix(.35277777 0 0 -.35277777 12.89153 .3756)"/><path d="m0 0c-1.291 0-2.344 1.046-2.344 2.334 0 1.286 1.053 2.333 2.344 2.333 1.294 0 2.344-1.047 2.344-2.333 0-1.288-1.05-2.334-2.344-2.334m-3.354 1.932v-6.113h1.01v4.128c.606-.59 1.433-.954 2.344-.954 1.85 0 3.356 1.499 3.356 3.341 0 1.841-1.506 3.34-3.356 3.34s-3.354-1.499-3.354-3.34z" transform="matrix(.35277777 0 0 -.35277777 10.04662 2.00946)"/><path d="m0 0 1.698-.002c1.061 0 1.924-.864 1.924-1.927s-.863-1.929-1.924-1.929h-1.7zm.006 2.498c.008.394.188.783.473 1.057.284.275.661.422 1.057.416.395-.008.766-.167 1.04-.45.277-.285.423-.658.415-1.052-.012-.774-.68-1.419-1.474-1.449h-1.514zm1.692-7.362c1.627 0 2.949 1.324 2.949 2.945 0 1.091-.6 2.043-1.49 2.55.517.449.848 1.094.861 1.82.012.667-.239 1.299-.705 1.779-.464.48-1.09.751-1.761.762-.669.011-1.303-.238-1.786-.702-.483-.463-.754-1.087-.764-1.754l-.004-7.399z" transform="matrix(.35277777 0 0 -.35277777 .35348 1.76847)"/><path d="m0 0c0-.956.433-2.179 2.498-2.584 1.405-.273 2.073-.605 2.073-1.746 0-1.079-.881-1.955-1.966-1.955-.82 0-1.561.515-1.842 1.282l-.939-.345c.426-1.157 1.544-1.934 2.781-1.934 1.638 0 2.965 1.324 2.965 2.952 0 2.162-1.874 2.528-2.88 2.725-1.514.296-1.688 1.058-1.688 1.605 0 .881.719 1.599 1.603 1.599.781 0 1.303-.803 1.446-1.049l.867.495c-.208.365-.992 1.55-2.313 1.55-1.437 0-2.605-1.163-2.605-2.595" transform="matrix(.35277777 0 0 -.35277777 16.90338 .91546)"/><path d="m0 0v1.7c0 2.392 1.888 2.461 2.102 2.461s2.105-.069 2.105-2.461v-1.7zm2.102 5.168c-1.077 0-3.115-.725-3.115-3.468v-6.386h1.013v3.68h4.207v-3.68h1.011v6.386c0 2.743-2.038 3.468-3.116 3.468" transform="matrix(.35277777 0 0 -.35277777 3.04447 1.83134)"/><path d="m0 0v-6.385h1.013v6.385c0 2.392 2.095 2.461 2.336 2.461.24 0 2.341-.069 2.341-2.461v-6.385h1.011v6.385c0 2.744-2.193 3.469-3.352 3.469s-3.349-.725-3.349-3.469" transform="matrix(.35277777 0 0 -.35277777 5.70992 1.23172)"/></g><path d="m0 0h-10.921c0-3.752 3.186-5.162 5.158-5.162s4.952 1.41 5.763 5.162m-28.769-5.162c1.973 0 5.159 1.41 5.159 5.162h-10.921c.81-3.752 3.791-5.162 5.762-5.162m9.051-3.323-4.726-5.036-21.337 9.895v7.025h28.515 28.516v-7.025l-21.337-9.895-4.726 5.036c-.733.831-1.391 1.259-2.453 1.259-1.061 0-1.719-.428-2.452-1.259" fill="#231f20" transform="matrix(.35277777 0 0 -.35277777 18.45225 5.61248)"/></svg>