<svg height="193.783599" viewBox="0 0 541.86664 203.59193" width="516.039543" xmlns="http://www.w3.org/2000/svg" xmlns:xlink="http://www.w3.org/1999/xlink"><clipPath id="a"><path clip-rule="evenodd" d="m41.45 359.24h209.76v-35.76h-209.76z"/></clipPath><clipPath id="b"><path d="m-2 730h518v-731h-518z"/></clipPath><clipPath id="c"><path d="m.03 727.98h514.98v-727.98h-514.98z"/></clipPath><g clip-path="url(#a)" transform="matrix(7.9160128 0 0 -7.9160128 -333.24039 2820.285376)"><g clip-path="url(#b)"><g clip-path="url(#c)"><path d="m57.813 342.666c-.03-.109-.045-.223-.045-.336 0-.243.069-.479.201-.683.195-.301.51-.506.864-.561l.099-.015c.25-.039.449-.223.511-.469.012-.05.018-.1.018-.15 0-.195-.094-.384-.255-.505-.929-.696-1.549-1.55-1.843-2.54-.071-.238-.291-.385-.537-.418-.246-.032-.504.11-.634.322l.024-.038c-.19.279-.488.473-.82.533l-3.299.591c-.049.009-.261.001-.33-.006-.563-.05-1.015-.444-1.125-.98-.187-.914-.307-1.22-.468-1.394-.268-.288-.92-.497-1.202-.013-.244.417-.616 1.37-.616 3.001 0 1.632.291 2.643.616 3.002.388.427.942.174.942.174.15-.024.541-.39.729-1.56.087-.538.563-.926 1.124-.976.067-.006.26-.019.302-.011l3.318.569c.334.057.635.25.826.53.143.211.219.456.219.71l-.025.253c-.729 3.551-3.408 5.757-6.993 5.757-4.804 0-7.317-4.249-7.317-8.448 0-4.198 2.513-8.448 7.317-8.448 3.141 0 5.555 1.629 6.623 4.467.099.265.364.431.646.405s.512-.237.561-.516c.467-2.605 2.676-4.356 5.499-4.356 1.09 0 1.972.2 2.859.647.22.111.483.083.675-.069.162-.129.428-.282.778-.282h3.547c.437 0 .835.221 1.067.592.232.37.255.826.063 1.219-.306.626-.368 1.355-.368 2.327v6.846c0 1.318-.481 5.616-6.674 5.616-3.786 0-5.971-1.521-6.877-4.787" fill="#fff"/><path d="m96.503 342.666v-.001c-.03-.109-.046-.222-.046-.335 0-.243.07-.479.202-.683.194-.301.509-.506.864-.561l.096-.014c.249-.039.451-.224.512-.47s-.033-.504-.236-.655c-1.381-1.034-2.053-2.357-2.053-4.044 0-3.048 2.404-5.346 5.592-5.346 1.088 0 1.97.2 2.858.647.219.111.483.083.675-.069.161-.129.427-.282.777-.282h3.546c.436 0 .835.221 1.067.591.231.37.255.826.064 1.218-.304.625-.366 1.354-.366 2.329v6.846c0 1.318-.481 5.616-6.675 5.616-3.788 0-5.972-1.521-6.877-4.787" fill="#fff"/><path d="m85.087 350.345c0-.801.158-1.579.47-2.312.083-.194.063-.417-.054-.593-.116-.176-.313-.282-.524-.282h-3.139c-.584 0-1.088-.397-1.224-.966l-.572-2.391c-.068-.282-.32-.482-.61-.482-.291-.001-.544.197-.613.479l-.587 2.4c-.138.565-.641.96-1.222.96h-3.815c-.399 0-.777-.192-1.014-.513-.236-.32-.306-.739-.188-1.119l4.285-13.788c.164-.529.647-.885 1.201-.885h3.84c.559 0 1.043.359 1.204.894l4.065 13.463c.06.197.206.356.402.42.195.064.404.032.568-.092l.123-.091c.157-.119.274-.322.274-.52v-12.816c0-.693.564-1.258 1.258-1.258h3.646c.694 0 1.258.565 1.258 1.258v12.843c0 .206.101.399.271.516 1.603 1.113 2.561 2.935 2.561 4.875 0 3.271-2.66 5.931-5.929 5.931-3.272 0-5.935-2.66-5.935-5.931" fill="#fff"/><path d="m95.693 350.345c0-2.583-2.092-4.673-4.671-4.673-2.583 0-4.676 2.09-4.676 4.673 0 2.58 2.093 4.673 4.676 4.673 2.579 0 4.671-2.093 4.671-4.673" fill="#de3345"/><g fill="#262121"><path d="m55.174 336.568c-.591-2.882-2.684-4.753-5.76-4.753-4.015 0-6.059 3.545-6.059 7.19 0 3.67 2.02 7.19 6.059 7.19 3.076 0 5.169-1.87 5.76-4.752l-3.299-.566c-.272 1.305-.615 2.634-2.461 2.634-1.971 0-2.316-2.783-2.316-4.506 0-1.724.345-4.505 2.316-4.505 1.846 0 2.189 1.328 2.461 2.659z"/><path d="m66.464 336.297c-.69-.912-1.725-1.797-3.225-1.797-.863 0-1.257.664-1.257 1.476 0 2.02 2.98 2.166 4.482 2.438zm.591-4.186h3.547c-.445.911-.496 1.896-.496 2.88v6.846c0 2.586-1.699 4.358-5.416 4.358-2.881 0-4.852-.935-5.664-3.865l3.497-.542c.196 1.206 1.036 1.723 2.191 1.723 1.355 0 1.996-.69 1.75-2.61-2.932-.319-8.053-1.107-8.053-4.998 0-2.463 1.945-4.088 4.332-4.088 1.75 0 2.562.592 3.918 1.55z"/><path d="m81.321 332.111h-3.84l-4.284 13.788h3.815l2.414-9.874h.049l2.365 9.874h3.644z"/><path d="m105.152 336.297c-.689-.912-1.722-1.797-3.225-1.797-.862 0-1.256.664-1.256 1.476 0 2.02 2.98 2.166 4.481 2.438zm.592-4.186h3.546c-.444.911-.493 1.896-.493 2.88v6.846c0 2.587-1.698 4.358-5.417 4.358-2.882 0-4.852-.935-5.664-3.865l3.497-.542c.196 1.206 1.035 1.723 2.19 1.723 1.356 0 1.995-.69 1.749-2.61-2.93-.319-8.052-1.107-8.052-4.998 0-2.463 1.945-4.088 4.334-4.088 1.748 0 2.56.592 3.916 1.55z"/><path d="m91.022 345.672c-.641 0-1.251.129-1.807.362v-13.923h3.646v13.938c-.565-.242-1.186-.377-1.839-.377"/><path d="m93.091 350.345c0-1.143-.927-2.069-2.069-2.069-1.144 0-2.073.926-2.073 2.069 0 1.142.929 2.069 2.073 2.069 1.142 0 2.069-.927 2.069-2.069"/></g></g></g></g></svg>