<?xml version="1.0" encoding="UTF-8" standalone="no"?>
<svg
   xmlns:dc="http://purl.org/dc/elements/1.1/"
   xmlns:cc="http://creativecommons.org/ns#"
   xmlns:rdf="http://www.w3.org/1999/02/22-rdf-syntax-ns#"
   xmlns:svg="http://www.w3.org/2000/svg"
   xmlns="http://www.w3.org/2000/svg"
   id="svg118"
   version="1.1"
   width="315.561"
   height="300">
  <metadata
     id="metadata122">
    <rdf:RDF>
      <cc:Work
         rdf:about="">
        <dc:format>image/svg+xml</dc:format>
        <dc:type
           rdf:resource="http://purl.org/dc/dcmitype/StillImage" />
        <dc:title></dc:title>
      </cc:Work>
    </rdf:RDF>
  </metadata>
  <defs
     id="defs116" />
  <g
     transform="matrix(8.3838684,0,0,8.3838684,-3367.4842,-162.73923)"
     id="g373">
    <path
       transform="matrix(0.400412,0,0,0.400398,418.35646,32.647631)"
       d="M 22.65,-0.5 Q 16.6,4.35 7.35,6.9 -1.65,9.35 -10,8.65 -18.8,7.9 -23.35,3.8 q -9.8,-8.75 -5.25,-16.6 3.9,-6.65 15.9,-9.9 11.6,-3.15 20.75,-0.7 10.25,2.8 9.45,11.2 -0.3,3.4 -3.9,6.4 -3.25,2.8 -8.25,4.5 -4.9,1.7 -9.4,1.75 -4.75,0.05 -7.15,-1.8 -4.1,-3.2 -2.8,-6.8 1.15,-3 5.35,-5.05 3.95,-2 6.85,-1.35 3.2,0.65 1.95,4.35 -2.15,-1.05 -4.6,-0.35 -2.1,0.65 -3.5,2.2 -1.4,1.6 -1.05,2.95 0.45,1.55 3.05,1.95 5,0.8 11.05,-1.3 6.6,-2.3 8.55,-6.5 2.25,-4.85 -5.6,-7.15 -7.35,-2.15 -16.95,-0.7 -10.3,1.55 -13.95,6.2 -4.35,5.6 3.35,13.55 3.95,4.15 12.35,4.45 7.95,0.3 16,-2.75 8.35,-3.25 12.3,-8.5 4.5,-5.95 1.6,-12.7 -2.6,-6.05 -9.1,-8.1 -4.8,-1.45 -13.05,-1 l -12.4,0.75 q -5.95,-0.05 -7.35,-2.75 4.75,-2.45 13.2,-3 8.65,-0.5 16.75,1.3 9.05,2.05 14.05,6.5 5.8,5.15 5.1,12.6 -0.6,6.65 -7.3,12.05"
       id="path282"
       style="fill:#003990;fill-rule:evenodd;stroke:none" />
    <path
       transform="matrix(0.400412,0,0,0.400398,418.35646,32.647631)"
       d="m -11.7,33.55 q -1.85,-1.45 -1.15,-2.55 4.1,-6.2 5.6,-9.7 2.65,-6.4 0.8,-10.8 6.25,-0.3 3.7,9.35 -1.95,7.3 -6.15,13.75 l -2.8,-0.05"
       id="path284"
       style="fill:#003990;fill-rule:evenodd;stroke:none" />
    <path
       transform="matrix(0.400412,0,0,0.400398,418.35646,32.647631)"
       d="M 3.5,8.7 Q 3.7,21.8 7.8,28 8.45,29.15 7.2,30.7 6,32.2 5.1,30.95 1.65,25.7 0.45,19.05 -0.95,10.9 3.5,8.7"
       id="path286"
       style="fill:#003990;fill-rule:evenodd;stroke:none" />
    <path
       transform="matrix(0.485903,0,0,0.474983,418.23752,55.051505)"
       d="m -21.3,-8.7 -1.5,1.35 q -1.5,-1.55 -3.45,-1.55 -1.6,0 -2.75,1.05 -1.1,1.05 -1.1,2.55 0,1.05 0.5,1.9 0.5,0.8 1.4,1.3 0.9,0.45 2,0.45 0.9,0 1.7,-0.35 0.8,-0.3 1.7,-1.15 l 1.5,1.4 q -1.3,1.15 -2.4,1.6 l -2.55,0.4 q -2.65,0.05 -4.35,-1.55 -1.65,-1.55 -1.65,-4 0,-1.6 0.75,-2.85 0.8,-1.2 2.2,-1.95 1.45,-0.75 3.1,-0.75 1.4,0 2.7,0.55 1.3,0.55 2.2,1.6"
       id="path264"
       style="fill:#003990;fill-rule:evenodd;stroke:none" />
    <path
       transform="matrix(0.485903,0,0,0.474983,418.23752,55.051505)"
       d="m -13.45,-10.85 q 2.4,0 4.15,1.65 1.7,1.65 1.7,3.95 0,2.35 -1.7,3.9 -1.7,1.65 -4.15,1.65 -2.55,0 -4.25,-1.65 -1.65,-1.65 -1.65,-3.9 0,-1.55 0.8,-2.85 0.75,-1.25 2.15,-2 1.35,-0.75 2.95,-0.75 m 2.65,3 q -1.15,-1.05 -2.7,-1.05 -1.55,0 -2.6,1 -1.1,1.05 -1.1,2.65 0,1.75 1.35,2.8 1.05,0.8 2.4,0.8 1.55,0 2.65,-1.05 1.05,-1.05 1.05,-2.55 0,-1.55 -1.05,-2.6"
       id="path266"
       style="fill:#003990;fill-rule:evenodd;stroke:none" />
    <path
       transform="matrix(0.485903,0,0,0.474983,418.23752,55.051505)"
       d="M 0.7,-10.5 H 3.5 L -0.75,-5.75 3.9,0.1 H 1.15 L -2.6,-4.65 V 0.1 h -2.3 v -10.6 h 2.3 v 3.65 l 3.3,-3.65"
       id="path268"
       style="fill:#003990;fill-rule:evenodd;stroke:none" />
    <path
       transform="matrix(0.485903,0,0,0.474983,418.23752,55.051505)"
       d="m 6.1,-10.5 h 8.55 v 2 h -3.2 V 0.1 H 9.25 V -8.5 H 6.1 v -2"
       id="path270"
       style="fill:#003990;fill-rule:evenodd;stroke:none" />
    <path
       transform="matrix(0.485903,0,0,0.474983,418.23752,55.051505)"
       d="m 25.1,-4.65 h -5.15 v 2.75 h 5.15 v 2 h -7.3 v -10.6 h 7.3 v 1.95 h -5.15 v 1.95 h 5.15 v 1.95"
       id="path272"
       style="fill:#003990;fill-rule:evenodd;stroke:none" />
    <path
       transform="matrix(0.485903,0,0,0.474983,418.23752,55.051505)"
       d="M 28.85,-10.5 H 31 v 8.7 h 5.4 v 1.9 h -7.55 v -10.6"
       id="path274"
       style="fill:#003990;fill-rule:evenodd;stroke:none" />
    <path
       transform="matrix(0.485903,0,0,0.474983,418.23752,55.051505)"
       d="M -33.25,-15 H 37.7"
       id="path276"
       style="fill:none;stroke:#003990;stroke-width:1.70000005;stroke-linecap:round;stroke-linejoin:round" />
    <path
       transform="matrix(0.485903,0,0,0.474983,418.23752,55.051505)"
       d="m 40.8,-9.95 q -0.85,0 -1.45,0.6 -0.6,0.55 -0.6,1.4 0,0.55 0.3,1 0.25,0.45 0.75,0.75 l 1,0.25 1,-0.25 0.75,-0.75 0.25,-1 q 0,-0.8 -0.6,-1.4 -0.55,-0.6 -1.4,-0.6 m 1.05,1 0.1,0.45 -0.05,0.3 -0.25,0.3 0.15,0.2 0.1,0.35 0.05,0.65 0.15,0.15 H 41.35 L 41.3,-6.75 V -7 l -0.05,-0.45 -0.1,-0.15 h -0.3 -0.5 v 1.05 h -0.6 v -2.8 h 1.2 l 0.6,0.1 0.3,0.3 m 1.15,-0.3 0.35,1.3 q 0,0.7 -0.35,1.3 l -0.9,0.9 q -0.6,0.35 -1.3,0.35 -0.7,0 -1.25,-0.35 l -0.95,-0.9 q -0.35,-0.6 -0.35,-1.3 0,-0.7 0.35,-1.3 l 0.95,-0.9 1.25,-0.3 1.3,0.3 0.9,0.9 m -1.65,0.8 -0.1,-0.25 -0.4,-0.1 h -0.5 v 0.65 h 0.5 l 0.4,-0.05 0.1,-0.25"
       id="path278"
       style="fill:#003990;fill-rule:evenodd;stroke:none" />
  </g>
</svg>
