<?xml version="1.0" encoding="UTF-8" standalone="no"?>
<!-- Created with Inkscape (http://www.inkscape.org/) -->

<svg
   xmlns:dc="http://purl.org/dc/elements/1.1/"
   xmlns:cc="http://creativecommons.org/ns#"
   xmlns:rdf="http://www.w3.org/1999/02/22-rdf-syntax-ns#"
   xmlns:svg="http://www.w3.org/2000/svg"
   xmlns="http://www.w3.org/2000/svg"
   xmlns:sodipodi="http://sodipodi.sourceforge.net/DTD/sodipodi-0.dtd"
   xmlns:inkscape="http://www.inkscape.org/namespaces/inkscape"
   width="300.5"
   height="134"
   id="svg18540"
   version="1.1"
   inkscape:version="0.47 r22583"
   sodipodi:docname="Epyx.svg">
  <defs
     id="defs18542">
    <inkscape:perspective
       sodipodi:type="inkscape:persp3d"
       inkscape:vp_x="0 : 526.18109 : 1"
       inkscape:vp_y="0 : 1000 : 0"
       inkscape:vp_z="744.09448 : 526.18109 : 1"
       inkscape:persp3d-origin="372.04724 : 350.78739 : 1"
       id="perspective18548" />
    <inkscape:perspective
       id="perspective18558"
       inkscape:persp3d-origin="0.5 : 0.33333333 : 1"
       inkscape:vp_z="1 : 0.5 : 1"
       inkscape:vp_y="0 : 1000 : 0"
       inkscape:vp_x="0 : 0.5 : 1"
       sodipodi:type="inkscape:persp3d" />
    <inkscape:perspective
       id="perspective19397"
       inkscape:persp3d-origin="0.5 : 0.33333333 : 1"
       inkscape:vp_z="1 : 0.5 : 1"
       inkscape:vp_y="0 : 1000 : 0"
       inkscape:vp_x="0 : 0.5 : 1"
       sodipodi:type="inkscape:persp3d" />
  </defs>
  <sodipodi:namedview
     id="base"
     pagecolor="#ffffff"
     bordercolor="#666666"
     borderopacity="1.0"
     inkscape:pageopacity="0.0"
     inkscape:pageshadow="2"
     inkscape:zoom="1.4142136"
     inkscape:cx="190.88516"
     inkscape:cy="58.965445"
     inkscape:document-units="px"
     inkscape:current-layer="layer1"
     showgrid="false"
     showguides="true"
     inkscape:guide-bbox="true"
     inkscape:window-width="1366"
     inkscape:window-height="706"
     inkscape:window-x="-8"
     inkscape:window-y="-8"
     inkscape:window-maximized="1" />
  <metadata
     id="metadata18545">
    <rdf:RDF>
      <cc:Work
         rdf:about="">
        <dc:format>image/svg+xml</dc:format>
        <dc:type
           rdf:resource="http://purl.org/dc/dcmitype/StillImage" />
      </cc:Work>
    </rdf:RDF>
  </metadata>
  <g
     inkscape:label="Layer 1"
     inkscape:groupmode="layer"
     id="layer1"
     transform="translate(-135.5,-447.78589)">
    <path
       style="fill:#000000;fill-opacity:1;fill-rule:nonzero;stroke:none"
       d="m 135.5,447.78589 300.5,0 0,134 -300.5,0 0,-134 z"
       id="rect19416" />
    <path
       style="color:#000000;fill:#ffffff;stroke:none;stroke-width:1px;marker:none;visibility:visible;display:inline;overflow:visible;enable-background:accumulate"
       d="m 226.875,465.4466 -62.76786,0 c 0.39419,1.3202 1.32902,2.48592 0.98215,4.01785 -7.71526,20.5368 -23.60452,47.29073 -24.46429,59.73215 0.0927,5.60898 3.67565,8.06543 8.97321,8.97321 l 41.02679,0 c 3.38047,0.21159 5.93146,-1.48626 7.00305,-4.04321 l 5.22012,-12.78622 c -0.86701,0.76859 -2.64628,0.9627 -4.00888,1.0705 l -36.07143,0 c 0.12887,-5.68955 3.8969,-12.15397 6.96428,-12.76786 l 34.55357,0 c 6.17862,-0.1824 7.93769,-8.51263 10.44643,-13.66071 0.46018,-3.13013 -2.40278,-2.4497 -4.10714,-2.56697 l -33.66071,-0.0223 c -2.39193,0.021 -1.77467,-0.6809 -1.1794,-2.04278 l 4.36104,-8.35713 c 1.18665,-2.0372 2.61757,-0.98093 4.61947,-1.23778 l 32.28817,0 c 7.76348,-2.64734 9.01923,-10.9893 9.82143,-16.30873 l 0,-2e-5 z"
       id="path18564"
       sodipodi:nodetypes="ccccccccccccccccccccc" />
    <path
       style="color:#000000;fill:#ffffff;stroke:none;stroke-width:1px;marker:none;visibility:visible;display:inline;overflow:visible;enable-background:accumulate"
       d="m 232.65625,465.7362 c 1.26151,1.10018 2.42817,2.2036 1.875,3.46875 l -38.375,88.8125 c -0.84105,2.02596 -0.81129,3.2943 -0.15625,4.625 0.79316,1.28725 2.1401,1.74977 3.5625,1.84375 l 17.1875,0 c -1.0778,-1.4868 -1.98773,-2.9496 -1.40625,-4.1875 l 9.46875,-20.96875 30.75,0 c 6.88402,-0.75412 11.90734,-6.5531 15.21875,-11.9375 3.51432,-6.51851 6.36041,-12.53597 9.21875,-18.5625 2.79905,-7.18131 5.69326,-14.1289 7.84375,-23.09375 2.76637,-12.80402 -7.25713,-19.8921 -14.59375,-20 l -40.59375,0 z m 18.3125,16.65625 12.125,0 c 3.91713,0.095 5.33749,3.30339 4.09375,7.125 -3.0508,7.45032 -5.17706,15.48422 -9.15625,22.34375 -2.75939,4.7411 -5.79293,10.25839 -11.9375,10.375 l -10.96875,0 c -3.34159,0.19724 -3.01778,-1.3913 -2.34375,-3.09375 l 15.53125,-35.1875 c 0.59711,-1.21917 1.55618,-1.5585 2.65625,-1.5625 z"
       id="path19338" />
    <path
       style="color:#000000;fill:#ffffff;stroke:none;stroke-width:1px;marker:none;visibility:visible;display:inline;overflow:visible;enable-background:accumulate"
       d="m 287.1875,465.22338 c 0.87927,1.87797 1.81856,3.73593 2.35607,5.72782 l 7.94737,38.60254 c 0.21147,1.31326 0.3861,2.9924 -0.0631,3.52678 l -18.44198,21.25 c -1.83052,2.27682 -0.7491,5.13868 1.32667,4.95536 l 24.59822,0 c -0.93931,-1.13342 -2.96176,-2.78053 -2.02742,-4.37368 l 51.8042,-58.8406 9.33036,21.11607 c 0.46592,0.87707 0.623,2.31885 0,3.08035 l -33.125,34.41965 c -1.46718,1.59189 -0.73309,5.40854 1.2885,5.40854 l 25.72043,-0.15784 c -2.29149,-1.13503 -1.98725,-4.27392 -1.33518,-5.24042 l 15.08518,-15.50135 9.30103,19.09407 c 0.94601,1.37456 2.85252,2.00693 5.65042,1.95049 l 15.04855,-0.0178 -14.46429,-34.375 c -0.45341,-0.9604 -0.5546,-1.89146 0,-2.76786 l 31.96429,-33.57142 c 1.5203,-2.55578 -0.93621,-4.0625 -4.0625,-4.0625 l -22.54465,0 c 1.70971,1.04433 2.50149,3.93394 1.61705,5.3207 l -12.37729,12.21945 c -1.14426,1.07197 -2.23023,1.58036 -3.12368,0.2277 l -6.875,-15.49107 c -1.38468,-2.29481 -3.41171,-2.59499 -5.58036,-2.45536 l -32.41072,0 c 1.03899,1.77238 1.68747,3.21448 0.34822,4.82143 l -20.40179,23.8259 -5.125,-24.00447 c -0.27675,-3.6357 -3.53519,-4.70535 -7.23214,-4.59821 l -14.19643,-0.0893 -3e-5,3e-5 z"
       id="path19342"
       sodipodi:nodetypes="cccccccccccccccccccccccccccccccccccc" />
    <path
       style="color:#000000;fill:#ffffff;stroke:none;stroke-width:1px;marker:none;visibility:visible;display:inline;overflow:visible;enable-background:accumulate"
       d="m 409.72418,532.23009 6.36397,0 0,2.00821 -2.05503,0 0,6.14561 -2.3202,0 0,-5.95205 -1.94454,0 -0.0442,-2.20177 z"
       id="path19350" />
    <path
       style="color:#000000;fill:#ffffff;stroke:none;stroke-width:1px;marker:none;visibility:visible;display:inline;overflow:visible;enable-background:accumulate"
       d="m 417.72333,532.1638 0,8.22011 1.98874,0 0,-3.66811 2.11779,3.66811 1.63871,0 1.94052,-3.36108 0,3.36108 2.56729,0 0,-8.26431 -3.09359,0 -1.96775,3.40824 -1.96774,-3.40824 -3.22397,0.0442 z"
       id="path19356" />
    <g
       transform="matrix(0.99713874,0,-0.3897072,1.0028695,0,0)"
       style="font-size:18.58863831px;font-style:normal;font-variant:normal;font-weight:bold;font-stretch:normal;text-align:start;line-height:125%;writing-mode:lr-tb;text-anchor:start;fill:#ffffff;fill-opacity:1;stroke:none;font-family:Adobe Gothic Std B;-inkscape-font-specification:Adobe Gothic Std B Bold"
       id="text19418">
      <path
         d="m 452.42844,549.136 c -0.20565,-0.12004 -0.55651,-0.23776 -1.05257,-0.35318 -0.49609,-0.11539 -1.13042,-0.17735 -1.90299,-0.18588 -1.95101,0.001 -3.59299,0.63085 -4.92593,1.88904 -1.33294,1.25822 -2.02691,3.13797 -2.0819,5.63926 0.01,2.15238 0.58515,3.87491 1.7264,5.16757 1.14125,1.29267 2.79019,1.95566 4.94684,1.98896 0.74043,-0.006 1.38328,-0.0635 1.92855,-0.17194 0.54525,-0.10844 0.95574,-0.23081 1.23148,-0.36712 l -0.39036,-2.21202 c -0.28736,0.12276 -0.63744,0.22112 -1.05024,0.29509 -0.41283,0.074 -0.83727,0.11192 -1.27331,0.11385 -1.307,-0.005 -2.33633,-0.42753 -3.088,-1.26866 -0.75167,-0.84112 -1.13506,-2.0726 -1.15015,-3.69444 0.0298,-1.72407 0.44418,-3.00202 1.24309,-3.83386 0.79891,-0.83182 1.80346,-1.24541 3.01365,-1.24077 0.49142,0.004 0.92592,0.0515 1.30351,0.14173 0.37757,0.0902 0.70519,0.1979 0.98286,0.32298 z"
         style=""
         id="path19641" />
      <path
         d="m 459.70797,548.57835 c -1.88866,0.0418 -3.37186,0.74355 -4.4496,2.10513 -1.07774,1.36161 -1.62687,3.13216 -1.64739,5.31164 0.0104,2.11792 0.52395,3.85361 1.54051,5.20707 1.01655,1.35347 2.47341,2.05286 4.3706,2.09817 1.80655,-0.002 3.26341,-0.63433 4.37059,-1.89602 1.10716,-1.26168 1.67643,-3.13911 1.70781,-5.63228 5.6e-4,-1.28845 -0.21538,-2.47466 -0.64784,-3.55865 -0.43248,-1.08397 -1.08491,-1.95624 -1.95729,-2.61683 -0.8724,-0.66057 -1.9682,-0.99998 -3.28739,-1.01823 z m -0.0743,2.24919 c 1.04752,0.0469 1.82436,0.56193 2.33052,1.54516 0.50613,0.98326 0.75785,2.15356 0.75515,3.51089 -0.002,1.47584 -0.26334,2.69726 -0.78536,3.66424 -0.52203,0.96698 -1.295,1.46809 -2.3189,1.50333 -1.01656,-0.0376 -1.7903,-0.53867 -2.32123,-1.50333 -0.53093,-0.96466 -0.79814,-2.16748 -0.80162,-3.60848 -0.004,-1.35965 0.25016,-2.53924 0.76212,-3.53876 0.51195,-0.99951 1.30506,-1.52385 2.37932,-1.57305 z"
         style=""
         id="path19643" />
      <path
         d="m 477.34302,548.80141 -1.6172,5.37204 c -0.24243,0.85818 -0.46859,1.71169 -0.67847,2.56056 -0.2099,0.84887 -0.39889,1.67451 -0.56695,2.4769 l -0.0558,0 c -0.15879,-0.8175 -0.33847,-1.64545 -0.53907,-2.48387 -0.2006,-0.83841 -0.41747,-1.6896 -0.65059,-2.55359 l -1.54284,-5.37204 -3.40167,0 -0.9666,14.29448 2.50943,0 0.27883,-5.50217 c 0.0476,-0.89688 0.0918,-1.84024 0.13244,-2.83008 0.0407,-0.98983 0.0709,-1.94248 0.0906,-2.85797 l 0.0558,0 c 0.16923,0.88412 0.36054,1.78333 0.57392,2.69764 0.21338,0.91433 0.43721,1.78101 0.67151,2.60005 l 1.58001,5.68805 2.0819,0 1.74731,-5.78099 c 0.24474,-0.80936 0.48948,-1.66288 0.73424,-2.56055 0.24474,-0.89766 0.4709,-1.77905 0.67848,-2.6442 l 0.0558,0 c -0.007,0.75168 0.007,1.63695 0.0395,2.65582 0.0329,1.01888 0.0693,2.01104 0.1092,2.97646 l 0.26024,5.55794 2.62096,0 -0.81789,-14.29448 z"
         style=""
         id="path19645" />
      <path
         d="m 486.67547,563.09589 0,-5.35346 c 0.27882,0.0527 0.61341,0.0774 1.00378,0.0743 0.73974,0.0134 1.52389,-0.11049 2.35246,-0.37177 0.82855,-0.26126 1.53835,-0.74043 2.1294,-1.4375 0.59104,-0.69706 0.90015,-1.69257 0.92736,-2.98654 -0.004,-0.6653 -0.12626,-1.27252 -0.36712,-1.82166 -0.24089,-0.54912 -0.57703,-1.00763 -1.00842,-1.37554 -0.45543,-0.38879 -1.02237,-0.67537 -1.70084,-0.85971 -0.67848,-0.18433 -1.46849,-0.27572 -2.37002,-0.27418 -0.78963,0.002 -1.49211,0.0306 -2.10746,0.086 -0.61536,0.0554 -1.1459,0.12587 -1.59163,0.21144 l 0,14.1086 z m 0,-12.15682 c 0.12043,-0.029 0.27921,-0.0546 0.47633,-0.0767 0.19711,-0.0221 0.43489,-0.0337 0.71333,-0.0349 0.77064,0.002 1.37631,0.19829 1.81702,0.59018 0.44069,0.39192 0.6653,0.96971 0.67382,1.73337 -0.006,0.77956 -0.24475,1.39066 -0.71565,1.83328 -0.47091,0.44265 -1.137,0.66803 -1.99825,0.67616 -0.20293,3.9e-4 -0.38262,-0.005 -0.53907,-0.0163 -0.15645,-0.0112 -0.29896,-0.0306 -0.42753,-0.0581 z"
         style=""
         id="path19647" />
      <path
         d="m 502.56143,548.78282 0,8.6436 c -0.007,1.26441 -0.22074,2.18376 -0.6413,2.75806 -0.42057,0.5743 -1.0061,0.857 -1.7566,0.84809 -0.71643,0.007 -1.28648,-0.28076 -1.71013,-0.86203 -0.42367,-0.58127 -0.64053,-1.49598 -0.6506,-2.74412 l 0,-8.6436 -2.75108,0 0,8.40196 c 0.009,2.09274 0.44651,3.63713 1.31281,4.63315 0.86629,0.99603 2.10784,1.49017 3.72465,1.48243 1.63267,0.006 2.90752,-0.49376 3.82456,-1.49869 0.91702,-1.00493 1.38327,-2.55009 1.39878,-4.63548 l 0,-8.38337 z"
         style=""
         id="path19649" />
      <path
         d="m 506.89764,548.80141 0,2.37931 3.51321,0 0,11.91517 2.75108,0 0,-11.91517 3.5318,0 0,-2.37931 z"
         style=""
         id="path19651" />
      <path
         d="m 521.07578,560.79092 0,-3.97791 4.66569,0 0,-2.2492 -4.66569,0 0,-3.45744 4.94451,0 0,-2.30496 -7.6956,0 0,14.29448 7.99302,0 0,-2.30497 z"
         style=""
         id="path19653" />
      <path
         d="m 528.45405,563.09589 2.7325,0 0,-5.79958 0.92942,0 c 0.63974,-0.0143 1.13078,0.15839 1.47313,0.51815 0.34233,0.35977 0.60101,0.99254 0.77606,1.89834 0.17078,0.87172 0.33575,1.60054 0.49492,2.18646 0.15915,0.58592 0.2916,0.9848 0.39733,1.19663 l 2.82543,0 c -0.14058,-0.29432 -0.30091,-0.80705 -0.48097,-1.53819 -0.18009,-0.73115 -0.37294,-1.53199 -0.57857,-2.40255 -0.16266,-0.72688 -0.39501,-1.32713 -0.69706,-1.80076 -0.30207,-0.47361 -0.70172,-0.80897 -1.19895,-1.00609 l 0,-0.0558 c 0.68776,-0.26642 1.264,-0.7048 1.72872,-1.31513 0.4647,-0.61031 0.70635,-1.35539 0.72495,-2.23525 -0.0339,-1.25551 -0.37098,-2.173 -1.01135,-2.75246 -0.64039,-0.57944 -1.38094,-0.94616 -2.22166,-1.10016 -0.84073,-0.15397 -1.57853,-0.22052 -2.2134,-0.19965 -0.70404,0.002 -1.37322,0.0306 -2.00754,0.086 -0.63433,0.0554 -1.19199,0.12587 -1.67296,0.21144 z m 2.7325,-12.19399 c 0.22615,-0.0743 0.64749,-0.11152 1.26401,-0.11153 0.53828,-0.0236 1.0603,0.11193 1.56607,0.40662 0.50575,0.29471 0.77683,0.89032 0.81324,1.78681 -0.007,0.68816 -0.23004,1.23575 -0.66918,1.64275 -0.43916,0.40701 -1.05257,0.61536 -1.84025,0.62503 l -1.13389,0 z"
         style=""
         id="path19655" />
      <path
         d="m 543.25207,562.48247 c 0.35085,0.21222 0.84345,0.39655 1.47778,0.553 0.63432,0.15646 1.3128,0.23855 2.03543,0.2463 1.67256,-0.024 2.95593,-0.43141 3.85012,-1.22219 0.89417,-0.79078 1.34571,-1.82088 1.35463,-3.09032 0.005,-0.93329 -0.26064,-1.74343 -0.79698,-2.43043 -0.53636,-0.68699 -1.37361,-1.28337 -2.51176,-1.78913 -0.86669,-0.38106 -1.49404,-0.73424 -1.88207,-1.05954 -0.38804,-0.32529 -0.57857,-0.73424 -0.5716,-1.22684 -0.003,-0.41552 0.16575,-0.77876 0.50654,-1.08974 0.34078,-0.31096 0.8721,-0.47438 1.59395,-0.49027 0.58708,0.009 1.09516,0.079 1.52425,0.20912 0.42908,0.13013 0.76986,0.26489 1.02236,0.4043 l 0.57624,-2.2492 c -0.33576,-0.17348 -0.76097,-0.32374 -1.27562,-0.45077 -0.51468,-0.12701 -1.11183,-0.19361 -1.79146,-0.19982 -1.55524,0.0263 -2.76193,0.42444 -3.62009,1.1943 -0.85817,0.76988 -1.29345,1.75352 -1.30584,2.95091 0.0109,0.9271 0.32375,1.73105 0.93872,2.41184 0.61496,0.68081 1.46693,1.2524 2.5559,1.71478 0.78574,0.33383 1.36121,0.67926 1.7264,1.03631 0.36518,0.35705 0.54564,0.78613 0.54139,1.28724 -0.002,0.53791 -0.19829,0.96776 -0.59019,1.28957 -0.39191,0.32182 -0.9697,0.48679 -1.73336,0.49492 -0.58632,-0.005 -1.15171,-0.0829 -1.6962,-0.23236 -0.54448,-0.14948 -1.00764,-0.33846 -1.38948,-0.56694 z"
         style=""
         id="path19657" />
      <path
         d="m 559.47668,548.57835 c -1.88867,0.0418 -3.37187,0.74355 -4.4496,2.10513 -1.07774,1.36161 -1.62688,3.13216 -1.6474,5.31164 0.0105,2.11792 0.52396,3.85361 1.54051,5.20707 1.01655,1.35347 2.47342,2.05286 4.3706,2.09817 1.80655,-0.002 3.26342,-0.63433 4.3706,-1.89602 1.10716,-1.26168 1.67643,-3.13911 1.70781,-5.63228 5.6e-4,-1.28845 -0.21539,-2.47466 -0.64784,-3.55865 -0.43248,-1.08397 -1.08491,-1.95624 -1.95729,-2.61683 -0.8724,-0.66057 -1.9682,-0.99998 -3.28739,-1.01823 z m -0.0744,2.24919 c 1.04753,0.0469 1.82437,0.56193 2.33052,1.54516 0.50614,0.98326 0.75786,2.15356 0.75516,3.51089 -0.002,1.47584 -0.26335,2.69726 -0.78536,3.66424 -0.52204,0.96698 -1.295,1.46809 -2.31891,1.50333 -1.01656,-0.0376 -1.7903,-0.53867 -2.32122,-1.50333 -0.53094,-0.96466 -0.79815,-2.16748 -0.80163,-3.60848 -0.004,-1.35965 0.25017,-2.53924 0.76213,-3.53876 0.51195,-0.99951 1.30505,-1.52385 2.37931,-1.57305 z"
         style=""
         id="path19659" />
      <path
         d="m 570.23401,557.12901 4.57275,0 0,-2.2492 -4.57275,0 0,-3.77344 4.90734,0 0,-2.30496 -7.65842,0 0,14.29448 2.75108,0 z"
         style=""
         id="path19661" />
      <path
         d="m 576.31459,548.80141 0,2.37931 3.5132,0 0,11.91517 2.75109,0 0,-11.91517 3.53179,0 0,-2.37931 z"
         style=""
         id="path19663" />
      <path
         d="m 599.30362,554.91699 c -0.1495,0.85159 -0.29201,1.69039 -0.42754,2.51641 -0.13555,0.82602 -0.25947,1.66018 -0.37176,2.50246 l -0.0558,0 c -0.0941,-0.8326 -0.20797,-1.65359 -0.34156,-2.46296 -0.13362,-0.80937 -0.28,-1.63035 -0.43915,-2.46297 l -1.20825,-6.20852 -2.7139,0 -1.30119,6.13417 c -0.1886,0.8907 -0.36442,1.75351 -0.52745,2.58843 -0.16304,0.83494 -0.29703,1.65128 -0.40197,2.44903 l -0.0558,0 c -0.1034,-0.76832 -0.2219,-1.57847 -0.3555,-2.43044 -0.13361,-0.85196 -0.27535,-1.70857 -0.42521,-2.56984 l -1.09671,-6.17135 -2.91838,0 3.14144,14.29448 2.89979,0 1.39413,-6.05982 c 0.17503,-0.7474 0.33148,-1.49249 0.46935,-2.23526 0.13786,-0.74275 0.26643,-1.51572 0.38571,-2.3189 l 0.0372,0 c 0.0918,0.80435 0.19633,1.57964 0.31368,2.32587 0.11733,0.74626 0.25442,1.48902 0.41127,2.22829 l 1.22683,6.05982 2.91838,0 3.38309,-14.29448 -2.76967,0 z"
         style=""
         id="path19665" />
      <path
         d="m 607.92567,548.80141 -4.05227,14.29448 2.78826,0 0.98518,-3.77345 3.82921,0 1.02236,3.77345 2.88121,0 -3.99651,-14.29448 z m 0.9666,5.16757 c 0.10416,-0.43101 0.21182,-0.90733 0.32297,-1.42898 0.11114,-0.52163 0.21415,-1.0119 0.30903,-1.47081 l 0.0558,0 c 0.0945,0.44807 0.19827,0.93214 0.31135,1.45222 0.11307,0.5201 0.22615,1.00882 0.33924,1.46616 l 0.85507,3.25297 -3.0485,0 z"
         style=""
         id="path19667" />
      <path
         d="m 617.22206,563.09589 2.73249,0 0,-5.79958 0.92942,0 c 0.63975,-0.0143 1.13079,0.15839 1.47313,0.51815 0.34233,0.35977 0.60102,0.99254 0.77607,1.89834 0.17077,0.87172 0.33574,1.60054 0.49491,2.18646 0.15916,0.58592 0.2916,0.9848 0.39733,1.19663 l 2.82544,0 c -0.14059,-0.29432 -0.30091,-0.80705 -0.48098,-1.53819 -0.18008,-0.73115 -0.37294,-1.53199 -0.57856,-2.40255 -0.16266,-0.72688 -0.39501,-1.32713 -0.69707,-1.80076 -0.30207,-0.47361 -0.70172,-0.80897 -1.19895,-1.00609 l 0,-0.0558 c 0.68776,-0.26642 1.264,-0.7048 1.72872,-1.31513 0.4647,-0.61031 0.70635,-1.35539 0.72495,-2.23525 -0.0339,-1.25551 -0.37097,-2.173 -1.01135,-2.75246 -0.64039,-0.57944 -1.38094,-0.94616 -2.22165,-1.10016 -0.84073,-0.15397 -1.57853,-0.22052 -2.2134,-0.19965 -0.70404,0.002 -1.37322,0.0306 -2.00755,0.086 -0.63433,0.0554 -1.19198,0.12587 -1.67295,0.21144 z m 2.73249,-12.19399 c 0.22616,-0.0743 0.64749,-0.11152 1.26401,-0.11153 0.53829,-0.0236 1.06031,0.11193 1.56607,0.40662 0.50576,0.29471 0.77684,0.89032 0.81325,1.78681 -0.007,0.68816 -0.23004,1.23575 -0.66918,1.64275 -0.43916,0.40701 -1.05258,0.61536 -1.84026,0.62503 l -1.13389,0 z"
         style=""
         id="path19669" />
      <path
         d="m 631.37321,560.79092 0,-3.97791 4.66569,0 0,-2.2492 -4.66569,0 0,-3.45744 4.94451,0 0,-2.30496 -7.69559,0 0,14.29448 7.99301,0 0,-2.30497 z"
         style=""
         id="path19671" />
    </g>
  </g>
</svg>
