<?xml version="1.0" encoding="UTF-8" standalone="no"?>
<svg width="264" height="300" enable-background="new 46.095 35.966 263.507 288.926" version="1.1" viewBox="46.095 35.966 264 300" xmlns="http://www.w3.org/2000/svg" xmlns:cc="http://creativecommons.org/ns#" xmlns:dc="http://purl.org/dc/elements/1.1/" xmlns:rdf="http://www.w3.org/1999/02/22-rdf-syntax-ns#">
 <metadata>
  <rdf:RDF>
   <cc:Work rdf:about="">
    <dc:format>image/svg+xml</dc:format>
    <dc:type rdf:resource="http://purl.org/dc/dcmitype/StillImage"/>
    <dc:title>Eurocom logotype</dc:title>
   </cc:Work>
  </rdf:RDF>
 </metadata>
 <title>Eurocom logotype</title>
 <rect x="46.095" y="35.966" width="264" height="300" stroke-width="1"/>
 <path d="m164.52 330.87c3.4711-0.263 5.7436-0.829 8.2446-2.054 4.0709-1.993 7.034-5.491 7.9652-9.402 0.23752-1.002 0.3473-2.07 0.3493-3.422 3e-3 -2.583-0.32535-4.109-1.3214-6.147-1.491-3.052-4.041-5.547-7.2586-7.102-2.8344-1.37-5.8623-2.049-9.563-2.145-4.9312-0.127-9.02 0.793-12.38 2.785-2.7356 1.622-4.8793 3.883-6.1248 6.461-1.3643 2.826-1.6986 6.229-0.93414 9.524 0.49202 2.122 1.7256 4.264 3.524 6.121 1.2236 1.264 2.6567 2.334 4.2515 3.175 3.4462 1.819 8.1079 2.595 13.248 2.206zm-4.3204-3.318c-4.8074-0.392-8.7975-2.555-11.035-5.983-0.68663-1.053-1.1347-2.157-1.4312-3.535-0.21557-0.998-0.23553-3.078-0.0399-4.055 0.43912-2.199 1.3822-3.923 3.0709-5.617 1.0469-1.05 2.01-1.757 3.2775-2.407 3.9751-2.039 9.8344-2.333 14.437-0.725 4.1438 1.449 7.0629 4.623 7.8923 8.583 0.20459 0.979 0.18763 3.322-0.0309 4.342-0.95111 4.429-4.4302 7.731-9.4143 8.938-1.7645 0.427-4.6707 0.626-6.7266 0.459zm-85.968 3.253c3.4282-0.356 6.8673-1.519 9.2526-3.126 1.6916-1.142 3.2954-2.806 4.2056-4.368 0.16168-0.278 0.29441-0.532 0.29441-0.565s-0.86428-0.432-1.9212-0.884l-1.9202-0.824-0.11377 0.174c-0.6058 0.928-2.0359 2.398-3.1398 3.229-2.9661 2.231-5.9252 3.137-10.293 3.147-2.2046 6e-3 -3.535-0.166-5.04-0.651-2.004-0.646-3.4132-1.519-4.8054-2.973-1.517-1.584-2.2525-3.263-3.034-6.922l-0.17365-0.812h16.035c8.8204 0 16.054-0.017 16.074-0.038 0.0489-0.049-0.38823-2.609-0.62975-3.689-0.47006-2.097-1.5419-4.3-2.9062-5.969-1.5579-1.904-3.6118-3.413-5.8983-4.332-3.7845-1.521-8.4811-1.994-13.224-1.331-5.1088 0.713-9.6598 3.416-12.255 7.279-1.6328 2.429-2.3254 4.778-2.3254 7.887 0 1.501 0.13174 2.732 0.3992 3.728 1.0988 4.094 4.3982 7.688 8.7815 9.563 1.8952 0.811 3.7096 1.26 6.1198 1.515 1.0908 0.113 5.2835 0.09 6.516-0.038zm-16.117-17.875c-0.66867-0.021-0.73953-0.036-0.69562-0.147 0.02495-0.068 0.17964-0.48 0.33932-0.917 1.0469-2.855 2.1687-4.263 4.4931-5.634 2.6358-1.554 6.5649-2.292 10.512-1.976 3.7575 0.302 6.6877 1.392 9.021 3.354 1.3333 1.121 2.1717 2.41 2.9871 4.595 0.14371 0.386 0.26148 0.719 0.26148 0.74-9.98e-4 0.039-25.603 0.025-26.918-0.015zm146.98 17.943c2.7894-0.201 5.3024-0.848 7.4612-1.918 1.0459-0.52 1.015-0.527 1.0599-0.8 0.0589-0.352 0.0579-4.013 0-4.362v-0.266l-0.62177 0.529c-3.6447 3.101-9.028 4.269-14.622 3.174-3.6697-0.719-6.8424-2.736-8.7735-5.579-0.84732-1.247-1.3094-2.307-1.6088-3.693-0.23154-1.072-0.23254-3.083-2e-3 -4.158 0.62177-2.895 2.3374-5.343 4.9771-7.102 2.3912-1.593 5.1717-2.381 8.7875-2.492 4.4511-0.136 8.3544 1.064 11.286 3.473 0.37325 0.307 0.54192 0.431 0.57785 0.375 0.0289-0.047-1e-3 -1.126 0-2.399v-2.315l-0.97207-0.51c-2.1717-1.043-4.4681-1.711-7.1468-2.077-1.1517-0.157-3.9881-0.218-5.2675-0.112-2.2216 0.185-4.7086 0.686-6.2875 1.266-1.0968 0.402-2.9242 1.33-3.8883 1.973-2.3324 1.553-4.2825 3.723-5.3683 5.972-1.2745 2.64-1.6537 5.905-1.0399 8.948 0.9551 4.729 4.8014 8.879 10.008 10.803 1.5559 0.574 3.5998 1.028 5.3992 1.2 0.43613 0.041 0.9052 0.086 1.0449 0.1 0.6028 0.055 4.0819 0.036 4.9971-0.03zm35.539-0.103c3.8064-0.52 7.0071-1.743 9.5031-3.634 0.67066-0.507 2.026-1.817 2.6268-2.538 3.2565-3.909 3.9322-10.04 1.6278-14.754-1.8214-3.726-5.2416-6.612-9.5141-8.031-2.6388-0.877-4.8553-1.204-8.1318-1.2-2.3453 3e-3 -3.3513 0.086-5.2196 0.433-4.6178 0.856-8.52 3.162-11.147 6.586-3.001 3.911-3.5509 9.827-1.3254 14.262 2.487 4.96 7.8274 8.292 14.273 8.907 0.43613 0.042 0.92216 0.089 1.0798 0.104 0.7545 0.073 5.4382-0.029 6.2276-0.135zm-5.8324-3.213c-3.9162-0.316-7.1767-1.756-9.5839-4.231-1.5699-1.616-2.4242-3.205-2.8813-5.364-0.21757-1.027-0.23453-2.874-0.0369-3.933 0.89323-4.771 5.0949-8.533 10.593-9.482 1.5469-0.268 2.2276-0.321 3.996-0.319 2.005 3e-3 3.1038 0.133 4.7775 0.564 4.0958 1.057 7.1687 3.495 8.6298 6.852 0.6028 1.385 0.84831 2.635 0.84831 4.334 0 2.077-0.46607 3.803-1.483 5.497-1.9751 3.287-5.4372 5.348-10.037 5.973-0.97805 0.133-3.7515 0.195-4.8224 0.109zm-124.7 2.706c2.0988-0.293 3.6777-0.785 4.9252-1.535 0.6527-0.393 1.5868-1.237 2.025-1.832l0.30041-0.408-0.017 3.558 4.0679 0.04v-29.508h-4.1038v8.753c0 10.364-0.0279 10.94-0.62875 12.77-0.41417 1.26-1.0679 2.238-1.986 2.972-1.515 1.211-3.4531 1.79-6.6438 1.987-3.508 0.217-6.3783-0.386-8.3634-1.756-1.518-1.048-2.4411-2.676-2.9152-5.139-0.1497-0.78-0.15369-0.965-0.17864-10.191l-0.02495-9.396h-3.8104l-9e-3 8.783c-6e-3 4.831-0.01697 8.896-0.02495 9.036-0.03493 0.537 0.11377 2.291 0.25449 2.986 0.504 2.498 1.7066 4.665 3.3433 6.025 1.8902 1.57 4.2096 2.498 7.1288 2.851 1.4172 0.171 1.4342 0.172 3.7086 0.146 1.4352-0.018 2.3912-0.062 2.9511-0.141zm18.86-10.125c-9e-3 -9.49 0-10.344 0.11277-10.804 0.26547-1.076 0.86728-2.103 1.7565-2.994 1.514-1.516 3.2565-2.157 5.8643-2.158 2.0609-1e-3 3.8274 0.423 5.5839 1.34 0.41218 0.215 0.7555 0.383 0.76248 0.373 0.66768-0.986 1.6956-2.679 1.6487-2.712-2.6986-1.971-6.2955-2.885-9.9742-2.535-2.2415 0.213-4.0839 1.213-5.3753 2.921-0.18064 0.238-0.35429 0.464-0.38822 0.501-0.0329 0.038-0.0389-0.619-0.014-1.461l0.0469-1.529h-3.9102v29.364h3.8932zm133.61-10.438 0.16168-0.577c0.34431-1.223 0.93214-2.2 1.8862-3.138 1.0858-1.067 2.3134-1.668 4.012-1.963 0.79442-0.139 1.1836-0.161 2.7954-0.161 1.6796 0 1.9491 0.018 2.6278 0.165 1.985 0.432 3.4372 1.175 4.2126 2.155 0.66468 0.84 1.1647 2.141 1.3244 3.447 0.12561 7.553 0.0788 12.409 0.0788 20.812h4.1038l6e-3 -8.675c6e-3 -9.681 0.0559-12.405 0.24052-13.071 0.33134-1.194 0.73853-1.893 1.6258-2.785 0.77247-0.777 1.3872-1.146 2.4481-1.468 2.7615-0.837 5.9072-0.877 8.6727-0.111 1.1477 0.317 1.6308 0.572 2.2336 1.178 0.3982 0.4 0.58383 0.662 0.84731 1.198 0.75949 1.549 0.8044 2.176 0.73953 10.288-0.0249 3.338-0.0249 7.729 3e-3 9.758l0.0529 3.688h4.1587l-0.0249-10.911c-0.023-9.693-0.0399-10.985-0.14471-11.574-0.36328-2.055-0.99203-3.568-1.9771-4.761-1.1078-1.341-3.3892-2.352-6.3534-2.815-1.0509-0.165-5.1128-0.185-6.3723-0.031-1.4581 0.178-2.989 0.654-4.1388 1.289-1.2984 0.715-2.6058 1.808-3.4791 2.904-0.23553 0.298-0.4531 0.541-0.48104 0.541-0.028 0-0.2515-0.267-0.49601-0.592-2.1657-2.879-6.5699-4.389-11.671-3.998-3.4781 0.266-5.6797 1.249-6.8474 3.06l-0.28044 0.435v-2.908h-3.8154v29.361h3.8114c0.0134-7.2128 0.0239-13.344 0.0389-20.74zm33.081-18.006h2.4132v-0.60105c-0.014-0.334 0-0.696 0-0.696h-6.1558v1.297h2.52v6.283h1.2226c-3.7e-4 -2.1842 0-4.0436 0-6.283zm4.1877 1.485 0.72756 1.498 0.72655 1.496h0.82037l1.495-3.354 0.0389 5.158h1.4381c-2e-3 -2.6657-0.0958-7.58-0.0958-7.58h-1.5968s-1.055 2.4234-1.6198 3.609c-0.62791-1.2347-1.6797-3.609-1.6797-3.609h-1.5968l-0.0389 7.58h1.3693c4e-3 -1.6652 8e-3 -3.0928 0.012-4.798z" fill="#fff" stroke-width="1"/>
 <path d="m60.531 42.044-0.82258 0.73438c-3.3593 3-5.4781 5.2998-7.029 7.6328-0.33733 0.507-0.84989 1.3843-1.1403 1.9473l-0.44442 0.86524v135.24c0.0073-7e-3 0.03241-0.0126 0.03313-0.0195l0.06238-0.57031 0.31382 0.81641c0.41917 1.092 1.5114 3.2751 2.228 4.4551 3.2954 5.438 9.1912 11.708 18.235 19.396 5.7845 4.917 12.477 9.9406 20.118 15.102l1.7251 1.168 0.27094 1.3125c0.85031 4.132 2.3849 8.2828 4.8829 13.219 4.1577 8.213 9.8574 17.467 16.51 26.801 2.2016 3.09 5.4164 7.439 7.2667 9.834 0.39222 0.51 0.70401 0.93422 0.69004 0.94922-5e-4 4.8e-4 -0.0659 0.0672-0.074 0.0762h181.74v-31.152l-0.98241 0.96289c-8.9851 8.811-22.052 15.796-37.499 20.041-10.003 2.749-18.78 4.1714-27.648 4.4824l4e-3 -2e-3c-3.8663 0.136-6.0579 0.0487-10.187-0.4043-6.8035-0.745-13.878-2.2381-21.89-4.6191-13.934-4.14-27.491-10.537-38.195-18.021-5.5569-3.886-10.724-8.3036-14.929-12.766-1.8633-1.977-2.6003-2.806-2.5574-2.875 0.019-0.029 0.54669-0.0547 1.1735-0.0547 2.2645-1e-5 4.834-0.20619 7.7093-0.61719 15.815-2.26 32.232-7.1885 48.24-14.48 20.66-9.411 40.51-22.342 56.66-36.906 5.9023-5.323 11.782-11.345 16.746-17.15 10.028-11.727 17.88-24.03 22.584-35.385l0.59646-1.4394 0.17543-0.375v-62.389c-0.0436 0.06283-0.0725 0.12258-0.074 0.17969h2e-3c-0.0439 1.4678-0.10176 2.7554-0.1267 2.8633-0.0389 0.158-0.0815 0.05099-0.21832-0.54102-0.83135-3.604-2.6162-7.2469-5.3038-10.836-4.3274-5.778-10.509-11.435-18.23-16.682l-1.16-0.78906h-120.3l-8e-3 2e-3 -0.56918 0.2832c-1.0469 0.522-3.4331 1.7969-4.996 2.6699-8.9372 4.989-17.277 10.858-24.907 17.533-4.3992 3.848-8.8704 8.343-12.393 12.459-7.1677 8.373-13.82 18.559-19.317 29.58-6.2244 12.484-10.922 26.52-13.543 40.473-2.3563 12.541-3.076 25.057-2.1578 37.502h-2e-3v2e-3c0.06387 0.846 0.09974 1.5524 0.08577 1.5664-0.03693 0.037-1.607-0.96853-3.1539-2.0195-2.1158-1.438-3.9452-2.8349-5.9004-4.5059-1.2136-1.038-3.7703-3.5874-4.7483-4.7344-6.8134-7.992-10.823-18.378-12.132-31.418-0.43114-4.307-0.57008-10.319-0.32358-14.033 0.63673-9.591 3.569-19.735 8.604-29.758 4.6747-9.304 10.955-18.472 18.731-27.342 8.7496-9.98 19.523-19.775 30.379-27.617l0.8889-0.64262zm168.67 3.8184c2.0185-0.02114 4.7023 0.02705 5.9081 0.12305 6.8913 0.549 12.744 2.072 17.929 4.666 2.9182 1.459 5.2477 2.9937 7.3545 4.8477 5.4052 4.754 8.926 11.768 9.8203 19.562 0.23952 2.089 0.21151 5.3358-0.0799 9.0898-0.64572 8.338-2.6334 16.649-5.9627 24.945-1.008 2.512-1.6606 3.9732-2.955 6.6172-4.1857 8.551-9.6476 16.68-16.308 24.273-11.532 13.15-25.833 24.666-42.449 34.184-8.023 4.595-17.904 9.3352-25.595 12.281-16.284 6.237-30.687 9.5893-43.994 10.238h-2e-3c-0.81239 0.039-2.244 0.0951-3.1812 0.1211l-1.7056 0.0469-0.1189-0.27929c-0.22455-0.53-1.7528-5.1896-2.148-6.5566-1.7445-6.017-2.9747-12.212-3.6783-18.504-1.7775-15.888-0.37282-32.551 4.1402-49.076 1.8373-6.73 4.1434-12.796 7.2064-18.957 4.8104-9.677 10.722-17.971 18.023-25.291 3.513-3.522 6.2927-5.9229 10.514-9.0859 13.599-10.187 30.156-17.317 48.674-20.957 5.7466-1.13 12.334-2.0051 16.89-2.2441 0.44536-0.02325 1.0445-0.03787 1.7173-0.04492z" fill="#fff" stroke-width="1"/>
</svg>
