<?xml version="1.0" encoding="UTF-8" standalone="no"?>
<svg
   xmlns:dc="http://purl.org/dc/elements/1.1/"
   xmlns:cc="http://creativecommons.org/ns#"
   xmlns:rdf="http://www.w3.org/1999/02/22-rdf-syntax-ns#"
   xmlns:svg="http://www.w3.org/2000/svg"
   xmlns="http://www.w3.org/2000/svg"
   width="500"
   height="353.009"
   viewBox="0 0 374.99999 264.75674"
   version="1.1"
   id="svg2">
  <defs />
  <path
     d="M 0,0 V 264.75695 H 375 V 0 Z"
     style="fill:#ffffff;fill-opacity:1;stroke-width:0.868056"
     id="White" />
  <path
     id="Black"
     style="fill:#000000;fill-opacity:1;stroke-width:0.868056"
     d="M 0,0 V 264.75695 H 375 V 0 Z m 3.8194445,3.9930556 c 106.5104155,0 213.0208355,0 319.5312555,0 -0.0868,85.6770844 -0.0868,171.2673644 0,256.9444444 -106.51042,-0.0868 -213.02084,-0.0868 -319.5312555,0 0.086806,-85.67708 0.086806,-171.26736 0,-256.9444444 z M 358.94098,7.7256945 h 5.64236 V 31.770834 h -31.59722 l 0.0868,-23.2638894 h 5.38195 V 25.347223 l 6.77083,-0.08681 V 9.8958335 h 5.46875 l 0.0868,15.3645835 h 8.07292 z m 5.64236,28.9930555 v 7.725695 c -2.86459,0.78125 -5.81597,0.694444 -8.68056,0.694444 -1.90972,-0.0868 -3.47222,1.475695 -3.64583,3.385417 -0.17361,2.777778 0,5.555556 -0.0868,8.420139 l 12.4132,-0.0868 v 6.597222 h -31.51042 c 0.0868,-6.163195 -0.34722,-12.326389 0.17361,-18.402778 0.43403,-5.295139 6.68403,-8.940972 11.54514,-7.118056 2.17014,0.520834 3.73264,2.256945 4.77431,4.079861 0.86805,-1.128472 1.47569,-2.517361 3.03819,-2.951389 3.81945,-1.736111 8.68056,0.78125 11.97917,-2.34375 z m -21.98351,7.465278 c -1.54787,0.04999 -3.05447,0.764974 -3.62413,2.170139 -0.95486,3.472223 -0.43403,7.03125 -0.60764,10.503473 l 8.59375,0.0868 c -0.0868,-3.211805 0.17361,-6.423611 -0.17361,-9.635417 -0.14649,-2.148437 -2.19825,-3.189277 -4.18837,-3.125 z m 21.98351,23.177084 v 7.378472 l -6.42361,1.909723 v 11.805555 l 6.42361,1.996528 v 6.944445 L 332.98612,86.197918 v -7.552084 z m -11.89236,11.197917 -12.4132,3.90625 12.4132,3.993055 z m -19.61806,20.572917 31.51042,8.767364 v 6.51041 l -24.21875,5.03473 24.21875,4.60069 v 6.33681 l -31.59722,8.85416 0.0868,-7.11805 20.83333,-4.42709 0.0868,-1.04166 -21.00694,-3.90625 0.0868,-7.03125 18.48958,-3.73264 3.73264,-1.12847 -22.22222,-4.86112 z m -0.0868,41.232644 h 5.46875 l 0.26041,9.4618 h 25.86806 v 6.59722 l -26.12847,0.17361 v 9.375 h -5.46875 z m 0.0868,27.25694 h 5.38195 v 15.97222 l 7.37847,-0.0868 v -13.88889 h 5.64236 v 13.88889 l 13.10764,-0.0868 v 6.85764 l -31.42361,-0.0868 z m 16.14583,27.49566 c 4.47148,0.0448 8.93013,1.199 12.15278,4.36198 2.95139,2.60417 4.25347,6.68403 3.99306,10.59028 0.26041,4.16666 -1.04167,8.50694 -4.25347,11.28472 -4.6875,4.25347 -11.54514,4.51389 -17.44792,3.55903 -4.25347,-0.78125 -7.98611,-3.55903 -10.15625,-7.20486 -2.08333,-4.6875 -2.08333,-10.41667 0.0868,-15.10417 1.99653,-3.55903 5.64237,-6.07639 9.63542,-6.94445 1.926,-0.35264 3.95709,-0.56288 5.98958,-0.54253 z m -0.69444,6.61892 c -0.86301,0.0139 -1.70356,0.076 -2.51736,0.17361 -2.34375,0.34723 -4.86111,1.21528 -6.42361,3.125 -1.99653,2.08334 -2.17014,5.38195 -1.38889,8.07292 0.95486,3.125 4.25347,5.03472 7.37847,5.38195 3.90625,0.52083 8.24653,0.43402 11.45833,-2.08334 3.21181,-2.43055 3.73264,-7.46528 1.4757,-10.67708 -2.25695,-3.17383 -6.24293,-4.05339 -9.98264,-3.99306 z m 6.85764,27.23525 c 0.94536,0.004 1.88802,0.15191 2.77778,0.45573 4.07986,1.21527 6.68402,5.29514 7.11805,9.375 0.43403,4.6875 0.0868,10.15625 -3.55903,13.54166 -1.73611,1.99653 -4.42708,2.43056 -6.85763,2.86459 v -6.33681 c 1.21527,-0.60764 2.60416,-0.78125 3.55902,-1.73611 1.90973,-2.17014 1.64931,-5.29514 1.30209,-7.89931 0,-1.73611 -1.38889,-2.77777 -2.51736,-3.81944 -1.4757,0 -3.21181,0 -3.90625,1.64931 -1.99653,4.42708 -1.82292,9.63541 -4.34028,13.88888 -2.17014,3.81945 -7.63889,4.34028 -11.28472,2.51737 -3.90625,-1.82292 -5.64237,-6.33681 -5.64237,-10.41667 -0.17361,-3.73264 0.95487,-7.89931 3.81945,-10.50347 1.6493,-1.82292 4.25347,-2.25695 6.51042,-2.69098 l 0.0868,6.42362 c -5.03472,0.60763 -6.07639,7.20486 -3.64583,10.76388 1.30208,1.73612 4.25347,1.82292 5.20833,-0.26041 1.99653,-4.51389 1.90972,-9.72222 4.25347,-13.9757 1.43229,-2.53906 4.28197,-3.85335 7.11806,-3.84114 z M 8.8541668,7.5520834 c 103.3854132,-0.086805 206.8576432,0 310.2430632,-0.086805 -0.0868,40.9722236 0.0868,81.9444446 -0.0868,122.9166716 -3.29861,0 -6.68403,-0.43403 -9.98264,-0.26042 -97.82986,0 -195.57292,0 -293.40278,0 -2.256944,0.0868 -4.427083,0.26042 -6.6840277,0.26042 -0.1736111,-40.972227 0,-81.944449 -0.086806,-122.8298661 z M 155.03472,145.48611 c 4.16667,-4.86111 10.50348,-7.29166 16.84028,-7.63889 3.29861,0.43403 6.77084,0.17362 9.98264,1.4757 7.03125,2.34375 12.4132,8.85417 13.10764,16.23264 h -10.41667 c -0.69444,-2.86459 -2.34375,-5.55556 -5.03472,-7.03125 -4.42708,-2.25695 -10.32986,-2.17014 -14.40972,1.04166 -2.77778,1.99653 -4.42708,5.20834 -5.29514,8.59375 -1.12847,5.38195 -1.30208,11.19792 0.52083,16.57987 1.5625,4.60069 5.98959,7.55208 10.59028,8.50694 1.21528,0.0868 2.51736,0.0868 3.73264,0.0868 5.72917,-0.69445 10.32986,-5.55556 11.02431,-11.19792 l -11.63195,-0.0868 v -8.85416 h 21.09375 v 27.86458 h -7.8125 v -6.89236 c -1.19527,2.60417 -5.03559,5.76154 -8.33333,6.97917 -7.98698,2.94903 -17.88195,1.12847 -23.69792,-5.29514 -5.03472,-5.03473 -7.03125,-12.23959 -7.11805,-19.18403 -0.26042,-7.55208 1.6493,-15.5382 6.85763,-21.18056 z m -67.534719,-6.16319 h 10.590278 l -0.08681,19.70486 h 19.618061 v -19.70486 l 10.59028,-0.0868 0.0868,51.82292 H 117.62153 V 167.96875 H 98.003473 v 23.09028 H 87.586807 Z m 45.920139,0 h 10.50347 l -0.17361,51.82292 -10.32986,-0.0868 z m 67.01389,0 h 10.59028 v 19.70486 h 19.61805 l -0.0868,-19.70486 h 10.59028 v 51.73611 h -10.59028 l 0.0868,-23.00347 H 210.9375 l 0.0868,23.00347 H 200.43403 Z M 87.4783,196.61459 c -5.332313,0.1049 -10.921223,1.63303 -14.908855,5.29513 -5.381944,4.6007 -7.986111,11.71875 -8.246528,18.6632 -0.607638,2.86458 0,5.72917 0.173612,8.59375 0.520833,7.20486 3.993055,14.23611 9.895833,18.48958 4.079861,2.95139 9.201389,3.81945 14.0625,3.90625 4.947917,-0.0868 10.069445,-1.04166 14.149308,-4.07986 6.25,-4.60069 9.4618,-12.41319 9.89583,-20.05208 0.0868,-4.42708 0.17361,-8.94097 -1.12847,-13.28125 -1.21528,-5.46875 -4.51389,-10.32986 -8.94097,-13.62847 -4.079864,-2.86459 -9.027781,-3.99306 -13.888892,-3.90625 -0.352648,-0.005 -0.707882,-0.007 -1.063368,0 z m 0.737847,9.26649 c 3.055399,-0.051 6.119792,0.92231 8.398438,2.97309 3.906245,3.64583 5.295135,9.11458 5.381945,14.23611 0.0868,5.03472 -0.60764,10.59028 -3.906251,14.67014 -2.951389,3.81944 -8.159722,5.38194 -12.760417,4.16667 -4.774305,-0.86806 -8.246528,-5.03473 -9.548611,-9.54861 -1.041667,-2.69098 -0.694445,-5.64237 -1.215278,-8.42014 0.347222,-4.42709 0.694445,-9.20139 3.559028,-12.93403 2.246097,-3.32031 6.162771,-5.07762 10.091146,-5.14323 z M 21.875,198.61111 l 11.371528,0.0868 10.763889,38.88889 11.024306,-38.88889 11.111111,-0.0868 -17.1875,51.73612 -10.069445,0.0868 z m 94.18403,0.69445 h 10.59028 v 42.53472 l 25.0868,-0.0868 v 9.28819 h -35.67708 z m 25.17361,0.0868 c 13.62847,0 27.25695,0 40.88542,0 -0.34722,3.0382 0.78125,6.1632 -0.17361,9.11459 -4.94792,-0.0868 -9.89584,0 -14.84375,-0.0868 0,14.23611 -0.0868,28.47222 0,42.70834 -3.64584,0 -7.20486,0 -10.8507,0 0.17361,-14.23612 0,-28.47223 0.0868,-42.70834 -5.03472,0.0868 -10.06945,0.0868 -15.10417,0 0,-3.03819 0,-5.98958 0,-9.02778 z m 126.38889,51.73612 0.0868,-51.73612 h 37.06597 v 9.11459 l -26.73611,-0.0868 v 11.11111 h 24.56597 v 9.02778 H 278.0382 v 13.19445 h 27.95139 l 0.0868,9.375 z m -44.15079,-46.11799 c 4.16664,-4.86111 10.5034,-7.29167 16.84017,-7.63889 3.2986,0.43403 6.77079,0.17361 9.98258,1.47569 7.03121,2.34375 12.41312,8.85417 13.10756,16.23264 h -10.4166 c -0.69444,-2.86458 -2.34374,-5.55555 -5.03469,-7.03125 -4.42706,-2.25694 -10.3298,-2.17014 -14.40964,1.04167 -2.77776,1.99653 -4.42705,5.20833 -5.29511,8.59375 -1.12846,5.38194 -1.30207,11.19792 0.52083,16.57986 1.5625,4.6007 5.98955,7.55208 10.59022,8.50695 1.21527,0.0868 2.51735,0.0868 3.73261,0.0868 5.72914,-0.69444 10.32981,-5.55555 11.02424,-11.19792 l -11.63187,-0.0868 v -8.85417 h 21.09362 v 27.86459 h -7.81245 v -6.89237 c -1.19526,2.60417 -5.03556,5.76154 -8.33328,6.97917 -7.98693,2.94904 -17.88184,1.12847 -23.69778,-5.29514 -5.03469,-5.03472 -7.03121,-12.23958 -7.11801,-19.18403 -0.26041,-7.55208 1.64929,-15.53819 6.8576,-21.18055 z m -32.3249,-6.22577 c -6.1632,17.1875 -12.06598,34.54862 -18.05556,51.82292 3.64583,-0.0868 7.29167,-0.0868 10.9375,0 1.38889,-3.55903 2.43056,-7.20486 3.64583,-10.76389 6.1632,0.0868 12.32639,0 18.48959,0 1.12847,3.55903 2.17014,7.11806 3.29861,10.67709 3.81944,0 7.72569,0.0868 11.54514,-0.0868 -6.07639,-17.1875 -12.06598,-34.375 -17.79514,-51.64931 -4.07986,0 -8.07292,0 -12.06597,0 z m 5.72916,12.06598 c 2.43056,6.51041 3.99306,13.28125 6.42361,19.79166 -4.25347,0.60764 -8.50694,0.26042 -12.76041,0.34723 1.99652,-6.77084 4.34027,-13.36806 6.3368,-20.13889 z" />
  <path
     style="opacity:1;fill:#d2232a;stroke:#ffffff;stroke-width:5.55556;stroke-miterlimit:4;stroke-dasharray:none;stroke-opacity:1"
     d="M 157.25369,19.44987 C 119.64786,20.418919 81.064449,24.435092 46.522353,40.120443 35.106662,45.823668 21.935689,53.764923 19.558377,67.355687 18.186454,80.501689 29.725195,90.142701 40.050993,95.98698 c 27.503567,14.93276 59.260614,19.7747 90.096937,22.8114 46.66732,3.13507 94.75799,0.9702 139.16631,-14.52321 14.05603,-5.595047 29.84628,-12.388745 36.91949,-26.55707 4.94095,-10.324252 -1.43436,-21.881165 -9.90126,-28.076172 C 276.69422,34.758164 251.82473,29.006363 227.94597,24.576823 204.633,20.591842 180.91733,19.164502 157.25369,19.44987 Z"
     id="Red" />
  <path
     id="DANGER"
     d="m 171.18056,53.125001 c 4.60069,-4.6875 12.06597,-5.902778 18.22916,-4.079861 6.07639,1.909722 10.32987,7.899305 10.9375,14.149305 l -11.11111,-0.173611 c -0.52083,-2.430555 -2.51736,-4.600694 -5.12152,-4.6875 -3.21181,-0.347222 -5.72917,2.34375 -6.59723,5.208333 -1.04166,3.819445 -0.95486,7.986112 -0.17361,11.892362 0.69445,3.038194 3.38542,5.815972 6.68403,5.642361 2.86458,0 4.86111,-2.170139 6.16319,-4.513889 l -5.20833,-0.260417 0.0868,-8.854166 h 15.7118 v 22.395833 h -7.8125 v -3.819444 c -1.5625,1.475694 -2.95139,3.211805 -5.03472,3.90625 -5.55556,2.083333 -12.32639,0.868055 -16.75347,-3.211806 -4.16667,-4.253472 -6.07639,-10.503472 -5.98959,-16.40625 -0.17361,-6.163195 1.4757,-12.760417 5.98959,-17.1875 z M 48.090278,49.392362 v 40.451389 c 5.989584,-0.0868 11.892362,0 17.881945,-0.0868 4.340278,-0.173612 9.027778,-1.5625 11.631945,-5.208334 4.427083,-5.815972 4.774305,-13.454861 4.166666,-20.486111 -0.868055,-3.385417 -1.909722,-6.944445 -4.253472,-9.635417 -3.211806,-3.90625 -8.506944,-5.034722 -13.28125,-5.034722 -5.382103,-0.0146 -10.764042,-0.08304 -16.145834,0 z m 11.371528,10.069444 c 3.211806,0.173611 7.638889,-0.694444 9.548612,2.604167 1.996527,3.993056 2.170138,8.854167 0.78125,13.020833 -0.694445,2.083334 -2.430556,4.079862 -4.774306,4.427084 -1.822917,0.260417 -3.732639,0.260417 -5.555556,0.347222 z m 37.934029,-10.069444 -12.847223,40.364584 11.545139,0.0868 1.302084,-5.208333 h 11.545135 l 1.21528,5.121528 11.63195,0.0868 -12.23959,-40.104167 z m 5.729165,12.413194 3.81945,14.322917 -7.378477,0.08681 z m 22.91667,-12.413194 10.59028,-0.08681 12.06597,21.614584 0.0868,-21.527778 h 11.11112 v 40.451389 h -10.9375 L 136.97917,69.097223 v 20.746528 h -10.9375 z m 84.375,0 h 28.64583 v 9.548611 h -17.44791 v 5.642361 h 14.84375 v 9.114584 h -14.84375 v 6.336805 h 18.14236 v 9.809028 h -29.34028 z m 36.80556,0 v 40.451389 h 11.19791 v -14.0625 c 2.34375,0.08681 4.6875,-0.173611 7.03125,0.260417 1.99653,0.434027 2.86459,2.690972 2.95139,4.513889 0.17361,3.125 0.0868,6.163194 0.43403,9.201389 4.07986,0.0868 8.15972,0.173611 12.32639,-0.08681 -2.69097,-3.472222 -1.38889,-8.246528 -1.90972,-12.326389 0,-3.125 -2.60417,-5.381945 -5.38195,-6.25 1.38889,-1.041667 2.95139,-1.909722 3.90625,-3.472222 2.08333,-2.951389 1.5625,-6.770834 1.38889,-10.156251 -0.60764,-2.430555 -2.17014,-4.774305 -4.34028,-6.076388 -2.69097,-1.736112 -6.07639,-1.822917 -9.20139,-1.996528 -6.16319,0 -12.23958,0 -18.40277,0 z m 19.18402,9.982639 c 3.21181,0.954861 3.17091,6.44763 0,7.204861 -2.64507,0.631658 -5.38194,0.173611 -7.98611,0.173611 v -7.638889 c 2.67255,0.003 5.33641,-0.174371 7.98611,0.260417 z"
     style="fill:#ffffff;fill-opacity:1;stroke-width:0.868056" />
  <metadata
     id="metadata28">
    <rdf:RDF>
      <cc:Work
         rdf:about="">
        <dc:title></dc:title>
      </cc:Work>
    </rdf:RDF>
  </metadata>
</svg>
