<svg height="131.101106" viewBox="0 0 200 100" width="762.770071" xmlns="http://www.w3.org/2000/svg" xmlns:xlink="http://www.w3.org/1999/xlink"><clipPath id="a"><path d="m19.807 69.402h119.503v-29.719h-119.503z"/></clipPath><clipPath id="b"><path d="m19.807 69.402h119.503v-29.719h-119.503z"/></clipPath><clipPath id="c"><path d="m19.807 69.402h119.503v-29.719h-119.503z"/></clipPath><clipPath id="d"><path d="m19.807 69.402h119.503v-29.719h-119.503z"/></clipPath><g transform="matrix(1.4563378 0 0 1.4563378 -45.633772 .000001)"><g fill="#00569f"><path d="m41.114818.96768478v17.87041622h3.827222v30.654613h-3.827222v17.763267h18.151682v-17.612589h-2.096099v-12.630169h6.646576v12.656956h-2.07266v17.585802h19.122719v-17.786706h-4.275909v-30.631174h3.830571v-17.87041622h-18.667336v17.87041622h2.076009v11.022937h-6.636531v-11.022937h2.069312v-17.89720343z"/><path d="m84.111636 1.044698h18.376024v17.793403h-2.805959v27.771639c0 5.511468 7.912269 5.106312 7.912269 0v-27.771639h-2.62179v-17.793403h15.8982v17.793403h-4.08839v40.227691c-.00335 11.886824-29.09761 12.017412-29.09761 0v-40.227691h-3.572744z"/><path d="m235.14127 18.838101v-17.793403h17.61259l12.99179 43.827222v-26.063954h-4.31943v-17.763268h17.14381v17.793403h-4.38641v48.41788h-12.25514l-14.29768-48.725932v30.939226h4.85519v17.786706h-17.91395v-17.763267h4.11853v-30.654613z"/><g clip-path="url(#a)" stroke-miterlimit="10" transform="matrix(3.3484011 0 0 -3.3484011 -166.13112 232.38573)"><path d="m99.264 60.849c-.336.488-.602 1.177-.602 2.226v3.324c0 2.973 3.108 4.001 5.568 1.83v.861h3.27v-6.96h-3.04v.793c0 1.466-2.21 1.463-2.29.061s1.22-1.952 2.13-2.44c.92-.488 3.81-1.495 3.81-4.909v-3.629c0-3.082-3.65-4.071-5.94-1.433v-1.257h-3.355v7.447h3.125v-1.158c0-1.499 2.44-1.46 2.44-.062l-.01.61c-.08.732-.3 1.22-1.29 1.83-.95.588-2.74 1.768-3.275 2.256-.181.165-.369.361-.541.61" fill="#00569f"/></g><path d="m124.56702 1.0145624h22.68207c6.8977 0 13.27306 5.5717394 13.27306 10.9827556v43.689938c0 7.848652-7.68123 11.545287-13.04537 11.545287h-23.19772v-17.562364h3.82722v-30.832078h-3.57275zm15.82789 17.8235386-.03348 30.423573h4.08839c1.9923 0 3.31492-2.544785 3.31492-3.843965v-22.702159c0-1.426419-1.72108-3.877449-3.22451-3.877449z"/><g clip-path="url(#b)" stroke-miterlimit="10" transform="matrix(3.3484011 0 0 -3.3484011 -166.13112 232.38573)"><path d="m134.29 66.764c0 1.438 1.16 2.497 2.54 2.497 1.37 0 2.53-1.059 2.53-2.497 0-1.45-1.16-2.509-2.53-2.509-1.38 0-2.54 1.059-2.54 2.509m2.54-2.092c1.14 0 2.03.887 2.03 2.092 0 1.186-.89 2.079-2.03 2.079s-2.04-.893-2.04-2.079c0-1.205.9-2.092 2.04-2.092" fill="#00569f"/></g><path d="m288.31388 4.0883946h4.78821c2.5113 0 2.98008 1.8650594 2.98008 2.6820693 0 1.0480495-.50226 1.945421-1.4733 2.2601707.80362.3448853 1.20543.6328478 1.20543 2.4075004 0 1.386238 0 1.731123.43529 1.888498v.25113h-2.17646c-.13394-.452034-.23439-.937552-.23439-1.915285 0-1.295831-.06697-1.7980915-1.54027-1.7980915h-2.04252v3.7133765h-1.94207zm4.25247 4.1754562c1.038 0 1.54026-.3549305 1.54026-1.2958313 0-.5022601-.23439-1.2422568-1.37284-1.2422568h-2.47782v2.5380881z"/><g clip-path="url(#c)" stroke-miterlimit="10" transform="matrix(3.3484011 0 0 -3.3484011 -166.13112 232.38573)"><path d="m109.22 65.524c0 5.153 9.36 5.074 9.36.024v-12.464c0-5.307-9.37-5.347-9.37-.123zm3.48-9.753c0-1.681 2.41-1.681 2.41 0v6.054.753c0 1.702-2.41 1.702-2.41 0z" fill="#00569f"/></g><g clip-path="url(#d)" stroke-miterlimit="10" transform="matrix(3.3484011 0 0 -3.3484011 -166.13112 232.38573)"><path d="m24.224 49.951c.02.22.122.429.21.606 1.707 3.462 4.434 6.569 5.528 7.912.08.11.192.043.181-.058-.713-1.997-1.945-3.855-3.23-5.608-.848-1.161-.94-2.437-1.711-3.412-.295-.374-1.024.074-.978.56m29.053 3.638c1.254.982 2.083 2.254 3.335 3.274.937.76 2.165.603 3.234.994.381.14.284.614-.105.65-1.107.104-2.196-.061-3.18-.567-1.817-.935-2.763-2.832-4.541-3.865-.073-.043-.328-.109-.288-.043.924 1.535 1.677 3.428.897 5.046-.406.843-1.484 1.272-2.297.778-2.225-1.349-1.959-4.788-.186-6.441-.435-.83-2.07-2.505-3.654-2.24-.119.02-.246.025-.352-.018-.177-.072-.255-.317-.14-.406 2.074-1.6 4.042.835 5.204 2.333 0 0 1.005-.329 2.073.505m-2.783.865c-.511.839-.847 1.754-.697 2.743.131.862.607 2.205 1.688 1.733.509-.222.564-.864.487-1.38-.173-1.167-.445-2.359-1.241-3.247-.059-.066-.169.039-.237.151m-27.963-2.317s-.382-.441-.184-.733c.198-.294.252-.346.555-.461.304-.115.517.214.517.214 2.406 2.603 3.619 5.362 6.514 7.519.241.18.847.004.85-.216.03-2.632.587-5.16 2.196-7.386 1.07-1.483 2.801-2.332 4.601-2.156 2.137.209 4.042 1.008 6.092 1.644.58.18 1.297-.347 1.717.089.64.668-.747.723-.984 1.295-.663 1.593-.071 3.272-.162 4.902-.07 1.29-.506 2.475-1.308 3.572-.765 1.047-1.836 1.576-2.85 2.243.06.059.115.153.181.16 1.148.125 2.257-.11 3.392-.202 2.259-.183 5.835-1.075 6.1-1.167 0 0 .761-.412.888.133 0 0 .093.511-.085.734l-.324.119c-2.4.468-4.956.983-7.201 1.295 2.685.765 5.012.323 7.723.207 0 0 .661-.384.83.034 0 0 .051 0 .04.42-.006.293-.383.43-.383.43-2.86.553-5.589.122-8.389.25 1.893.703 5.419 1.164 5.419 1.164.204.026.274-.012.274-.012.125-.063.307-.026.503.169.083.083.079.489-.021.691-.063.125-.298.28-.608.125.022.011-.216-.015-.216-.015-2.274-.074-4.116-.54-6.287-1.244-.475.404-1.088.609-1.519 1.073.561.583 1.195 1.098 2.048 1.283.144.031.3.189.337.334.116.45-.318.985-.758.758-1.067-.557-2.183-.99-3.059-1.839-1.329 1.925-3.415 1.809-5.413.405-.577-.405-.308 1.227-.447 1.403-.138.176-1.25.24-1.326-.015-.122-.406.035-1.346-.128-1.417-.44-.198-.803-.614-.784-.685.052-.205.016-.335-.164-.354-2.264-.251-3.628-1.953-2.913-4.074-.488-.272-.947.06-1.434.161-.132.027-.268-.054-.341-.169-.193-.299-.149-.716.177-.865.505-.231 1.409.124 1.489-.396.051-.325-.417-.737-.575-1.157-.158-.414.478-.86.255-1.078-1.716-1.695-3.754-2.804-5.57-4.442-.656-.592-1.272-.848-1.989-1.363-.258-.185-.166-.596.047-.777.191-.162.494-.191.675-.068 2.402 1.626 4.044 3.559 6.467 5.14.075.049.168-.051.154-.066-1.723-2.026-2.96-3.786-4.633-5.623m7.488 9.036c-.023-.271-1.352-1.002-1.601-.998-.251.005.342 1.03.603 1.296 0 0 1.013-.14.998-.298m10.533 4.509c.075-.205-.762-.266-1.228-.582-.181-.122-.407-.047-.395.068.014.151.178.89.227.926.104.078 1.237.02 1.396-.412m-9.464-5.953c-.068-.127-.298.033-.312.166-.083.855.56.911.674.881.062-.018-.142-.634-.362-1.047m7.046 3.577c.277.437.603.359.603.359s.042 0 .03-.046c0 0-.088-.2-.078-.451 0 0-.323.11-.508.085-.063-.009-.047.053-.047.053" fill="#000"/></g></g><path d="m-63.931222 11.618949c3.710029-.991127 6.147665 0 6.897707 3.515821.746693 3.515821-.395112 7.604219-4.426587 8.759417-4.195546 1.195379-7.135442-.217646-8.304034-3.291478-1.798092-4.714549 1.342708-7.785033 5.832914-8.98376" fill="#fff"/><path d="m-50.721779 16.443995c1.670852 1.677549 3.72677 2.065963 5.769295 1.563703 5.3407-1.312573 8.605391-8.5585132 3.797087-12.2886321-3.62297-2.8160053-8.083041-.5725766-10.832078 2.6284949-2.089402 2.4342872-.977733 5.8563532 1.265696 8.0964342" fill="#fff"/><path d="m-54.498776 26.633179c3.324963.321447 7.195714-.883978 8.956973-3.914281.14733-.261175-.113845-.391763-.254478-.33484-3.207769 1.322619-6.007032 2.407501-8.967018 3.981249.200904.097104.053574.247782.264523.267872" fill="#fff"/><path d="m-62.066162 20.435289c2.132931 0 3.864055-1.731124 3.864055-3.870752 0-2.129583-1.731124-3.860706-3.864055-3.860706-2.132932 0-3.867403 1.731123-3.867403 3.860706 0 2.139628 1.734471 3.870752 3.867403 3.870752"/><path d="m-44.949136 13.698306c2.129583 0 3.867403-1.731124 3.867403-3.8640551 0-2.1362799-1.73782-3.8674033-3.867403-3.8674033-2.13628 0-3.864055 1.7311234-3.864055 3.8674033 0 2.1329311 1.727775 3.8640551 3.864055 3.8640551"/><path d="m-57.398491 8.6020393s-.803616-.0636196-1.647413-.0636196c0 0 .525699-.9141135 1.118366-1.2288632l1.617277.3515821c-.666332.4587309-1.08823.9409007-1.08823.9409007" fill="#fff"/><path d="m-53.293351 21.587139s1.366147-.385066 2.702159-1.225515c0 0-1.717729-.495563-2.313745-1.228863 0 0 .033484 1.366147-.388414 2.454378" fill="#fff"/><path d="m-23.368691 41.178634c-2.72225 4.386405-5.893186 8.307383-10.487192 11.059768-6.264858 3.763603-13.162565 4.25247-20.046877 4.804956 2.618449 7.389921 11.95714 7.872091 18.530051 5.615269 9.834254-3.368492 13.949439-17.964172 12.004018-21.479993" fill="#fff400"/><path d="m-34.482034 25.119702c-1.898543-.629499-4.466767-1.82153-5.625314-.431944-3.924326 4.694459-10.229365 4.453374-15.144818 6.388749-2.893019 1.141805-3.298175 5.678889-3.328311 8.910096-.003348.549138.522351 1.282437 1.101624 1.386238 4.851833.827055 9.234891-1.017914 13.400301-3.003516 4.811653-2.290306 8.123222-6.539427 10.108823-11.310899.227692-.549138.626151-1.557006-.512305-1.938724" fill="#fff400"/></g></svg>