<?xml version="1.0" encoding="utf-8"?>
<!-- Generator: Adobe Illustrator 13.0.2, SVG Export Plug-In . SVG Version: 6.00 Build 14948)  -->
<!DOCTYPE svg PUBLIC "-//W3C//DTD SVG 1.1//EN" "http://www.w3.org/Graphics/SVG/1.1/DTD/svg11.dtd">
<svg version="1.1" id="Layer_1" xmlns="http://www.w3.org/2000/svg" xmlns:xlink="http://www.w3.org/1999/xlink" x="0px" y="0px"
	 width="191.725px" height="275.382px" viewBox="0 0 191.725 275.382" enable-background="new 0 0 191.725 275.382"
	 xml:space="preserve">
<g>
	<g>
		<path d="M11.253,254.205H0.003v-1h3.375V238.08H0.503v-1h2.804c0.56,0,1.26-0.031,2.1-0.094s1.726-0.156,2.659-0.281l0.021,16.5
			h3.166V254.205z M2.878,228.278c0-0.701,0.237-1.295,0.713-1.781c0.475-0.486,1.067-0.729,1.776-0.729
			c0.695,0,1.287,0.243,1.776,0.729s0.734,1.08,0.734,1.781s-0.245,1.292-0.734,1.771c-0.489,0.479-1.081,0.719-1.776,0.719
			c-0.709,0-1.302-0.239-1.776-0.719C3.115,229.57,2.878,228.979,2.878,228.278z"/>
		<path d="M23.248,254.205H12.81v-1h3V238.08h-3v-1h2.827c0.559,0,1.254-0.031,2.086-0.094s1.721-0.156,2.667-0.281v3.93h0.406
			c0.832-1.353,1.75-2.346,2.754-2.979c1.004-0.633,2.158-0.95,3.464-0.95c1.792,0,3.144,0.425,4.055,1.273
			c0.91,0.849,1.366,2.114,1.366,3.798v0.753v10.676h2.75v1H25.06v-1h2.625v-12.247c0-1.062-0.154-1.775-0.462-2.142
			c-0.308-0.365-0.854-0.549-1.641-0.549c-1.273,0-2.438,0.686-3.497,2.056c-1.059,1.371-1.588,2.917-1.588,4.639v8.243h2.75
			V254.205z"/>
		<path d="M53.104,248.705h1.076c-0.518,2.006-1.439,3.528-2.767,4.567c-1.327,1.038-3.024,1.558-5.091,1.558
			c-2.396,0-4.385-0.834-5.963-2.502s-2.367-3.74-2.367-6.217c0-2.691,0.86-4.932,2.583-6.722c1.722-1.789,3.903-2.685,6.544-2.685
			c1.938,0,3.487,0.423,4.649,1.268s1.744,1.976,1.744,3.392c0,0.702-0.208,1.268-0.624,1.697s-0.976,0.644-1.679,0.644
			c-0.732,0-1.317-0.211-1.755-0.634s-0.656-0.979-0.656-1.667c0-0.631,0.189-1.189,0.57-1.678c0.38-0.487,0.57-0.753,0.57-0.796
			c0-0.387-0.233-0.688-0.699-0.902c-0.467-0.215-1.116-0.323-1.948-0.323c-1.464,0-2.525,0.448-3.186,1.345
			s-0.989,2.341-0.989,4.333v6.416c0,1.302,0.337,2.289,1.012,2.961c0.674,0.672,1.671,1.008,2.991,1.008
			c1.349,0,2.59-0.482,3.724-1.447C51.977,251.355,52.73,250.15,53.104,248.705z"/>
		<path d="M57.02,254.205v-1h3V238.08h-3v-1h2.827c0.547,0,1.241-0.031,2.084-0.094c0.842-0.063,1.731-0.156,2.668-0.281
			l0.022,4.282h0.345c0.728-1.435,1.584-2.507,2.568-3.217s2.104-1.065,3.359-1.065c0.97,0,1.743,0.255,2.321,0.764
			c0.578,0.51,0.867,1.194,0.867,2.055c0,0.732-0.204,1.32-0.61,1.765c-0.406,0.445-0.945,0.667-1.615,0.667
			c-0.814,0-1.428-0.172-1.842-0.516s-0.62-0.854-0.62-1.527v-0.388c0-0.301-0.036-0.523-0.107-0.667
			c-0.071-0.143-0.178-0.215-0.32-0.215c-1.014,0-1.978,0.663-2.891,1.988s-1.369,2.775-1.369,4.352v8.223h3.875v1H57.02z"/>
		<path d="M91.866,248.705h1.057c-0.545,2.021-1.49,3.547-2.837,4.578c-1.347,1.03-3.065,1.547-5.156,1.547
			c-2.406,0-4.416-0.834-6.027-2.502s-2.417-3.711-2.417-6.131c0-2.591,0.823-4.82,2.471-6.689c1.647-1.868,3.639-2.803,5.974-2.803
			c2.291,0,4.196,0.71,5.715,2.128c1.519,1.419,2.278,3.203,2.278,5.353v0.395h-11.25v5.219c0,1.201,0.351,2.163,1.052,2.886
			s1.638,1.083,2.811,1.083c1.474,0,2.783-0.457,3.928-1.373C90.607,251.479,91.408,250.25,91.866,248.705z M87.985,243.33v-2.354
			c0-1.098-0.257-1.907-0.771-2.428s-1.306-0.781-2.375-0.781c-1.057,0-1.849,0.268-2.376,0.803s-0.791,1.337-0.791,2.406v2.354
			H87.985z"/>
		<path d="M114.889,253.205h2.813v1h-2.813c-0.543,0-1.228,0.035-2.055,0.108c-0.828,0.071-1.705,0.164-2.633,0.279v-2.396h-0.623
			c-0.676,0.885-1.444,1.545-2.306,1.98c-0.862,0.436-1.84,0.653-2.932,0.653c-2.227,0-4.109-0.866-5.646-2.599
			s-2.306-3.887-2.306-6.464c0-2.605,0.782-4.767,2.349-6.485c1.566-1.718,3.521-2.577,5.862-2.577c1.049,0,1.972,0.209,2.77,0.626
			c0.797,0.418,1.563,1.094,2.295,2.028h0.537v-13.592h-2.813v-1h2.77c0.557,0,1.252-0.04,2.087-0.121
			c0.834-0.081,1.716-0.187,2.644-0.316V253.205z M110.158,247.924v-4.658c0-1.416-0.541-2.708-1.621-3.874
			c-1.081-1.166-2.271-1.75-3.567-1.75c-1.239,0-2.114,0.372-2.626,1.116s-0.768,2.133-0.768,4.164v6.14
			c0,1.676,0.244,2.889,0.734,3.641s1.275,1.127,2.356,1.127c1.499,0,2.789-0.555,3.87-1.664c1.08-1.109,1.621-2.494,1.621-4.155
			V247.924z"/>
		<path d="M130.82,254.205h-11.25v-1h3.375V238.08h-2.875v-1h2.804c0.56,0,1.26-0.031,2.1-0.094s1.726-0.156,2.659-0.281l0.021,16.5
			h3.166V254.205z M122.445,228.278c0-0.701,0.237-1.295,0.713-1.781c0.475-0.486,1.067-0.729,1.776-0.729
			c0.695,0,1.287,0.243,1.776,0.729s0.734,1.08,0.734,1.781s-0.245,1.292-0.734,1.771c-0.489,0.479-1.081,0.719-1.776,0.719
			c-0.709,0-1.302-0.239-1.776-0.719C122.683,229.57,122.445,228.979,122.445,228.278z"/>
		<path d="M140.048,254.549l-2.829-0.259h-0.107c-1.02-0.058-2.139-0.086-3.357-0.086c-0.144,0-0.366,0.007-0.667,0.021
			c-0.302,0.014-0.538,0.021-0.71,0.021v-1.043h3v-27.438h-3v-1h2.827c0.557,0,1.253-0.04,2.089-0.121s1.718-0.187,2.646-0.316
			v15.029h0.628c0.748-0.949,1.514-1.629,2.297-2.039s1.7-0.615,2.751-0.615c2.344,0,4.307,0.859,5.889,2.577
			c1.582,1.719,2.373,3.88,2.373,6.485c0,2.563-0.777,4.714-2.33,6.453c-1.553,1.74-3.444,2.609-5.673,2.609
			c-1.093,0-2.063-0.218-2.912-0.653s-1.618-1.096-2.308-1.98h-0.606V254.549z M140.048,247.924c0,1.676,0.548,3.078,1.646,4.209
			s2.397,1.696,3.899,1.696c1.024,0,1.797-0.361,2.316-1.085c0.52-0.723,0.78-1.814,0.78-3.275v-0.408v-6.139
			c0-2.031-0.261-3.42-0.78-4.164s-1.4-1.116-2.642-1.116c-1.285,0-2.477,0.584-3.574,1.75s-1.646,2.458-1.646,3.874V247.924z"/>
		<path d="M159.747,225.767h-3.375v-1h3.289c0.559,0,1.262-0.04,2.107-0.121s1.734-0.187,2.666-0.316v28.875h3.188v1h-11.25v-1
			h3.375V225.767z"/>
		<path d="M184.935,248.705h1.057c-0.545,2.021-1.49,3.547-2.837,4.578c-1.347,1.03-3.065,1.547-5.156,1.547
			c-2.406,0-4.416-0.834-6.027-2.502s-2.417-3.711-2.417-6.131c0-2.591,0.823-4.82,2.471-6.689c1.647-1.868,3.639-2.803,5.974-2.803
			c2.291,0,4.196,0.71,5.715,2.128c1.519,1.419,2.278,3.203,2.278,5.353v0.395h-11.25v5.219c0,1.201,0.351,2.163,1.052,2.886
			s1.638,1.083,2.811,1.083c1.474,0,2.783-0.457,3.928-1.373C183.676,251.479,184.477,250.25,184.935,248.705z M181.054,243.33
			v-2.354c0-1.098-0.257-1.907-0.771-2.428s-1.306-0.781-2.375-0.781c-1.057,0-1.849,0.268-2.376,0.803s-0.791,1.337-0.791,2.406
			v2.354H181.054z"/>
	</g>
	<g>
		<path d="M42.376,275.164V263.32h-4.438v-1.594h10.656v1.594h-4.438v11.844H42.376z"/>
		<path d="M50.522,275.164v-13.438h9.719v1.594h-7.938v4.094h7.438v1.594h-7.438v4.563h8.25v1.594H50.522z"/>
		<path d="M72.599,270.445l1.781,0.447c-0.374,1.46-1.046,2.573-2.017,3.34s-2.158,1.15-3.56,1.15c-1.452,0-2.632-0.295-3.542-0.884
			c-0.91-0.589-1.602-1.441-2.076-2.558s-0.712-2.315-0.712-3.597c0-1.397,0.268-2.616,0.805-3.656
			c0.536-1.04,1.299-1.831,2.29-2.371s2.08-0.81,3.269-0.81c1.349,0,2.482,0.342,3.402,1.026c0.919,0.685,1.56,1.647,1.922,2.888
			l-1.75,0.411c-0.313-0.974-0.767-1.683-1.361-2.127s-1.343-0.667-2.244-0.667c-1.036,0-1.902,0.246-2.598,0.739
			c-0.696,0.493-1.185,1.155-1.467,1.986s-0.423,1.688-0.423,2.571c0,1.139,0.167,2.132,0.5,2.981s0.852,1.484,1.556,1.904
			s1.466,0.63,2.287,0.63c0.997,0,1.842-0.286,2.534-0.858C71.886,272.42,72.354,271.571,72.599,270.445z"/>
		<path d="M76.652,275.164v-13.438h1.781v5.5h6.969v-5.5h1.781v13.438h-1.781v-6.344h-6.969v6.344H76.652z"/>
		<path d="M90.142,275.164v-13.438h1.838l7.068,10.548v-10.548h1.719v13.438h-1.838l-7.068-10.549v10.549H90.142z"/>
		<path d="M103.163,268.623c0-2.226,0.601-3.968,1.804-5.227s2.756-1.889,4.658-1.889c1.246,0,2.369,0.295,3.369,0.887
			s1.763,1.416,2.288,2.474c0.524,1.059,0.787,2.258,0.787,3.6c0,1.359-0.276,2.576-0.829,3.649s-1.335,1.886-2.348,2.438
			s-2.104,0.828-3.276,0.828c-1.271,0-2.406-0.305-3.406-0.915c-1.001-0.609-1.759-1.441-2.274-2.497
			C103.42,270.916,103.163,269.799,103.163,268.623z M105.007,268.645c0,1.614,0.437,2.885,1.311,3.813s1.971,1.393,3.289,1.393
			c1.344,0,2.449-0.47,3.317-1.407c0.867-0.938,1.302-2.268,1.302-3.99c0-1.09-0.186-2.041-0.557-2.854
			c-0.371-0.813-0.914-1.442-1.629-1.89s-1.517-0.671-2.405-0.671c-1.264,0-2.352,0.431-3.262,1.292
			C105.462,265.192,105.007,266.63,105.007,268.645z"/>
		<path d="M118.294,275.163v-13.438h1.781v11.844h6.656v1.594H118.294z"/>
		<path d="M128.255,268.623c0-2.226,0.601-3.968,1.804-5.228c1.203-1.259,2.756-1.889,4.658-1.889c1.246,0,2.369,0.296,3.369,0.888
			s1.763,1.416,2.288,2.474c0.524,1.059,0.787,2.258,0.787,3.6c0,1.359-0.276,2.576-0.829,3.649s-1.335,1.886-2.348,2.438
			s-2.104,0.827-3.276,0.827c-1.271,0-2.406-0.305-3.406-0.914c-1.001-0.609-1.759-1.442-2.274-2.497
			S128.255,269.799,128.255,268.623z M130.099,268.645c0,1.613,0.437,2.885,1.311,3.813c0.874,0.929,1.971,1.393,3.289,1.393
			c1.344,0,2.449-0.469,3.317-1.406c0.867-0.938,1.302-2.268,1.302-3.99c0-1.09-0.186-2.041-0.557-2.854
			c-0.371-0.813-0.914-1.442-1.629-1.89s-1.517-0.672-2.405-0.672c-1.264,0-2.352,0.432-3.262,1.293
			C130.554,265.192,130.099,266.63,130.099,268.645z"/>
		<path d="M149.761,269.913v-1.594h5.688v4.971c-0.875,0.694-1.776,1.217-2.706,1.566c-0.93,0.351-1.884,0.525-2.861,0.525
			c-1.321,0-2.521-0.282-3.601-0.847s-1.895-1.38-2.444-2.448c-0.551-1.067-0.825-2.26-0.825-3.578c0-1.306,0.273-2.524,0.82-3.656
			s1.334-1.973,2.361-2.521c1.026-0.549,2.209-0.824,3.548-0.824c0.972,0,1.851,0.158,2.637,0.473
			c0.785,0.315,1.4,0.755,1.847,1.317c0.446,0.563,0.786,1.298,1.019,2.203l-1.639,0.44c-0.201-0.684-0.451-1.221-0.749-1.611
			s-0.724-0.703-1.276-0.938c-0.554-0.234-1.168-0.353-1.843-0.353c-0.81,0-1.509,0.124-2.099,0.371s-1.066,0.572-1.428,0.975
			c-0.362,0.402-0.644,0.845-0.844,1.326c-0.341,0.829-0.511,1.729-0.511,2.699c0,1.195,0.205,2.195,0.615,3.001
			c0.41,0.805,1.008,1.402,1.793,1.793c0.784,0.391,1.618,0.585,2.5,0.585c0.766,0,1.514-0.146,2.244-0.441
			c0.729-0.295,1.283-0.609,1.66-0.944v-2.489H149.761z"/>
		<path d="M158.392,275.163v-13.438h1.781v13.438H158.392z"/>
		<path d="M163.398,275.163v-13.438h9.719v1.594h-7.938v4.094h7.438v1.594h-7.438v4.563h8.25v1.594H163.398z"/>
		<path d="M175.288,270.85l1.688-0.156c0.079,0.672,0.264,1.223,0.553,1.652c0.289,0.431,0.738,0.778,1.348,1.044
			s1.294,0.397,2.056,0.397c0.676,0,1.272-0.101,1.79-0.302s0.903-0.478,1.156-0.828s0.379-0.732,0.379-1.146
			c0-0.419-0.124-0.785-0.372-1.098s-0.652-0.575-1.213-0.788c-0.359-0.14-1.155-0.357-2.386-0.652
			c-1.231-0.295-2.095-0.574-2.59-0.838c-0.643-0.336-1.121-0.753-1.436-1.251c-0.315-0.498-0.473-1.057-0.473-1.674
			c0-0.679,0.192-1.313,0.578-1.902c0.385-0.59,0.947-1.038,1.687-1.344s1.562-0.459,2.466-0.459c0.996,0,1.875,0.161,2.636,0.483
			s1.346,0.796,1.755,1.422s0.63,1.335,0.66,2.126l-1.719,0.125c-0.092-0.845-0.4-1.483-0.928-1.915s-1.306-0.647-2.335-0.647
			c-1.073,0-1.854,0.196-2.345,0.589c-0.491,0.393-0.736,0.865-0.736,1.419c0,0.481,0.174,0.877,0.521,1.187
			c0.341,0.311,1.231,0.629,2.673,0.954s2.433,0.61,2.973,0.854c0.785,0.359,1.365,0.814,1.74,1.365
			c0.374,0.552,0.562,1.187,0.562,1.904c0,0.713-0.204,1.385-0.613,2.015s-0.997,1.12-1.763,1.471
			c-0.767,0.35-1.629,0.524-2.588,0.524c-1.215,0-2.232-0.177-3.054-0.529c-0.821-0.354-1.466-0.885-1.933-1.595
			C175.559,272.548,175.313,271.746,175.288,270.85z"/>
		<path d="M189.344,261.859c0.4,0,0.79,0.103,1.172,0.308c0.381,0.205,0.678,0.498,0.891,0.879c0.212,0.382,0.318,0.779,0.318,1.193
			c0,0.41-0.104,0.805-0.313,1.183c-0.21,0.379-0.504,0.672-0.882,0.882c-0.378,0.209-0.773,0.313-1.186,0.313
			c-0.413,0-0.808-0.104-1.186-0.313s-0.673-0.503-0.883-0.882c-0.211-0.378-0.316-0.772-0.316-1.182
			c0-0.414,0.107-0.813,0.321-1.193c0.213-0.382,0.511-0.675,0.892-0.88S188.943,261.859,189.344,261.859z M189.344,262.25
			c-0.336,0-0.662,0.086-0.979,0.258c-0.317,0.171-0.566,0.417-0.745,0.735c-0.18,0.319-0.27,0.651-0.27,0.997
			c0,0.343,0.088,0.672,0.265,0.986c0.176,0.315,0.423,0.561,0.739,0.736s0.646,0.264,0.99,0.264s0.674-0.088,0.99-0.264
			s0.563-0.421,0.737-0.736c0.176-0.314,0.263-0.644,0.263-0.987c0-0.345-0.089-0.677-0.268-0.996
			c-0.178-0.319-0.426-0.564-0.745-0.736C190.003,262.335,189.677,262.25,189.344,262.25z M188.295,265.554v-2.563h0.885
			c0.302,0,0.521,0.023,0.656,0.07c0.135,0.048,0.243,0.13,0.323,0.248c0.08,0.117,0.12,0.242,0.12,0.374
			c0,0.188-0.067,0.35-0.202,0.488s-0.313,0.217-0.536,0.233c0.091,0.038,0.163,0.083,0.218,0.136c0.104,0.102,0.23,0.271,0.38,0.51
			l0.313,0.503h-0.506l-0.23-0.405c-0.182-0.315-0.325-0.515-0.431-0.597c-0.076-0.06-0.187-0.091-0.332-0.092h-0.243v1.094H188.295
			z M188.709,264.109h0.51c0.243,0,0.409-0.036,0.498-0.107s0.133-0.166,0.133-0.284c0-0.076-0.021-0.144-0.063-0.204
			c-0.043-0.06-0.103-0.104-0.178-0.134c-0.076-0.029-0.217-0.044-0.422-0.044h-0.478V264.109z"/>
	</g>
	<path fill="#FFD100" d="M46.918,0c21.028,0,38.177,17.151,38.177,38.175c0,21.03-17.149,38.184-38.177,38.184
		c-21.023,0-38.18-17.153-38.18-38.184C8.738,17.151,25.895,0,46.918,0z"/>
	<path d="M135.355,124.456l-19.657,0.027l-0.02,64.82c0.02,2.293-0.045,6.944,3.617,4.605c7.624-5.25,11.009-23.78,12.174-27.27
		l4.382,1.617c-5.05,18.527-9.762,43.508-33.624,46.607l0,0H69.019v-5.319h8.503l0,0c-3.632-3.061-6.917-6.832-8.503-11.026V91.763
		c22.198-7.391,40.227-29.487,46.66-52.21l0.02,78.078h19.657V124.456z M69.019,214.863H0v-5.343h12.469l0.023-115.727
		c8.121,2.755,16.836,4.27,25.869,4.27c4.319,0,8.557-0.343,12.702-0.988c3.354-0.371,6.531-1.538,9.41-2.167l0.031,22.722h7.468
		V92.1c0.375-0.097,0.707-0.209,1.046-0.337v106.754c-0.652-1.691-1.015-3.459-1.015-5.288l-0.031-68.773h-7.468v85.088h8.514
		V214.863z"/>
</g>
</svg>
