<svg xmlns="http://www.w3.org/2000/svg" id="Layer_1" viewBox="0 0 666.12 192.53"><style>.st0{fill:#a9abad}.st1{fill:#ed7631}</style><g id="IronGalaxyVector"><g id="Iron"><path d="M254.44 20.64h17.73v79.39h-17.73zM343.63 100.24V36.79h21.97s11.38 1.32 11.38 11.38c0 10.05-11.51 11.12-11.51 11.12l-21.83.06v15.62h14.23l17.8 25.27h22.23l-20.11-28.78s18-5.16 18-23.55c0-27.85-29.91-27.26-29.91-27.26h-40.89v79.59h18.64zM522.73 60.64c0 22.91-20.11 41.48-44.91 41.48-24.8 0-44.91-18.57-44.91-41.48 0-22.91 20.11-41.48 44.91-41.48 24.81 0 44.91 18.57 44.91 41.48zm-45.1-25.21c-14.06 0-25.46 11.2-25.46 25.01s11.4 25.01 25.46 25.01 25.46-11.2 25.46-25.01-11.41-25.01-25.46-25.01zM560.94 100.34v-79.6h17.47l39.1 48.93V20.74h18.66v79.6h-15.98L579.2 50.02v50.32z" class="st0"/></g><path d="M275.35 139.87h21.7v21.3s-7.67 7.15-22.1 7.15c-14.42 0-26.2-9.79-26.2-24.74 0-17.33 16.01-24.48 26.2-24.48 14.29 0 20.38 6.35 20.38 6.35l-7.14 8.73s-3.57-5.16-13.63-5.16c-8.07 0-13.89 7.41-13.89 14.29 0 6.88 5.16 15.48 14.56 15.48 9.13 0 11.25-3.18 11.25-3.18l-.13-6.62H275.5l-.15-9.12zM319.15 167.39l21.57-47.5h10.59l21.44 47.5H361.1l-4.9-10.59h-20.77l-4.63 10.59h-11.65zm20.11-19.85h13.1l-6.62-14.82-6.48 14.82zM453.86 167.39l21.57-47.5h10.58l21.44 47.5H495.8l-4.9-10.59h-20.78l-4.63 10.59h-11.63zm20.11-19.85h13.1l-6.62-14.82-6.48 14.82zM397.22 120.09v47.43h36.66V158h-25.41v-37.91zM526.9 167.66h12.83l11.52-16.01 10.85 16.01h12.97l-17.34-24.48 17.07-23.16h-12.83l-10.72 14.82-10.46-14.82h-13.23l16.81 23.42zM593.86 120.02l19.68 28.78v18.79h11.38V148.8l19.35-28.78H631.3l-11.64 18.13-12.31-18.13h-13.49M101.21 8.73c32.81-10.61 65.1 7.15 65.1 7.15S144.94.16 113.65 0C73.42-.2 17.28 22.42 2.76 84.42c-16.67 71.19 45.17 116.12 104.01 106.92 94.74-14.82 96.6-104.27 96.6-104.27s-10.59 93.42-101.63 96.07c-45.26 1.32-86.54-43.67-74.9-94.48 8.82-38.48 30.18-65.63 74.37-79.93z" class="st1"/><path d="M193.31 85.22S191 55.91 164.73 41.29C139.06 27 96.39 31.53 69.19 58.49c-29.38 29.11-34.67 67.22-16.14 93.95 20.72 29.89 64.56 28.06 88.92 15.88 30.17-15.08 41.02-37.32 41.02-37.32s-11.91 21.44-41.81 34.4c-16.96 7.36-49.75 12.44-69.87-18.52-11.61-17.87-7.41-51.34 12.96-73.3 24.89-26.83 56.5-33.19 78.87-25.41 24.35 8.47 30.17 37.05 30.17 37.05z" class="st1"/><path d="M173.2 134.71s15.34-33.5-5.82-51.87c-21.04-18.26-53.77-13-75.42 7.28-22.89 21.44-24.56 51.18-10.32 66.82 27.33 30.04 69.6 2.12 69.6 2.12s-47.18 25.24-62.72-8.34c-7.41-16.01-.66-32.95 12.57-48.3 16.4-19.02 45.92-21.3 61.27-13.76 23.33 11.47 10.84 46.05 10.84 46.05z" class="st1"/><path d="M117.75 167.66s-12.64-1.6-12.97-12.57c-.32-10.98 2.5-17.2 10.32-24.74s25.15-11.66 32.29-4.9c13.9 13.18-5.29 34.27-5.29 34.27s21.87-22.08 8.45-38.96c-7.35-8.24-28.93-7.1-40.08 4.82-11.34 12.13-12.74 23.4-9.13 32.02 4.86 11.61 16.41 10.06 16.41 10.06z" class="st1"/></g><path d="M657.75 130.61v-6.13h2.12s1.1.13 1.1 1.1c0 .97-1.11 1.07-1.11 1.07l-2.11.01v1.51h1.38l1.72 2.44H663l-1.94-2.78s1.74-.5 1.74-2.28c0-2.69-2.89-2.64-2.89-2.64h-3.95v7.7h1.79z" class="st1"/><path d="M658.96 119.59a7.17 7.17 0 1 0 0 14.34 7.17 7.17 0 0 0 0-14.34zm0 13.31a6.15 6.15 0 1 1 0-12.3 6.15 6.15 0 0 1 0 12.3z" class="st1"/></svg>