<?xml version="1.0" encoding="UTF-8" standalone="no"?>
<svg
   xmlns:dc="http://purl.org/dc/elements/1.1/"
   xmlns:cc="http://creativecommons.org/ns#"
   xmlns:rdf="http://www.w3.org/1999/02/22-rdf-syntax-ns#"
   xmlns:svg="http://www.w3.org/2000/svg"
   xmlns="http://www.w3.org/2000/svg"
   width="302"
   height="44.829952"
   viewBox="0 0 302 44.829953"
   id="svg3798"
   version="1.1">
  <defs
     id="defs3800" />
  <metadata
     id="metadata3803">
    <rdf:RDF>
      <cc:Work
         rdf:about="">
        <dc:format>image/svg+xml</dc:format>
        <dc:type
           rdf:resource="http://purl.org/dc/dcmitype/StillImage" />
        <dc:title></dc:title>
      </cc:Work>
    </rdf:RDF>
  </metadata>
  <g
     id="layer1"
     transform="translate(-442.90356,-700.2139)">
    <g
       style="fill:#231f20;fill-opacity:1"
       id="g3444"
       transform="matrix(3.0334541,0,0,-3.0334541,458.86152,714.85353)">
      <path
         d="m 0,0 3.588,4.151 -2.413,0 -3.356,-3.896 0,3.879 -2.75,0 c 0,0 0.471,-0.141 0.471,-0.598 l 0,-8.432 2.764,0 c 0,0 -0.485,0.217 -0.485,0.667 l 0,3.855 3.167,-4.185 c 0,0 0.246,-0.357 0.738,-0.357 l 2.169,0 C 3.893,-4.916 2.8,-3.726 0,0"
         style="fill:#231f20;fill-opacity:1;fill-rule:nonzero;stroke:none"
         id="path3446" />
    </g>
    <g
       style="fill:#231f20;fill-opacity:1"
       id="g3448"
       transform="matrix(3.0334541,0,0,-3.0334541,481.31908,702.26057)">
      <path
         d="m 0,0 -2.766,0 c 0,0 0.501,-0.22 0.501,-0.604 l 0,-8.463 2.743,0 c 0,0 -0.478,0.133 -0.478,0.655 L 0,0 Z"
         style="fill:#231f20;fill-opacity:1;fill-rule:nonzero;stroke:none"
         id="path3450" />
    </g>
    <g
       style="fill:#231f20;fill-opacity:1"
       id="g3452"
       transform="matrix(3.0334541,0,0,-3.0334541,489.16663,701.4874)">
      <path
         d="m 0,0 0,-9.34 2.508,0 c 0,0 -0.557,0.124 -0.557,0.655 l 0,4.385 5.923,-5.249 0,9.259 -2.358,0 c 0,0 0.412,-0.202 0.412,-0.568 l 0,-4.434 L 0,0 Z"
         style="fill:#231f20;fill-opacity:1;fill-rule:nonzero;stroke:none"
         id="path3454" />
    </g>
    <g
       style="fill:#231f20;fill-opacity:1"
       id="g3456"
       transform="matrix(3.0334541,0,0,-3.0334541,542.37344,709.5923)">
      <path
         d="m 0,0 0,2.382 c 0,0 -0.157,-0.23 -0.563,-0.067 -0.393,0.145 -1.409,0.447 -2.239,0.447 -0.82,0 -4.659,-0.172 -4.905,-5.002 0,0 -0.173,-4.637 4.893,-4.722 0,0 1.363,-0.109 3.39,0.868 l 0,4.42 -2.562,0 c 0,0 0.519,-0.144 0.519,-0.65 l 0,-2.378 c 0,0 -0.404,-0.444 -1.347,-0.444 -0.947,0 -2.704,0.478 -2.814,2.906 0,0 -0.157,3.1 3.027,3.205 0,0 1.313,0.172 2.601,-0.965"
         style="fill:#231f20;fill-opacity:1;fill-rule:nonzero;stroke:none"
         id="path3458" />
    </g>
    <g
       style="fill:#231f20;fill-opacity:1"
       id="g3460"
       transform="matrix(3.0334541,0,0,-3.0334541,558.09156,702.51538)">
      <path
         d="m 0,0 c 0,0 0.527,-0.181 0.527,-0.722 l 0,-8.328 2.774,0 c 0,0 -0.53,0.2 -0.53,0.792 l 0,6.785 1.191,0 c 0,0 1.209,-0.121 1.209,-1.271 0,-1.129 -0.863,-1.357 -1.317,-1.357 l -0.776,0 2.331,-4.088 c 0,0 0.452,-0.845 1.166,-0.845 l 1.881,0 c 0,0 -1.495,1.77 -2.679,4.04 0,0 1.605,0.654 1.605,2.444 C 7.382,-0.741 5.861,0 4.744,0 L 0,0 Z"
         style="fill:#231f20;fill-opacity:1;fill-rule:nonzero;stroke:none"
         id="path3462" />
    </g>
    <g
       style="fill:#231f20;fill-opacity:1"
       id="g3464"
       transform="matrix(3.0334541,0,0,-3.0334541,668.72105,702.51538)">
      <path
         d="m 0,0 c 0,0 0.525,-0.181 0.525,-0.722 l 0,-8.328 2.78,0 c 0,0 -0.541,0.2 -0.541,0.792 l 0,6.785 1.207,0 c 0,0 1.21,-0.121 1.21,-1.271 0,-1.129 -0.881,-1.357 -1.333,-1.357 l -0.774,0 2.327,-4.088 c 0,0 0.464,-0.845 1.17,-0.845 l 1.877,0 c 0,0 -1.489,1.77 -2.673,4.04 0,0 1.603,0.654 1.603,2.444 C 7.378,-0.741 5.865,0 4.738,0 L 0,0 Z"
         style="fill:#231f20;fill-opacity:1;fill-rule:nonzero;stroke:none"
         id="path3466" />
    </g>
    <g
       style="fill:#231f20;fill-opacity:1"
       id="g3468"
       transform="matrix(3.0334541,0,0,-3.0334541,604.61567,702.56852)">
      <path
         d="m 0,0 -6.326,0 c 0,0 0.498,-0.173 0.498,-0.613 l 0,-8.404 5.777,0 0.313,1.555 -3.881,0 0,2.383 3.164,0 0,1.623 -3.164,0 0,1.931 3.605,0 L 0,0 Z"
         style="fill:#231f20;fill-opacity:1;fill-rule:nonzero;stroke:none"
         id="path3470" />
    </g>
    <g
       style="fill:#231f20;fill-opacity:1"
       id="g3472"
       transform="matrix(3.0334541,0,0,-3.0334541,631.09013,702.62798)">
      <path
         d="m 0,0 0,-2.374 c 0,0 -0.885,1.092 -2.442,0.982 -1.564,-0.104 -2.713,-0.799 -2.924,-3.075 0,0 -0.163,-2.975 2.982,-3.075 0,0 1.184,-0.11 2.422,0.801 l -0.317,-2.238 c 0,0 -1.013,-0.351 -2.105,-0.351 -1.109,0 -2.913,0.255 -4.099,1.952 -1.194,1.69 -0.97,3.211 -0.97,3.211 0,0 0,1.746 1.32,3.142 1.544,1.656 3.691,1.401 4.271,1.297 C -1.292,0.193 -0.345,-0.212 0,0"
         style="fill:#231f20;fill-opacity:1;fill-rule:nonzero;stroke:none"
         id="path3474" />
    </g>
    <g
       style="fill:#231f20;fill-opacity:1"
       id="g3476"
       transform="matrix(3.0334541,0,0,-3.0334541,650.16781,725.85259)">
      <path
         d="M 0,0 C 1.58,0 2.868,1.399 2.868,3.12 2.868,4.85 1.58,6.247 0,6.247 -1.58,6.247 -2.85,4.85 -2.85,3.12 -2.85,1.399 -1.58,0 0,0 m -4.934,3.12 c 0,2.686 2.209,4.858 4.934,4.858 2.73,0 4.939,-2.172 4.939,-4.858 0,-2.681 -2.209,-4.852 -4.939,-4.852 -2.725,0 -4.934,2.171 -4.934,4.852"
         style="fill:#231f20;fill-opacity:1;fill-rule:nonzero;stroke:none"
         id="path3478" />
    </g>
    <g
       style="fill:#231f20;fill-opacity:1"
       id="g3480"
       transform="matrix(3.0334541,0,0,-3.0334541,704.69568,708.04015)">
      <path
         d="m 0,0 0,-5.512 1.545,0 c 0,0 2.126,-0.031 2.126,2.68 0,0 0.089,2.832 -2.473,2.832 L 0,0 Z M 0.707,1.736 C 6.017,1.759 5.728,-2.832 5.728,-2.832 5.51,-7.505 1.335,-7.268 1.335,-7.268 l -3.57,0 0,8.379 c 0,0.418 -0.466,0.625 -0.466,0.625 l 3.408,0 z"
         style="fill:#231f20;fill-opacity:1;fill-rule:nonzero;stroke:none"
         id="path3482" />
    </g>
    <g
       style="fill:#231f20;fill-opacity:1"
       id="g3484"
       transform="matrix(3.0334541,0,0,-3.0334541,742.59007,702.86168)">
      <path
         d="m 0,0 0,-2.273 c 0,0 -0.796,0.994 -1.957,1.031 -1.167,0.008 -1.456,-0.549 -1.439,-1.059 0.031,-0.51 0.797,-0.952 1.641,-1.352 0.84,-0.402 2.188,-1.051 2.188,-2.826 0,-1.768 -1.611,-2.866 -3.446,-2.819 0,0 -1.311,0.024 -2.361,0.445 l -0.159,2.05 c 0,0 0.887,-1.17 2.563,-0.98 1.678,0.182 1.446,1.212 1.446,1.286 0,0.064 -0.053,0.761 -1.747,1.526 -1.704,0.79 -2.08,1.742 -2.036,2.67 0.051,0.939 0.545,2.499 3.019,2.591 0,0 0.839,-0.092 1.303,-0.238 C -0.526,-0.076 -0.307,-0.109 0,0"
         style="fill:#231f20;fill-opacity:1;fill-rule:nonzero;stroke:none"
         id="path3486" />
    </g>
    <g
       id="g3488"
       transform="matrix(3.0334541,0,0,-3.0334541,476.60905,737.37632)">
      <path
         d="m 0,0 -10.685,0 0,-2.198 12.327,0 L 0,0 Z"
         style="fill:#e60012;fill-opacity:1;fill-rule:nonzero;stroke:none"
         id="path3490" />
    </g>
    <g
       id="g3492"
       transform="matrix(3.0334541,0,0,-3.0334541,476.60905,737.37632)">
      <path
         d="m 0,0 1.642,-2.198 37.141,0 L 37.141,0 0,0 Z"
         style="fill:#004ea2;fill-opacity:1;fill-rule:nonzero;stroke:none"
         id="path3494" />
    </g>
    <g
       id="g3496"
       transform="matrix(3.0334541,0,0,-3.0334541,589.27336,737.37632)">
      <path
         d="m 0,0 1.643,-2.198 49.302,0 0,2.198 L 0,0 Z"
         style="fill:#009944;fill-opacity:1;fill-rule:nonzero;stroke:none"
         id="path3498" />
    </g>
  </g>
</svg>
