<?xml version="1.0" encoding="UTF-8" standalone="no"?>
<!-- Created with Inkscape (http://www.inkscape.org/) -->

<svg
   xmlns:dc="http://purl.org/dc/elements/1.1/"
   xmlns:cc="http://creativecommons.org/ns#"
   xmlns:rdf="http://www.w3.org/1999/02/22-rdf-syntax-ns#"
   xmlns:svg="http://www.w3.org/2000/svg"
   xmlns="http://www.w3.org/2000/svg"
   xmlns:sodipodi="http://sodipodi.sourceforge.net/DTD/sodipodi-0.dtd"
   xmlns:inkscape="http://www.inkscape.org/namespaces/inkscape"
   id="svg3039"
   version="1.1"
   inkscape:version="0.48.4 r9939"
   width="535"
   height="120"
   sodipodi:docname="760625-natsume.jpg">
  <metadata
     id="metadata3045">
    <rdf:RDF>
      <cc:Work
         rdf:about="">
        <dc:format>image/svg+xml</dc:format>
        <dc:type
           rdf:resource="http://purl.org/dc/dcmitype/StillImage" />
        <dc:title></dc:title>
      </cc:Work>
    </rdf:RDF>
  </metadata>
  <defs
     id="defs3043" />
  <sodipodi:namedview
     pagecolor="#ffffff"
     bordercolor="#666666"
     borderopacity="1"
     objecttolerance="10"
     gridtolerance="10"
     guidetolerance="10"
     inkscape:pageopacity="0"
     inkscape:pageshadow="2"
     inkscape:window-width="1366"
     inkscape:window-height="746"
     id="namedview3041"
     showgrid="false"
     fit-margin-top="0"
     fit-margin-left="0"
     fit-margin-right="0"
     fit-margin-bottom="0"
     inkscape:zoom="1.08"
     inkscape:cx="223.10239"
     inkscape:cy="88.796296"
     inkscape:window-x="-8"
     inkscape:window-y="-8"
     inkscape:window-maximized="1"
     inkscape:current-layer="layer1" />
  <path
     sodipodi:type="arc"
     style="fill:#ffffff;fill-opacity:1"
     id="path3057"
     sodipodi:cx="4864.1875"
     sodipodi:cy="-143.50288"
     sodipodi:rx="34.294678"
     sodipodi:ry="24.395184"
     d="m 4898.4822,-143.50288 a 34.294678,24.395184 0 1 1 -68.5894,0 34.294678,24.395184 0 1 1 68.5894,0 z"
     transform="translate(0,-1080)" />
  <g
     inkscape:groupmode="layer"
     id="layer1"
     inkscape:label="Layer"
     transform="translate(0,-1080)">
    <g
       id="g3049"
       transform="matrix(0.1,0,0,0.1,0,1080)">
      <path
         style="fill:#fdfcfd"
         d="M 0,600 0,0 l 2675,0 2675,0 0,600 0,600 -2675,0 -2675,0 0,-600 z"
         id="path3053"
         inkscape:connector-curvature="0" />
      <path
         style="fill:#34256d"
         d="M 0,600 0,0 l 2675,0 2675,0 0,600 0,600 -2675,0 -2675,0 z m 2435.3496,345 c 11.8055,-0.74228 20.2669,-1.92942 27.1504,-3.63619 38.5111,-9.54879 81.1286,-25.81912 109,-41.61358 43.8879,-24.87082 75.6205,-55.6418 97.2184,-94.27227 19.9241,-35.63668 26.2585,-69.5702 18.3178,-98.12875 -4.0883,-14.7038 -3.5338,-13.99583 -56.0362,-71.54308 L 2461.667,450.0421 c 0,0 -21.7422,-21.51369 -26.1811,-31.45789 -3.4791,-7.79407 -2.481,-13.70636 -2.4759,-29.04211 0.011,-32.98057 -0.069,-32.58621 9.1953,-45.07897 13.9737,-18.84248 38.0603,-30.09414 73.7949,-34.47203 12.6361,-1.54807 108.319,-0.79759 118.8446,0.93214 27.9143,4.58732 35.8185,11.47409 44.2052,25.9063 l 80.8752,179.48753 75.4418,-118.0308 -96.56,-76.50475 c -18.2428,-14.41279 -63.1524,-32.85597 -97.8068,-40.16662 -23.8874,-5.03926 -37.5579,-3.75525 -74,-3.6149 -28.3941,0.10936 -43.7372,-1.26749 -65.7728,1.96665 -54.4027,7.98463 -106.6727,29.82529 -146.7176,61.30501 -16.0269,12.59892 -43.8734,39.90103 -58.3729,57.23191 -23.4172,27.98974 -38.9577,55.77075 -45.3398,81.05167 -3.2813,12.99787 -3.2839,36.31676 -0.01,48.32096 1.2582,4.60691 3.0119,9.78191 3.8971,11.5 l 227.78,241.45205 c 11.9241,12.80212 16.3528,26.51393 15.2118,47.09761 -1.8988,34.25232 -3.7634,41.14203 -23.2806,62.20954 -20.2855,21.89684 -40.9822,27.89461 -73.3998,27.96325 -26.7037,0.0566 -49.9308,-2.23937 -67.985,-6.72008 -30.7393,-7.62891 -55.3291,-21.60582 -76.6013,-43.54043 L 2248.3273,859.5 C 2214.1451,824.23445 2188,718.04613 2188,718.04613 l -63.5688,111.40395 86.5918,61.08454 c 27.2059,19.19187 46.336,26.27826 75.477,35.90528 47.2198,15.59955 96.7936,21.83318 148.8496,18.5601 z m 2313.0781,0 c 8.8822,-12.15234 9.0505,-30.77794 1.9868,-42.5 L 4377.4748,900.24737 4476.7292,605.5 4520.9337,604.96191 4639.3145,705.15777 4680,567.63421 4488,565.99972 4569.1391,318 4615.5,318.039 4775.8453,440.99993 4827.0121,278 l -535.319,0 -8.8895,41.99993 L 4347,320.62556 4141,945 z M 2961.5,940 c 194.4299,0 179.6234,-0.11715 210.4074,-7.55893 47.3584,-11.44852 84.3348,-34.09937 105.354,-73.45269 15.8882,-29.74681 14.0893,-30.68946 20.2778,-49.3093 L 3497,278 l -147,0 57.7309,120.5 -148.7472,404.5 c -3.6782,14.1598 -21.9897,43.58568 -36.9354,59.35361 -20.7506,21.89231 -46.7439,36.4679 -76.3599,42.81826 -8.4993,1.82245 -13.4213,2.18504 -29.6884,2.18708 -17.3585,0.002 -20.9826,-0.3003 -33,-2.75419 -7.425,-1.51614 -15.7888,-3.16713 -18.5861,-3.66887 -8.6922,-1.55902 -20.6242,-5.87443 -27.5337,-9.95806 -25.974,-15.35113 -32.6017,-47.92551 -18.4087,-90.47783 L 3202,278 l -312,0 42.219,114.5 -177.8034,506.84415 c -4.0161,9.97905 -4.9094,16.65312 -2.9987,22.40553 4.6853,14.10628 14.1894,18.34832 28.0831,18.25032 z M 500.07216,451 642.42782,945 799.47031,945 1041.632,278 914.23049,278 959.00507,392.35159 817.1965,762.61335 678.5,278.00313 422.11379,278 474.2658,387.5 285.94546,945 l 45.78958,0 z M 1946.933,908.34566 1865.262,906.32041 2077.6941,312 l 186.7549,0 18.4409,-34 -720.1279,0 -11.7507,34 300.6964,0 -218.2307,633 301.9359,0 z M 1535.7603,902.5 l -85.07,0 20.5921,-624.5 -335.9712,0 50.8791,111.79361 L 874,945 925.79523,945 1062.5,704.01265 1239,704.00065 1239.607,945 l 277.2033,0 z M 1238.9363,381.99988 1239.5,659.99962 1081.8279,660 z M 3549.5364,546 l -9.1817,394 130.4227,0 L 3904.8611,553.54722 3769,945 l 222.8252,0 238.1253,-667 -216.7917,0 L 3754.6084,701.84348 3778.2709,278 3592.2426,278 3364,945 l 40.7005,0 z M 4985.965,455.50263 c 24.3386,-6.63193 44.13,-20.26283 56.0355,-38.59328 22.5622,-34.73821 24.3979,-71.75962 5.301,-106.90935 -8.3821,-15.42822 -18.8951,-26.34399 -34.5416,-35.86491 -16.4296,-9.99754 -29.9646,-13.53753 -51.7599,-13.53753 -17.2118,0 -26.9495,1.78109 -39.9244,7.30239 -29.7815,12.67316 -53.4954,43.36308 -58.1608,75.27032 -1.4956,10.22853 -0.6392,32.02377 1.6044,40.82973 1.9442,7.63115 9.937,24.38396 15.5239,32.98084 5.5869,8.59688 15.4018,18.26894 23.7458,23.90131 11.5022,7.76432 28.2308,14.42691 43.1305,17.17782 8.5796,1.58404 28.678,0.26768 39.0456,-2.55734 z M 4946,437.51527 c -8.6849,-1.95669 -13.7725,-3.90084 -24.5,-9.36227 -16.3715,-8.33483 -29.4675,-24.4824 -36.2145,-44.653 -2.4278,-7.25784 -2.681,-9.43793 -2.7308,-23.5 -0.063,-17.77061 1.7837,-26.43659 8.0818,-37.92982 13.4978,-24.63218 34.397,-40.52985 61.5081,-41.60258 19.1726,-0.75862 28.4363,-1.35284 47.3554,8.75457 14.7817,7.897 29.5113,26.08899 34.5367,39.04052 4.6767,12.0528 6.2156,20.08008 6.1656,31.73731 -0.098,22.89239 -10.5517,45.94602 -27.037,59.62732 -7.3846,6.12861 -23.4101,14.39517 -32.6653,16.85006 -8.6932,2.30581 -26.4952,2.84136 -34.5,1.03789 z m -8,-69.36963 3.052,0.38625 c 1.6785,0.21243 6.0857,1.36333 9.7936,2.55755 l 6.7417,2.1713 c 6.7907,2.18709 15.5035,25.66691 22.8513,38.73926 l 26.6957,0 -6.2542,-11.75 c -11.0605,-20.77964 -13.2445,-23.72617 -23.1198,-31.19089 l -3.7398,-2.82685 4.7398,-1.18205 c 6.9097,-1.72323 12.314,-5.23326 16.0348,-10.41447 6.8059,-9.47704 7.6372,-14.32538 4.3097,-25.13574 -1.5973,-5.18924 -3.3909,-8.40049 -6.9337,-12.41396 -7.1911,-8.14669 -11.6603,-8.99016 -47.9211,-9.04405 L 4916,308 l 0,104 22,0 z M 4938,324 l 5.25,0.0258 c 2.8875,0.0142 9.6414,0.45298 15.0086,0.97508 11.9135,1.15892 20.7075,2.48892 20.9571,13.69086 0.2496,11.20194 -8.1642,11.96622 -25.9657,12.79168 l -15.25,0.70715 z"
         inkscape:connector-curvature="0"
         sodipodi:nodetypes="cccccccccsssssccsscssccccsssssscccsssscsccssscccccccccccccccccsssscccccsscsssccccccsccccccccccccccccccccccccccccccccccccccccccccccccccccccssssssssssssssssssssssssccsssccsscssscscccccssssc" />
    </g>
  </g>
  <g
     inkscape:groupmode="layer"
     id="layer2"
     inkscape:label="Layer2"
     transform="translate(0,-1080)" />
</svg>
