<?xml version="1.0" encoding="utf-8"?>
<!-- Generator: Adobe Illustrator 16.0.0, SVG Export Plug-In . SVG Version: 6.00 Build 0)  -->
<!DOCTYPE svg PUBLIC "-//W3C//DTD SVG 1.1//EN" "http://www.w3.org/Graphics/SVG/1.1/DTD/svg11.dtd">
<svg version="1.1" id="Layer_1" xmlns="http://www.w3.org/2000/svg" xmlns:xlink="http://www.w3.org/1999/xlink" x="0px" y="0px"
	 width="316.385px" height="61px" viewBox="0 0 316.385 61" enable-background="new 0 0 316.385 61" xml:space="preserve">
<g>
	<path fill-rule="evenodd" clip-rule="evenodd" fill="#FFFFFF" d="M211.123,11.373c-0.654-0.988-0.972-1.99-1.025-3.04
		c-0.077-1.51,0.677-2.662,2.194-2.893c0.614-0.093,1.216,0.148,1.723,0.486c0.774,0.517,1.429,1.169,1.916,1.978
		c0.178,0.294,0.423,0.539,0.643,0.801c0.853,1.016,1.962,1.65,3.082,2.296c0.405,0.234,0.781,0.383,1.261,0.382
		c6.52-0.001,13.039,0.054,19.559,0.019c4.422-0.024,8.844-0.025,13.265-0.024c20.61,0.007,41.22,0.026,61.829,0.042
		c0.804,0.001,0.804,0.002,0.804,0.82c0,12.132-0.003,24.265,0.012,36.397c0,0.479-0.124,0.585-0.592,0.585
		c-28.95-0.012-57.899-0.01-86.849-0.016c-0.446,0-0.84,0.095-1.253,0.274c-1.527,0.666-3.131,1.05-4.802,1.11
		c-1.186,0.043-2.373,0.081-3.559,0.108c-0.422,0.01-0.736,0.151-0.909,0.559c-0.163,0.386-0.374,0.752-0.515,1.145
		c-0.847,2.357-2.651,3.559-4.946,4.257c-2.449,0.746-4.493,0.004-6.35-1.546c-0.532-0.443-1.206-0.609-1.755-1.014
		c-1.603-1.18-2.963-2.548-3.521-4.529c-0.087-0.311-0.209-0.355-0.491-0.367c-1.384-0.055-2.754,0.115-4.129,0.214
		c-1.236,0.089-2.478,0.15-3.699-0.179c-0.181-0.049-0.382-0.026-0.574-0.026c-63.878-0.001-127.756-0.001-191.634-0.001
		c-0.795,0-0.795,0.001-0.795-0.774c0-12.149,0.003-24.299-0.011-36.449c0-0.482,0.111-0.62,0.596-0.567
		c0.5,0.054,1.012-0.006,1.519-0.006c57.654,0,115.309,0,172.963,0c7.201,0,14.401,0,21.601,0c0.157,0,0.316,0.011,0.472-0.008
		c0.27-0.033,0.287-0.297,0.346-0.474c0.073-0.216-0.179-0.161-0.278-0.186c-0.815-0.196-1.334-0.8-1.722-1.441
		c-0.482-0.798-0.809-1.693-0.966-2.634c-0.23-1.382,0.555-2.515,1.937-2.643c1.287-0.119,2.541,0.094,3.698,0.711
		c0.69,0.367,1.19,0.923,1.414,1.674c0.234,0.789,0.919,1.013,1.549,1.169c0.991,0.245,2.048,0.144,3.035,0.496
		c0.677,0.242,1.227,0.643,1.701,1.171c0.559,0.622,1.209,1.163,1.643,1.895c0.093,0.157,0.243,0.236,0.44,0.231
		C210.308,11.366,210.671,11.373,211.123,11.373z M229.507,48.379c0.275,0,0.409,0,0.543,0c28.338,0,56.677-0.001,85.016,0.01
		c0.404,0,0.476-0.11,0.476-0.489c-0.011-11.713-0.011-23.426-0.001-35.139c0-0.365-0.05-0.498-0.468-0.498
		c-31.118,0.012-62.236,0.011-93.354,0.015c-0.125,0-0.278-0.071-0.39,0.09c0.888,0.891,1.597,1.936,2.457,2.846
		c0.964,1.021,1.843,2.103,2.54,3.32c1.411,2.467,2.004,5.114,1.615,7.945c-0.175,1.271-1.295,2.251-2.543,2.408
		c-0.88,0.111-1.736-0.007-2.598-0.116c-1.712-0.218-3.391-0.57-4.97-1.302c-0.75-0.348-1.326-0.961-2.004-1.369
		c-0.95-0.572-1.991-0.981-2.736-1.932c-0.259,0.966-0.511,1.844-0.965,2.644c0.729,0.201,1.417,0.388,2.103,0.581
		c3.484,0.982,6.797,2.363,9.875,4.28c1.503,0.937,2.902,2.019,3.929,3.478c0.744,1.056,1.843,1.785,2.568,2.895
		c0-0.201,0-0.401,0-0.603c0-6.871,0.006-13.741-0.012-20.611c-0.001-0.541,0.161-0.67,0.683-0.668
		c5.07,0.02,10.139,0.021,15.209,0.005c1.387-0.004,2.752,0.171,4.067,0.561c4.16,1.231,5.907,3.756,6.141,7.544
		c0.178,2.883,0.086,5.767,0.105,8.65c0.009,1.346-0.06,2.687-0.196,4.027c-0.329,3.253-2.161,5.304-5.117,6.459
		c-1.918,0.749-3.943,0.865-5.967,0.874c-4.51,0.02-9.019,0.006-13.529-0.021c-0.445-0.003-0.568,0.145-0.679,0.542
		C230.951,46.059,230.671,47.36,229.507,48.379z M189.888,48.379c-0.369-0.344-0.758-0.604-1.087-0.939
		c-0.514-0.525-1.139-0.749-1.87-0.749c-61.239,0.003-122.477,0.003-183.715,0.003c-0.677,0-0.677,0-0.677-0.695
		c0-10.453,0-20.907,0-31.361c0-0.676,0-0.676,0.697-0.676c64.088,0,128.176,0.001,192.264-0.003c0.38,0,0.856,0.157,1.113-0.077
		c0.2-0.183,0.141-0.652,0.193-0.994c0.03-0.196,0.154-0.379,0.091-0.613c-0.182,0-0.355,0-0.529,0
		c-64.979,0-129.959,0.001-194.938-0.011c-0.475,0-0.59,0.114-0.59,0.589c0.015,11.626,0.016,23.251-0.002,34.877
		c0,0.552,0.146,0.663,0.677,0.663c62.62-0.014,125.239-0.013,187.858-0.013C189.544,48.379,189.716,48.379,189.888,48.379z
		 M24.797,34.278c-0.1-0.269-0.167-0.446-0.232-0.625c-1.998-5.501-3.998-11.002-5.985-16.507c-0.116-0.321-0.243-0.455-0.616-0.453
		c-4.073,0.018-8.146,0.017-12.219,0.002c-0.386-0.002-0.451,0.123-0.45,0.473c0.009,8.74,0.009,17.48-0.001,26.221
		c0,0.366,0.097,0.465,0.464,0.462c2.377-0.017,4.755-0.021,7.132,0.002c0.441,0.004,0.58-0.075,0.578-0.556
		c-0.021-5.297-0.014-10.594-0.01-15.891c0-0.173-0.063-0.367,0.074-0.53c0.173,0.083,0.179,0.239,0.223,0.36
		c1.958,5.385,3.917,10.77,5.857,16.161c0.131,0.364,0.308,0.454,0.673,0.453c4.09-0.013,8.181-0.014,12.271,0
		c0.388,0.001,0.525-0.066,0.525-0.5c-0.015-8.722-0.014-17.445-0.002-26.168c0-0.38-0.072-0.494-0.478-0.49
		c-2.377,0.023-4.755,0.027-7.132-0.001c-0.472-0.006-0.57,0.117-0.569,0.573c0.017,5.437,0.012,10.873,0.008,16.31
		C24.909,33.772,24.966,33.982,24.797,34.278z M107.152,28.268c-2.133,0-4.266,0.01-6.398-0.008
		c-0.364-0.003-0.471,0.09-0.466,0.461c0.022,1.45,0.026,2.902-0.002,4.353c-0.008,0.416,0.112,0.529,0.518,0.528
		c1.327-0.003,2.655,0.043,3.982,0.044c0.334,0.001,0.407,0.121,0.408,0.429c0.002,0.563-0.049,1.116-0.188,1.661
		c-0.23,0.903-1.023,1.511-1.955,1.504c-0.349-0.002-0.699,0.006-1.048,0.006c-1.101-0.001-2.202,0.017-3.302-0.011
		c-1.14-0.028-1.948-0.911-1.973-2.338c-0.052-2.971-0.06-5.944,0.002-8.914c0.031-1.44,0.649-2.401,2.477-2.357
		c1.292,0.031,2.585-0.002,3.878-0.003c0.901-0.001,1.687,0.593,1.906,1.49c0.078,0.319,0.209,0.401,0.524,0.399
		c2.465-0.014,4.93-0.008,7.395-0.008c0.993,0,1.013-0.001,0.951-0.996c-0.132-2.116-0.687-4.066-2.338-5.54
		c-1.868-1.667-4.119-2.38-6.566-2.459c-2.253-0.071-4.51-0.006-6.764-0.03c-1.705-0.018-3.38,0.134-4.979,0.764
		c-1.963,0.773-3.584,1.951-4.466,3.949c-0.542,1.228-0.711,2.528-0.751,3.859c-0.125,4.122-0.252,8.246,0.136,12.358
		c0.146,1.552,0.729,2.967,1.845,4.112c1.816,1.864,4.113,2.729,6.633,2.81c3.157,0.102,6.328,0.215,9.481-0.082
		c1.965-0.185,3.757-0.918,5.277-2.209c1.748-1.483,2.354-3.484,2.497-5.682c0.164-2.532,0.089-5.067,0.12-7.602
		c0.004-0.383-0.084-0.503-0.488-0.499C111.383,28.279,109.268,28.268,107.152,28.268z M115.261,30.172
		c0,4.387,0.005,8.774-0.009,13.162c-0.001,0.4,0.087,0.523,0.509,0.52c2.272-0.023,4.545-0.021,6.817-0.002
		c0.401,0.004,0.526-0.085,0.523-0.508c-0.019-3.129-0.002-6.258-0.02-9.387c-0.002-0.447,0.067-0.622,0.58-0.615
		c2.569,0.03,5.139,0.021,7.709,0.006c0.381-0.002,0.53,0.057,0.526,0.495c-0.022,3.181-0.005,6.362-0.02,9.544
		c-0.001,0.367,0.095,0.467,0.464,0.464c2.307-0.017,4.615-0.02,6.922,0.002c0.402,0.004,0.482-0.105,0.481-0.489
		c-0.012-8.775-0.012-17.551,0-26.326c0-0.377-0.104-0.451-0.463-0.449c-2.308,0.018-4.615,0.021-6.922-0.001
		c-0.405-0.004-0.485,0.113-0.483,0.495c0.016,3.094,0.002,6.188,0.017,9.282c0.002,0.389-0.068,0.526-0.499,0.522
		c-2.57-0.023-5.14-0.022-7.709-0.002c-0.456,0.004-0.613-0.083-0.608-0.584c0.027-3.076,0.005-6.153,0.023-9.229
		c0.002-0.394-0.091-0.488-0.486-0.484c-2.255,0.021-4.51,0.023-6.765,0c-0.456-0.005-0.604,0.084-0.602,0.579
		C115.271,21.501,115.261,25.836,115.261,30.172z M61.915,26.763c0,2.709,0,5.419,0,8.128c0,0.838-0.018,1.676,0.102,2.511
		c0.241,1.683,0.808,3.21,2.064,4.411c1.889,1.806,4.214,2.554,6.758,2.647c1.973,0.073,3.95,0.011,5.925,0.019
		c1.445,0.007,2.849-0.226,4.195-0.743c2.589-0.994,4.408-2.702,5.009-5.511c0.287-1.341,0.332-2.708,0.339-4.065
		c0.032-5.681,0.01-11.361,0.022-17.042c0.001-0.361-0.119-0.424-0.448-0.422c-2.412,0.013-4.824,0.019-7.236-0.005
		c-0.425-0.004-0.502,0.125-0.501,0.519c0.012,5.855,0.006,11.711,0.012,17.566c0,0.459-0.065,0.904-0.176,1.345
		c-0.245,0.972-1.021,1.546-2.026,1.538c-1.292-0.01-2.585-0.01-3.878,0c-1.006,0.008-1.787-0.564-2.031-1.532
		c-0.111-0.44-0.175-0.886-0.174-1.345c0.006-5.855,0-11.711,0.012-17.566c0-0.386-0.063-0.529-0.499-0.524
		c-2.324,0.024-4.649,0.025-6.974-0.001c-0.44-0.005-0.504,0.143-0.502,0.529C61.921,20.4,61.915,23.582,61.915,26.763z
		 M57.927,43.842c1.223,0,2.447,0,3.67,0c0.557,0,0.622-0.081,0.505-0.631c-0.018-0.084-0.057-0.164-0.082-0.247
		c-2.549-8.606-5.099-17.212-7.635-25.821c-0.104-0.354-0.249-0.449-0.608-0.447c-3.705,0.015-7.409,0.019-11.113-0.004
		c-0.44-0.003-0.581,0.141-0.698,0.536c-2.06,7.003-4.137,14-6.21,20.999c-0.486,1.642-0.978,3.281-1.453,4.926
		c-0.178,0.614-0.112,0.689,0.466,0.689c2.446,0,4.893-0.009,7.339,0.011c0.365,0.002,0.51-0.098,0.596-0.454
		c0.302-1.271,0.649-2.53,0.964-3.798c0.077-0.31,0.19-0.454,0.554-0.452c2.656,0.019,5.312,0.017,7.968,0.001
		c0.31-0.001,0.425,0.108,0.495,0.383c0.32,1.268,0.668,2.527,0.974,3.798c0.091,0.382,0.229,0.535,0.65,0.523
		C55.515,43.821,56.721,43.842,57.927,43.842z M186.867,21.662c-0.224-1.208-1.12-1.802-2.001-2.389
		c-0.729-0.486-1.605-0.393-2.424-0.499c-1.01-0.13-1.776,0.741-1.65,1.751c0.126,1.008,0.597,1.825,1.318,2.479
		c0.495,0.449,0.973,1.007,1.668,1.126c0.45,0.077,0.751,0.266,1.009,0.605c0.083,0.109,0.199,0.197,0.312,0.278
		c0.184,0.132,0.254,0.256,0.199,0.517c-0.389,1.803,0.022,3.392,1.256,4.793c1.102,1.249,2.397,2.226,3.847,3.021
		c0.388,0.212,0.783,0.419,1.07,0.767c-0.096,0.145-0.213,0.099-0.306,0.095c-1.575-0.064-3.024,0.241-4.312,1.239
		c-1.093,0.848-2.166,1.664-2.246,3.203c-0.005,0.097-0.063,0.19-0.104,0.304c-0.261-0.108-0.393-0.321-0.554-0.499
		c-0.353-0.386-0.812-0.586-1.31-0.541c-0.957,0.087-1.889,0.313-2.731,0.804c-0.915,0.533-1.026,1.347-0.289,2.104
		c0.416,0.427,0.9,0.769,1.426,1.052c0.644,0.347,1.255,0.735,1.849,1.173c0.863,0.635,1.752,1.276,2.861,1.441
		c0.166,0.024,0.231,0.143,0.32,0.244c0.644,0.731,1.396,1.307,2.329,1.621c0.267,0.091,0.494,0.229,0.688,0.447
		c0.583,0.651,1.326,1.056,2.145,1.335c1.93,0.657,3.923,0.797,5.933,0.626c1.388-0.118,2.754-0.382,3.901-1.287
		c0.151-0.119,0.261-0.335,0.518-0.328c0.055,0.877,0.202,1.736,0.482,2.552c0.587,1.706,1.847,2.877,3.258,3.915
		c0.509,0.374,1.148,0.492,1.633,0.915c1.669,1.453,3.505,2.191,5.771,1.515c2.145-0.641,3.81-1.761,4.605-3.943
		c0.172-0.47,0.393-0.919,0.631-1.361c0.243-0.452,0.627-0.646,1.097-0.676c0.887-0.057,1.778-0.117,2.666-0.104
		c1.417,0.022,2.8-0.144,4.164-0.53c0.917-0.261,1.81-0.593,2.615-1.083c0.618-0.377,1.14-0.909,1.44-1.607
		c0.567-1.32,1.021-2.699,1.214-4.105c0.232-1.69-0.591-3.153-1.475-4.543c-0.483-0.76-1.27-1.262-1.767-1.989
		c-1.317-1.924-3.11-3.303-5.087-4.422c-3.654-2.067-7.546-3.55-11.68-4.356c-0.2-0.038-0.43,0.017-0.623-0.202
		c1.024-0.35,1.348-1.219,1.633-2.136c0.26-0.838,0.411-1.697,0.526-2.561c0.152,0.018,0.191,0.099,0.224,0.177
		c0.574,1.369,1.612,2.234,2.971,2.758c0.192,0.074,0.399,0.133,0.534,0.309c0.565,0.736,1.381,1.084,2.204,1.42
		c1.563,0.637,3.21,0.926,4.87,1.135c0.686,0.087,1.387,0.159,2.078-0.009c1.118-0.271,1.815-1.299,1.847-2.698
		c0.066-2.939-0.766-5.587-2.515-7.96c-0.676-0.918-1.496-1.705-2.211-2.585c-1.101-1.353-2.182-2.777-3.736-3.604
		c-1.078-0.572-1.956-1.302-2.794-2.144c-0.244-0.244-0.509-0.449-0.681-0.762c-0.427-0.78-1.037-1.404-1.748-1.926
		c-1.196-0.876-2.541-0.37-2.923,1.054c-0.14,0.52-0.07,1.021,0.062,1.496c0.293,1.06,0.504,2.223,2.001,2.42
		c-0.963,0.891-0.861,2.098-1.148,3.228c-0.081-0.07-0.157-0.114-0.2-0.18c-0.493-0.767-1.104-1.436-1.729-2.095
		c-0.876-0.925-1.61-1.973-2.524-2.867c-0.649-0.635-1.396-0.989-2.298-1.116c-1.125-0.157-2.35,0.031-3.294-0.844
		c-0.036-0.033-0.094-0.049-0.144-0.06c-0.294-0.067-0.451-0.184-0.472-0.549c-0.021-0.368-0.205-0.726-0.462-1.03
		c-0.84-0.995-3.281-1.675-4.475-1.23c-0.553,0.205-1.082,0.891-0.993,1.466c0.217,1.412,0.637,2.748,1.832,3.682
		c0.285,0.223,0.624,0.294,0.984,0.271c0.143-0.009,0.314-0.233,0.42,0.073c0.08,0.228,0.164,0.394-0.014,0.656
		c-0.959,1.413-1.277,3.025-1.058,4.675c0.271,2.051,1.229,3.852,2.395,5.548c0.891,1.297,1.948,2.413,3.275,3.261
		c0.439,0.28,0.948,0.465,1.352,0.784c1.089,0.861,2.239,1.603,3.583,2.062c-0.065,0.041-0.092,0.069-0.124,0.075
		c-1.447,0.271-2.703,0.869-3.628,2.066c-0.24,0.312-0.291,0.007-0.348-0.159c-0.372-1.082-0.902-2.075-1.621-2.969
		c-0.354-0.439-0.914-0.704-1.189-1.166c-0.714-1.2-1.698-2.111-2.784-2.943c-0.858-0.658-1.745-1.266-2.757-1.67
		c-1.65-0.659-3.373-0.631-5.096-0.506c-0.781,0.057-1.528,0.286-2.214,0.707C187.702,20.945,187.334,21.314,186.867,21.662z
		 M152.497,16.597c-3.566,0-7.132,0.008-10.698-0.01c-0.401-0.002-0.49,0.106-0.485,0.493c0.021,1.783,0.023,3.566-0.001,5.349
		c-0.006,0.424,0.088,0.56,0.535,0.554c2.01-0.025,4.021,0.003,6.03-0.022c0.444-0.006,0.574,0.082,0.572,0.557
		c-0.019,6.607-0.009,13.215-0.022,19.822c-0.001,0.412,0.103,0.517,0.514,0.514c2.325-0.021,4.65-0.024,6.975,0.002
		c0.478,0.005,0.6-0.115,0.599-0.597c-0.017-6.572-0.008-13.145-0.021-19.717c-0.001-0.422,0.045-0.594,0.545-0.585
		c2.044,0.036,4.09,0.006,6.135,0.024c0.351,0.003,0.441-0.095,0.439-0.435c-0.015-1.818-0.022-3.637,0.004-5.454
		c0.006-0.43-0.133-0.505-0.528-0.504C159.558,16.604,156.027,16.597,152.497,16.597z M180.056,20.789
		c-0.726,1.568-1.446,3.139-2.184,4.702c-0.072,0.152-0.04,0.41-0.305,0.433c-0.307,0.025-0.303-0.254-0.378-0.423
		c-1.289-2.859-2.725-5.653-3.899-8.565c-0.083-0.206-0.164-0.348-0.44-0.346c-2.586,0.012-5.173,0.012-7.76,0.001
		c-0.261-0.001-0.304,0.083-0.323,0.324c-0.055,0.667,0.148,1.224,0.466,1.817c2.697,5.044,5.352,10.11,8.026,15.166
		c0.152,0.288,0.214,0.574,0.213,0.898c-0.008,2.849,0.004,5.698-0.016,8.547c-0.003,0.422,0.121,0.511,0.523,0.508
		c2.394-0.02,4.789-0.007,7.183-0.016c0.147,0,0.409,0.127,0.43-0.133c0.021-0.254,0.154-0.569-0.145-0.77
		c-0.302-0.203-0.611-0.396-0.923-0.585c-0.554-0.335-1.09-0.693-1.524-1.181c-0.775-0.869-0.726-2.075,0.2-2.762
		c0.637-0.472,1.333-0.895,2.101-1.137c0.269-0.084,0.316-0.204,0.313-0.439c-0.008-0.576,0.021-1.154-0.01-1.729
		c-0.027-0.508,0.106-0.944,0.35-1.389c0.869-1.588,1.705-3.192,2.556-4.79c0.133-0.25,0.199-0.479,0.137-0.787
		c-0.134-0.664-0.224-1.339-0.091-2.027c0.129-0.675-0.215-1.152-0.906-1.314c-0.259-0.061-0.505-0.141-0.722-0.288
		C181.585,23.594,180.437,22.532,180.056,20.789z M239.187,30.217c0,2.098,0.013,4.194-0.011,6.291
		c-0.005,0.424,0.081,0.558,0.532,0.551c2.061-0.032,4.122-0.023,6.184-0.029c0.888-0.002,1.661-0.578,1.901-1.429
		c0.124-0.438,0.199-0.881,0.198-1.34c-0.006-2.691-0.007-5.382,0.001-8.073c0.001-0.425-0.064-0.835-0.165-1.24
		c-0.231-0.941-1.003-1.537-1.977-1.54c-2.062-0.006-4.124,0.004-6.185-0.021c-0.392-0.004-0.494,0.092-0.489,0.487
		C239.198,25.988,239.187,28.103,239.187,30.217z M181.285,18.218c1.386-0.23,2.702-0.11,3.934,0.484
		c0.742,0.357,1.331,0.955,1.828,1.614c0.143,0.189,0.201,0.134,0.347,0.039c0.6-0.39,1.227-0.728,1.939-0.871
		c0.184-0.037,0.29-0.153,0.389-0.313c0.411-0.664,0.681-1.349,0.603-2.162c-0.033-0.342-0.11-0.423-0.443-0.42
		c-2.13,0.015-4.26,0.007-6.39,0.007c-1.665,0-1.665,0-2.208,1.591C181.278,18.201,181.285,18.218,181.285,18.218z M204.21,28.379
		c0.46-0.623,1.125-0.908,1.718-1.246c-1.307-1.021-2.753-1.819-4.16-2.715c-0.074,0.261-0.071,0.452,0.138,0.629
		C202.951,25.934,203.647,27.069,204.21,28.379z M211.346,13.161c0.078-0.315,0.145-0.586,0.221-0.895
		c-0.343,0.038-0.643-0.059-0.946,0.069C210.865,12.612,211.08,12.857,211.346,13.161z"/>
	<path fill-rule="evenodd" clip-rule="evenodd" fill="#231F20" d="M229.507,48.379c1.164-1.019,1.444-2.32,1.796-3.574
		c0.111-0.397,0.234-0.545,0.679-0.542c4.51,0.026,9.019,0.04,13.529,0.021c2.024-0.009,4.049-0.125,5.967-0.874
		c2.956-1.155,4.788-3.206,5.117-6.459c0.136-1.341,0.205-2.682,0.196-4.027c-0.019-2.884,0.073-5.768-0.105-8.65
		c-0.234-3.788-1.981-6.313-6.141-7.544c-1.315-0.39-2.68-0.564-4.067-0.561c-5.07,0.017-10.139,0.015-15.209-0.005
		c-0.522-0.002-0.684,0.127-0.683,0.668c0.018,6.87,0.012,13.74,0.012,20.611c0,0.201,0,0.401,0,0.603
		c-0.725-1.109-1.824-1.839-2.568-2.895c-1.027-1.459-2.425-2.541-3.929-3.478c-3.078-1.917-6.391-3.298-9.875-4.28
		c-0.686-0.193-1.374-0.38-2.103-0.581c0.454-0.8,0.707-1.678,0.965-2.644c0.746,0.95,1.787,1.359,2.736,1.932
		c0.678,0.408,1.254,1.021,2.004,1.369c1.58,0.731,3.258,1.084,4.97,1.302c0.862,0.109,1.717,0.228,2.598,0.116
		c1.248-0.157,2.368-1.138,2.543-2.408c0.389-2.831-0.204-5.479-1.615-7.945c-0.696-1.218-1.575-2.299-2.54-3.32
		c-0.86-0.91-1.569-1.955-2.457-2.846c0.111-0.161,0.264-0.09,0.39-0.09c31.118-0.004,62.236-0.003,93.354-0.015
		c0.418,0,0.469,0.133,0.468,0.498c-0.01,11.713-0.01,23.426,0.001,35.139c0,0.379-0.071,0.489-0.476,0.489
		c-28.338-0.011-56.677-0.01-85.016-0.01C229.917,48.379,229.783,48.379,229.507,48.379z M303.712,28.057
		c-2.132,0-4.265,0.01-6.396-0.009c-0.375-0.003-0.463,0.107-0.458,0.468c0.02,1.45,0.026,2.901-0.003,4.352
		c-0.008,0.422,0.122,0.525,0.521,0.524c1.327-0.003,2.654,0.042,3.981,0.042c0.335,0,0.406,0.121,0.408,0.429
		c0.004,0.581-0.05,1.151-0.203,1.711c-0.232,0.85-1.011,1.452-1.888,1.455c-1.45,0.004-2.899,0.002-4.349-0.001
		c-0.246,0-0.476-0.072-0.708-0.158c-1.024-0.379-1.302-1.26-1.315-2.186c-0.046-2.97-0.065-5.942,0.002-8.912
		c0.032-1.424,0.609-2.409,2.528-2.355c1.274,0.035,2.55-0.001,3.825-0.002c0.9-0.001,1.677,0.586,1.905,1.488
		c0.08,0.316,0.208,0.401,0.525,0.4c2.43-0.015,4.858-0.009,7.288-0.009c1.104,0,1.124-0.001,1.05-1.1
		c-0.135-2.021-0.67-3.891-2.212-5.327c-1.878-1.75-4.174-2.486-6.677-2.57c-2.252-0.075-4.508-0.012-6.763-0.03
		c-1.472-0.012-2.927,0.08-4.336,0.54c-2.256,0.735-4.131,1.944-5.132,4.207c-0.535,1.21-0.697,2.495-0.737,3.809
		c-0.124,4.104-0.249,8.208,0.129,12.304c0.152,1.65,0.77,3.135,1.98,4.319c1.799,1.76,4.035,2.596,6.479,2.674
		c3.157,0.102,6.326,0.209,9.48-0.079c1.948-0.178,3.725-0.898,5.243-2.159c1.762-1.463,2.401-3.451,2.55-5.652
		c0.174-2.566,0.099-5.136,0.131-7.704c0.005-0.412-0.129-0.48-0.505-0.477C307.942,28.066,305.827,28.057,303.712,28.057z
		 M257.637,30.174c0.006,2.306-0.063,4.614,0.213,6.91c0.2,1.666,0.778,3.174,2.009,4.367c1.89,1.835,4.229,2.604,6.793,2.691
		c2.27,0.077,4.543,0.01,6.814,0.032c1.688,0.016,3.346-0.142,4.929-0.761c2.56-1.002,4.377-2.688,4.977-5.478
		c0.195-0.908,0.259-1.829,0.283-2.755c0.103-3.947,0.222-7.897-0.147-11.837c-0.161-1.71-0.812-3.243-2.092-4.447
		c-1.885-1.773-4.194-2.517-6.716-2.601c-2.252-0.075-4.508-0.013-6.762-0.029c-1.366-0.011-2.723,0.052-4.037,0.447
		c-4.127,1.242-5.913,3.731-6.157,7.538C257.619,26.225,257.631,28.199,257.637,30.174z"/>
	<path fill-rule="evenodd" clip-rule="evenodd" fill="#231F20" d="M189.888,48.379c-0.172,0-0.344,0-0.516,0
		c-62.619,0-125.238-0.001-187.858,0.013c-0.531,0-0.677-0.111-0.677-0.663C0.856,36.103,0.854,24.478,0.84,12.852
		c0-0.475,0.115-0.589,0.59-0.589c64.979,0.012,129.959,0.011,194.938,0.011c0.174,0,0.348,0,0.529,0
		c0.063,0.234-0.062,0.417-0.091,0.613c-0.053,0.342,0.007,0.812-0.193,0.994c-0.257,0.234-0.733,0.077-1.113,0.077
		c-64.087,0.004-128.176,0.003-192.264,0.003c-0.697,0-0.697,0-0.697,0.676c0,10.454,0,20.908,0,31.361c0,0.695,0,0.695,0.677,0.695
		c61.238,0,122.477,0,183.715-0.003c0.731,0,1.356,0.224,1.87,0.749C189.13,47.775,189.52,48.035,189.888,48.379z"/>
	<path fill-rule="evenodd" clip-rule="evenodd" fill="#231F20" d="M24.797,34.278c0.169-0.296,0.111-0.506,0.111-0.704
		c0.004-5.437,0.009-10.873-0.008-16.31c-0.001-0.456,0.097-0.579,0.569-0.573c2.377,0.028,4.754,0.024,7.132,0.001
		c0.406-0.004,0.479,0.11,0.478,0.49c-0.011,8.723-0.012,17.446,0.002,26.168c0,0.434-0.137,0.501-0.525,0.5
		c-4.09-0.014-8.181-0.013-12.271,0c-0.365,0.001-0.542-0.089-0.673-0.453c-1.94-5.392-3.898-10.776-5.857-16.161
		c-0.044-0.121-0.05-0.277-0.223-0.36c-0.137,0.163-0.074,0.357-0.074,0.53c-0.004,5.297-0.011,10.594,0.01,15.891
		c0.002,0.48-0.136,0.56-0.578,0.556c-2.377-0.022-4.754-0.019-7.132-0.002c-0.367,0.003-0.465-0.096-0.464-0.462
		c0.01-8.74,0.01-17.48,0.001-26.221c0-0.35,0.064-0.475,0.45-0.473c4.073,0.015,8.146,0.016,12.219-0.002
		c0.373-0.002,0.5,0.132,0.616,0.453c1.987,5.505,3.987,11.006,5.985,16.507C24.63,33.832,24.697,34.01,24.797,34.278z"/>
	<path fill-rule="evenodd" clip-rule="evenodd" fill="#231F20" d="M107.152,28.268c2.115,0,4.23,0.012,6.346-0.01
		c0.404-0.004,0.492,0.116,0.488,0.499c-0.031,2.534,0.044,5.069-0.12,7.602c-0.143,2.197-0.749,4.198-2.497,5.682
		c-1.52,1.291-3.312,2.024-5.277,2.209c-3.153,0.297-6.325,0.184-9.481,0.082c-2.521-0.081-4.817-0.945-6.633-2.81
		c-1.115-1.146-1.698-2.561-1.845-4.112c-0.388-4.112-0.261-8.236-0.136-12.358c0.04-1.331,0.209-2.632,0.751-3.859
		c0.882-1.998,2.503-3.176,4.466-3.949c1.598-0.63,3.273-0.781,4.979-0.764c2.254,0.024,4.511-0.041,6.764,0.03
		c2.448,0.079,4.698,0.792,6.566,2.459c1.651,1.474,2.206,3.424,2.338,5.54c0.062,0.995,0.042,0.996-0.951,0.996
		c-2.465,0-4.93-0.006-7.395,0.008c-0.315,0.002-0.446-0.08-0.524-0.399c-0.219-0.897-1.005-1.491-1.906-1.49
		c-1.293,0.001-2.586,0.034-3.878,0.003c-1.828-0.044-2.446,0.917-2.477,2.357c-0.063,2.97-0.054,5.943-0.002,8.914
		c0.025,1.427,0.833,2.31,1.973,2.338c1.1,0.027,2.201,0.01,3.302,0.011c0.349,0,0.699-0.008,1.048-0.006
		c0.932,0.007,1.725-0.601,1.955-1.504c0.139-0.545,0.19-1.098,0.188-1.661c-0.001-0.308-0.074-0.428-0.408-0.429
		c-1.327-0.001-2.655-0.047-3.982-0.044c-0.406,0.001-0.526-0.112-0.518-0.528c0.028-1.45,0.024-2.902,0.002-4.353
		c-0.005-0.371,0.102-0.464,0.466-0.461C102.887,28.277,105.02,28.268,107.152,28.268z"/>
	<path fill-rule="evenodd" clip-rule="evenodd" fill="#231F20" d="M115.261,30.172c0-4.336,0.01-8.671-0.013-13.006
		c-0.002-0.495,0.146-0.584,0.602-0.579c2.254,0.023,4.51,0.021,6.765,0c0.395-0.004,0.488,0.091,0.486,0.484
		c-0.018,3.076,0.003,6.153-0.023,9.229c-0.004,0.501,0.152,0.588,0.608,0.584c2.569-0.021,5.139-0.021,7.709,0.002
		c0.431,0.004,0.5-0.134,0.499-0.522c-0.015-3.094-0.001-6.188-0.017-9.282c-0.002-0.382,0.079-0.499,0.483-0.495
		c2.308,0.021,4.615,0.019,6.922,0.001c0.358-0.002,0.463,0.072,0.463,0.449c-0.012,8.775-0.012,17.551,0,26.326
		c0,0.384-0.08,0.493-0.481,0.489c-2.307-0.021-4.615-0.019-6.922-0.002c-0.369,0.003-0.466-0.097-0.464-0.464
		c0.015-3.182-0.002-6.363,0.02-9.544c0.003-0.438-0.146-0.497-0.526-0.495c-2.57,0.016-5.14,0.024-7.709-0.006
		c-0.513-0.007-0.583,0.168-0.58,0.615c0.018,3.129,0,6.258,0.02,9.387c0.003,0.423-0.122,0.512-0.523,0.508
		c-2.272-0.02-4.545-0.021-6.817,0.002c-0.422,0.004-0.511-0.119-0.509-0.52C115.267,38.946,115.261,34.559,115.261,30.172z"/>
	<path fill-rule="evenodd" clip-rule="evenodd" fill="#231F20" d="M61.915,26.763c0-3.181,0.006-6.362-0.008-9.544
		c-0.002-0.387,0.062-0.534,0.502-0.529c2.324,0.026,4.649,0.025,6.974,0.001c0.436-0.005,0.499,0.139,0.499,0.524
		c-0.011,5.855-0.006,11.711-0.012,17.566c0,0.459,0.063,0.904,0.174,1.345c0.244,0.968,1.025,1.54,2.031,1.532
		c1.292-0.01,2.585-0.01,3.878,0c1.005,0.008,1.782-0.566,2.026-1.538c0.111-0.44,0.177-0.886,0.176-1.345
		c-0.006-5.855,0-11.711-0.012-17.566c-0.001-0.394,0.076-0.522,0.501-0.519c2.412,0.023,4.824,0.018,7.236,0.005
		c0.329-0.002,0.449,0.061,0.448,0.422c-0.012,5.681,0.01,11.361-0.022,17.042c-0.007,1.357-0.052,2.725-0.339,4.065
		c-0.601,2.809-2.419,4.517-5.009,5.511c-1.347,0.518-2.75,0.75-4.195,0.743c-1.975-0.008-3.952,0.055-5.925-0.019
		c-2.544-0.094-4.869-0.842-6.758-2.647c-1.256-1.201-1.823-2.729-2.064-4.411c-0.119-0.835-0.101-1.673-0.102-2.511
		C61.915,32.182,61.915,29.472,61.915,26.763z"/>
	<path fill-rule="evenodd" clip-rule="evenodd" fill="#231F20" d="M57.927,43.842c-1.206,0-2.412-0.021-3.617,0.012
		c-0.421,0.012-0.559-0.142-0.65-0.523c-0.306-1.271-0.654-2.53-0.974-3.798c-0.07-0.274-0.185-0.384-0.495-0.383
		c-2.656,0.016-5.312,0.018-7.968-0.001c-0.364-0.002-0.477,0.143-0.554,0.452c-0.315,1.268-0.662,2.527-0.964,3.798
		c-0.085,0.356-0.231,0.456-0.596,0.454c-2.446-0.02-4.893-0.011-7.339-0.011c-0.578,0-0.644-0.075-0.466-0.689
		c0.475-1.645,0.967-3.284,1.453-4.926c2.073-6.999,4.15-13.996,6.21-20.999c0.117-0.396,0.258-0.539,0.698-0.536
		c3.704,0.022,7.409,0.019,11.113,0.004c0.359-0.002,0.503,0.093,0.608,0.447c2.536,8.609,5.086,17.215,7.635,25.821
		c0.024,0.083,0.063,0.163,0.082,0.247c0.117,0.55,0.051,0.631-0.505,0.631C60.374,43.842,59.15,43.842,57.927,43.842z
		 M45.386,33.646c1.895,0,3.734,0,5.607,0c-0.865-3.025-1.718-6.017-2.582-9.006c-0.039-0.134,0.01-0.368-0.197-0.385
		c-0.261-0.021-0.204,0.25-0.244,0.388c-0.585,2.007-1.153,4.019-1.727,6.028C45.962,31.657,45.676,32.642,45.386,33.646z"/>
	<path fill-rule="evenodd" clip-rule="evenodd" fill="#231F20" d="M186.867,21.662c0.467-0.348,0.835-0.717,1.281-0.99
		c0.686-0.421,1.433-0.65,2.214-0.707c1.723-0.125,3.446-0.153,5.096,0.506c1.012,0.404,1.899,1.012,2.757,1.67
		c1.085,0.832,2.07,1.743,2.784,2.943c0.275,0.462,0.836,0.727,1.189,1.166c0.718,0.894,1.249,1.887,1.621,2.969
		c0.057,0.166,0.108,0.471,0.348,0.159c0.925-1.197,2.181-1.795,3.628-2.066c0.031-0.006,0.058-0.034,0.124-0.075
		c-1.344-0.459-2.494-1.2-3.583-2.062c-0.404-0.319-0.913-0.504-1.352-0.784c-1.327-0.848-2.384-1.964-3.275-3.261
		c-1.166-1.696-2.124-3.497-2.395-5.548c-0.219-1.649,0.099-3.262,1.058-4.675c0.178-0.263,0.093-0.429,0.014-0.656
		c-0.106-0.307-0.278-0.082-0.42-0.073c-0.361,0.022-0.699-0.049-0.984-0.271c-1.195-0.934-1.615-2.27-1.832-3.682
		c-0.089-0.575,0.44-1.261,0.993-1.466c1.194-0.444,3.635,0.235,4.475,1.23c0.257,0.305,0.441,0.662,0.462,1.03
		c0.021,0.365,0.178,0.481,0.472,0.549c0.05,0.011,0.108,0.026,0.144,0.06c0.945,0.875,2.17,0.687,3.294,0.844
		c0.903,0.127,1.649,0.481,2.298,1.116c0.915,0.895,1.648,1.942,2.524,2.867c0.624,0.659,1.236,1.328,1.729,2.095
		c0.042,0.065,0.119,0.109,0.2,0.18c0.288-1.13,0.185-2.337,1.148-3.228c-1.497-0.197-1.708-1.36-2.001-2.42
		c-0.131-0.475-0.201-0.977-0.062-1.496c0.382-1.424,1.727-1.93,2.923-1.054c0.71,0.521,1.32,1.146,1.748,1.926
		c0.171,0.313,0.437,0.518,0.681,0.762c0.839,0.842,1.717,1.571,2.794,2.144c1.555,0.827,2.636,2.252,3.736,3.604
		c0.715,0.88,1.535,1.667,2.211,2.585c1.749,2.373,2.581,5.021,2.515,7.96c-0.032,1.399-0.729,2.427-1.847,2.698
		c-0.691,0.168-1.392,0.096-2.078,0.009c-1.66-0.209-3.308-0.498-4.87-1.135c-0.823-0.336-1.639-0.684-2.204-1.42
		c-0.135-0.176-0.342-0.234-0.534-0.309c-1.359-0.523-2.397-1.389-2.971-2.758c-0.033-0.078-0.072-0.159-0.224-0.177
		c-0.115,0.863-0.267,1.723-0.526,2.561c-0.285,0.917-0.609,1.786-1.633,2.136c0.193,0.219,0.423,0.164,0.623,0.202
		c4.134,0.807,8.026,2.289,11.68,4.356c1.977,1.119,3.77,2.498,5.087,4.422c0.497,0.728,1.284,1.229,1.767,1.989
		c0.884,1.39,1.707,2.853,1.475,4.543c-0.193,1.406-0.647,2.785-1.214,4.105c-0.3,0.698-0.822,1.23-1.44,1.607
		c-0.806,0.49-1.699,0.822-2.615,1.083c-1.363,0.387-2.746,0.553-4.164,0.53c-0.888-0.014-1.779,0.047-2.666,0.104
		c-0.47,0.029-0.854,0.224-1.097,0.676c-0.238,0.442-0.459,0.892-0.631,1.361c-0.795,2.183-2.46,3.303-4.605,3.943
		c-2.266,0.677-4.102-0.062-5.771-1.515c-0.485-0.423-1.125-0.541-1.633-0.915c-1.411-1.038-2.671-2.209-3.258-3.915
		c-0.28-0.815-0.427-1.675-0.482-2.552c-0.257-0.007-0.367,0.209-0.518,0.328c-1.146,0.905-2.513,1.169-3.901,1.287
		c-2.01,0.171-4.003,0.031-5.933-0.626c-0.819-0.279-1.563-0.684-2.145-1.335c-0.194-0.218-0.421-0.356-0.688-0.447
		c-0.934-0.314-1.686-0.89-2.329-1.621c-0.089-0.102-0.154-0.22-0.32-0.244c-1.109-0.165-1.998-0.807-2.861-1.441
		c-0.594-0.438-1.205-0.826-1.849-1.173c-0.525-0.283-1.01-0.625-1.426-1.052c-0.737-0.758-0.625-1.571,0.289-2.104
		c0.842-0.49,1.774-0.717,2.731-0.804c0.499-0.045,0.957,0.155,1.31,0.541c0.162,0.178,0.293,0.391,0.554,0.499
		c0.04-0.113,0.099-0.207,0.104-0.304c0.081-1.539,1.153-2.355,2.246-3.203c1.288-0.998,2.737-1.304,4.312-1.239
		c0.093,0.004,0.21,0.05,0.306-0.095c-0.287-0.348-0.683-0.555-1.07-0.767c-1.449-0.795-2.745-1.771-3.847-3.021
		c-1.234-1.401-1.645-2.99-1.256-4.793c0.056-0.261-0.015-0.385-0.199-0.517c-0.113-0.081-0.229-0.169-0.312-0.278
		c-0.257-0.34-0.559-0.528-1.009-0.605c-0.695-0.119-1.173-0.677-1.668-1.126c-0.721-0.654-1.192-1.472-1.318-2.479
		c-0.126-1.01,0.64-1.881,1.65-1.751c0.819,0.106,1.695,0.013,2.424,0.499C185.747,19.86,186.643,20.454,186.867,21.662z
		 M202.229,45.413c-0.026,0.968,0.23,1.9,0.328,2.85c0.087,0.847,0.338,1.618,0.813,2.333c0.815,1.228,1.912,2.118,3.199,2.791
		c1.075,0.563,2.218,0.742,3.395,0.431c1.762-0.468,3.219-1.343,4.115-3.036c0.403-0.759,0.676-1.565,1.055-2.33
		c0.064-0.129,0.101-0.229,0.248-0.296c0.491-0.228,1.014-0.393,1.539-0.397c1.521-0.015,3.034-0.145,4.55-0.223
		c1.286-0.066,2.496-0.448,3.641-0.984c1.429-0.668,2.304-1.841,2.777-3.353c0.476-1.519,0.795-3.025,0.293-4.598
		c-0.811-2.541-2.538-4.399-4.738-5.71c-3.177-1.892-6.571-3.36-10.177-4.287c-1.562-0.402-3.114-0.753-4.75-0.579
		c-2.357,0.251-3.932,1.235-4.558,3.6c-0.116,0.436-0.249,0.868-0.348,1.308c-0.413,1.852-0.699,3.725-0.94,5.604
		c-0.135,1.053-0.4,2.095-0.314,3.17c0.04,0.487,0.087,0.971,0.04,1.463C202.324,43.915,202.284,44.665,202.229,45.413z
		 M196.771,34.008c0.508-0.019,1.023,0.022,1.511-0.125c0.737-0.226,1.554-0.239,2.165-0.817c0.857-0.812,1.312-1.797,1.3-2.977
		c-0.026-2.539-1.099-4.622-2.782-6.461c-0.675-0.737-1.602-1.082-2.355-1.689c-0.475-0.384-1.038-0.637-1.622-0.828
		c-1.683-0.554-3.417-0.577-5.126-0.275c-1.415,0.25-2.5,1.041-3.077,2.466c-0.336,0.829-0.596,1.673-0.762,2.538
		c-0.193,1.005-0.148,2.002,0.375,2.938c0.891,1.594,2.265,2.745,3.802,3.561C192.218,33.41,194.456,33.94,196.771,34.008z
		 M193.577,46.384c0.51,0.045,1.006-0.063,1.506-0.111c1.471-0.14,2.855-0.456,4.037-1.457c1.267-1.073,2.176-2.257,1.869-4.034
		c-0.07-0.409-0.122-0.822-0.206-1.229c-0.229-1.117-0.85-1.953-1.842-2.518c-0.377-0.215-0.744-0.448-1.114-0.676
		c-1.21-0.743-2.581-1.035-3.94-1.276c-1.072-0.19-2.179-0.099-3.278-0.067c-1.222,0.034-2.286,0.311-3.262,1.022
		c-0.752,0.548-1.598,1.08-1.832,2.006c-0.267,1.062-0.519,2.158-0.268,3.291c0.471,2.126,1.594,3.697,3.716,4.387
		C190.457,46.206,192.026,46.265,193.577,46.384z M209.814,18.658c0-0.228-0.007-0.454,0.001-0.681
		c0.1-2.758-0.489-5.257-2.529-7.294c-0.806-0.805-1.594-1.406-2.802-1.494c-1.377-0.1-2.661-0.146-3.879,0.692
		c-0.987,0.678-1.827,1.397-2.18,2.598c-0.099,0.336-0.153,0.673-0.215,1.009c-0.2,1.083-0.186,2.146,0.146,3.227
		c0.461,1.501,1.179,2.846,2.071,4.128c1.282,1.842,2.978,3.15,5.083,3.832c2.024,0.654,3.399-0.049,4.017-2.221
		C209.878,21.209,209.804,19.93,209.814,18.658z M221.996,25.715c0.209,0,0.419,0,0.629,0c0.776-0.004,1.479-0.482,1.695-1.233
		c0.542-1.89,0.313-3.765-0.45-5.517c-0.947-2.174-2.103-4.24-3.881-5.899c-1.306-1.221-2.763-2.021-4.581-1.918
		c-1.077,0.061-2.461,0.824-2.663,2.249c-0.167,1.177-0.305,2.354-0.313,3.541c-0.013,1.717,0.502,3.348,0.999,4.958
		c0.386,1.252,1.233,2.226,2.531,2.683C217.913,25.266,219.908,25.742,221.996,25.715z M197.372,5.477
		c-1.27-0.021-1.541,0.207-1.408,1.062c0.114,0.728,0.376,1.421,0.768,2.04c0.534,0.843,1.138,0.999,1.996,0.557
		c0.513-0.265,0.987-0.604,1.305-1.102c0.422-0.661,0.387-1.156-0.135-1.682C199.131,5.58,198.123,5.571,197.372,5.477z
		 M182.775,19.552c-1.053-0.055-1.343,0.307-1.162,1.166c0.216,1.024,0.953,1.647,1.696,2.301c0.495,0.434,0.958,0.442,1.48,0.207
		c0.535-0.241,0.899-0.687,1.052-1.237c0.133-0.477,0.049-0.909-0.375-1.31C184.631,19.889,183.687,19.488,182.775,19.552z
		 M184.106,40.74c0.001-1.298-0.717-2.109-1.688-2.007c-0.711,0.076-1.405,0.259-2.04,0.608c-0.541,0.298-0.593,0.592-0.151,1.009
		c0.733,0.695,1.622,1.146,2.552,1.502c0.695,0.266,1.095,0.03,1.28-0.693C184.105,40.977,184.102,40.78,184.106,40.74z
		 M211.517,8.145c0.058,0.646,0.176,1.279,0.448,1.873c0.273,0.595,0.467,0.666,1.121,0.521c0.432-0.097,0.828-0.266,1.206-0.486
		c0.485-0.284,0.619-0.707,0.428-1.248c-0.251-0.713-0.799-1.171-1.372-1.604c-0.359-0.271-0.776-0.443-1.218-0.245
		C211.635,7.179,211.554,7.66,211.517,8.145z M199.263,36.359c0.956,0.685,1.641,1.409,2.049,2.367
		c0.038,0.087,0.132,0.155,0.211,0.218c0.19,0.149,0.279,0.127,0.313-0.145c0.115-0.928,0.256-1.852,0.396-2.837
		C201.3,36.313,200.354,36.315,199.263,36.359z"/>
	<path fill-rule="evenodd" clip-rule="evenodd" fill="#231F20" d="M152.497,16.597c3.531,0,7.062,0.007,10.593-0.009
		c0.395-0.001,0.534,0.074,0.528,0.504c-0.026,1.817-0.019,3.636-0.004,5.454c0.002,0.34-0.088,0.438-0.439,0.435
		c-2.045-0.019-4.091,0.012-6.135-0.024c-0.5-0.009-0.546,0.163-0.545,0.585c0.013,6.572,0.003,13.145,0.021,19.717
		c0.001,0.481-0.121,0.602-0.599,0.597c-2.325-0.026-4.65-0.023-6.975-0.002c-0.411,0.003-0.515-0.102-0.514-0.514
		c0.014-6.607,0.003-13.215,0.022-19.822c0.001-0.475-0.128-0.563-0.572-0.557c-2.01,0.025-4.021-0.003-6.03,0.022
		c-0.447,0.006-0.541-0.13-0.535-0.554c0.024-1.782,0.022-3.565,0.001-5.349c-0.004-0.387,0.084-0.495,0.485-0.493
		C145.365,16.604,148.931,16.597,152.497,16.597z"/>
	<path fill-rule="evenodd" clip-rule="evenodd" fill="#231F20" d="M180.056,20.789c0.381,1.743,1.529,2.805,2.873,3.716
		c0.217,0.147,0.462,0.228,0.722,0.288c0.691,0.162,1.035,0.64,0.906,1.314c-0.132,0.688-0.043,1.363,0.091,2.027
		c0.062,0.309-0.004,0.537-0.137,0.787c-0.852,1.598-1.687,3.202-2.556,4.79c-0.244,0.444-0.377,0.881-0.35,1.389
		c0.031,0.575,0.002,1.153,0.01,1.729c0.003,0.235-0.044,0.355-0.313,0.439c-0.768,0.242-1.464,0.665-2.101,1.137
		c-0.925,0.687-0.975,1.893-0.2,2.762c0.435,0.487,0.971,0.846,1.524,1.181c0.312,0.188,0.621,0.382,0.923,0.585
		c0.299,0.2,0.166,0.516,0.145,0.77c-0.021,0.26-0.283,0.133-0.43,0.133c-2.395,0.009-4.789-0.004-7.183,0.016
		c-0.402,0.003-0.526-0.086-0.523-0.508c0.02-2.849,0.007-5.698,0.016-8.547c0-0.324-0.061-0.61-0.213-0.898
		c-2.675-5.056-5.33-10.122-8.026-15.166c-0.318-0.594-0.521-1.15-0.466-1.817c0.02-0.241,0.062-0.325,0.323-0.324
		c2.587,0.011,5.173,0.011,7.76-0.001c0.276-0.002,0.358,0.14,0.44,0.346c1.174,2.912,2.61,5.706,3.899,8.565
		c0.076,0.169,0.072,0.448,0.378,0.423c0.266-0.022,0.233-0.28,0.305-0.433C178.61,23.928,179.331,22.357,180.056,20.789z"/>
	<path fill-rule="evenodd" clip-rule="evenodd" fill="#231F20" d="M239.187,30.217c0-2.114,0.011-4.229-0.01-6.343
		c-0.004-0.396,0.098-0.491,0.489-0.487c2.062,0.024,4.124,0.015,6.185,0.021c0.974,0.003,1.745,0.599,1.977,1.54
		c0.1,0.405,0.166,0.815,0.165,1.24c-0.009,2.691-0.008,5.382-0.001,8.073c0.001,0.459-0.075,0.902-0.198,1.34
		c-0.24,0.851-1.013,1.427-1.901,1.429c-2.062,0.006-4.123-0.003-6.184,0.029c-0.451,0.007-0.537-0.127-0.532-0.551
		C239.199,34.411,239.187,32.314,239.187,30.217z"/>
	<path fill-rule="evenodd" clip-rule="evenodd" fill="#231F20" d="M181.285,18.218c0,0-0.006-0.017-0.002-0.03
		c0.543-1.591,0.543-1.591,2.208-1.591c2.13,0,4.26,0.008,6.39-0.007c0.333-0.003,0.41,0.078,0.443,0.42
		c0.079,0.813-0.191,1.498-0.603,2.162c-0.099,0.159-0.205,0.275-0.389,0.313c-0.712,0.144-1.339,0.481-1.939,0.871
		c-0.146,0.095-0.204,0.15-0.347-0.039c-0.497-0.659-1.086-1.257-1.828-1.614C183.987,18.107,182.67,17.987,181.285,18.218z"/>
	<path fill-rule="evenodd" clip-rule="evenodd" fill="#231F20" d="M204.21,28.379c-0.563-1.31-1.259-2.445-2.304-3.332
		c-0.209-0.177-0.212-0.368-0.138-0.629c1.407,0.896,2.853,1.693,4.16,2.715C205.335,27.471,204.67,27.756,204.21,28.379z"/>
	<path fill-rule="evenodd" clip-rule="evenodd" fill="#231F20" d="M211.346,13.161c-0.267-0.304-0.481-0.549-0.725-0.825
		c0.303-0.128,0.603-0.031,0.946-0.069C211.491,12.575,211.424,12.846,211.346,13.161z"/>
	<path fill-rule="evenodd" clip-rule="evenodd" fill="#FFFFFF" d="M303.712,28.057c2.115,0,4.23,0.01,6.344-0.009
		c0.376-0.004,0.511,0.064,0.505,0.477c-0.033,2.568,0.042,5.138-0.131,7.704c-0.148,2.201-0.788,4.189-2.55,5.652
		c-1.519,1.261-3.295,1.981-5.243,2.159c-3.154,0.288-6.323,0.181-9.48,0.079c-2.445-0.078-4.681-0.914-6.479-2.674
		c-1.21-1.185-1.828-2.669-1.98-4.319c-0.377-4.096-0.252-8.2-0.129-12.304c0.04-1.313,0.202-2.599,0.737-3.809
		c1.001-2.263,2.876-3.472,5.132-4.207c1.409-0.46,2.865-0.552,4.336-0.54c2.254,0.019,4.511-0.045,6.763,0.03
		c2.503,0.084,4.798,0.82,6.677,2.57c1.542,1.437,2.077,3.306,2.212,5.327c0.073,1.099,0.053,1.1-1.05,1.1
		c-2.43,0-4.858-0.006-7.288,0.009c-0.317,0.001-0.445-0.084-0.525-0.4c-0.228-0.902-1.005-1.489-1.905-1.488
		c-1.275,0.001-2.551,0.037-3.825,0.002c-1.919-0.054-2.496,0.932-2.528,2.355c-0.067,2.97-0.048,5.942-0.002,8.912
		c0.014,0.926,0.291,1.807,1.315,2.186c0.232,0.086,0.462,0.158,0.708,0.158c1.45,0.003,2.899,0.005,4.349,0.001
		c0.877-0.003,1.656-0.605,1.888-1.455c0.152-0.56,0.207-1.13,0.203-1.711c-0.001-0.308-0.072-0.429-0.408-0.429
		c-1.327,0-2.654-0.045-3.981-0.042c-0.399,0.001-0.529-0.103-0.521-0.524c0.029-1.45,0.023-2.901,0.003-4.352
		c-0.005-0.36,0.083-0.471,0.458-0.468C299.448,28.066,301.58,28.057,303.712,28.057z"/>
	<path fill-rule="evenodd" clip-rule="evenodd" fill="#FFFFFF" d="M257.637,30.174c-0.006-1.975-0.018-3.949,0.108-5.921
		c0.244-3.807,2.029-6.296,6.157-7.538c1.314-0.396,2.671-0.458,4.037-0.447c2.254,0.017,4.51-0.046,6.762,0.029
		c2.522,0.084,4.831,0.827,6.716,2.601c1.28,1.204,1.932,2.737,2.092,4.447c0.369,3.939,0.25,7.89,0.147,11.837
		c-0.024,0.926-0.088,1.847-0.283,2.755c-0.6,2.79-2.417,4.476-4.977,5.478c-1.583,0.619-3.241,0.776-4.929,0.761
		c-2.271-0.022-4.545,0.045-6.814-0.032c-2.564-0.087-4.903-0.856-6.793-2.691c-1.231-1.193-1.809-2.701-2.009-4.367
		C257.574,34.788,257.643,32.479,257.637,30.174z M266.442,30.209c0,1.328,0.007,2.655-0.004,3.982
		c-0.004,0.441,0.064,0.869,0.17,1.292c0.243,0.97,1.022,1.548,2.021,1.54c1.361-0.01,2.723-0.011,4.084,0
		c1.01,0.009,1.786-0.558,2.034-1.522c0.118-0.458,0.188-0.919,0.187-1.395c-0.008-2.585-0.008-5.17,0-7.754
		c0.002-0.495-0.069-0.973-0.193-1.446c-0.232-0.888-0.998-1.491-1.904-1.492c-1.257-0.002-2.515,0.048-3.77-0.001
		c-1.607-0.063-2.414,0.604-2.597,2.188c-0.022,0.19-0.027,0.383-0.027,0.575C266.441,27.52,266.442,28.864,266.442,30.209z"/>
	<path fill-rule="evenodd" clip-rule="evenodd" fill="#FCFCFC" d="M45.386,33.646c0.29-1.005,0.576-1.989,0.857-2.975
		c0.574-2.01,1.142-4.021,1.727-6.028c0.04-0.138-0.017-0.408,0.244-0.388c0.207,0.017,0.159,0.251,0.197,0.385
		c0.864,2.989,1.717,5.98,2.582,9.006C49.121,33.646,47.281,33.646,45.386,33.646z"/>
	<path fill-rule="evenodd" clip-rule="evenodd" fill="#FD0000" d="M202.229,45.413c0.054-0.748,0.095-1.498,0.168-2.244
		c0.048-0.492,0-0.976-0.04-1.463c-0.086-1.075,0.179-2.117,0.314-3.17c0.241-1.88,0.527-3.753,0.94-5.604
		c0.099-0.439,0.232-0.872,0.348-1.308c0.626-2.364,2.201-3.349,4.558-3.6c1.636-0.174,3.188,0.177,4.75,0.579
		c3.606,0.927,7,2.396,10.177,4.287c2.2,1.311,3.927,3.169,4.738,5.71c0.502,1.572,0.182,3.079-0.293,4.598
		c-0.474,1.512-1.349,2.685-2.777,3.353c-1.145,0.536-2.355,0.918-3.641,0.984c-1.516,0.078-3.029,0.208-4.55,0.223
		c-0.525,0.005-1.048,0.17-1.539,0.397c-0.146,0.067-0.184,0.167-0.248,0.296c-0.378,0.765-0.652,1.571-1.055,2.33
		c-0.896,1.693-2.353,2.568-4.115,3.036c-1.177,0.312-2.32,0.132-3.395-0.431c-1.287-0.673-2.384-1.563-3.199-2.791
		c-0.475-0.715-0.726-1.486-0.813-2.333C202.459,47.313,202.204,46.381,202.229,45.413z"/>
	<path fill-rule="evenodd" clip-rule="evenodd" fill="#FD0000" d="M196.771,34.008c-2.314-0.067-4.552-0.598-6.571-1.67
		c-1.537-0.815-2.911-1.967-3.802-3.561c-0.523-0.937-0.568-1.934-0.375-2.938c0.166-0.865,0.426-1.709,0.762-2.538
		c0.578-1.425,1.663-2.216,3.077-2.466c1.708-0.302,3.443-0.278,5.126,0.275c0.583,0.191,1.146,0.444,1.622,0.828
		c0.754,0.607,1.681,0.952,2.355,1.689c1.683,1.839,2.755,3.922,2.782,6.461c0.012,1.18-0.442,2.165-1.3,2.977
		c-0.61,0.578-1.427,0.592-2.165,0.817C197.794,34.03,197.279,33.989,196.771,34.008z"/>
	<path fill-rule="evenodd" clip-rule="evenodd" fill="#FD0000" d="M193.577,46.384c-1.551-0.119-3.121-0.178-4.613-0.663
		c-2.122-0.689-3.245-2.261-3.716-4.387c-0.251-1.133,0.001-2.229,0.268-3.291c0.233-0.926,1.08-1.458,1.832-2.006
		c0.977-0.712,2.041-0.988,3.262-1.022c1.099-0.031,2.206-0.123,3.278,0.067c1.359,0.241,2.73,0.533,3.94,1.276
		c0.37,0.228,0.736,0.461,1.114,0.676c0.992,0.564,1.612,1.4,1.842,2.518c0.083,0.407,0.135,0.82,0.206,1.229
		c0.307,1.777-0.603,2.961-1.869,4.034c-1.182,1.001-2.566,1.317-4.037,1.457C194.583,46.32,194.087,46.429,193.577,46.384z"/>
	<path fill-rule="evenodd" clip-rule="evenodd" fill="#FD0000" d="M209.814,18.658c-0.011,1.271,0.064,2.551-0.29,3.796
		c-0.618,2.172-1.993,2.875-4.017,2.221c-2.105-0.682-3.8-1.99-5.083-3.832c-0.892-1.282-1.61-2.627-2.071-4.128
		c-0.332-1.08-0.346-2.144-0.146-3.227c0.062-0.336,0.117-0.673,0.215-1.009c0.354-1.2,1.193-1.92,2.18-2.598
		c1.219-0.839,2.502-0.792,3.879-0.692c1.208,0.088,1.997,0.689,2.802,1.494c2.041,2.037,2.629,4.536,2.529,7.294
		C209.808,18.204,209.814,18.431,209.814,18.658z"/>
	<path fill-rule="evenodd" clip-rule="evenodd" fill="#FD0000" d="M221.996,25.714c-2.088,0.028-4.083-0.448-6.035-1.136
		c-1.297-0.457-2.145-1.431-2.531-2.683c-0.496-1.61-1.011-3.241-0.999-4.958c0.009-1.187,0.146-2.364,0.313-3.541
		c0.202-1.425,1.586-2.188,2.663-2.249c1.817-0.103,3.274,0.697,4.581,1.918c1.778,1.659,2.934,3.726,3.881,5.899
		c0.763,1.752,0.992,3.627,0.45,5.517c-0.216,0.751-0.918,1.229-1.695,1.233C222.415,25.715,222.206,25.715,221.996,25.714z"/>
	<path fill-rule="evenodd" clip-rule="evenodd" fill="#FD0000" d="M197.372,5.477c0.751,0.095,1.759,0.104,2.525,0.875
		c0.522,0.525,0.557,1.021,0.135,1.682c-0.318,0.497-0.792,0.837-1.305,1.102c-0.857,0.442-1.461,0.286-1.996-0.557
		c-0.392-0.619-0.654-1.313-0.768-2.04C195.831,5.684,196.103,5.456,197.372,5.477z"/>
	<path fill-rule="evenodd" clip-rule="evenodd" fill="#FD0000" d="M182.775,19.552c0.911-0.063,1.856,0.337,2.692,1.127
		c0.425,0.4,0.509,0.833,0.375,1.31c-0.153,0.551-0.517,0.996-1.052,1.237c-0.522,0.235-0.986,0.227-1.48-0.207
		c-0.743-0.653-1.48-1.276-1.696-2.301C181.433,19.858,181.722,19.497,182.775,19.552z"/>
	<path fill-rule="evenodd" clip-rule="evenodd" fill="#FD0000" d="M184.106,40.74c-0.004,0.04-0.001,0.236-0.047,0.419
		c-0.186,0.724-0.585,0.959-1.28,0.693c-0.931-0.356-1.819-0.807-2.552-1.502c-0.441-0.417-0.39-0.711,0.151-1.009
		c0.635-0.35,1.329-0.532,2.04-0.608C183.389,38.631,184.107,39.442,184.106,40.74z"/>
	<path fill-rule="evenodd" clip-rule="evenodd" fill="#FD0000" d="M211.517,8.145c0.038-0.484,0.118-0.966,0.614-1.189
		c0.442-0.198,0.859-0.026,1.218,0.245c0.572,0.433,1.12,0.891,1.372,1.604c0.191,0.541,0.057,0.964-0.428,1.248
		c-0.378,0.221-0.774,0.39-1.206,0.486c-0.654,0.146-0.848,0.074-1.121-0.521C211.692,9.424,211.575,8.791,211.517,8.145z"/>
	<path fill-rule="evenodd" clip-rule="evenodd" fill="#FCFCFC" d="M199.263,36.359c1.091-0.044,2.037-0.046,2.969-0.396
		c-0.14,0.985-0.28,1.909-0.396,2.837c-0.034,0.271-0.122,0.294-0.313,0.145c-0.08-0.063-0.174-0.131-0.211-0.218
		C200.903,37.769,200.218,37.044,199.263,36.359z"/>
	<path fill-rule="evenodd" clip-rule="evenodd" fill="#231F20" d="M266.442,30.209c0-1.345-0.001-2.689,0.001-4.033
		c0-0.192,0.005-0.385,0.027-0.575c0.184-1.583,0.99-2.251,2.597-2.188c1.254,0.049,2.513-0.001,3.77,0.001
		c0.906,0.001,1.672,0.604,1.904,1.492c0.124,0.474,0.195,0.951,0.193,1.446c-0.008,2.584-0.008,5.169,0,7.754
		c0.002,0.476-0.068,0.937-0.187,1.395c-0.249,0.965-1.024,1.531-2.034,1.522c-1.361-0.011-2.723-0.01-4.084,0
		c-0.999,0.008-1.778-0.57-2.021-1.54c-0.106-0.423-0.174-0.851-0.17-1.292C266.45,32.864,266.442,31.537,266.442,30.209z"/>
</g>
</svg>
