<svg height="237.246105" viewBox="0 0 560 315" width="421.503232" xmlns="http://www.w3.org/2000/svg" xmlns:xlink="http://www.w3.org/1999/xlink"><clipPath id="a"><path d="m0 0h560v315h-560z"/></clipPath><linearGradient id="b" gradientTransform="matrix(404.098 0 0 216.594 75.821 20.01)" gradientUnits="userSpaceOnUse" x1=".5" x2="1.679559" y1="-.031722" y2="19263652967369760"><stop offset="0" stop-color="#075c9c"/><stop offset=".1" stop-color="#005095"/><stop offset=".2" stop-color="#004e8e"/><stop offset=".3" stop-color="#004b88"/><stop offset=".4" stop-color="#004881"/><stop offset=".5" stop-color="#00467b"/><stop offset=".6" stop-color="#004275"/><stop offset=".7" stop-color="#003f6e"/><stop offset=".8" stop-color="#003c68"/><stop offset=".9" stop-color="#003962"/><stop offset="1" stop-color="#00365e"/></linearGradient><linearGradient id="c"><stop offset="0" stop-color="#0e456d"/><stop offset=".1" stop-color="#005095"/><stop offset=".2" stop-color="#004e8e"/><stop offset=".3" stop-color="#004b88"/><stop offset=".4" stop-color="#004881"/><stop offset=".5" stop-color="#00467b"/><stop offset=".6" stop-color="#004275"/><stop offset=".7" stop-color="#003f6e"/><stop offset=".8" stop-color="#003c68"/><stop offset=".9" stop-color="#003962"/><stop offset="1" stop-color="#00365e"/></linearGradient><linearGradient id="d" gradientTransform="matrix(36.528 0 0 32.015 25 262.457)" gradientUnits="userSpaceOnUse" x1=".5" x2="1.679559" xlink:href="#c" y1="-.031722" y2="19263652967369760"/><linearGradient id="e" gradientTransform="matrix(4.191 0 0 32.015 66.597 262.457)" gradientUnits="userSpaceOnUse" x1=".5" x2="1.679559" xlink:href="#c" y1="-.031722" y2="19263652967369760"/><linearGradient id="f" gradientTransform="matrix(22.88 0 0 32.015 78.695 262.457)" gradientUnits="userSpaceOnUse" x1=".5" x2="1.679559" xlink:href="#c" y1="-.031722" y2="19263652967369760"/><linearGradient id="g" gradientTransform="matrix(22.551 0 0 32.015 109.483 262.457)" gradientUnits="userSpaceOnUse" x1=".5" x2="1.679559" xlink:href="#c" y1="-.031722" y2="19263652967369760"/><linearGradient id="h" gradientTransform="matrix(23.493 0 0 33.051 137.68 261.939)" gradientUnits="userSpaceOnUse" x1=".5" x2="1.679559" xlink:href="#c" y1="-.031722" y2="19263652967369760"/><linearGradient id="i" gradientTransform="matrix(36.527 0 0 32.015 164.767 262.457)" gradientUnits="userSpaceOnUse" x1=".5" x2="1.679559" xlink:href="#c" y1="-.031722" y2="19263652967369760"/><linearGradient id="j" gradientTransform="matrix(23.212 0 0 32.015 213.33 262.457)" gradientUnits="userSpaceOnUse" x1=".5" x2="1.679559" xlink:href="#c" y1="-.031722" y2="19263652967369760"/><linearGradient id="k" gradientTransform="matrix(23.493 0 0 33.051 239.27 261.939)" gradientUnits="userSpaceOnUse" x1=".5" x2="1.679559" xlink:href="#c" y1="-.031722" y2="19263652967369760"/><linearGradient id="l" gradientTransform="matrix(23.211 0 0 32.015 277.401 262.457)" gradientUnits="userSpaceOnUse" x1=".5" x2="1.679559" xlink:href="#c" y1="-.031722" y2="19263652967369760"/><linearGradient id="m" gradientTransform="matrix(22.833 0 0 32.015 305.6 262.457)" gradientUnits="userSpaceOnUse" x1=".5" x2="1.679559" xlink:href="#c" y1="-.031722" y2="19263652967369760"/><linearGradient id="n" gradientTransform="matrix(20.198 0 0 32.015 336.34 262.457)" gradientUnits="userSpaceOnUse" x1=".5" x2="1.679559" xlink:href="#c" y1="-.031722" y2="19263652967369760"/><linearGradient id="o" gradientTransform="matrix(20.198 0 0 32.015 374.141 262.457)" gradientUnits="userSpaceOnUse" x1=".5" x2="1.679559" xlink:href="#c" y1="-.031722" y2="19263652967369760"/><linearGradient id="p" gradientTransform="matrix(22.646 0 0 32.533 400.08 262.457)" gradientUnits="userSpaceOnUse" x1=".5" x2="1.679559" xlink:href="#c" y1="-.031722" y2="19263652967369760"/><linearGradient id="q" gradientTransform="matrix(23.212 0 0 32.015 427.478 262.457)" gradientUnits="userSpaceOnUse" x1=".5" x2="1.679559" xlink:href="#c" y1="-.031722" y2="19263652967369760"/><linearGradient id="r" gradientTransform="matrix(22.646 0 0 32.533 455.441 262.457)" gradientUnits="userSpaceOnUse" x1=".5" x2="1.679559" xlink:href="#c" y1="-.031722" y2="19263652967369760"/><linearGradient id="s" gradientTransform="matrix(22.684 0 0 32.015 485.757 262.457)" gradientUnits="userSpaceOnUse" x1=".5" x2="1.679559" xlink:href="#c" y1="-.031722" y2="19263652967369760"/><linearGradient id="t" gradientTransform="matrix(20.197 0 0 32.015 514.803 262.457)" gradientUnits="userSpaceOnUse" x1=".5" x2="1.679559" xlink:href="#c" y1="-.031722" y2="19263652967369760"/><g clip-path="url(#a)"><path d="m336.677 20.01c-2.147 0-4.2.881-5.681 2.436l-38.616 40.57-38.615-40.57c-1.481-1.555-3.533-2.436-5.681-2.436h-127.992c-2.152 0-4.209.884-5.69 2.445l-36.428 38.396c-1.383 1.457-2.153 3.389-2.153 5.399v165.445c0 2.711 2.198 4.909 4.909 4.909h58.968c2.712 0 4.91-2.198 4.91-4.909v-133.853c0-4.473 3.626-8.098 8.098-8.098h62.822c4.473 0 8.099 3.625 8.099 8.098v133.853c0 2.711 2.198 4.909 4.91 4.909h58.967c2.712 0 4.91-2.198 4.91-4.909v-38.007l38.584 40.484c1.479 1.553 3.532 2.432 5.677 2.432h138.334c2.712 0 4.91-2.198 4.91-4.909v-58.969c0-2.712-2.198-4.91-4.91-4.91h-105.754c-4.473 0-8.098-3.626-8.098-8.099v-62.82c0-4.474 3.625-8.099 8.098-8.099h105.754c2.712 0 4.91-2.199 4.91-4.911v-58.967c0-2.712-2.198-4.91-4.91-4.91z" fill="url(#b)"/><path d="m50.641 294.472c-.282 0-.424-.189-.518-.471l-6.827-23.87h-.093l-6.78 23.87c-.094.282-.283.471-.565.471h-2.59c-.283 0-.471-.189-.518-.471l-7.721-31.074c-.095-.282.047-.47.377-.47h3.107c.329 0 .518.141.564.47l5.698 23.776h.093l6.64-23.776c.094-.282.282-.47.564-.47h2.401c.33 0 .47.188.565.47l6.78 23.776h.094l5.556-23.776c.094-.329.282-.47.611-.47h3.061c.329 0 .424.188.376.47l-7.721 31.074c-.047.282-.282.471-.565.471z" fill="url(#d)"/><path d="m66.597 262.927c0-.283.189-.47.471-.47h3.248c.283 0 .472.187.472.47v31.075c0 .282-.189.47-.472.47h-3.248c-.282 0-.471-.188-.471-.47z" fill="url(#e)"/><path d="m78.695 262.927c0-.283.189-.47.471-.47h3.013c.377 0 .612.094.801.47l14.5 24.012h.189v-24.012c0-.283.188-.47.471-.47h2.966c.282 0 .47.187.47.47v31.075c0 .282-.188.47-.47.47h-3.013c-.331 0-.613-.095-.801-.47l-14.548-23.918h-.14v23.918c0 .282-.19.47-.473.47h-2.965c-.282 0-.471-.188-.471-.47z" fill="url(#f)"/><path d="m113.955 290.563h5.886c3.86 0 6.261-1.27 7.296-4.378.425-1.176.66-2.73.66-7.722 0-4.989-.235-6.543-.66-7.72-1.035-3.107-3.436-4.378-7.296-4.378h-5.886c-.189 0-.282.093-.282.282v23.634c0 .189.093.282.282.282zm-4.472-27.636c0-.282.188-.47.47-.47h10.782c5.414 0 8.993 2.306 10.452 6.826.566 1.743.847 3.484.847 9.18 0 5.698-.281 7.44-.847 9.182-1.459 4.52-5.038 6.827-10.452 6.827h-10.782c-.282 0-.47-.189-.47-.471z" fill="url(#g)"/><path d="m156.23 286.327c.377-1.177.707-3.248.707-7.864 0-4.613-.33-6.684-.707-7.862-.988-3.06-3.248-4.755-6.827-4.755-3.531 0-5.791 1.695-6.779 4.755-.377 1.178-.707 3.249-.707 7.862 0 4.616.33 6.687.707 7.864.988 3.06 3.248 4.754 6.779 4.754 3.579 0 5.839-1.694 6.827-4.754zm-17.702 1.176c-.612-1.836-.848-3.766-.848-9.04 0-5.271.236-7.202.848-9.038 1.648-4.945 5.508-7.486 10.875-7.486 5.414 0 9.275 2.541 10.923 7.486.612 1.836.848 3.767.848 9.038 0 5.274-.236 7.204-.848 9.04-1.648 4.944-5.509 7.487-10.923 7.487-5.367 0-9.227-2.543-10.875-7.487z" fill="url(#h)"/><path d="m190.408 294.472c-.283 0-.424-.189-.518-.471l-6.826-23.87h-.095l-6.78 23.87c-.094.282-.282.471-.565.471h-2.589c-.282 0-.471-.189-.518-.471l-7.721-31.074c-.095-.282.046-.47.376-.47h3.108c.33 0 .517.141.564.47l5.697 23.776h.094l6.638-23.776c.095-.282.283-.47.566-.47h2.402c.329 0 .47.188.565.47l6.779 23.776h.093l5.556-23.776c.095-.329.283-.47.612-.47h3.061c.33 0 .423.188.376.47l-7.72 31.074c-.047.282-.283.471-.565.471z" fill="url(#i)"/><path d="m223.313 294.472c-.283 0-.471-.189-.471-.471v-27.354c0-.189-.095-.282-.282-.282h-8.757c-.283 0-.473-.189-.473-.472v-2.966c0-.282.19-.47.473-.47h22.268c.283 0 .472.188.472.47v2.966c0 .283-.189.472-.472.472h-8.757c-.188 0-.282.093-.282.282v27.354c0 .282-.189.471-.471.471z" fill="url(#j)"/><path d="m257.82 286.327c.378-1.177.707-3.248.707-7.864 0-4.613-.329-6.684-.707-7.862-.988-3.06-3.248-4.755-6.826-4.755-3.532 0-5.791 1.695-6.78 4.755-.377 1.178-.707 3.249-.707 7.862 0 4.616.33 6.687.707 7.864.989 3.06 3.248 4.754 6.78 4.754 3.578 0 5.838-1.694 6.826-4.754zm-17.702 1.176c-.612-1.836-.848-3.766-.848-9.04 0-5.271.236-7.202.848-9.038 1.648-4.945 5.508-7.486 10.876-7.486 5.413 0 9.275 2.541 10.922 7.486.612 1.836.848 3.767.848 9.038 0 5.274-.236 7.204-.848 9.04-1.647 4.944-5.509 7.487-10.922 7.487-5.368 0-9.228-2.543-10.876-7.487z" fill="url(#k)"/><path d="m287.383 294.472c-.282 0-.472-.189-.472-.471v-27.354c0-.189-.093-.282-.282-.282h-8.757c-.283 0-.471-.189-.471-.472v-2.966c0-.282.188-.47.471-.47h22.27c.282 0 .47.188.47.47v2.966c0 .283-.188.472-.47.472h-8.757c-.189 0-.283.093-.283.282v27.354c0 .282-.188.471-.471.471z" fill="url(#l)"/><path d="m305.6 262.927c0-.283.188-.47.471-.47h3.247c.284 0 .473.187.473.47v13.135c0 .19.093.283.281.283h13.889c.189 0 .283-.093.283-.283v-13.135c0-.283.188-.47.471-.47h3.248c.283 0 .47.187.47.47v31.075c0 .282-.187.47-.47.47h-3.248c-.283 0-.471-.188-.471-.47v-13.466c0-.189-.094-.283-.283-.283h-13.889c-.188 0-.281.094-.281.283v13.466c0 .282-.189.47-.473.47h-3.247c-.283 0-.471-.188-.471-.47z" fill="url(#m)"/><path d="m336.34 262.927c0-.283.188-.47.471-.47h19.256c.283 0 .471.187.471.47v2.966c0 .282-.188.471-.471.471h-15.254c-.189 0-.282.094-.282.283v9.415c0 .19.093.283.282.283h12.947c.282 0 .471.188.471.471v2.966c0 .283-.189.471-.471.471h-12.947c-.189 0-.282.094-.282.283v9.746c0 .188.093.281.282.281h15.254c.283 0 .471.189.471.472v2.967c0 .282-.188.47-.471.47h-19.256c-.283 0-.471-.188-.471-.47z" fill="url(#n)"/><path d="m374.141 262.927c0-.283.189-.47.471-.47h19.256c.283 0 .471.187.471.47v2.966c0 .282-.188.471-.471.471h-15.255c-.187 0-.281.094-.281.283v9.745c0 .188.094.283.281.283h12.948c.283 0 .471.188.471.47v2.966c0 .283-.188.472-.471.472h-12.948c-.187 0-.281.093-.281.282v13.137c0 .282-.189.47-.471.47h-3.249c-.282 0-.471-.188-.471-.47z" fill="url(#o)"/><path d="m400.08 283.314v-20.387c0-.282.188-.47.471-.47h3.249c.282 0 .471.188.471.47v20.34c0 5.178 2.871 7.815 7.156 7.815 4.237 0 7.109-2.637 7.109-7.815v-20.34c0-.282.188-.47.47-.47h3.249c.283 0 .471.188.471.47v20.387c0 7.532-4.284 11.676-11.299 11.676-7.062 0-11.347-4.144-11.347-11.676z" fill="url(#p)"/><path d="m437.459 294.472c-.283 0-.47-.189-.47-.471v-27.354c0-.189-.095-.282-.283-.282h-8.757c-.283 0-.471-.189-.471-.472v-2.966c0-.282.188-.47.471-.47h22.268c.283 0 .472.188.472.47v2.966c0 .283-.189.472-.472.472h-8.756c-.189 0-.283.093-.283.282v27.354c0 .282-.188.471-.471.471z" fill="url(#q)"/><path d="m455.441 283.314v-20.387c0-.282.188-.47.471-.47h3.247c.283 0 .471.188.471.47v20.34c0 5.178 2.872 7.815 7.157 7.815 4.238 0 7.108-2.637 7.108-7.815v-20.34c0-.282.19-.47.472-.47h3.248c.283 0 .471.188.471.47v20.387c0 7.532-4.284 11.676-11.299 11.676-7.062 0-11.346-4.144-11.346-11.676z" fill="url(#r)"/><path d="m503.648 271.684c0-3.342-2.213-5.319-5.932-5.319h-7.486c-.188 0-.283.093-.283.282v10.076c0 .187.095.281.283.281h7.486c3.719 0 5.932-1.977 5.932-5.32zm.659 22.788c-.329 0-.471-.141-.612-.471l-6.403-13.088h-7.062c-.188 0-.283.093-.283.282v12.806c0 .283-.188.471-.47.471h-3.249c-.282 0-.471-.188-.471-.471v-31.074c0-.282.189-.47.471-.47h11.582c5.978 0 10.029 3.671 10.029 9.227 0 4.332-2.449 7.486-6.31 8.71l6.827 13.513c.188.282.047.565-.283.565z" fill="url(#s)"/><path d="m514.803 262.927c0-.283.188-.47.47-.47h19.257c.282 0 .47.187.47.47v2.966c0 .282-.188.471-.47.471h-15.255c-.188 0-.281.094-.281.283v9.415c0 .19.093.283.281.283h12.948c.282 0 .47.188.47.471v2.966c0 .283-.188.471-.47.471h-12.948c-.188 0-.281.094-.281.283v9.746c0 .188.093.281.281.281h15.255c.282 0 .47.189.47.472v2.967c0 .282-.188.47-.47.47h-19.257c-.282 0-.47-.188-.47-.47z" fill="url(#t)"/></g></svg>