<?xml version="1.0" encoding="UTF-8" standalone="no"?>
<svg
   xmlns:dc="http://purl.org/dc/elements/1.1/"
   xmlns:cc="http://creativecommons.org/ns#"
   xmlns:rdf="http://www.w3.org/1999/02/22-rdf-syntax-ns#"
   xmlns:svg="http://www.w3.org/2000/svg"
   xmlns="http://www.w3.org/2000/svg"
   width="300"
   height="334.70901"
   viewBox="0 0 300 334.70902"
   id="svg2"
   version="1.1">
  <defs
     id="defs4">
    <clipPath
       id="clipPath3504"
       clipPathUnits="userSpaceOnUse">
      <path
         id="path3506"
         d="m 0,0 651.969,0 0,510.236 L 0,510.236 0,0 Z" />
    </clipPath>
    <radialGradient
       id="radialGradient3524"
       gradientTransform="matrix(14.5154,0,0,-14.5154,572.55389,39.814018)"
       gradientUnits="userSpaceOnUse"
       r="1"
       cy="0"
       cx="0"
       fy="0"
       fx="0">
      <stop
         id="stop3526"
         offset="0"
         style="stop-opacity:1;stop-color:#feec36" />
      <stop
         id="stop3528"
         offset="0.85853122"
         style="stop-opacity:1;stop-color:#f3632a" />
      <stop
         id="stop3530"
         offset="1"
         style="stop-opacity:1;stop-color:#f3632a" />
    </radialGradient>
    <radialGradient
       id="radialGradient3546"
       gradientTransform="matrix(14.5154,0,0,-14.5154,572.55389,39.814018)"
       gradientUnits="userSpaceOnUse"
       r="4.9999999e-005"
       cy="0"
       cx="0"
       fy="0"
       fx="0">
      <stop
         id="stop3548"
         offset="0"
         style="stop-opacity:1;stop-color:#ffffff" />
      <stop
         id="stop3550"
         offset="1"
         style="stop-opacity:1;stop-color:#feec36" />
    </radialGradient>
    <clipPath
       id="clipPath3558"
       clipPathUnits="userSpaceOnUse">
      <path
         id="path3560"
         d="m 0,0 651.969,0 0,510.236 L 0,510.236 0,0 Z" />
    </clipPath>
    <clipPath
       id="clipPath3804"
       clipPathUnits="userSpaceOnUse">
      <path
         id="path3806"
         d="m 0,0 651.969,0 0,510.236 L 0,510.236 0,0 Z" />
    </clipPath>
  </defs>
  <metadata
     id="metadata7">
    <rdf:RDF>
      <cc:Work
         rdf:about="">
        <dc:format>image/svg+xml</dc:format>
        <dc:type
           rdf:resource="http://purl.org/dc/dcmitype/StillImage" />
        <dc:title></dc:title>
      </cc:Work>
    </rdf:RDF>
  </metadata>
  <g
     id="layer1"
     transform="matrix(6.0543217,0,0,6.0543217,-2779.0629,-4322.9249)">
    <g
       id="g3500"
       transform="matrix(1.25,0,0,-1.25,-230.33715,788.40256)">
      <g
         id="g3502"
         clip-path="url(#clipPath3504)">
        <g
           id="g3508"
           transform="translate(574.3401,53.8198)">
          <path
             d="m 0,0 c 0.093,-0.213 -0.099,-0.413 -0.17,-0.626 0.453,-0.192 0.48,0.443 0.967,0.398 0.086,-0.01 0.211,0.021 0.227,-0.056 -0.663,0.101 -0.663,-0.66 -1.252,-0.455 -0.045,0.348 0.181,0.428 0.171,0.739 L 0,0 Z"
             style="fill:#881211;fill-opacity:1;fill-rule:nonzero;stroke:none"
             id="path3510" />
        </g>
      </g>
    </g>
    <g
       id="g3512"
       transform="matrix(1.25,0,0,-1.25,-230.33715,788.40256)">
      <g
         id="g3514">
        <g
           id="g3520">
          <g
             id="g3522">
            <path
               d="m 558.105,39.878 c 0,-7.959 6.456,-14.413 14.416,-14.413 l 0,0 c 7.962,0 14.416,6.454 14.416,14.413 l 0,0 c 0,7.963 -6.454,14.416 -14.416,14.416 l 0,0 c -7.96,0 -14.416,-6.453 -14.416,-14.416"
               style="fill:url(#radialGradient3524);stroke:none"
               id="path3532" />
          </g>
        </g>
      </g>
    </g>
    <g
       id="g3534"
       transform="matrix(1.25,0,0,-1.25,-230.33715,788.40256)">
      <g
         id="g3536">
        <g
           id="g3542">
          <g
             id="g3544">
            <path
               d="m 558.105,39.878 c 0,-7.959 6.456,-14.413 14.416,-14.413 l 0,0 c 7.962,0 14.416,6.454 14.416,14.413 l 0,0 c 0,7.963 -6.454,14.416 -14.416,14.416 l 0,0 c -7.96,0 -14.416,-6.453 -14.416,-14.416"
               style="fill:url(#radialGradient3546);stroke:none"
               id="path3552" />
          </g>
        </g>
      </g>
    </g>
    <g
       id="g3554"
       transform="matrix(1.25,0,0,-1.25,-230.33715,788.40256)">
      <g
         id="g3556"
         clip-path="url(#clipPath3558)">
        <g
           id="g3562"
           transform="translate(567.4436,28.9995)">
          <path
             d="m 0,0 c 0,0 9.514,-1.702 12.113,5.519 2.244,6.233 2.374,6.675 2.524,9.268 0.249,0.074 4.338,-2.892 1.421,-13.215 -0.125,0.325 -3.641,-3.59 -3.641,-3.59 L 0,0 Z"
             style="fill:#881211;fill-opacity:1;fill-rule:nonzero;stroke:none"
             id="path3564" />
        </g>
        <g
           id="g3566"
           transform="translate(572.4055,46.0777)">
          <path
             d="m 0,0 0,0.058 0.056,0 C 0.022,-0.079 0.128,-0.357 0,-0.398 L 0,0 Z"
             style="fill:#f3632a;fill-opacity:1;fill-rule:nonzero;stroke:none"
             id="path3568" />
        </g>
        <g
           id="g3570"
           transform="translate(582.1672,39.4321)">
          <path
             d="M 0,0 C 0.365,-1.156 0.269,-2.806 0,-3.991 -0.085,-2.684 0.156,-1.294 0,0"
             style="fill:#881211;fill-opacity:1;fill-rule:nonzero;stroke:none"
             id="path3572" />
        </g>
        <g
           id="g3574"
           transform="translate(579.758,30.6265)">
          <path
             d="M 0,0 C -0.038,-0.151 0.08,-0.459 -0.062,-0.507 -0.023,-0.355 -0.142,-0.046 0,0"
             style="fill:#881211;fill-opacity:1;fill-rule:nonzero;stroke:none"
             id="path3576" />
        </g>
        <g
           id="g3578"
           transform="translate(556.257,47.3511)">
          <path
             d="m 0,0 c 0.221,1.296 1.101,2.918 2.217,3.61 1.092,2.055 3.343,2.95 5.195,4.245 0.913,0.311 1.681,0.767 2.659,1.014 0.158,0.008 0.104,0 0,-0.063 C 5.445,7.14 2.096,4.196 0,0"
             style="fill:#f3632a;fill-opacity:1;fill-rule:nonzero;stroke:none"
             id="path3580" />
        </g>
        <g
           id="g3582"
           transform="translate(568.1027,56.1568)">
          <path
             d="M 0,0 C -0.914,-0.48 -2.093,-0.694 -2.977,-1.204 -2.342,-0.699 -1.097,-0.256 0,0"
             style="fill:#f3632a;fill-opacity:1;fill-rule:nonzero;stroke:none"
             id="path3584" />
        </g>
        <g
           id="g3586"
           transform="translate(588.3116,40.4907)">
          <path
             d="m 0,0 c 0.462,1.092 -0.014,2.169 -0.127,3.167 -0.032,0.288 0.079,0.522 0.064,0.825 -0.091,1.615 -0.427,2.602 -0.941,3.996 -0.161,0.441 -0.378,0.735 -0.59,1.182 0.077,-0.494 -0.445,0.571 -0.87,0.684 -0.722,1.037 -1.011,1.203 -2.02,2.019 -0.65,0.527 -6.009,3.617 -12.263,4.81 -1.242,0.236 -0.061,0.021 -0.17,0.021 -0.858,-0.002 -2.114,-0.034 -2.348,-0.07 -0.982,-0.073 -2.002,-0.346 -2.865,-0.539 -1.387,-0.192 -2.421,-1.264 -3.203,-1.687 -0.326,-0.176 -1.296,-0.286 -1.635,-0.479 -1.628,-0.933 -1.947,-1.45 -2.933,-3.095 -0.663,-0.543 -1.45,-0.959 -1.647,-1.965 -1.617,-1.551 -2.31,-4.024 -3.041,-6.462 -0.102,-0.249 0.274,-0.022 0.253,-0.189 -0.622,-1.708 -0.885,-3.716 -0.697,-6.081 0.039,-0.3 0.435,-0.242 0.508,-0.508 -0.175,-1.144 0.247,-1.695 0.442,-2.471 0.06,-0.194 0.398,-0.11 0.507,-0.252 0.165,-1.418 3.982,-4.995 4.181,-5.765 0.859,-0.31 3.621,-0.096 4.119,-0.125 0.647,0.002 2.384,0.098 2.352,0.004 0.155,0.163 2.024,1.9 1.839,1.837 -4.142,0.537 -8.091,4.842 -8.446,10.169 -0.017,0.233 -0.088,0.491 0.009,1.101 0.127,-0.908 0.75,-4.661 2.445,-5.982 -0.896,1.456 -1.87,4.139 -1.796,6.283 0.356,10.188 8.256,12.409 10.757,12.674 -1.235,-0.445 -3.959,-1.463 -6.084,-3.777 0.324,0.228 1.744,0.797 2.581,1.016 -0.565,-0.405 -2.113,-1.277 -2.808,-2.116 -0.911,-1.1 -1.479,-1.895 -2.088,-4.095 0.912,1.783 1.898,3.375 4.487,4.997 1.708,1.07 2.997,1.521 3.763,1.727 1.187,0.271 2.899,-0.017 5.257,-0.77 2.749,-0.878 4.16,-2.605 5.654,-3.772 1.113,-1.491 4.775,-6.069 3.742,-11.126 -0.105,-0.008 -0.412,-1.051 -0.391,-1.32 0.666,0.172 0.426,-0.863 0.486,-1.505 0.662,-0.203 0.748,-1.395 1.07,-2.138 0.216,-0.498 0.902,1.489 0.799,0.592 0.378,0.757 0.885,2.062 1.14,3.04 0.22,0.838 -0.102,2.184 0.191,3.295 0.276,0.087 0.134,-0.246 0.381,-0.19 C 0.382,-2.083 0.185,-0.876 0,0 m -2.725,-6.335 c 1.334,6.288 -1.585,11.842 -4.44,14.465 -0.844,0.773 -1.459,1.197 -2.302,1.688 -0.84,0.495 -1.163,0.8 -0.61,0.813 0.771,-0.004 2.412,-1.023 4.133,-2.86 1.511,-1.613 3.853,-5.99 3.853,-10.242 0,-1.381 -0.148,-2.828 -0.634,-3.864"
             style="fill:#881211;fill-opacity:1;fill-rule:nonzero;stroke:none"
             id="path3588" />
        </g>
        <g
           id="g3590"
           transform="translate(560.5988,49.5357)">
          <path
             d="m 0,0 c -2.381,-2.752 -3.684,-6.021 -3.38,-11.033 -0.24,0.763 -0.669,2.899 -0.223,5.871 -1.078,-3.642 0.015,-8.157 0.971,-10.073 1.424,-2.854 3.706,-5.251 6.669,-6.352 0.627,-0.279 1.506,0.503 1.635,0.838 0.052,-0.499 -0.103,-0.142 0.15,-0.088 -2.082,0.683 -4.283,2.045 -5.615,3.519 -1.251,1.385 -2.463,4.146 -2.695,6.359 -0.654,6.2 1.984,10.237 5.721,13.151 C 4.659,3.305 6.95,4.153 8.843,4.57 7.846,4.384 6.858,4.327 4.979,3.53 3.1,2.734 1.19,1.375 0,0"
             style="fill:#f3632a;fill-opacity:1;fill-rule:nonzero;stroke:none"
             id="path3592" />
        </g>
        <g
           id="g3594"
           transform="translate(584.257,33.5405)">
          <path
             d="M 0,0 C 0.028,-0.685 -0.331,-0.979 -0.507,-1.457 -0.4,-0.908 -0.07,-0.584 0,0"
             style="fill:#881211;fill-opacity:1;fill-rule:nonzero;stroke:none"
             id="path3596" />
        </g>
        <g
           id="g3598"
           transform="translate(583.7502,32.02)">
          <path
             d="M 0,0 C 0.056,-0.631 -0.463,-0.802 -0.634,-1.141 -0.743,-1.358 -0.684,-1.613 -0.761,-1.773 -0.922,-2.112 -1.393,-2.316 -1.521,-2.66 -0.917,-1.871 -0.451,-0.943 0,0"
             style="fill:#881211;fill-opacity:1;fill-rule:nonzero;stroke:none"
             id="path3600" />
        </g>
        <g
           id="g3602"
           transform="translate(582.0705,41.1167)">
          <path
             d="M 0,0 C 0.211,-0.508 0.617,-1.294 0.655,-3.144 0.683,-4.437 0.464,-5.516 0.246,-6.04 0.483,-3.795 0.559,-2.282 0,0"
             style="fill:#881211;fill-opacity:1;fill-rule:nonzero;stroke:none"
             id="path3604" />
        </g>
        <g
           id="g3606"
           transform="translate(583.716,48.0835)">
          <path
             d="M 0,0 C -0.399,0.537 -0.785,0.958 -0.63,1.115 -0.467,1.33 -0.042,1.256 0.546,0.502 1.133,-0.252 3.731,-3.413 3.568,-9.247 2.548,-3.049 0.679,-0.913 0,0"
             style="fill:#f3632a;fill-opacity:1;fill-rule:nonzero;stroke:none"
             id="path3608" />
        </g>
        <g
           id="g3610"
           transform="translate(581.3606,29.6519)">
          <path
             d="m 0,0 c -0.147,0.142 -1.028,-4.579 0.796,-0.088 l 0,0.065 c 0.603,0.789 1.068,1.716 1.519,2.66 l 0,0.064 C 2.422,3.247 2.753,3.572 2.821,4.157 2.995,4.703 2.903,5.285 2.886,5.93 2.862,6.198 3.074,5.342 3.181,5.35 4.252,9.982 2.273,14.548 1.036,16.267 c -1.347,1.869 -3.989,4.238 -7.432,5.136 -3.383,1.005 -1.916,-0.342 -2.583,-0.281 0.034,-0.198 0.211,-1.061 -0.171,-1.951 5.737,-0.54 8.196,-3.801 8.796,-7.674 -0.311,1.313 -1.073,2.541 -1.729,3.558 1.542,-3.241 1.504,-5.69 0.863,-8.001 -0.641,-2.314 -2.655,-5.3 -4.551,-6.197 -1.894,-0.897 -4.9,-1.398 -7.817,-1.233 0.057,-0.172 4.289,-1.136 7.197,0.189 1.624,0.685 3.687,2.314 4.969,5.04 0.385,0.389 0.436,-0.24 -0.098,-1.204 -0.63,-1.195 -1.981,-2.918 -4.45,-4.151 0.092,-0.171 -0.168,-0.669 -0.066,-0.687 0.285,-0.057 -0.837,-0.11 0.474,0.449 C 0.059,1.651 0.952,8.978 0.524,11.651 1.346,8.908 0.417,4.665 -1.356,1.919 -2.004,0.964 -3.34,-0.618 -4.858,-1.429 -5.052,-1.641 -4.455,-1.565 -4.475,-1.596 -1.205,0.295 0.694,4.271 1.088,5.766 1.21,5.277 0.44,1.84 -0.825,0.471 -0.768,0.359 -0.791,0.153 -0.679,0.097 1.818,2.811 3.102,9.236 1.308,13.696 2.569,11.296 2.651,8.749 2.326,5.962 1.988,3.054 0.508,0.63 0,0 m -3.725,18.537 c -1.423,0.784 -3.442,1.045 -4.864,1.233 -0.952,0.42 0.538,1.296 3.328,0.208 4.462,-1.738 5.554,-5.285 5.756,-6.349 -0.541,1.249 -2.04,3.674 -4.22,4.908"
             style="fill:#f3632a;fill-opacity:1;fill-rule:nonzero;stroke:none"
             id="path3612" />
        </g>
        <g
           id="g3614"
           transform="translate(581.3264,50.2642)">
          <path
             d="M 0,0 C -0.625,0.439 -1.572,1.113 -1.962,1.341 -3.454,2.211 -4.141,2.427 -5.994,2.74 -6.58,2.832 -6.791,3.518 -6.344,3.547 -4.847,3.488 -3.108,2.452 -1.941,1.708 -1.203,1.235 -0.518,0.626 0,0"
             style="fill:#f3632a;fill-opacity:1;fill-rule:nonzero;stroke:none"
             id="path3616" />
        </g>
        <g
           id="g3618"
           transform="translate(578.716,53.5864)">
          <path
             d="M 0,0 C -2.191,0.825 -5.459,1.729 -9.343,1.123 -7.45,2.077 -3.261,2.062 0,0"
             style="fill:#f3632a;fill-opacity:1;fill-rule:nonzero;stroke:none"
             id="path3620" />
        </g>
        <g
           id="g3622"
           transform="translate(561.6623,33.7837)">
          <path
             d="M 0,0 C 1.31,-1.198 4.624,-3.244 6.486,-3.622 7.026,-4.647 2.297,-2.986 0,0"
             style="fill:#881211;fill-opacity:1;fill-rule:nonzero;stroke:none"
             id="path3624" />
        </g>
        <g
           id="g3626"
           transform="translate(575.6633,56.1275)">
          <path
             d="M 0,0 C -3.386,0.805 -7.445,0.344 -8.521,0.028 -9.008,-0.176 -9.41,0.057 -8.452,0.386 -7.319,0.827 -2.917,1.141 0,0"
             style="fill:#f3632a;fill-opacity:1;fill-rule:nonzero;stroke:none"
             id="path3628" />
        </g>
        <g
           id="g3630"
           transform="translate(563.9983,27.9702)">
          <path
             d="m 0,0 c -2.15,0.519 -6.226,2.46 -8.479,9.642 0.7,-6.095 4.578,-8.566 7.81,-10.312 0.125,-0.065 0.852,-0.033 1.003,-0.036 C 0.554,-0.709 0.232,-0.021 0,0"
             style="fill:#f3632a;fill-opacity:1;fill-rule:nonzero;stroke:none"
             id="path3632" />
        </g>
        <g
           id="g3634"
           transform="translate(580.6379,54.2778)">
          <path
             d="M 0,0 C 2.246,-1.171 4.973,-4.196 5.501,-5.376 4.818,-4.288 1.59,-1.119 0.622,-0.777 1.32,-1.237 2.701,-2.816 3.699,-4.009 4.697,-5.201 6.412,-8.289 6.489,-8.782 6.105,-8.065 5.074,-6.378 4.253,-5.317 2.607,-3.381 -0.341,0.403 -6.992,1.678 -5.727,2.161 -3.072,1.603 0,0"
             style="fill:#f3632a;fill-opacity:1;fill-rule:nonzero;stroke:none"
             id="path3636" />
        </g>
        <g
           id="g3638"
           transform="translate(578.9621,41.9048)">
          <path
             d="m 0,0 c -0.298,-0.138 0.113,-1.884 0.15,-2.356 0.038,-0.476 0.09,-0.857 -0.09,-1.771 -0.351,-1.756 -1.227,-3.106 -1.882,-3.958 0.854,0.653 1.579,1.621 2.223,3.421 C 1.047,-2.864 0.697,0.467 0,0"
             style="fill:#feec36;fill-opacity:1;fill-rule:nonzero;stroke:none"
             id="path3640" />
        </g>
        <g
           id="g3642"
           transform="translate(572.8547,47.3579)">
          <path
             d="m 0,0 c 0.682,-0.009 1.618,-0.189 2.033,-0.3 2.124,-0.567 3.391,-2.008 3.979,-2.96 0.295,-0.474 0.472,-0.777 0.83,-1.617 -0.535,2.144 -1.294,4.251 -4.758,5.506 0,0 -1.823,0.437 -2.852,0.129 C -1.795,0.448 -0.684,0.011 0,0"
             style="fill:#feec36;fill-opacity:1;fill-rule:nonzero;stroke:none"
             id="path3644" />
        </g>
        <g
           id="g3646"
           transform="translate(576.7121,42.0884)">
          <path
             d="m 0,0 c 0.219,-0.222 0.363,-0.402 0.736,-1.458 0.375,-1.055 0.453,-1.857 0.327,-3.087 0.559,2.932 -0.29,4.499 -1.057,5.487 -1.163,1.497 -3.171,2.537 -5.239,2.707 0,0 0.592,0.239 1.905,0.271 2.145,0.052 4.138,-2.048 4.727,-2.788 -0.314,1.057 -2.021,2.844 -3.771,3.396 -2.152,0.68 -4.235,-0.451 -4.164,-0.481 0,-0.022 0.514,-0.275 0.518,-0.46 C -5.892,3.398 -5.591,3.465 -5.082,3.54 -5.028,3.329 -4.94,3.059 -4.847,2.79 -5.14,2.81 -5.356,2.788 -5.448,2.752 l -0.379,-4.586 c 0,0 -4.517,-2.445 -5.691,2.692 -0.922,4.038 2.731,5.615 2.731,5.615 -1.16,-0.228 -4.653,-2.231 -4.077,-6.116 0.439,-2.958 1.359,-4.3 2.884,-5.307 1.015,-0.669 2.557,-1.24 4.387,-0.734 0,0 -1.002,-1.074 -3.108,-0.484 -1.721,0.482 -4.692,2.781 -4.692,8.322 0,0 -1.352,-5.055 3.451,-8.987 -0.701,0.351 -1.57,0.922 -2.343,1.83 -1.648,1.934 -2.016,3.607 -1.838,5.806 0.142,1.743 1.257,3.931 3.284,5.433 -1.326,-0.499 -3.536,-2.938 -4.04,-5.386 -0.126,-0.608 -0.173,-1.494 -0.073,-2.48 -0.891,2.385 -0.44,5.278 0.656,6.789 -1.346,-1.514 -2.153,-4.492 -1.04,-7.874 0.55,-1.669 1.353,-2.696 2.054,-3.429 0.208,-0.268 0.436,-0.524 0.691,-0.76 0.114,-0.108 0.231,-0.208 0.346,-0.307 0.173,-0.252 0.269,-0.363 0.229,-0.24 -0.033,0.047 -0.069,0.094 -0.11,0.142 3.01,-2.471 5.726,-1.637 6.555,-1.408 2.06,0.571 2.822,1.648 3.283,2.312 1.023,1.471 1.635,3.235 1.295,5.371 -0.2,1.257 -0.625,1.536 -1.219,2.115 0.083,0.037 0.961,-0.194 1.626,-1.758 0.515,-1.208 0.973,-4.863 -1.766,-7.207 -0.033,-0.092 -1.75,-1.302 -3.694,-1.77 3.235,0.17 5.105,2.343 5.539,3.059 C 0.521,-4.9 0.851,-2.588 0,0"
             style="fill:#feec36;fill-opacity:1;fill-rule:nonzero;stroke:none"
             id="path3648" />
        </g>
        <g
           id="g3650"
           transform="translate(574.4758,33.187)">
          <path
             d="m 0,0 c -0.992,-0.664 -3.296,-1.609 -4.766,-1.609 -1.47,0 -2.503,0.238 -4.225,0.907 0.315,-0.319 3.004,-1.96 6.093,-1.344 2.817,0.561 3.559,1.296 3.98,1.766 C 1.082,-0.216 0.011,-0.051 0,0"
             style="fill:#feec36;fill-opacity:1;fill-rule:nonzero;stroke:none"
             id="path3652" />
        </g>
        <g
           id="g3654"
           transform="translate(573.2356,36.6069)">
          <path
             d="m 0,0 c -1.128,-2.005 -2.935,-2.576 -3.852,-2.6 -1.67,-0.047 -4.145,0.452 -6.589,4.186 0,0 1.798,-5.318 7.053,-4.766 3.474,0.367 3.89,2.177 3.89,2.177 0,0 0.626,3.007 -0.502,1.003"
             style="fill:#ffffff;fill-opacity:1;fill-rule:nonzero;stroke:none"
             id="path3656" />
        </g>
        <g
           id="g3658"
           transform="translate(571.2922,37.9751)">
          <path
             d="m 0,0 c -1.163,-0.285 -3.037,-0.797 -4.637,1.087 -1.255,1.478 -2.804,3.983 -1.884,6.385 0,0 -1.807,-3.232 1.308,-7.039 2.17,-2.652 5.837,-1.846 6.892,-0.861 1.517,1.423 0.368,0.729 0.368,0.729 L 0.96,2.089 C 0.96,2.089 1.164,0.286 0,0"
             style="fill:#ffffff;fill-opacity:1;fill-rule:nonzero;stroke:none"
             id="path3660" />
        </g>
        <g
           id="g3662"
           transform="translate(572.8645,44.7534)">
          <path
             d="m 0,0 0.097,-0.668 c 0,0 2.476,-0.734 3.256,-2.183 0.78,-1.448 0.754,-4.065 0.198,-5.569 0.223,0.279 1.393,3.513 0.026,6.07 C 2.623,-0.57 0,0 0,0"
             style="fill:#ffffff;fill-opacity:1;fill-rule:nonzero;stroke:none"
             id="path3664" />
        </g>
        <g
           id="g3666"
           transform="translate(570.3116,35.27)">
          <path
             d="m 0,0 c -1.503,-0.459 -3.848,0.676 -5.285,2.404 0,0 2.174,-4 5.578,-2.823 2.448,0.849 2.465,2.968 2.465,2.968 l -1.003,0 C 1.755,2.549 1.504,0.46 0,0"
             style="fill:#ffffff;fill-opacity:1;fill-rule:nonzero;stroke:none"
             id="path3668" />
        </g>
        <g
           id="g3670"
           transform="translate(571.7317,38.2349)">
          <path
             d="m 0,0 c 0.794,0.836 0,2.841 0,2.841 0,0 -2.172,-0.084 -1.961,-2.883 0,0 1.168,-0.793 1.961,0.042"
             style="fill:#ffffff;fill-opacity:1;fill-rule:nonzero;stroke:none"
             id="path3672" />
        </g>
        <g
           id="g3674"
           transform="translate(573.0549,47.8169)">
          <path
             d="m 0,0 c -0.14,-0.018 -0.416,-0.258 -0.06,-0.296 0,0 3.107,-0.14 5.044,-2.116 C 4.59,-1.78 3.283,-0.258 0,0"
             style="fill:#ffffff;fill-opacity:1;fill-rule:nonzero;stroke:none"
             id="path3676" />
        </g>
        <g
           id="g3678"
           transform="translate(561.5246,52.0708)">
          <path
             d="M 0,0 C 1.793,1.662 3.791,2.676 5.904,3.262 2.315,2.5 -0.969,1.096 -4.037,-4.301 -4.756,-5.615 -4.342,-6.053 -3.559,-4.591 -2.784,-3.144 -1.068,-0.99 0,0"
             style="fill:#f3632a;fill-opacity:1;fill-rule:nonzero;stroke:none"
             id="path3680" />
        </g>
        <g
           id="g3682"
           transform="translate(565.5334,32.9292)">
          <path
             d="M 0,0 C -1.377,0.605 -4.327,3.228 -5.083,6.659 -4.225,4.326 -1.967,1.712 -0.398,0.82 0.355,0.393 0.793,0.324 0.854,0.085 0.876,0.006 0.89,-0.173 0.651,-0.201 0.414,-0.23 0.195,-0.087 0,0"
             style="fill:#feec36;fill-opacity:1;fill-rule:nonzero;stroke:none"
             id="path3684" />
        </g>
        <g
           id="g3686"
           transform="translate(565.8166,32.9585)">
          <path
             d="m 0,0 c 0.506,-0.178 0.411,0.085 0.186,0.227 0,0 -0.888,0.306 -2.594,1.685 C -2.397,1.909 -1.052,0.419 0,0"
             style="fill:#ffffff;fill-opacity:1;fill-rule:nonzero;stroke:none"
             id="path3688" />
        </g>
        <g
           id="g3690"
           transform="translate(573.9836,32.1597)">
          <path
             d="m 0,0 c 0.811,0.457 0.271,0.509 -0.039,0.333 0,0 -1.115,-0.682 -4.338,-1.283 C -4.362,-0.943 -1.589,-0.799 0,0"
             style="fill:#ffffff;fill-opacity:1;fill-rule:nonzero;stroke:none"
             id="path3692" />
        </g>
        <g
           id="g3694"
           transform="translate(569.9338,34.4409)">
          <path
             d="M 0,0 C 0,0 0.797,0.196 1.144,-0.754 1.074,-0.734 0.296,-0.322 -0.123,-1.241 -0.059,-1.256 0,0 0,0"
             style="fill:#f7973b;fill-opacity:1;fill-rule:nonzero;stroke:none"
             id="path3696" />
        </g>
        <g
           id="g3698"
           transform="translate(569.6106,32.7612)">
          <path
             d="M 0,0 C 0,0 0.762,0.228 1.227,-0.578 1.153,-0.565 0.334,-0.26 0.035,-1.092 0.102,-1.101 0,0 0,0"
             style="fill:#f7973b;fill-opacity:1;fill-rule:nonzero;stroke:none"
             id="path3700" />
        </g>
        <g
           id="g3702"
           transform="translate(569.3791,31.1939)">
          <path
             d="M 0,0 C 0,0 0.759,0.208 1.23,-0.559 1.157,-0.546 0.335,-0.249 0.045,-1.034 0.111,-1.041 0,0 0,0"
             style="fill:#f7973b;fill-opacity:1;fill-rule:nonzero;stroke:none"
             id="path3704" />
        </g>
        <g
           id="g3706"
           transform="translate(582.5129,55.3462)">
          <path
             d="M 0,0 C -0.729,0 -1.106,0.059 -1.697,0.171 -2.9,0.764 -4.108,1.338 -5.816,1.306 -6.246,1.299 -6.472,1.17 -6.705,1.061 -6.898,0.863 -7.123,0.652 -7.411,0.364 c -0.001,0.127 -0.309,0.614 -0.362,0.69 0.367,1.027 0.975,1.754 1.292,2.83 -0.068,0.227 -0.352,0.345 -0.641,0.227 -0.374,-1.048 -0.791,-2.262 -1.264,-3.212 -0.068,0 -0.518,0.072 -0.586,0.072 -0.262,-0.207 0.037,-0.43 0.207,-0.632 -0.027,0 -0.056,-0.449 -0.201,-0.512 -0.36,0.159 -0.724,0.263 -1.171,0.321 -0.045,0.272 0.106,0.749 0.128,0.995 0.135,1.377 -0.487,2.141 -1.572,2.161 -1.084,-0.043 -1.65,-0.66 -1.552,-1.885 0.062,-0.049 0.109,-0.167 0.15,-0.233 0,-0.158 -0.033,-0.312 -0.033,-0.469 0.079,-0.153 0.16,-0.149 0.215,-0.262 0.06,-0.125 0.095,-0.275 0.094,-0.43 0,0 0.191,-0.137 -0.532,-0.755 -0.561,-0.478 -1.16,-1.033 -1.16,-1.033 -0.29,-0.492 -1.211,-0.476 -1.085,-1.33 -0.331,-0.217 -0.475,-0.711 -0.339,-1.221 -0.097,0.036 -0.024,-0.096 -0.119,-0.061 0.004,-0.268 -0.01,-0.666 0.224,-0.707 0.004,-0.747 -0.712,-1.096 -0.68,-1.469 0.076,0.022 0.074,0.024 0.127,0.139 0.174,0.078 0.285,0.093 0.396,-0.027 -0.342,-0.505 -0.025,-0.922 -0.104,-1.481 -0.204,-0.127 -0.308,-0.262 -0.435,-0.469 -0.094,0.027 -0.071,0.138 -0.216,0.046 0,-0.114 0.086,-0.18 0.113,-0.29 -0.115,-0.061 -0.183,-0.135 -0.217,-0.281 -0.131,-0.041 -0.065,0.083 -0.181,0.056 0.033,-0.205 0.073,-0.414 -0.005,-0.729 -0.08,0 -0.139,-0.019 -0.219,-0.019 -0.014,-0.115 0.07,-0.166 0.147,-0.187 -0.099,-0.805 -0.462,-1.375 -0.86,-1.88 -0.103,0.004 -0.221,0.024 -0.175,-0.118 -0.387,-0.045 -1.056,-0.505 -1.2,0.008 -0.252,-0.043 -0.229,-0.328 -0.168,-0.537 -0.061,-0.176 -0.454,-0.4 -0.265,-0.719 -0.03,-0.003 -0.127,-0.022 -0.057,-0.151 0.086,-0.024 0.122,-0.083 0.241,-0.073 0.031,-0.127 -0.051,-0.161 -0.077,-0.232 0.026,-0.104 0.21,-0.101 0.301,-0.14 0,-0.057 0.434,-0.361 0.917,-0.406 0.05,0.056 0.12,0.308 0.228,0.308 0.047,-1.818 0.084,-3.872 0.063,-5.754 -0.096,0.035 -0.051,-0.077 -0.145,-0.042 0.013,-0.152 -0.004,-0.338 -0.105,-0.375 -0.049,-0.402 0.271,-0.668 0.166,-0.875 -0.157,-0.035 -0.332,0.226 -0.443,0.144 -0.152,-0.262 0.259,-0.52 0.088,-0.705 0.157,-0.747 0.35,-1.827 0.546,-2.599 0.049,0.378 0.019,1.141 0.103,1.304 -0.003,0.03 0.011,0.07 0.058,0.148 -0.034,0.09 0.045,0.072 0.057,0.119 -0.206,0.247 0.106,0.7 0,0.85 0.169,0.215 0.211,0.027 0.258,0.362 -0.437,-0.312 -0.145,0.421 -0.258,0.406 -0.118,0.086 -0.032,0.378 -0.057,0.559 0.111,-0.043 0.005,0.13 0.117,0.087 -0.019,0.286 -0.107,0.5 -0.175,0.736 -0.039,0.659 0.076,1.47 -0.061,2.03 0.186,0.208 -0.15,0.629 0.061,0.853 -0.078,0.016 -0.11,0.343 0,0.354 -0.138,0.795 -0.022,1.843 -0.061,2.735 0.464,0.223 0.666,0.707 1.472,0.589 0.084,-0.004 0.398,0.1 0.516,0.06 -0.311,-0.435 -0.447,-1.457 -0.544,-2.066 -0.033,-0.091 0.047,-0.07 0.059,-0.118 0.024,-0.308 0.045,-0.715 0.13,-0.962 0.11,-0.767 -0.05,-1.343 0.044,-1.985 0.001,-0.636 0.333,-1.218 0.405,-1.785 0.526,-0.243 -0.098,-1.824 0.649,-2.544 0.162,-1.393 0.37,-2.102 0.312,-2.752 -0.525,-1.16 -1.823,-1.086 -2.421,-1.871 0.255,-0.802 0.584,0.068 0.496,-0.078 l 10.421,-1.254 0.055,1.85 c -0.039,0.116 -0.071,0.24 -0.176,0.294 0.027,0.163 -0.027,0.247 -0.059,0.353 0.397,0.364 -0.122,0.876 -0.059,1.44 0.113,-0.043 0.007,0.132 0.118,0.091 0.053,0.245 -0.25,0.391 -0.059,0.586 l 0,1.796 c 0.114,0.128 0.004,0.37 -0.059,0.501 -0.084,0.877 -0.382,1.538 -0.824,2.061 0.021,0.206 -0.015,0.355 -0.058,0.499 0.058,0.055 0.108,0.277 0,0.323 -0.077,0.376 -0.074,0.744 -0.118,1.059 -0.044,0.31 0.151,0.645 0.176,0.854 0.037,0.283 -0.165,0.468 -0.176,0.794 -0.005,0.118 0.114,0.509 0.118,0.589 0.004,0.114 -0.15,0.2 0,0.295 -0.105,1.003 -0.724,1.493 -0.825,2.5 0.1,0.019 0.152,0.086 0.294,0.06 -0.01,-0.051 0.204,-0.245 0.24,-0.247 -0.009,-0.275 0.201,-0.615 0.42,-0.567 0.019,-0.208 0.148,-0.306 0.284,-0.396 0.038,-0.609 -0.119,-1.153 0.017,-1.665 0.083,-0.487 0.03,-1.307 0.516,-1.391 0.718,0.467 0.677,2.116 0.612,3.178 0.188,0.007 0.099,0.176 0.089,0.381 0.119,0.088 -0.026,0.095 0.01,0.265 -0.09,0.098 0.179,-0.07 0.05,-0.03 -0.068,0.071 -0.068,0.209 -0.06,0.354 0.091,0.087 0.055,-0.019 0.033,0.177 -0.101,-0.027 0.02,0.025 -0.092,0.088 0.004,0.191 -0.039,0.43 0.119,0.469 0.009,0.1 0.003,0.183 -0.06,0.208 -0.035,0.093 0.096,0.023 0.06,0.118 -0.16,0.306 0.233,0.825 0,1.205 l 0,0.53 c 0.061,-0.014 0.055,0.041 0.059,0.088 0.142,-0.026 0.084,0.223 0,0.325 -0.044,0.188 0.092,0.2 0.059,0.381 0.156,0 0.131,0.29 0.057,0.353 -0.012,0.289 -0.358,0.867 -0.277,0.914 -0.041,0.106 -0.235,0.066 -0.312,0.137 0.031,0.246 -1.271,3.343 -1.155,3.296 0.024,-0.091 1.009,0.928 0.929,1.218 -0.003,0.012 -0.006,0.021 -0.006,0.028 l -0.297,1.058 c 0.008,0.171 0.078,0.164 0.169,0.25 0.004,0.084 -0.041,0.053 0,0.172 -0.477,0.073 -0.908,0.218 -1.226,0.45 -0.267,0.205 -0.332,0.349 -0.39,0.468 0.294,0.116 0.077,0.274 0.382,0.197 0.156,-0.038 0.57,0.361 0.477,0.582 0.278,0.119 0.421,0.383 0.677,0.529 1.229,0.196 2.367,-0.146 3.149,-0.589 0.458,-0.13 0.849,-0.327 1.176,-0.588 0.465,0.023 0.778,-0.104 1.267,-0.058 C -0.473,-0.194 0.514,-0.518 0.6,0.094 0.514,0.061 0.339,-0.003 0,0 m -6.13,-13.314 c 0.07,-0.912 0.249,-2.179 -0.272,-2.585 -0.241,-0.034 -0.335,2.524 -0.335,2.524 0.016,0.224 0.539,0.249 0.607,0.061 M -13.758,-24.4 c -0.155,0.457 0.411,5.274 1.518,6.522 -0.195,0.412 0.003,1.169 0.113,1.54 0.059,0.196 0.115,0.513 0.412,0.471 0.039,-0.133 0.058,-0.31 0.117,-0.441 0.043,-0.09 0.124,-0.116 0.177,-0.206 0.105,-0.173 0.169,-0.419 0.295,-0.619 0.266,-0.421 0.998,-1.923 1.268,-2.391 0.2,-0.35 0.151,-1.59 0.129,-1.8 -0.242,0.021 -0.18,-0.347 0.022,-0.683 0.464,-0.773 1.04,-2.116 1.369,-2.825 0.046,-0.222 0.036,-0.413 -0.081,-0.602 -0.019,-0.198 -0.023,-0.166 0,-0.228 -0.058,-0.157 -0.102,-0.33 -0.024,-0.631 -0.007,-0.215 0.04,-0.37 -0.007,-0.59 1.742,-2.029 -4.188,-0.02 -4.639,-0.061 0.101,0.588 -0.635,1.824 -0.669,2.544 m 5.607,18.723 c 0.006,-0.148 0.186,-0.666 0.255,-0.756 -0.041,-0.542 0.028,-1.222 -0.053,-1.564 -0.069,-0.292 0.24,-0.518 0.341,-0.757 0.017,-0.04 -0.035,-0.126 -0.021,-0.169 0.029,-0.101 0.075,-0.207 0.152,-0.322 0.058,-0.091 0.332,-0.402 0.39,-0.541 0,-0.117 -0.053,-0.117 -0.053,-0.232 -0.102,0.012 -0.064,-0.104 -0.15,-0.108 -0.015,-0.095 -0.038,-0.175 0.012,-0.202 0.108,-0.589 -0.27,-0.698 -0.511,-0.937 0.034,-0.349 -0.126,-0.681 -0.235,-0.884 -0.69,-0.134 -0.622,1.09 -0.865,1.492 -0.014,0.123 0.04,0.316 -0.06,0.352 0.017,0.262 -0.05,0.441 -0.117,0.617 0.131,0.411 -0.566,0.709 -0.598,1.148 -0.103,0.083 0.366,3.052 0.65,3.141 -0.02,0.256 0.767,-0.241 0.863,-0.278"
             style="fill:#f7973b;fill-opacity:1;fill-rule:nonzero;stroke:none"
             id="path3708" />
        </g>
        <g
           id="g3710"
           transform="translate(575.2287,55.4097)">
          <path
             d="m 0,0 c -0.151,-0.101 -0.561,-0.03 -0.561,-0.03 0,0 -0.167,-0.352 -0.305,-0.639 0.056,-0.119 0.325,-0.25 0.438,-0.375 0.319,-0.232 0.766,-0.317 1.243,-0.389 C 0.774,-1.553 0.879,-1.526 0.874,-1.61 0.783,-1.697 0.821,-1.91 0.815,-2.081 l 0.294,-1.058 c 0.036,-0.14 0.084,-0.269 0.058,-0.47 0.114,0.026 0.127,-0.049 0.177,-0.089 C 1.387,-4.005 1.249,-4.131 1.285,-4.434 1.245,-4.512 1.064,-4.446 1.052,-4.55 1.27,-4.703 1.496,-4.851 1.638,-5.08 l 0.176,0 C 1.849,-5.044 1.781,-5.468 1.757,-5.373 1.64,-5.328 1.758,-5.452 1.681,-5.444 1.65,-5.415 1.607,-5.434 1.58,-5.403 1.582,-5.358 1.655,-5.381 1.638,-5.315 1.48,-5.348 1.421,-5.278 1.315,-5.257 1.269,-5.258 1.292,-5.332 1.228,-5.315 1.347,-5.921 1.444,-6.548 1.58,-7.139 l 0.234,0 c 0.017,-0.2 0.148,-0.284 0.119,-0.529 0.076,-0.071 0.253,-0.04 0.294,-0.147 C 2.147,-7.861 2.141,-7.983 1.992,-7.962 2.035,-8.281 1.919,-8.439 1.933,-8.726 2.005,-8.789 2.134,-8.8 2.166,-8.903 2.123,-9.015 2.031,-9.079 1.873,-9.079 1.908,-9.26 1.772,-9.271 1.814,-9.462 1.9,-9.563 2.121,-9.528 2.108,-9.726 1.967,-9.701 1.958,-9.811 1.814,-9.785 1.811,-9.831 1.818,-9.887 1.757,-9.873 l 0,-0.529 c 0.232,-0.381 -0.158,-0.899 0,-1.205 0.036,-0.096 -0.096,-0.025 -0.061,-0.119 0.065,-0.026 0.07,-0.11 0.061,-0.207 -0.157,-0.038 -0.112,-0.279 -0.119,-0.469 0.112,-0.063 0.193,0.002 0.295,0.029 0.021,-0.197 -0.147,-0.206 -0.237,-0.294 -0.007,-0.146 -0.007,-0.283 0.061,-0.353 0.129,-0.041 0.201,0.128 0.294,0.029 -0.038,-0.168 -0.237,-0.177 -0.355,-0.265 0.01,-0.204 -0.047,-0.344 -0.234,-0.352 0.065,-1.061 0.041,-2.472 -0.677,-2.941 -0.485,0.083 -0.359,0.777 -0.44,1.265 -0.136,0.511 -0.022,1.272 -0.061,1.883 -0.135,0.087 -0.335,0.115 -0.352,0.323 -0.219,-0.049 -0.363,0.195 -0.351,0.469 -0.038,0.004 -0.07,0.009 -0.06,0.06 -0.143,0.026 -0.196,-0.041 -0.293,-0.06 0.1,-1.005 0.717,-1.496 0.822,-2.498 -0.149,-0.095 0.006,-0.181 0,-0.295 -0.004,-0.08 -0.12,-0.47 -0.118,-0.588 0.01,-0.327 0.213,-0.512 0.178,-0.793 -0.026,-0.209 -0.221,-0.544 -0.178,-0.854 0.046,-0.315 0.042,-0.682 0.118,-1.058 0.107,-0.045 0.058,-0.267 0,-0.323 0.043,-0.144 0.08,-0.294 0.06,-0.501 0.44,-0.519 0.739,-1.182 0.824,-2.059 0.06,-0.129 0.172,-0.37 0.057,-0.499 l 0,-1.794 c -0.19,-0.194 0.112,-0.342 0.061,-0.588 -0.114,0.042 -0.007,-0.132 -0.118,-0.089 -0.064,-0.565 0.454,-1.076 0.057,-1.439 0.032,-0.106 0.086,-0.19 0.061,-0.354 0.102,-0.054 3.141,-1.111 -2.303,-3.039 l -8.049,0.786 -0.805,1.053 c 0,0 -0.168,0.365 0.012,0.752 0.086,0.184 0.822,0.295 1.321,0.578 0.98,0.481 1.324,0.95 1.348,1.16 0.09,0.991 -0.168,1.865 -0.463,2.852 -0.113,0.339 -0.047,0.272 -0.294,0.674 -0.181,0.815 0.313,1.347 -0.237,1.682 -0.072,0.568 -0.295,0.982 -0.295,1.618 -0.093,0.64 -0.008,1.555 -0.116,2.323 -0.088,0.248 -0.096,0.573 -0.118,0.882 -0.013,0.046 -0.094,0.026 -0.06,0.118 0.097,0.609 0.116,1.297 0.294,1.824 -0.119,0.039 -0.093,-0.064 -0.176,-0.06 -0.804,0.118 -1.007,-0.366 -1.471,-0.589 0.04,-0.891 -0.077,-1.939 0.059,-2.733 -0.109,-0.01 -0.075,-0.336 0,-0.354 -0.211,-0.225 0.126,-0.644 -0.059,-0.851 0.136,-0.563 0.021,-1.372 0.059,-2.03 0.069,-0.236 0.159,-0.449 0.176,-0.736 -0.111,0.044 -0.005,-0.131 -0.118,-0.087 0.028,-0.18 -0.059,-0.472 0.06,-0.56 0.112,0.016 0.103,0.152 0.235,0.148 -0.047,-0.335 -0.068,-0.698 -0.235,-0.912 0.105,-0.151 -0.206,-0.604 0,-0.853 -0.012,-0.046 -0.092,-0.025 -0.06,-0.117 -0.045,-0.08 -0.06,-0.12 -0.058,-0.147 -0.082,-0.162 -0.244,-0.68 -0.295,-1.059 -0.116,0.784 -0.196,1.606 -0.351,2.351 0.169,0.185 -0.242,0.445 -0.089,0.707 0.112,0.082 0.167,-0.095 0.325,-0.06 0.184,0.362 -0.168,0.54 -0.119,0.942 0.101,0.035 0.132,0.142 0.119,0.293 0.093,-0.034 0.022,0.096 0.115,0.06 0.022,1.882 -0.012,3.713 -0.057,5.529 -0.108,0 -0.097,-0.119 -0.149,-0.177 -0.481,0.048 -0.754,0.306 -1.145,0.44 l 0,0.178 c -0.092,0.037 -0.211,0.044 -0.236,0.147 0.026,0.071 0.088,0.107 0.058,0.236 -0.118,-0.013 -0.15,0.064 -0.234,0.086 -0.041,0.121 0.063,0.095 0.059,0.179 -0.16,0.259 0.175,0.5 0.293,0.675 0.032,0.164 -0.088,0.481 0.118,0.472 0.146,-0.514 0.907,-0.045 1.293,0 -0.043,0.141 0.074,0.122 0.178,0.116 0.396,0.506 0.667,1.136 0.764,1.942 -0.077,0.019 -0.132,0.062 -0.118,0.176 l 0.236,0 c 0.079,0.314 0.004,0.501 -0.03,0.704 0.116,0.029 0.075,-0.1 0.206,-0.057 0.034,0.141 0.06,0.292 0.176,0.353 -0.026,0.11 -0.124,0.15 -0.116,0.293 0.159,0.043 0.141,-0.093 0.235,-0.118 0.126,0.206 0.324,0.344 0.528,0.471 0.077,0.558 -0.168,1.074 0,1.529 -0.111,0.118 -0.237,0.136 -0.41,0.06 0.013,-0.114 -0.042,-0.157 -0.118,-0.178 0.175,0.569 0.709,0.782 0.706,1.53 -0.235,0.041 -0.171,0.378 -0.178,0.647 0.096,-0.036 0.023,0.094 0.119,0.058 -0.134,0.513 0.021,1.02 0.352,1.235 -0.109,0.894 0.767,0.802 1.058,1.296 0,0 0.784,0.721 1.335,1.212 0.552,0.489 0.314,0.669 0.314,0.669 0,0.132 -0.018,0.261 -0.054,0.373 -0.043,0.137 -0.123,0.161 -0.213,0.313 0,0.155 0.03,0.275 0.03,0.432 -0.041,0.066 -0.058,0.157 -0.118,0.206 -0.097,1.224 0.446,1.807 1.529,1.852 1.291,-0.027 1.839,-0.975 1.706,-2.353 -0.023,-0.244 -0.143,-0.577 -0.098,-0.85 0.39,-0.071 0.828,-0.23 0.969,-0.26 0.092,0.139 0.216,0.497 0.24,0.576 -0.099,0.107 -0.294,0.293 -0.316,0.412 -0.011,0.071 0.018,0.167 0.112,0.228 0.067,0 0.499,-0.091 0.567,-0.091 0.473,0.951 0.877,2.132 1.251,3.18 C 0.541,4.074 0.777,3.955 0.874,3.771 0.558,2.696 0.063,1.606 -0.302,0.578 -0.197,0.502 0.048,0.374 0.048,0.314 0.117,0.435 0.388,0.72 0.581,0.92 0.737,1.055 1.051,1.122 1.374,1.154 2.599,1.28 4.436,0.63 5.639,0.037 6.229,-0.077 6.96,-0.234 7.638,-0.079 7.723,-0.049 7.787,0.005 7.873,0.037 7.787,-0.573 7.05,-0.532 6.491,-0.669 6.004,-0.715 5.689,-0.588 5.226,-0.61 4.899,-0.349 4.507,-0.152 4.051,-0.022 3.269,0.42 2.389,0.886 1.161,0.689 0.859,0.61 0.63,0.591 0.349,0.23 0.22,0.137 -0.031,0 0,0 m -1.537,-6.433 c -0.284,-0.089 -0.221,-0.526 -0.471,-0.646 l 0,-0.53 c -0.273,-0.191 -0.118,-0.578 -0.118,-0.942 0.129,-0.057 0.191,-0.181 0.294,-0.264 0.032,-0.438 0.427,-0.797 0.295,-1.206 0.068,-0.176 0.134,-0.355 0.117,-0.618 0.1,-0.037 0.045,-0.227 0.059,-0.352 0.245,-0.399 0.075,-1.281 0.764,-1.147 0.112,0.203 0.211,0.418 0.178,0.764 0.239,0.241 0.694,0.267 0.587,0.853 -0.049,0.029 -0.075,0.081 -0.058,0.176 0.084,0.005 0.013,0.162 0.117,0.149 l 0,0.352 C 0.171,-9.705 0.11,-9.67 0.05,-9.58 c -0.075,0.117 -0.264,0.488 -0.294,0.589 -0.013,0.043 0.018,0.105 0,0.146 -0.101,0.237 -0.363,0.445 -0.293,0.736 0.08,0.341 -0.042,0.841 0,1.382 -0.069,0.088 -0.17,0.144 -0.178,0.294 -0.095,0.037 -0.021,-0.095 -0.116,-0.058 0.052,0.14 -0.083,0.095 -0.118,0.147 0.112,0.176 -0.108,0.489 -0.412,0.441 -0.01,-0.226 -0.198,-0.274 -0.176,-0.53 m 2.032,-7.031 c 0.024,0.124 -0.017,-1.418 0.357,-1.294 0.355,0.145 0.388,0.843 0.345,1.199 -0.081,0.065 -0.42,0.256 -0.702,0.095 m 0.079,-1.581 c -0.013,-0.445 0.187,-1.031 0.288,-1.017 0.249,0.039 0.354,0.589 0.374,0.748 0.022,0.159 0.002,0.273 0.02,0.566 C 1.221,-14.887 0.7,-15.17 0.574,-15.045 m -5.579,-8.099 c -0.04,-0.322 -0.056,-0.454 -0.059,-0.967 -0.044,-0.177 -0.154,-0.838 -0.062,-1.035 -0.249,-0.404 0.116,-0.706 0.183,-0.936 0.065,-0.23 0.058,-0.487 0.071,-0.638 0.192,-0.135 0.503,-0.118 0.725,-0.103 0.313,0.019 1.198,-0.228 1.543,-0.303 0.647,-0.14 1.661,-0.34 1.537,0.667 0.026,0.257 -0.08,0.647 0.118,0.736 -0.113,-0.024 -0.037,0.137 -0.06,0.204 0.091,0.146 0.133,0.338 0.119,0.589 -0.472,1.018 -0.83,2.151 -1.47,2.999 0.021,0.208 -0.106,0.27 -0.059,0.5 0.094,-0.036 0.022,0.096 0.118,0.06 -0.035,0.42 0.116,0.676 0.059,1.088 -0.069,0.477 -0.331,1.006 -0.53,1.352 -0.269,0.47 -0.559,1.047 -0.824,1.471 -0.126,0.199 -0.19,0.442 -0.294,0.616 -0.053,0.091 -0.134,0.116 -0.176,0.206 -0.06,0.132 -0.079,0.308 -0.119,0.442 -0.295,0.042 -0.352,-0.274 -0.411,-0.47 -0.11,-0.371 -0.429,-0.882 -0.235,-1.295 -0.063,-0.346 -0.217,-0.794 -0.236,-0.794 -0.185,-0.314 -0.277,-0.216 -0.235,-0.882 0.069,-0.098 0.131,-0.202 0.118,-0.382 0.221,-0.142 0.237,-0.488 0.235,-0.853 0.117,-0.363 0.029,-0.932 0.118,-1.323 0.058,-0.129 -0.116,-0.475 -0.174,-0.949"
             style="fill:#000000;fill-opacity:1;fill-rule:nonzero;stroke:none"
             id="path3712" />
        </g>
        <g
           id="g3714"
           transform="translate(569.9504,34.2505)">
          <path
             d="M 0,0 C 0,0 0.798,0.197 1.146,-0.755 1.074,-0.733 0.297,-0.32 -0.122,-1.24 -0.058,-1.255 0,0 0,0"
             style="fill:#000000;fill-opacity:1;fill-rule:nonzero;stroke:none"
             id="path3716" />
        </g>
        <g
           id="g3718"
           transform="translate(569.6476,32.5737)">
          <path
             d="M 0,0 C 0,0 0.762,0.229 1.229,-0.577 1.154,-0.564 0.335,-0.26 0.036,-1.091 0.102,-1.1 0,0 0,0"
             style="fill:#000000;fill-opacity:1;fill-rule:nonzero;stroke:none"
             id="path3720" />
        </g>
        <g
           id="g3722"
           transform="translate(569.4162,31.0064)">
          <path
             d="M 0,0 C 0,0 0.758,0.209 1.23,-0.56 1.157,-0.545 0.335,-0.249 0.045,-1.034 0.111,-1.04 0,0 0,0"
             style="fill:#000000;fill-opacity:1;fill-rule:nonzero;stroke:none"
             id="path3724" />
        </g>
        <g
           id="g3726"
           transform="translate(576.3342,56.2066)">
          <path
             d="m 0,0 c 0,0 -0.211,-0.111 -0.824,-0.767 -0.526,-0.562 -1.315,-0.659 -1.502,-0.668 -0.187,-0.008 0.191,0.617 0.191,0.617 0,0 0.283,-0.28 0.54,-0.076 0.219,0.172 0.507,0.427 0.837,0.781 C -0.209,0.474 0,0 0,0"
             style="fill:#000000;fill-opacity:1;fill-rule:nonzero;stroke:none"
             id="path3728" />
        </g>
        <g
           id="g3730"
           transform="translate(590.424,41.8101)">
          <path
             d="M 0,0 C -0.002,-0.041 -0.003,-0.083 -0.003,-0.124 -0.003,-0.083 -0.002,-0.041 0,0"
             style="fill:#000000;fill-opacity:1;fill-rule:nonzero;stroke:none"
             id="path3732" />
        </g>
        <g
           id="g3734"
           transform="translate(569.8517,56.6392)">
          <path
             d="M 0,0 C -0.048,0.038 -0.061,0.058 -0.098,0.079 -0.043,0.131 0.216,0.07 0.306,0.066 0.327,0.038 0.312,0.054 0.345,0.018 0.305,0.018 0.174,-0.013 0.131,-0.013 0.112,-0.017 0.037,-0.011 0,0"
             style="fill:#ffffff;fill-opacity:1;fill-rule:nonzero;stroke:none"
             id="path3736" />
        </g>
        <g
           id="g3738"
           transform="translate(571.216,56.8989)">
          <path
             d="M 0,0 C 0.018,0.054 0.074,0.152 0.088,0.193 -0.135,0.138 -0.144,0.045 -0.473,-0.093 -0.483,-0.138 -0.5,-0.17 -0.5,-0.17 -0.271,-0.107 -0.076,-0.131 0,0"
             style="fill:#ffffff;fill-opacity:1;fill-rule:nonzero;stroke:none"
             id="path3740" />
        </g>
        <g
           id="g3742"
           transform="translate(576.5569,17.6392)">
          <path
             d="M 0,0 C 0.185,0.034 0.271,0.047 0.465,0.076 0.91,0.141 0.993,0.955 1.518,0.964 1.689,0.973 1.789,1.069 2.012,1.011 2.319,0.991 2.868,1.071 3.225,1.117 3.863,1.059 4.4,1.214 5.041,1.209 5.213,1.206 5.599,1.177 5.768,1.177 6.522,1.172 7.268,1.191 7.996,1.346 8.253,1.282 8.566,1.317 8.766,1.194 l 0.059,0 c 1.23,-0.258 2.224,0.438 2.738,-0.722 0.097,-0.208 0.348,-1.502 0.25,-1.712 0,-0.063 -0.166,-0.731 -0.179,-1.026 0.733,0.664 0.805,2.376 1.538,3.04 0.15,0.84 0.444,0.847 0.673,1.608 -0.095,0.151 -0.077,0.066 -0.035,0.36 0,0.023 0.044,0.294 0.044,0.316 -0.15,0.128 0.019,0.482 -0.177,0.67 -0.135,0.067 -0.534,0.131 -0.572,0.299 -0.167,0.222 -0.233,0.646 -0.262,0.865 0.112,0.827 0.037,1.116 0.069,1.389 0.028,0.237 0.315,0.228 0.381,0.303 0.1,0 -0.14,0.208 -0.125,0.502 0.162,0.11 0.273,0.467 0.6,0.635 0.271,0.137 0.803,0.288 0.803,0.3 -0.098,0.293 -0.513,0.579 -0.761,0.895 -0.098,0.02 -0.253,0.064 -0.449,0.13 -0.045,0.073 -0.064,0.142 -0.045,0.202 0,0.02 -0.558,0.41 -0.627,0.588 -0.125,0.293 0.011,0.834 -0.006,1.096 0.006,0.108 0.016,0.883 0.002,0.94 0.533,1.254 0.395,2.242 0.609,3.257 0,0 -0.001,-0.003 -0.001,-0.005 0.027,0.116 0.055,0.232 0.077,0.347 -10e-4,-10e-4 -10e-4,-0.003 -10e-4,-0.003 0.059,0.251 0.126,0.503 0.198,0.756 -0.061,0.088 -0.101,0.168 -0.126,0.243 l 0,0.007 c -0.003,0.044 -0.005,0.09 -0.006,0.131 0,0.01 -0.002,0.019 -0.002,0.027 -0.002,0.048 -0.003,0.095 -0.005,0.138 0.079,0.306 0.407,0.522 0.494,0.76 0.21,0.582 0.146,1.318 0.215,1.995 0.015,0.061 0.028,0.123 0.041,0.187 0.002,0.016 0.005,0.032 0.008,0.049 0.011,0.064 0.022,0.129 0.031,0.195 0.002,0.02 0.002,0.038 0.002,0.058 0.017,0.064 0.035,0.128 0.055,0.191 l 0,0.496 c 0.05,0.424 -0.12,0.619 -0.175,0.933 0.632,0.801 -0.158,1.695 -0.232,2.555 0.006,0.12 0.017,0.238 0.031,0.35 0.061,0.175 0.18,0.332 0.201,0.515 0.083,0.73 -0.78,1.227 -0.725,1.822 -0.48,1.124 -0.419,0.98 -0.885,2.056 -0.12,0.275 -0.447,0.909 -0.609,1.148 -0.341,0.509 -0.697,1.42 -1.213,1.763 -0.389,0.522 -0.619,0.737 -1.063,1.201 -1.169,0.617 -1.57,1.736 -2.224,1.835 -0.595,0.283 -0.873,0.619 -1.447,0.928 -0.266,0 -0.505,0.2 -0.809,0.28 C 5.371,35.934 5.6,35.801 5.832,35.58 5.957,35.472 6.318,35.341 6.424,35.176 7.019,34.6 7.149,34.237 7.831,33.792 7.969,33.468 8.318,33.17 8.54,32.936 8.554,32.922 8.565,32.903 8.579,32.89 8.594,32.872 8.611,32.857 8.632,32.845 8.727,32.751 8.916,32.451 9.021,32.367 l 0,-0.062 0,-0.062 C 9.143,31.972 9.571,31.549 9.73,31.39 L 9.732,31.388 C 9.756,31.355 9.778,31.323 9.8,31.289 9.843,31.223 9.881,31.149 9.92,31.061 9.935,31.026 9.952,30.99 9.967,30.949 9.952,30.99 9.935,31.026 9.92,31.061 c 0.031,-0.083 0.062,-0.165 0.097,-0.247 0,-0.004 0.001,-0.008 0.002,-0.013 0.027,-0.077 0.059,-0.156 0.094,-0.234 0.001,-0.005 0.002,-0.007 0.004,-0.009 0.034,-0.08 0.075,-0.159 0.118,-0.238 l 0.001,-0.003 c 0,0 0,0.003 -0.001,0.003 0.408,-0.843 0.88,-2.092 0.872,-2.022 0.009,-0.07 0.05,-0.472 0.05,-0.472 0.015,-0.183 0.364,-1.186 0.372,-1.371 0.004,-0.107 0.008,-0.213 0.013,-0.318 -0.024,-0.16 0.271,-2.119 0.285,-2.292 0.1,-1.126 -0.147,0 -0.372,0.156 0,-1.099 0.053,-2.608 -0.244,-3.548 -0.228,-0.055 -0.097,0.272 -0.354,0.186 -0.226,-0.907 -0.057,-1.972 -0.112,-2.78 0.028,0.198 0.055,0.398 0.077,0.6 -0.022,-0.202 -0.049,-0.403 -0.077,-0.603 l 0,0.003 c -0.028,-0.193 -0.062,-0.385 -0.097,-0.576 l 0,-0.004 C 10.401,16.336 9.956,15.133 9.62,14.422 9.541,14.73 9.38,15.017 9.254,15.255 9.137,15.478 9.186,15.801 9.088,16.038 8.88,16.549 8.816,17.05 8.742,17.263 8.577,17.135 8.54,16.638 8.481,16.676 8.371,16.746 8.321,17.507 8.231,17.795 7.841,18.337 8.01,18.869 7.893,18.802 7.773,18.744 7.814,17.554 7.38,16.909 7.406,16.237 7.072,15.948 6.909,15.478 l 0,-0.062 C 6.961,14.798 6.477,14.63 6.319,14.297 6.23,14.114 6.259,13.904 6.225,13.749 6.166,13.65 6.108,13.55 6.05,13.453 5.856,13.237 5.885,13.104 5.795,12.849 5.795,12.827 5.739,12.645 5.739,12.625 5.685,12.243 5.543,12.256 5.393,12.131 5.116,11.899 5.025,12.193 4.802,12.643 4.628,12.729 4.414,12.888 4.415,13.053 3.945,13.262 4.271,13.487 3.999,13.904 3.901,14.327 3.777,14.418 3.747,14.226 3.747,14.103 3.642,14.001 3.64,13.934 3.591,13.599 3.496,13.663 3.425,13.803 3.378,13.638 3.405,13.502 3.333,13.289 3.212,13.009 3.111,12.845 3.111,12.823 2.95,12.471 3.158,12.782 2.985,12.439 2.974,12.436 3.058,12.119 2.831,12.094 2.635,11.534 2.699,11.523 2.508,11.371 c 0,0 -0.398,-0.641 -0.772,-0.692 -0.997,-0.2 -1.62,0.174 -1.962,0.141 0.027,0.245 0.014,0.532 -0.147,0.587 -0.39,0.139 -0.792,0.43 -0.832,0.559 -0.041,0.125 -0.645,-1.169 -1.547,-1.186 -1.17,-0.024 -1.838,-0.279 -3.119,0.028 L -7.099,10.9 c -0.093,0.828 -1.016,2.443 -1.063,2.326 -0.059,-0.19 -0.031,-0.697 -0.031,-0.697 -0.018,0.002 -1.004,-1.096 -1.019,-1.136 -0.538,-0.662 -1.049,0.182 -1.616,-0.447 -0.019,0 -0.443,-0.121 -0.464,-0.121 -0.166,-0.148 -0.483,-0.095 -0.777,-0.134 l -0.296,0 c -0.797,0.079 -1.118,-0.136 -1.709,-0.136 -0.888,-0.053 -1.324,-0.043 -2.121,0.259 -0.241,0.275 -0.44,0.561 -0.792,1.087 0.017,-0.027 -0.265,0.448 -0.284,0.481 0.004,-0.008 0.011,-0.015 0.014,-0.021 -0.052,0.087 -0.102,0.176 -0.151,0.267 0.006,-0.014 0.012,-0.028 0.019,-0.041 -0.026,0.045 -0.048,0.091 -0.073,0.139 0.017,-0.034 0.036,-0.066 0.054,-0.098 -0.008,0.017 -0.016,0.036 -0.027,0.054 -0.144,0.261 -0.129,0.592 -0.186,0.58 -0.007,0.006 -0.011,0.01 -0.018,0.01 -0.163,0.409 -0.083,0.649 -0.259,1.07 -0.003,0.037 -0.059,0.421 -0.063,0.462 -0.009,-0.006 -0.056,0.177 -0.064,0.172 -0.002,0.004 -0.004,-0.001 -0.007,-0.011 -0.005,0.013 -0.008,0.02 -0.01,0.019 -0.011,0.029 -0.046,-0.211 -0.092,-0.364 -0.219,-0.538 -0.196,-0.728 -0.501,-1.109 -0.336,0.414 -0.651,0.848 -1.027,1.351 -0.273,0.52 -0.355,0.939 -0.544,0.918 -0.334,0.042 -0.206,1.049 -0.416,1.503 -0.104,0.141 -0.376,-1.086 -0.084,-2.213 -0.32,0.818 -0.634,1.481 -0.846,2.364 -0.029,0.157 -0.055,0.313 -0.085,0.47 -0.066,0.262 -0.127,1.787 -0.163,2.082 -0.174,2.321 0.441,4.563 1.021,6.239 0.019,0.166 -0.491,-0.122 -1.103,-2.039 0.245,2.039 0.856,3.313 1.131,4.133 0.12,0.293 0.55,1.507 0.55,1.507 0.453,0.86 0.811,1.454 1.338,2.175 -0.527,-0.721 -0.478,-1.243 -0.932,-2.63 0.41,0.96 1.192,2.784 1.864,3.467 0.671,0.884 0.649,0.7 1.264,1.232 0.378,0.665 0.876,1.237 1.438,1.745 0.015,0.01 0.029,0.022 0.044,0.033 0.011,0.006 0.022,0.015 0.033,0.023 0.143,0.104 0.288,0.207 0.43,0.312 0.072,0.056 0.143,0.116 0.211,0.177 0.014,0.013 0.029,0.025 0.041,0.037 0.067,0.061 0.131,0.124 0.194,0.188 0,0 0.003,10e-4 0.003,0.002 l 0,-0.001 c 0.039,0.04 0.079,0.078 0.12,0.119 -0.041,-0.041 -0.081,-0.079 -0.12,-0.118 0.544,0.396 1.117,0.754 1.672,1.089 0.014,0.009 0.025,0.015 0.036,0.024 0.059,0.029 0.118,0.062 0.173,0.094 0.009,0.005 0.017,0.009 0.024,0.014 0.062,0.036 0.122,0.075 0.18,0.118 0.038,0.025 0.07,0.055 0.1,0.086 0.008,0.006 0.017,0.014 0.023,0.021 0.028,0.027 0.054,0.058 0.08,0.087 l 10e-4,0 c 0.02,0.023 0.041,0.048 0.06,0.07 -0.019,-0.022 -0.04,-0.045 -0.06,-0.07 0.086,0.065 0.176,0.125 0.267,0.177 0.728,0.416 1.493,0.668 2.561,1.02 -1.717,-0.137 -3.227,-1.101 -4.654,-1.512 -0.266,-0.076 -0.614,-0.126 -0.829,-0.228 -0.214,-0.099 -0.327,-0.279 -0.506,-0.419 -0.51,-0.391 -0.784,-0.345 -1.19,-0.798 -0.686,-0.532 -1.164,-0.722 -1.48,-1.18 -0.309,-0.378 -0.58,-0.663 -0.937,-0.991 -0.416,-0.327 -0.523,-1.042 -1.155,-1.14 -0.322,-0.523 -0.563,-0.917 -0.879,-1.446 -0.026,-0.022 -0.172,-0.262 -0.174,-0.269 -0.344,-0.33 -0.593,-1.253 -0.593,-1.253 -0.545,-0.919 -0.957,-3.01 -1.304,-4.204 -0.069,0.777 0.167,1.851 0.054,2.523 0,0.021 -0.201,0.822 0.799,2.866 0.193,0.394 0.004,0.564 0.512,1.133 -0.39,-0.175 -0.632,-0.612 -1.169,-1.41 -0.511,-1.01 -1.036,-1.524 -1.079,-2.266 -0.002,-0.034 -0.005,-0.068 -0.008,-0.1 l 0,-0.003 0,0.003 c 0,-0.003 -10e-4,-0.003 -0.003,-0.004 -0.027,-0.119 -0.058,-0.237 -0.083,-0.357 -0.003,-0.011 -0.005,-0.022 -0.007,-0.033 -0.028,-0.118 -0.053,-0.238 -0.077,-0.361 l 0,-0.004 c 0,0 0,-0.002 -0.002,-0.004 0.002,0.002 0.002,0.002 0.002,0.004 -0.174,-0.589 -0.404,-1.235 -0.353,-2.002 l 0,-0.062 c 0.175,-0.31 -0.189,-0.587 -0.294,-0.808 0,-0.166 0.022,-0.356 -0.059,-0.435 0.012,-0.088 0.01,-0.168 0.007,-0.245 -0.036,-0.143 -0.062,-0.291 -0.075,-0.444 -0.04,-0.173 -0.076,-0.344 -0.049,-0.556 0.041,-0.337 0.341,-0.611 0.352,-0.932 0.026,-0.671 -0.451,-1.257 -0.412,-2.113 l 0,-0.062 c 0.092,-0.383 0.1,-0.849 0.118,-1.307 l 0,-0.061 c -0.05,-0.787 0.511,-1.526 0.591,-2.177 0.032,-0.272 -0.093,-0.595 -0.06,-0.87 0.038,-0.315 0.294,-0.558 0.354,-0.87 0.109,-0.59 -0.157,-1.302 0.294,-1.742 0.134,-0.047 0.023,-0.349 0.06,-0.496 0.119,-0.681 0.384,-1.912 0.174,-2.799 -0.068,-0.293 -0.294,-0.319 -0.494,-0.603 -0.066,-0.076 -0.119,-0.135 -0.167,-0.189 -0.209,-0.13 -0.465,-0.258 -0.546,-0.355 -0.149,-0.172 -0.601,-0.635 -0.593,-0.742 0.112,-0.098 0.835,-0.198 0.989,-0.396 0.064,-0.172 0.19,-0.158 0.275,-0.298 0.102,-0.168 -0.138,-0.498 -0.185,-0.641 0.163,-0.176 0.426,-0.213 0.401,-0.953 l 0,-0.225 c 0.023,-0.5 -0.075,-0.44 -0.064,-1.028 -0.016,-0.049 -0.033,-0.1 -0.051,-0.148 -0.114,-0.268 -0.283,-0.464 -0.546,-0.577 0,0 -0.25,-0.453 0.12,-1.34 0.15,-0.281 0.277,-1.068 0.434,-1.503 0.03,-0.082 0.067,-0.433 0.112,-0.506 0.101,-0.165 0.26,-0.509 0.373,-0.682 -0.029,0.062 -0.056,0.121 -0.083,0.183 0.027,-0.062 0.055,-0.123 0.083,-0.184 l 0,0.001 c 0.019,-0.042 0.037,-0.083 0.056,-0.126 0.002,-0.002 0.003,-0.004 0.005,-0.007 -0.002,0.001 -0.003,0.005 -0.005,0.007 0.023,-0.084 0.022,-0.186 -0.017,-0.313 l 0,-0.065 c 0.418,-0.392 0.398,-1.33 0.99,-1.538 -0.002,0.004 -0.002,0.006 -0.002,0.011 0.02,-0.011 0.039,-0.021 0.063,-0.029 -0.041,0.188 -0.109,0.387 -0.179,0.587 -0.073,0.422 -0.083,0.796 0.123,1.118 0.038,0.229 -0.077,0.629 0.06,0.756 0.146,0.18 0.071,0.488 0.306,0.803 0.552,0.742 2.455,0.387 3.689,0.562 0.355,0.051 0.714,0.455 1.062,0.253 0.079,0 0.757,-0.213 0.738,-0.034 0.427,0.105 0.881,-0.004 1.463,-0.037 0.495,-0.028 1.102,-0.509 1.673,-0.559 l -0.006,0 0.006,0 c 0.091,-0.013 0.184,-0.026 0.278,-0.036 0.145,-0.02 0.295,-0.036 0.444,-0.05 0.052,-0.005 0.279,0.032 0.33,0.028 0.104,-0.008 0.495,-0.086 0.601,-0.093 0.129,-0.007 0.365,-0.012 0.494,-0.019 l 0.004,0 c 0.502,-0.04 0.44,-0.698 0.951,-0.824 0.222,-0.057 0.49,-0.127 0.707,-0.156 0.368,-0.053 0.426,0.048 0.782,0.003 0.245,-0.111 0.596,-0.03 0.879,-0.091 0.323,-0.154 0.699,-0.164 0.997,-0.248 0.579,-0.216 1.012,-0.319 1.012,-0.319 0.664,-0.129 0.808,-0.655 1.065,-0.992 0.183,0.24 0.342,0.578 0.467,0.655 0.103,0.129 0.376,0.26 0.451,0.284 0.09,0.015 0.359,0.101 0.473,0.09 0.21,0.088 0.289,0.172 0.577,0.18 0.604,0.183 0.652,0.269 0.978,0.338 0.157,0.032 0.628,0.079 0.863,0.088 C -0.599,-0.067 -0.185,-0.035 0,0"
             style="fill:#000000;fill-opacity:1;fill-rule:nonzero;stroke:none"
             id="path3744" />
        </g>
        <g
           id="g3746"
           transform="translate(576.7657,20.0747)">
          <path
             d="M 0,0 C 0.419,-0.039 0.862,0.277 0.862,0.277 0.844,0.283 -1.373,0.672 -3.241,3.087 -2.462,1.062 0,0 0,0"
             style="fill:#881211;fill-opacity:1;fill-rule:nonzero;stroke:none"
             id="path3748" />
        </g>
        <g
           id="g3750"
           transform="translate(588.7346,20.7359)">
          <path
             d="m 0,0 -0.222,0.318 -0.175,0.05 c -0.117,0 -0.445,0.092 -0.581,0.151 l 0.007,2.984 c 0.29,0.157 0.666,0.077 0.666,0.077 l 0.362,0.26 c 0,0 -0.39,0.34 -0.963,0.34 -0.02,0 -0.041,-0.003 -0.063,-0.009 l 0,0.556 c 0.16,0.085 0.741,0.056 1.034,-0.026 l 0.21,0.316 c 0,0 -0.828,0.486 -1.672,0.445 C -1.575,5.452 -1.784,5.403 -1.784,5.403 L -3.065,2.529 -4.188,5.423 c 0,0 -0.208,0.058 -0.628,0.037 -1.051,-0.054 -1.535,-0.516 -1.535,-0.516 0.002,0 0.35,-0.131 0.35,-0.131 0.322,0 0.773,-0.017 0.95,-0.127 l 0.001,0 c 0.013,-0.01 0.027,-0.024 0.044,-0.041 l 0,-2.418 C -5.307,1.901 -5.864,1.625 -6.162,1.625 c -0.009,0 -0.019,0 -0.028,0.002 -0.069,0.003 -0.27,0.049 -0.715,0.378 l 0.188,2.137 0.016,-0.001 0,0.167 c 0.011,0.039 0.126,0.11 0.211,0.11 l 0.387,-0.175 0.014,0.545 -7.888,-0.007 0.011,-0.366 0.162,0 c 0.047,0 0.088,-0.034 0.097,-0.081 l 0,-0.393 c -0.416,0.576 -0.986,0.878 -1.665,0.878 l -0.202,0.004 0.011,0.312 -2.622,0 0.009,-0.312 -0.198,-0.004 c -0.137,0 -0.269,-0.012 -0.397,-0.038 l -10.944,0 -0.883,0 c 0.151,0.059 0.359,0.091 0.606,0.091 0.094,0 0.181,0.129 0.183,0.128 l 0.652,-0.19 c -0.036,0.011 -0.616,0.709 -2.158,0.684 -0.322,-0.005 -0.635,-0.106 -0.635,-0.106 l 0.168,-2.748 -1.555,2.587 -0.103,0.181 c -0.087,0.024 -0.378,0.047 -0.496,0.047 -0.546,0 -1.032,-0.187 -1.228,-0.261 -0.197,-0.074 -0.433,-0.25 -0.433,-0.25 0.004,0 0.659,-0.254 0.659,-0.254 0.25,0.082 0.737,0.079 0.888,-0.132 l 10e-4,-0.392 C -34.586,4.139 -35.011,3.79 -35.011,3.79 l 0.419,-0.162 c 0,0 0.301,0.064 0.543,-0.014 l 0.006,-2.945 c -10e-4,-0.095 -0.522,-0.243 -0.792,-0.261 l -10e-4,-0.415 2.372,0.003 -0.382,0.512 c -0.055,0 -0.1,0.045 -0.1,0.1 l 0,0.046 0.073,1.895 c 0,0 1.406,-2.218 1.443,-2.265 l 0.033,-0.04 0.049,-0.016 c 0.1,-0.03 0.221,-0.045 0.364,-0.045 0.539,0 0.925,0.288 1.157,0.369 0.247,0.086 0.414,0.273 0.414,0.273 -0.002,-0.001 -0.23,-0.043 -0.565,-0.011 -0.228,0.022 -0.53,0.076 -0.77,0.244 l 0,1.462 0.183,-0.002 c 0,0 0.066,-10e-4 0.172,-10e-4 l 0,-1.058 0.077,-0.049 c 0.036,-0.025 0.907,-0.586 1.459,-0.752 l 0.053,0.015 0.054,0.02 c 0.513,0.196 1.28,0.773 1.398,0.953 0.066,0.1 0.077,0.153 0.074,0.247 l -0.329,0.275 c -0.258,-0.237 -0.729,-0.507 -1.039,-0.507 l -0.027,10e-4 c -0.066,0.003 -0.263,0.049 -0.7,0.371 l 0.045,0.516 c 0.201,0.015 0.348,0.038 0.444,0.066 0.387,0.117 1.166,0.346 1.193,0.355 l 0.431,0.304 -2.004,-0.004 0.043,0.503 c 0.16,0 0.317,0 0.456,0.002 l 0.049,0 0.015,0.009 0.308,-0.007 c 0,0 0.095,-0.002 0.241,-0.002 0.235,0 0.557,0.004 0.863,0.031 L -27.29,1.308 c 0,-0.055 -0.027,-0.12 -0.104,-0.12 l -0.171,0 0.002,-0.388 1.59,0 -0.088,0.354 -0.085,0.178 c -0.048,0 -0.088,0.035 -0.097,0.082 l 0,2.623 c 0.322,0.134 0.589,0.292 0.722,0.377 0.047,-10e-4 0.085,-0.033 0.095,-0.08 l 0,-1.146 -0.692,-0.846 0.544,0.005 c 0,0 0.147,0.17 0.148,0.17 l -0.001,-1.229 c 0,-0.055 -0.045,-0.1 -0.1,-0.1 l -0.173,0 0.002,-0.395 1.521,0 -0.107,0.356 -0.066,0.183 c -0.039,0 -0.076,0.024 -0.091,0.06 l 0.07,1.169 c 0.123,0.015 0.219,0.033 0.289,0.054 0.08,0.025 0.163,0.056 0.249,0.092 l 0.078,-1.27 C -23.82,1.23 -24.118,1.018 -24.118,1.018 l 0.053,-0.223 2.777,0 c 0,0 -0.235,0.137 -0.519,0.301 0.294,-0.153 0.658,-0.323 0.936,-0.406 l 0.055,-0.017 0.053,0.02 c 0.514,0.196 1.219,0.709 1.398,0.953 0.092,0.124 0.113,0.221 0.113,0.221 l -0.329,0.356 c 0,0 -0.142,-0.138 -0.301,-0.252 -0.159,-0.117 -0.514,-0.31 -0.775,-0.31 l -0.029,10e-4 c -0.066,0.003 -0.263,0.049 -0.7,0.371 l 0.045,0.516 c 0.201,0.015 0.348,0.038 0.444,0.066 0.388,0.117 0.718,0.346 0.732,0.355 l 0.221,0.068 c 0.371,-0.409 0.928,-0.821 1.598,-0.709 -2.002,-2.38 -4.058,-2.707 -4.077,-2.713 0,0 0.441,-0.301 0.776,-0.293 0.285,0.007 1.477,0.082 3.239,1.759 0.202,0.192 0.462,0.461 0.682,0.704 l 0.066,-1.175 0.84,-2.061 0.838,2.065 0.088,1.216 c 0.221,-0.243 0.394,-0.475 0.596,-0.666 1.761,-1.678 3.096,-1.613 3.329,-1.62 0.41,-0.013 0.12,0.09 0.12,0.09 -0.307,0.019 -1.82,0.809 -3.482,2.763 0.685,0.067 1.254,0.361 1.624,0.836 l 0,-0.084 -1.003,-0.804 1.003,10e-4 0.001,-0.894 0.076,-0.048 c 0.037,-0.023 0.907,-0.55 1.459,-0.715 l 0.054,-0.017 0.054,0.02 c 0.453,0.173 0.966,0.846 1.125,1.067 l 0,-0.328 c 0,-0.054 -0.044,-0.1 -0.099,-0.1 l -0.163,0 -0.002,-0.537 1.525,0 -0.139,0.352 -0.043,0.185 c -0.041,0 -0.077,0.024 -0.092,0.06 l 0.07,1.175 c 0.102,0.014 0.183,0.03 0.245,0.048 0.095,0.027 0.192,0.066 0.291,0.11 L -9.267,1.437 C -9.294,1.211 -9.538,1.149 -9.538,1.149 l 0.037,-0.35 2.733,-0.004 -0.021,0.011 c 0.143,-0.067 0.286,-0.125 0.411,-0.164 l 0.053,-0.014 0.01,0.003 c 0.059,-0.058 0.139,-0.1 0.217,-0.148 0.12,-0.029 0.392,-0.107 0.698,-0.142 0.26,-0.033 0.538,-0.066 0.835,-0.102 0.141,-0.015 0.191,0.09 0.29,0.121 l 0.071,0.021 0.032,0.066 c 0.105,0.215 0.153,0.583 0.157,0.635 l 0.075,1.254 0.612,-1.46 0.37,-0.889 0.816,1.807 0.04,-1.276 0,-0.021 c 0,-0.056 -0.044,-0.101 -0.1,-0.101 l -0.162,0 0,-0.384 2.364,0 m -30.393,3.138 -0.355,-0.427 0,1.981 c 0.024,0.018 0.054,0.033 0.083,0.049 l 0.015,-0.338 0.16,0 c 0.047,0 0.088,-0.034 0.097,-0.081 l 0,-1.184 z m 6.065,0.121 0.064,1.05 c 0.004,0.052 0.047,0.094 0.1,0.094 l 0.134,0 c 0.055,0 0.1,-0.045 0.1,-0.11 l 0.063,-1.033 -0.461,-10e-4 z m 1.922,-1.829 c -0.181,0.103 -0.322,0.183 -0.357,0.198 l -0.005,0.882 0.19,-0.004 c 0,0 0.066,-10e-4 0.172,-10e-4 l 0,-1.075 z m 0,1.708 -0.362,-0.436 0.001,1.6 c 0,0.056 0.045,0.101 0.1,0.101 l 0.002,0 0.16,0 0.002,0 c 0.047,0 0.087,-0.034 0.097,-0.081 l 0,-1.184 z m 2.185,0.513 -0.094,0.028 0.094,-0.191 c 0.043,-0.078 0.091,-0.154 0.145,-0.226 l -1.202,-0.004 0.045,0.512 0.069,0 c 0.27,0 0.54,0 0.734,0.002 l 0.086,0.002 0.05,0.068 c 0.212,0.301 0.516,0.469 0.689,0.546 -0.237,-0.186 -0.445,-0.431 -0.616,-0.737 m 1.205,-0.068 c 0.23,0.289 0.64,0.476 1.156,0.528 L -17.802,3.1 c -0.737,0.042 -1.051,0.28 -1.214,0.495 m 3.068,-0.495 0.058,1.023 c 0.516,-0.052 0.926,-0.239 1.158,-0.528 C -14.897,3.38 -15.21,3.142 -15.948,3.1 m 5.012,-0.583 -0.002,-0.293 c 0,0 -0.114,-0.103 -0.202,-0.18 -0.088,-0.078 -0.508,-0.383 -0.817,-0.383 l -0.029,10e-4 c -0.067,0.003 -0.262,0.049 -0.7,0.371 l 0.044,0.516 c 0.202,0.015 0.349,0.038 0.446,0.066 0.386,0.117 1.167,0.346 1.181,0.355 l 0.174,0.304 -1.736,-0.004 0.043,0.503 c 0.159,0 0.317,0 0.457,0.002 l 0.048,0 1.119,0.709 c -0.017,-0.05 -0.028,-0.098 -0.028,-0.154 l 0.002,-1.092 -0.724,-0.886 0.534,0 0.19,0.165 z m 1.098,0.754 0.03,0.496 0.026,0 c 0.123,0 0.252,0 0.374,10e-4 l 0.03,-0.496 -0.46,-10e-4 z m 1.559,-1.724 10e-4,2.767 c 0,0.056 0.046,0.101 0.1,0.101 l 0.15,0 C -7.983,4.411 -7.945,4.377 -7.936,4.332 L -7.928,1.373 -8.279,1.547 Z M -5.33,1.153 c 0.133,0.128 0.236,0.239 0.324,0.348 l 0,-0.448 c -0.169,-0.11 -0.412,-0.151 -0.588,-0.164 0.085,0.072 0.178,0.167 0.264,0.264"
             style="fill:#881211;fill-opacity:1;fill-rule:nonzero;stroke:none"
             id="path3752" />
        </g>
        <g
           id="g3754"
           transform="translate(566.801,21.5249)">
          <path
             d="m 0,0 0.06,0.303 c -0.313,0.122 -0.543,0.223 -0.667,0.279 l 0,0.975 0.19,-0.004 c 0,0 0.067,-0.002 0.172,-0.002 l 0,-1.027 0.075,-0.049 c 0.038,-0.024 0.909,-0.584 1.46,-0.75 l 0.055,-0.017 0.051,0.021 c 0.516,0.194 1.107,1.033 1.172,1.128 L 2.297,1.119 C 2.175,1.013 1.814,0.696 1.504,0.696 L 1.474,0.697 C 1.409,0.7 1.212,0.745 0.774,1.067 L 0.82,1.583 C 1.021,1.599 1.167,1.622 1.264,1.649 1.652,1.767 1.982,1.996 1.996,2.004 L 2.213,2.157 C 2.584,1.747 2.977,1.529 3.606,1.47 1.921,-0.58 0.023,-1.124 0.006,-1.13 l 0.422,-0.517 c -0.001,0 1.564,0.087 3.326,1.764 0.201,0.193 0.485,0.506 0.706,0.748 l 0.038,-1.216 0.615,-1.692 0.615,1.694 0.073,1.582 C 6.023,0.99 6.617,0.31 6.819,0.117 8.581,-1.56 9.851,-1.611 9.901,-1.605 c 0.077,0.015 0.125,0.125 0.125,0.125 -0.005,10e-4 0.238,0.35 0.238,0.35 C 9.63,-0.897 8.094,-0.183 6.83,1.434 7.515,1.499 8.084,1.794 8.454,2.27 L 8.357,2.15 7.868,1.556 8.282,1.553 c 0,0 0.067,-0.002 0.172,-0.002 l 0,-1.027 0.077,-0.049 c 0.036,-0.024 0.908,-0.584 1.458,-0.75 l 0.055,-0.017 0.054,0.021 c 0.453,0.172 0.966,0.844 1.126,1.065 l 0,-0.327 c 0,-0.055 -0.045,-0.1 -0.101,-0.1 l -0.175,-0.062 0.002,-0.301 1.524,0 -0.011,0.363 -0.161,0 c -0.04,0 -0.077,0.024 -0.093,0.062 l 0.07,1.174 c 0.103,0.012 0.183,0.028 0.246,0.046 0.094,0.03 0.192,0.065 0.291,0.111 L 12.968,0.586 C 12.896,0.475 12.749,0.328 12.746,0.326 L 12.63,0.31 12.633,0.006 14.547,0 14.545,0.288 c 0.311,-0.188 0.851,-0.461 1.237,-0.576 l 0.054,-0.018 0.054,0.02 c 0.08,0.031 0.159,0.075 0.241,0.129 l 0.096,-0.24 c 0.055,-0.016 0.741,-0.235 1.279,-0.235 0.142,0 0.264,0.015 0.364,0.045 l 0.069,0.022 0.032,0.065 c 0.106,0.216 0.153,0.584 0.158,0.635 l 0.084,1.229 0.832,-2.024 0.975,2.168 0.084,-1.803 -0.032,-0.025 c 0,-0.056 -0.045,-0.101 -0.1,-0.101 l -0.189,-0.037 0.015,-0.328 2.142,0 -0.011,0.365 -0.161,0 c -0.123,0 -0.481,0.073 -0.599,0.133 l 0.004,3.001 c 0.281,0.118 0.46,0.073 0.46,0.073 l 0.227,0.168 c 0,0 -0.278,0.215 -0.686,0.297 l 0.001,0.529 c 0.159,0.087 0.402,0.136 0.683,0.136 0.083,0 0.147,-0.007 0.147,-0.007 l 0.161,0.243 C 22.135,4.163 21.357,4.507 20.812,4.513 20.517,4.516 20.314,4.432 20.314,4.432 L 19.093,1.549 17.826,4.443 17.759,4.495 C 17.671,4.518 17.445,4.555 17.291,4.551 16.309,4.531 15.782,4.181 15.7,4.109 l 0.506,-0.193 c 0.002,0 0.569,0.086 0.911,-0.19 0.013,-0.01 0.026,-0.025 0.043,-0.041 l 0.004,-3.454 c -0.143,-0.112 -0.406,-0.283 -0.901,-0.292 0.402,0.319 0.763,0.815 0.815,0.888 L 16.831,1.048 C 16.706,0.94 16.314,0.66 15.999,0.66 l -0.029,0 c -0.068,0.004 -0.269,0.051 -0.716,0.38 l 0.19,2.138 0.016,0.165 c 0.003,0.057 0.082,0.109 0.211,0.108 l 0.168,-10e-4 0.002,0.398 -7.695,0 -0.001,-0.398 0.212,0 c 0.048,0 0.087,-0.034 0.097,-0.082 l 0,-0.39 C 8.039,3.551 7.466,3.893 6.786,3.893 l -0.545,0 c 0.024,0.133 0.188,0.169 0.188,0.169 l 0,0.123 -2.48,0 0,-0.206 C 4.112,3.987 4.179,3.895 4.179,3.895 L 3.782,3.893 C 3.371,3.893 2.95,3.852 2.637,3.599 l -0.033,0.247 -11.071,0 c 0.065,0.084 0.193,0.152 0.563,0.198 0.341,0.042 0.677,-0.023 0.68,-0.023 0,0 -0.083,0.082 -0.377,0.205 -0.326,0.133 -0.883,0.346 -1.486,0.36 -0.505,0.01 -0.708,-0.058 -0.708,-0.058 l 0.32,-3.072 -1.928,2.982 c 0,0 -0.166,0.08 -0.369,0.084 -0.988,0.02 -1.574,-0.29 -1.74,-0.427 l 0.491,-0.221 c 0.002,-0.022 0.075,0.031 0.159,0.031 0.337,0 0.616,-0.068 0.765,-0.19 0.01,-0.007 0.055,-0.05 0.209,-0.264 l 0,-0.171 c -0.025,0.002 -0.048,0.005 -0.071,0.005 -0.573,0 -1.002,-0.331 -1.002,-0.331 l 0.416,-0.185 c 0,0 0.393,0.049 0.658,-0.099 l 0.001,-2.937 c -0.105,-0.109 -0.304,-0.136 -0.521,-0.174 -0.111,-0.021 -0.247,-0.051 -0.247,-0.051 l -10e-4,-0.305 2.134,0 0,0.367 -0.165,0 c -0.054,0 -0.099,0.045 -0.099,0.101 l 0,0.019 0.073,1.893 c 0,0 1.307,-2.073 1.347,-2.125 l 0.032,-0.038 0.05,-0.016 c 0.1,-0.029 0.223,-0.046 0.364,-0.046 0.538,0 1.224,0.218 1.254,0.229 l 0.206,0.44 c 0,0 -0.195,-0.071 -0.354,-0.082 -0.22,-0.016 -0.478,-0.015 -0.774,0.147 l 0,1.465 0.183,-0.004 c 0,0 0.066,-0.002 0.172,-0.002 l 0,-1.027 0.077,-0.049 c 0.035,-0.024 0.906,-0.584 1.458,-0.75 l 0.054,-0.017 0.053,0.021 c 0.515,0.194 1.106,1.033 1.172,1.128 L -5.729,1.09 C -5.852,0.983 -6.125,0.709 -6.483,0.696 l -0.029,0.001 c -0.066,0.003 -0.264,0.048 -0.7,0.37 l 0.045,0.516 c 0.201,0.016 0.346,0.039 0.444,0.066 0.387,0.118 0.717,0.347 0.731,0.355 l 0.467,0.338 -1.577,-0.005 0.042,0.471 c 0,0 1.626,-0.024 1.932,0 L -5.129,0.421 c 0,-0.056 -0.045,-0.101 -0.1,-0.101 l -0.173,0 -0.002,-0.322 1.581,0 -10e-4,0.369 -0.161,0 c -0.049,0 -0.09,0.034 -0.098,0.082 l 0,2.623 c 0.323,0.133 0.588,0.292 0.723,0.377 0.047,-10e-4 0.086,-0.033 0.095,-0.081 L -3.258,2.25 -3.64,1.858 -3.897,1.557 -3.283,1.558 c 0,0 0.044,0.005 0.015,-0.007 l 0.002,0 0,-1.132 c 0,-0.055 -0.045,-0.101 -0.1,-0.101 l -0.172,0 0,-0.318 1.523,0 -0.01,0.367 -0.165,0 c -0.039,0 -0.075,0.024 -0.09,0.062 l 0.071,1.167 c 0.121,0.015 0.216,0.032 0.286,0.053 0.082,0.027 0.226,0.091 0.312,0.127 l 0.079,-1.25 C -1.605,0.414 -1.862,0.307 -1.864,0.307 L -1.862,0 0,0 Z m -8.574,1.853 0.004,1.601 0.241,0.003 c 0.047,0 0.087,-0.035 0.097,-0.082 L -8.205,2.144 -8.574,1.853 Z m 6.406,0.483 0.064,1.019 c 0.004,0.054 0.048,0.095 0.1,0.095 l 0.135,0 c 0.056,0 0.111,-0.045 0.111,-0.111 L -1.697,2.337 -2.168,2.336 Z m 1.923,-0.069 -0.362,-0.437 0,1.52 c 0,0.055 0.046,0.1 0.1,0.1 l 0.002,0 0.161,0 10e-4,0 c 0.048,0 0.089,-0.034 0.098,-0.082 l 0,-1.101 z M 1.914,2.755 1.869,2.675 c 0,0 0.096,-0.239 0.195,-0.342 l -1.178,0 0.043,0.483 0.068,0 c 0.27,0 0.54,0.001 0.734,0.003 L 1.816,2.82 1.867,2.891 C 2.079,3.19 2.383,3.357 2.556,3.436 2.318,3.248 2.086,3.061 1.914,2.755 M 3.143,2.63 C 3.375,2.92 3.842,3.101 4.356,3.153 L 4.359,2.136 C 3.62,2.176 3.308,2.415 3.143,2.63 M 6.198,1.978 6.271,3.158 C 6.786,3.106 7.197,2.92 7.429,2.63 7.264,2.415 6.937,2.019 6.198,1.978 M 11.224,2.272 11.088,2.191 10.564,1.562 c 0,0 0.52,-0.002 0.668,-0.002 L 11.224,0.895 10.957,1.09 C 10.835,0.983 10.513,0.696 10.203,0.696 L 10.175,0.697 C 10.108,0.7 9.911,0.745 9.475,1.067 L 9.52,1.583 c 0.201,0.016 0.346,0.039 0.444,0.066 0.388,0.118 0.621,0.285 0.731,0.355 0.112,0.073 0.441,0.333 0.441,0.333 L 9.583,2.333 9.627,2.808 c 0.158,0 0.316,0 0.456,0.002 l 0.048,0 1.121,0.709 C 11.233,3.471 11.224,3.419 11.224,3.364 l 0,-1.092 z m 1.099,0.064 0.031,0.466 0.026,0 c 0.122,0 0.27,0.006 0.393,0.006 L 12.784,2.337 12.323,2.336 Z m 1.902,-1.924 c 0,0 -0.231,0.119 -0.344,0.17 l 0.003,2.768 c 0,0.055 0.044,0.1 0.099,0.1 l 0.15,0 c 0.045,-0.004 0.084,-0.039 0.092,-0.084 l 0,-2.954 z"
             style="fill:#000000;fill-opacity:1;fill-rule:nonzero;stroke:none"
             id="path3756" />
        </g>
        <g
           id="g3758"
           transform="translate(580.343,25.0122)">
          <path
             d="m 0,0 0.001,0 c 0,0.148 0.119,0.268 0.267,0.268 l 0,0.032 -1.246,0 -1.086,0 0,-0.002 C -2.211,0.286 -2.325,0.165 -2.325,0.017 l 0.003,0 0,-1.229 -0.065,0 -0.347,-0.417 c 0,0 0.176,-0.002 0.412,0 l 0,-1.253 -0.003,0 c 0,-0.148 -0.12,-0.267 -0.267,-0.267 l -0.002,-0.034 1.18,0 0,0.034 c -0.128,0 -0.234,0.09 -0.261,0.21 l 0.08,1.343 c 0.145,0.014 0.272,0.033 0.358,0.057 0.188,0.057 0.365,0.143 0.489,0.214 l 0.097,-1.593 c -0.118,-0.215 -0.27,-0.264 -0.261,-0.26 L 0.773,-3.201 C 0.302,-3.017 0.02,-2.884 0,-2.873 L 0,0 Z m -1.569,-1.21 0.05,0.831 c 0.223,0 0.485,0 0.715,0.001 l 0.05,-0.83 -0.815,-0.002 z"
             style="fill:#ffffff;fill-opacity:1;fill-rule:nonzero;stroke:none"
             id="path3760" />
        </g>
        <g
           id="g3762"
           transform="translate(566.2141,23.3833)">
          <path
             d="m 0,0 c 0,0 0.138,-0.002 0.336,-0.001 l 0,-1.104 c 0,0 0.881,-0.57 1.416,-0.73 0.48,0.183 1.093,1.066 1.093,1.066 0,0 -0.514,-0.447 -0.965,-0.421 -0.228,0.014 -0.575,0.24 -0.866,0.461 L 1.08,0.02 C 1.307,0.033 1.513,0.056 1.629,0.09 1.996,0.2 2.314,0.421 2.314,0.421 L 1.113,0.419 1.189,1.264 c 0.336,0 0.707,0 0.956,0.004 0.35,0.494 0.913,0.66 0.913,0.66 l -2.738,0 -0.251,0 0.002,-0.032 c 0.137,0 0.248,-0.102 0.265,-0.235 l 0,-1.258 L 0,0 Z"
             style="fill:#ffffff;fill-opacity:1;fill-rule:nonzero;stroke:none"
             id="path3764" />
        </g>
        <g
           id="g3766"
           transform="translate(576.7932,22.1929)">
          <path
             d="m 0,0 c -0.228,0.015 -0.575,0.24 -0.865,0.461 l 0.066,0.75 c 0.227,0.013 0.433,0.035 0.55,0.069 0.366,0.111 0.684,0.331 0.684,0.331 l -1.2,-0.002 0.074,0.836 c 0.207,0 0.422,0.001 0.609,0.002 l 1.07,0.678 -2.797,-0.006 0,-0.032 c 0.138,0 0.248,-0.103 0.265,-0.233 l 0,-1.26 L -1.88,1.19 c 0,0 0.139,-10e-4 0.336,-10e-4 l 0,-1.103 c 0,0 0.883,-0.57 1.417,-0.73 0.48,0.182 1.092,1.066 1.092,1.066 C 0.965,0.422 0.45,-0.025 0,0"
             style="fill:#ffffff;fill-opacity:1;fill-rule:nonzero;stroke:none"
             id="path3768" />
        </g>
        <g
           id="g3770"
           transform="translate(559.2404,22.6538)">
          <path
             d="M 0,0 0.067,0.75 C 0.294,0.763 0.501,0.785 0.617,0.819 0.983,0.93 1.3,1.15 1.3,1.15 L 0.102,1.148 0.175,1.984 c 0.207,0 0.423,0.001 0.607,0.002 l 1.096,0.675 -2.82,-0.003 0,-0.032 c 0.136,0 0.248,-0.103 0.264,-0.233 l 0,-1.26 -0.336,-0.403 c 0,0 0.139,-0.002 0.336,-0.001 l 0,-1.104 c 0,0 0.881,-0.57 1.416,-0.73 0.481,0.182 1.093,1.066 1.093,1.066 0,0 -0.514,-0.447 -0.965,-0.422 C 0.639,-0.446 0.29,-0.221 0,0"
             style="fill:#ffffff;fill-opacity:1;fill-rule:nonzero;stroke:none"
             id="path3772" />
        </g>
        <g
           id="g3774"
           transform="translate(573.1223,23.2495)">
          <path
             d="M 0,0 C 0.917,-0.011 1.633,0.381 1.992,1.029 1.635,1.67 1.068,2.102 0.291,2.102 l -0.633,0.01 0,0.004 0.003,0 c 0,0.149 0.119,0.268 0.268,0.268 l 10e-4,0.033 -2.277,0 0,-0.033 c 0.149,0 0.269,-0.119 0.269,-0.268 l 0.005,-0.004 -0.634,-0.01 c -0.778,0 -1.344,-0.432 -1.702,-1.073 0.36,-0.648 1.076,-1.04 1.993,-1.029 -1.8,-2.339 -3.785,-2.885 -3.785,-2.885 0,0 1.642,-0.084 3.346,1.537 0.283,0.272 0.697,0.709 0.94,1 l 0.088,-1.583 0.506,-1.299 -0.048,5.346 c 0,0.111 0.066,0.204 0.161,0.245 0.094,-0.041 0.16,-0.134 0.16,-0.245 l -0.042,-5.349 0.501,1.302 0.087,1.583 c 0.244,-0.291 0.656,-0.728 0.942,-1 1.702,-1.621 3.344,-1.537 3.344,-1.537 0,0 -1.986,0.546 -3.784,2.885 m -3.554,1.045 c 0.232,0.367 0.731,0.672 1.517,0.706 l 0.079,-1.375 c -0.93,0.01 -1.366,0.299 -1.596,0.669 m 3.173,0.706 C 0.408,1.717 0.905,1.412 1.138,1.045 0.908,0.675 0.47,0.386 -0.459,0.376 l 0.078,1.375 z"
             style="fill:#ffffff;fill-opacity:1;fill-rule:nonzero;stroke:none"
             id="path3776" />
        </g>
        <g
           id="g3778"
           transform="translate(562.3772,22.1011)">
          <path
             d="m 0,0 0,2.749 c 0.533,0.186 0.858,0.465 0.858,0.465 l -1.784,0 -1.051,-0.673 c 0,0 0.712,-0.018 1.266,0.045 l 0,-2.557 -0.001,0 c 0,-0.148 -0.119,-0.267 -0.268,-0.267 l 0,-0.033 1.247,0 -0.002,0.033 C 0.127,-0.238 0.016,-0.134 0,0"
             style="fill:#ffffff;fill-opacity:1;fill-rule:nonzero;stroke:none"
             id="path3780" />
        </g>
        <g
           id="g3782"
           transform="translate(565.8537,25.0122)">
          <path
             d="m 0,0 0,0 c 0,0.148 0.12,0.268 0.269,0.268 l 0,0.032 -1.365,0 0,-0.032 c 0.15,0 0.269,-0.12 0.269,-0.268 l 0.073,-1.208 -0.816,-0.002 0.075,1.227 c 0.009,0.14 0.123,0.251 0.266,0.251 l 0,0.032 -1.36,0 10e-4,-0.032 c 0.137,0 0.248,-0.103 0.266,-0.234 l 0,-1.246 -0.37,-0.417 c 0,0 0.155,-0.002 0.37,0 l 0,-1.253 -0.002,0 c 0,-0.148 -0.121,-0.267 -0.269,-0.267 l 0,-0.034 1.179,0 0,0.034 c -0.129,0 -0.233,0.09 -0.261,0.21 l 0.081,1.34 c 0.161,0.013 0.305,0.033 0.399,0.06 0.17,0.052 0.327,0.127 0.449,0.191 l 0.095,-1.57 c -0.119,-0.215 -0.271,-0.264 -0.26,-0.26 L 0.773,-3.201 C 0.301,-3.017 0.019,-2.882 0,-2.873 L 0,0 Z"
             style="fill:#ffffff;fill-opacity:1;fill-rule:nonzero;stroke:none"
             id="path3784" />
        </g>
        <g
           id="g3786"
           transform="translate(588.6262,25.731)">
          <path
             d="M 0,0 C 0,0 -1.016,0.36 -1.512,0.226 L -2.923,-2.942 -4.309,0.226 C -4.805,0.36 -5.821,0 -5.821,0 c 0,0 0.678,0.062 1.03,-0.223 0.033,-0.028 0.068,-0.064 0.105,-0.103 l 0,-3.742 c -0.342,-0.296 -1.024,-0.254 -1.024,-0.254 0,0 1.025,-0.329 1.518,-0.181 0.096,0.195 0.141,0.571 0.141,0.571 l 0.12,2.005 0.978,-2.331 0.022,-0.079 1.056,2.473 0.101,-2.533 -10e-4,0 c 0,-0.148 -0.119,-0.267 -0.267,-0.267 l -0.001,-0.034 1.797,0 -0.001,0.034 c -0.138,0 -0.742,0.103 -0.759,0.236 l 0,3.045 c 0.3,0.219 0.844,0.172 0.844,0.172 0,0 -0.292,0.208 -0.844,0.219 l 0,0.786 C -0.648,0.059 0,0 0,0"
             style="fill:#ffffff;fill-opacity:1;fill-rule:nonzero;stroke:none"
             id="path3788" />
        </g>
        <g
           id="g3790"
           transform="translate(583.632,22.5728)">
          <path
             d="m 0,0 c 0,0 -0.585,-0.442 -1.044,-0.416 -0.23,0.014 -0.585,0.242 -0.88,0.468 l 0.212,2.384 10e-4,0 c 0,0.151 0.227,0.274 0.377,0.274 l 0.002,0.032 -1.55,0 0.001,-0.032 c 0.14,0 0.253,-0.106 0.269,-0.241 l 0.004,-2.849 c 0,0 0.965,-0.432 1.514,-0.655 C -0.605,-0.851 0,0 0,0"
             style="fill:#ffffff;fill-opacity:1;fill-rule:nonzero;stroke:none"
             id="path3792" />
        </g>
        <g
           id="g3794"
           transform="translate(557.8791,21.6626)">
          <path
             d="m 0,0 -0.015,0.021 0,3.796 10e-4,-0.001 c 0.31,0.321 1.096,0.252 1.096,0.252 0,0 -0.884,0.319 -1.466,0.295 C -0.612,4.367 -0.835,4.31 -0.875,4.299 L -0.677,1.048 -2.77,4.294 c -0.496,0.135 -1.51,-0.226 -1.51,-0.226 0,0 0.678,0.063 1.029,-0.222 0.052,-0.043 0.152,-0.175 0.269,-0.34 l 0,-0.43 C -3.534,3.065 -3.827,2.857 -3.827,2.857 c 0,0 0.545,0.048 0.844,-0.174 l 10e-4,0 0,-3.023 c -0.015,-0.133 -0.622,-0.256 -0.759,-0.256 l -10e-4,-0.034 1.798,0 -0.001,0.034 c -0.149,0 -0.268,0.119 -0.268,0.267 l -10e-4,0 0.097,2.462 c 0,0 1.573,-2.507 1.623,-2.568 0.491,-0.148 1.516,0.181 1.516,0.181 0,0 -0.681,-0.042 -1.022,0.254"
             style="fill:#ffffff;fill-opacity:1;fill-rule:nonzero;stroke:none"
             id="path3796" />
        </g>
      </g>
    </g>
    <path
       d="m 485.3566,765.23756 -1.705,0 0,-1.685 1.705,0 0,1.685 z"
       style="fill:#000000;fill-opacity:1;fill-rule:nonzero;stroke:none"
       id="path3798" />
    <g
       id="g3800"
       transform="matrix(1.25,0,0,-1.25,-230.33715,788.40256)">
      <g
         id="g3802"
         clip-path="url(#clipPath3804)">
        <g
           id="g3808"
           transform="translate(567.0422,18.2466)">
          <path
             d="m 0,0 c -0.028,0.013 -0.033,0.022 -0.033,0.06 0,0.096 0.006,0.202 0.008,0.23 0.001,0.026 0.007,0.046 0.02,0.046 0.017,0 0.019,-0.017 0.019,-0.029 0,-0.024 0.007,-0.062 0.014,-0.09 0.04,-0.131 0.144,-0.179 0.252,-0.179 0.157,0 0.237,0.108 0.237,0.201 0,0.085 -0.028,0.166 -0.173,0.281 L 0.263,0.584 C 0.069,0.734 0.002,0.856 0.002,1 c 0,0.193 0.162,0.332 0.406,0.332 0.115,0 0.189,-0.018 0.234,-0.03 C 0.658,1.3 0.667,1.293 0.667,1.28 0.667,1.259 0.659,1.207 0.659,1.069 0.659,1.031 0.655,1.017 0.64,1.017 0.628,1.017 0.623,1.028 0.623,1.048 0.623,1.065 0.614,1.119 0.577,1.164 0.551,1.198 0.5,1.251 0.387,1.251 0.255,1.251 0.176,1.175 0.176,1.069 0.176,0.99 0.217,0.928 0.362,0.816 L 0.412,0.779 C 0.625,0.62 0.7,0.498 0.7,0.333 0.7,0.229 0.661,0.109 0.536,0.026 0.446,-0.03 0.35,-0.046 0.255,-0.046 0.154,-0.046 0.075,-0.032 0,0"
             style="fill:#f7973b;fill-opacity:1;fill-rule:nonzero;stroke:none"
             id="path3810" />
        </g>
        <g
           id="g3812"
           transform="translate(568.5695,19.4556)">
          <path
             d="m 0,0 -0.263,-0.006 c -0.1,-0.005 -0.143,-0.014 -0.169,-0.052 -0.017,-0.026 -0.026,-0.047 -0.03,-0.062 -0.003,-0.014 -0.009,-0.022 -0.019,-0.022 -0.013,0 -0.016,0.01 -0.016,0.03 0,0.028 0.033,0.187 0.037,0.203 0.004,0.021 0.011,0.032 0.022,0.032 0.012,0 0.031,-0.018 0.075,-0.021 0.051,-0.005 0.117,-0.009 0.175,-0.009 l 0.696,0 c 0.056,0 0.095,0.005 0.121,0.009 0.026,0.005 0.04,0.007 0.048,0.007 C 0.689,0.109 0.69,0.1 0.69,0.073 0.69,0.037 0.686,-0.084 0.686,-0.131 0.683,-0.148 0.68,-0.159 0.669,-0.159 0.655,-0.159 0.652,-0.15 0.65,-0.122 L 0.648,-0.103 C 0.645,-0.058 0.597,-0.009 0.44,-0.006 L 0.22,0 l 0,-0.721 c 0,-0.162 0,-0.3 0.008,-0.375 0.006,-0.049 0.017,-0.089 0.068,-0.096 0.025,-0.002 0.064,-0.006 0.091,-0.006 0.019,0 0.027,-0.006 0.027,-0.014 0,-0.013 -0.013,-0.018 -0.032,-0.018 -0.115,0 -0.228,0.005 -0.276,0.005 -0.041,0 -0.151,-0.005 -0.222,-0.005 -0.024,0 -0.034,0.005 -0.034,0.018 0,0.008 0.006,0.014 0.027,0.014 0.026,0 0.048,0.004 0.063,0.006 0.037,0.007 0.046,0.047 0.051,0.096 C 0,-1.021 0,-0.883 0,-0.721 L 0,0 Z"
             style="fill:#f7973b;fill-opacity:1;fill-rule:nonzero;stroke:none"
             id="path3814" />
        </g>
        <g
           id="g3816"
           transform="translate(569.6838,19.0435)">
          <path
             d="m 0,0 c 0,0.268 0,0.316 -0.004,0.374 -0.004,0.059 -0.017,0.088 -0.076,0.1 -0.014,0.003 -0.044,0.004 -0.068,0.004 -0.02,0 -0.03,0.005 -0.03,0.016 0,0.013 0.013,0.016 0.039,0.016 0.092,0 0.204,-0.005 0.255,-0.005 0.043,0 0.153,0.005 0.218,0.005 0.025,0 0.038,-0.003 0.038,-0.016 C 0.372,0.483 0.361,0.478 0.345,0.478 0.325,0.478 0.313,0.477 0.293,0.474 0.245,0.464 0.231,0.435 0.229,0.374 0.224,0.316 0.224,0.268 0.224,0 l 0,-0.245 c 0,-0.255 0.05,-0.362 0.137,-0.432 0.08,-0.064 0.16,-0.073 0.22,-0.073 0.077,0 0.172,0.025 0.242,0.096 0.097,0.096 0.102,0.255 0.102,0.434 l 0,0.22 c 0,0.268 0,0.316 -0.003,0.374 -0.004,0.059 -0.018,0.088 -0.075,0.1 -0.015,0.003 -0.045,0.004 -0.065,0.004 -0.018,0 -0.029,0.005 -0.029,0.016 0,0.013 0.013,0.016 0.036,0.016 0.09,0 0.201,-0.005 0.202,-0.005 0.022,0 0.133,0.005 0.201,0.005 0.025,0 0.037,-0.003 0.037,-0.016 C 1.229,0.483 1.219,0.478 1.197,0.478 1.178,0.478 1.167,0.477 1.146,0.474 1.099,0.464 1.086,0.435 1.081,0.374 1.078,0.316 1.078,0.268 1.078,0 l 0,-0.187 C 1.078,-0.383 1.06,-0.59 0.911,-0.716 0.787,-0.823 0.66,-0.843 0.545,-0.843 c -0.092,0 -0.261,0.005 -0.39,0.121 C 0.066,-0.641 0,-0.512 0,-0.256 L 0,0 Z"
             style="fill:#f7973b;fill-opacity:1;fill-rule:nonzero;stroke:none"
             id="path3818" />
        </g>
        <g
           id="g3820"
           transform="translate(571.4308,19.0435)">
          <path
             d="m 0,0 c 0,0.268 0,0.316 -0.004,0.374 -0.003,0.059 -0.017,0.088 -0.075,0.1 -0.016,0.003 -0.044,0.004 -0.069,0.004 -0.019,0 -0.03,0.005 -0.03,0.016 0,0.013 0.013,0.016 0.038,0.016 0.094,0 0.204,-0.005 0.254,-0.005 0.054,0 0.165,0.005 0.271,0.005 0.219,0 0.513,0 0.705,-0.2 0.087,-0.091 0.169,-0.237 0.169,-0.446 0,-0.222 -0.092,-0.39 -0.191,-0.489 -0.081,-0.084 -0.263,-0.209 -0.588,-0.209 -0.064,0 -0.136,0.006 -0.203,0.011 -0.066,0.005 -0.128,0.011 -0.172,0.011 -0.019,0 -0.057,0 -0.1,-0.003 -0.041,0 -0.086,-0.003 -0.121,-0.003 -0.024,0 -0.036,0.006 -0.036,0.018 0,0.008 0.008,0.014 0.029,0.014 0.026,0 0.048,0.004 0.063,0.006 0.036,0.008 0.043,0.047 0.05,0.096 C 0,-0.608 0,-0.471 0,-0.309 L 0,0 Z m 0.22,-0.193 c 0,-0.185 0.002,-0.321 0.003,-0.355 0.002,-0.043 0.005,-0.114 0.019,-0.134 0.023,-0.032 0.091,-0.069 0.231,-0.069 0.178,0 0.299,0.035 0.404,0.126 0.111,0.097 0.147,0.258 0.147,0.438 0,0.223 -0.093,0.368 -0.169,0.438 C 0.694,0.406 0.493,0.428 0.356,0.428 0.321,0.428 0.256,0.423 0.242,0.415 0.227,0.408 0.222,0.399 0.222,0.38 0.22,0.32 0.22,0.167 0.22,0.028 l 0,-0.221 z"
             style="fill:#f7973b;fill-opacity:1;fill-rule:nonzero;stroke:none"
             id="path3822" />
        </g>
        <g
           id="g3824"
           transform="translate(573.2325,19.0435)">
          <path
             d="m 0,0 c 0,0.268 0,0.316 -0.003,0.374 -0.005,0.059 -0.021,0.09 -0.06,0.098 -0.02,0.005 -0.042,0.006 -0.064,0.006 -0.016,0 -0.027,0.005 -0.027,0.018 0,0.011 0.013,0.014 0.041,0.014 0.067,0 0.179,-0.005 0.228,-0.005 0.045,0 0.148,0.005 0.215,0.005 0.024,0 0.036,-0.003 0.036,-0.014 C 0.366,0.483 0.357,0.478 0.34,0.478 0.321,0.478 0.309,0.477 0.287,0.474 0.239,0.464 0.225,0.435 0.222,0.374 0.218,0.316 0.218,0.268 0.218,0 l 0,-0.309 c 0,-0.17 0,-0.308 0.007,-0.384 0.006,-0.048 0.018,-0.079 0.07,-0.087 0.025,-0.002 0.063,-0.006 0.091,-0.006 0.019,0 0.026,-0.006 0.026,-0.014 0,-0.012 -0.013,-0.018 -0.033,-0.018 -0.116,0 -0.226,0.006 -0.273,0.006 -0.04,0 -0.152,-0.006 -0.222,-0.006 -0.023,0 -0.035,0.006 -0.035,0.018 0,0.008 0.008,0.014 0.027,0.014 0.027,0 0.049,0.004 0.065,0.006 0.035,0.008 0.045,0.039 0.05,0.088 C 0,-0.617 0,-0.479 0,-0.309 L 0,0 Z"
             style="fill:#f7973b;fill-opacity:1;fill-rule:nonzero;stroke:none"
             id="path3826" />
        </g>
        <g
           id="g3828"
           transform="translate(573.9924,18.8892)">
          <path
             d="m 0,0 c 0,0.3 0.199,0.689 0.726,0.689 0.438,0 0.711,-0.254 0.711,-0.658 0,-0.401 -0.282,-0.72 -0.728,-0.72 C 0.204,-0.689 0,-0.31 0,0 m 1.19,-0.033 c 0,0.393 -0.227,0.638 -0.514,0.638 -0.202,0 -0.434,-0.113 -0.434,-0.549 0,-0.366 0.202,-0.656 0.539,-0.656 0.124,0 0.409,0.059 0.409,0.567"
             style="fill:#f7973b;fill-opacity:1;fill-rule:nonzero;stroke:none"
             id="path3830" />
        </g>
        <g
           id="g3832"
           transform="translate(575.8907,18.2466)">
          <path
             d="m 0,0 c -0.027,0.013 -0.033,0.022 -0.033,0.06 0,0.096 0.008,0.202 0.01,0.23 0.001,0.026 0.006,0.046 0.02,0.046 0.017,0 0.019,-0.017 0.019,-0.029 0,-0.024 0.006,-0.062 0.014,-0.09 0.039,-0.131 0.144,-0.179 0.252,-0.179 0.159,0 0.237,0.108 0.237,0.201 0,0.085 -0.028,0.166 -0.175,0.281 L 0.265,0.584 C 0.071,0.734 0.005,0.856 0.005,1 c 0,0.193 0.161,0.332 0.406,0.332 0.113,0 0.187,-0.018 0.233,-0.03 C 0.66,1.3 0.669,1.293 0.669,1.28 0.669,1.259 0.661,1.207 0.661,1.069 0.661,1.031 0.655,1.017 0.642,1.017 0.63,1.017 0.625,1.028 0.625,1.048 0.625,1.065 0.615,1.119 0.578,1.164 0.553,1.198 0.501,1.251 0.387,1.251 0.257,1.251 0.179,1.175 0.179,1.069 0.179,0.99 0.219,0.928 0.363,0.816 L 0.413,0.779 C 0.626,0.62 0.702,0.498 0.702,0.333 0.702,0.229 0.663,0.109 0.536,0.026 0.448,-0.03 0.351,-0.046 0.257,-0.046 0.155,-0.046 0.077,-0.032 0,0"
             style="fill:#f7973b;fill-opacity:1;fill-rule:nonzero;stroke:none"
             id="path3834" />
        </g>
      </g>
    </g>
  </g>
</svg>
