<?xml version="1.0" encoding="UTF-8" standalone="no"?>
<!-- Created with Inkscape (http://www.inkscape.org/) -->

<svg
   xmlns:dc="http://purl.org/dc/elements/1.1/"
   xmlns:cc="http://creativecommons.org/ns#"
   xmlns:rdf="http://www.w3.org/1999/02/22-rdf-syntax-ns#"
   xmlns:svg="http://www.w3.org/2000/svg"
   xmlns="http://www.w3.org/2000/svg"
   xmlns:sodipodi="http://sodipodi.sourceforge.net/DTD/sodipodi-0.dtd"
   xmlns:inkscape="http://www.inkscape.org/namespaces/inkscape"
   width="463.84"
   height="82"
   viewBox="0 0 122.72433 21.695832"
   version="1.1"
   id="svg14442"
   inkscape:version="0.92.0 r15299"
   sodipodi:docname="sega sammy.svg">
  <defs
     id="defs14436" />
  <sodipodi:namedview
     id="base"
     pagecolor="#ffffff"
     bordercolor="#666666"
     borderopacity="1.0"
     inkscape:pageopacity="0.0"
     inkscape:pageshadow="2"
     inkscape:zoom="1.9422311"
     inkscape:cx="230.92001"
     inkscape:cy="40.000001"
     inkscape:document-units="mm"
     inkscape:current-layer="layer1"
     showgrid="false"
     fit-margin-top="0"
     fit-margin-left="0"
     fit-margin-right="0"
     fit-margin-bottom="0"
     units="px"
     inkscape:window-width="1280"
     inkscape:window-height="744"
     inkscape:window-x="-4"
     inkscape:window-y="-4"
     inkscape:window-maximized="1" />
  <metadata
     id="metadata14439">
    <rdf:RDF>
      <cc:Work
         rdf:about="">
        <dc:format>image/svg+xml</dc:format>
        <dc:type
           rdf:resource="http://purl.org/dc/dcmitype/StillImage" />
        <dc:title></dc:title>
      </cc:Work>
    </rdf:RDF>
  </metadata>
  <g
     inkscape:label="Layer 1"
     inkscape:groupmode="layer"
     id="layer1"
     transform="translate(119.30592,66.386307)">
    <g
       id="g14466"
       transform="translate(0.26458188,-0.26458083)">
      <path
         d="m -107.74891,-47.97131 -1.524,3.280833 h 48.154166 l 1.397,-3.280833"
         style="fill:#0081cc;fill-opacity:1;fill-rule:nonzero;stroke:none;stroke-width:0.35277778"
         id="path14281"
         inkscape:connector-curvature="0" />
      <path
         d="m -61.118747,-44.690476 h 48.027166 l 1.524,-3.280833 h -48.154166"
         style="fill:#6fba2c;fill-opacity:1;fill-rule:nonzero;stroke:none;stroke-width:0.35277778"
         id="path14285"
         inkscape:connector-curvature="0" />
      <path
         d="m -1.4287513,-63.14781 c -2.6669999,9.165166 -2.6669999,9.165166 -2.6669999,9.165166 -2.921,-9.165166 -2.921,-9.165166 -2.921,-9.165166 -4.4449998,0 -4.4449998,0 -4.4449998,0 0.592667,1.524 0.592667,1.524 0.592667,1.524 -0.592667,-1.185333 -1.862667,-2.010833 -3.4925,-2.010833 -2.921,0 -3.979334,2.243666 -3.979334,2.243666 -0.465666,-1.185333 -1.735666,-2.243666 -3.598333,-2.243666 -2.921,0 -3.979333,2.243666 -3.979333,2.243666 -0.465667,-1.185333 -1.735667,-2.243666 -3.598333,-2.243666 -2.921,0 -4.085167,2.243666 -4.085167,2.243666 -0.465667,-1.185333 -1.629833,-2.243666 -3.6195,-2.243666 -2.328333,0 -3.4925,1.778 -3.725333,2.243666 0,-1.756833 0,-1.756833 0,-1.756833 -4.085167,0 -4.085167,0 -4.085167,0 0,11.8745 0,11.8745 0,11.8745 -0.232833,-0.127 -1.058333,-0.6985 -1.058333,-2.709334 0,-5.058833 0,-5.058833 0,-5.058833 0,-3.175 -2.328333,-4.466166 -5.588,-4.466166 -3.386666,0 -5.482166,1.291166 -5.820833,4.0005 4.064,0 4.064,0 4.064,0 0,0 0.127,-1.291167 1.651,-1.291167 0.931333,0 1.397,0.338667 1.397,1.164167 0,0.719666 -0.359834,0.9525 -1.164167,1.185333 -0.8255,0.232833 -2.582333,0.359833 -4.212166,0.8255 -0.931334,0.232833 -1.502834,0.592667 -1.862667,1.164167 -0.232833,-0.804334 -0.6985,-1.524 -1.629833,-2.2225 -1.397,-0.9525 -3.852334,-1.418167 -5.588,-1.778 -1.756834,-0.465667 -1.862667,-0.931334 -1.862667,-1.397 0,-0.359834 0.338667,-1.185334 1.9685,-1.185334 1.989667,0 2.0955,1.418167 2.0955,1.418167 4.445,0 4.445,0 4.445,0 -0.232833,-2.116667 -1.883833,-4.233333 -6.4135,-4.233333 -5.482166,0 -6.4135,2.942166 -6.4135,4.466166 0,1.418167 0.5715,2.4765 1.735667,3.175 1.164167,0.6985 4.085166,1.418167 5.609166,1.756834 1.629834,0.359833 1.735667,1.058333 1.735667,1.418166 0,0.465667 -0.465667,1.418167 -2.434167,1.418167 -2.582333,0 -2.688166,-1.778 -2.688166,-1.778 -3.958167,0 -3.958167,0 -3.958167,0 -3.153833,-8.106833 -3.153833,-8.106833 -3.153833,-8.106833 -5.588,0 -5.588,0 -5.588,0 -3.048,8.000999 -3.048,8.000999 -3.048,8.000999 0,-3.174999 0,-3.174999 0,-3.174999 -6.4135,0 -6.4135,0 -6.4135,0 0,2.582333 0,2.582333 0,2.582333 3.048,0 3.048,0 3.048,0 0,1.058333 -0.465666,2.4765 -2.815166,2.4765 -1.735667,0 -3.026834,-1.418167 -3.026834,-3.640667 0,-2.137833 1.397,-3.661833 3.153834,-3.661833 1.862666,0 2.328333,1.058333 2.328333,1.058333 3.6195,0 3.6195,0 3.6195,0 -0.359833,-1.883833 -2.328333,-4.0005 -5.947833,-4.0005 -2.794,0 -4.783667,1.185334 -5.947834,3.069167 0,-2.709333 0,-2.709333 0,-2.709333 -10.371667,0 -10.371667,0 -10.371667,0 0,6.477 0,6.477 0,6.477 -0.46567,-1.185334 -1.397,-1.778 -2.32833,-2.116667 -1.29117,-0.592667 -3.7465,-1.058333 -5.24934,-1.418167 -1.524,-0.232833 -1.75683,-0.8255 -1.75683,-1.185333 0,-0.465667 0.46567,-1.164167 2.0955,-1.164167 1.98967,0 2.32833,1.291167 2.32833,1.291167 4.21217,0 4.21217,0 4.21217,0 -0.127,-2.116667 -1.75683,-4.233333 -6.5405,-4.233333 -5.82083,0 -6.64633,3.175 -6.64633,4.466166 0,1.291167 0.59266,2.4765 2.0955,3.302 1.524,0.8255 4.318,1.291167 5.715,1.629834 1.397,0.359833 1.86266,0.719666 1.86266,1.418166 0,0.592667 -0.6985,1.418167 -2.794,1.418167 -2.56116,0 -2.794,-1.778 -2.794,-1.778 -4.318,0 -4.318,0 -4.318,0 0.127,2.243666 1.98967,4.720166 7.112,4.720166 3.97934,0 6.30767,-1.418166 7.00617,-3.175 0,2.815167 0,2.815167 0,2.815167 10.477501,0 10.477501,0 10.477501,0 0,-2.4765 0,-2.4765 0,-2.4765 1.058333,1.651 3.048,2.836333 5.842,2.836333 2.455333,0 4.085166,-1.058333 5.0165,-2.010833 -0.6985,1.651 -0.6985,1.651 -0.6985,1.651 4.190999,0 4.190999,0 4.190999,0 0.8255,-2.3495 0.8255,-2.3495 0.8255,-2.3495 5.228167,0 5.228167,0 5.228167,0 0.8255,2.3495 0.8255,2.3495 0.8255,2.3495 4.085167,0 4.085167,0 4.085167,0 -0.6985,-1.651 -0.6985,-1.651 -0.6985,-1.651 0.931333,1.058333 2.793999,2.010833 5.714999,2.010833 3.598334,0 5.355167,-1.291166 6.180667,-2.582333 0.465667,1.756833 2.201333,2.582333 3.831167,2.582333 1.989666,0 3.513666,-0.592666 4.317999,-1.651 0,0 0.232834,0.6985 0.6985,1.291167 8.636,0 8.636,0 8.636,0 0,0 0,-6.223 0,-7.408333 0,-1.185333 0.6985,-1.883833 1.629834,-1.883833 0.931333,0 1.862666,0.592666 1.862666,1.883833 0,7.408333 0,7.408333 0,7.408333 4.085167,0 4.085167,0 4.085167,0 0,0 0,-6.223 0,-7.408333 0,-1.185333 0.804333,-1.883833 1.756833,-1.883833 0.931333,0 1.735667,0.592666 1.735667,1.883833 0,7.408333 0,7.408333 0,7.408333 4.191,0 4.191,0 4.191,0 0,0 0,-6.223 0,-7.408333 0,-1.185333 0.719666,-1.883833 1.651,-1.883833 0.931333,0 1.862666,0.592666 1.862666,1.883833 0,7.408333 0,7.408333 0,7.408333 4.085167,0 4.085167,0 4.085167,0 0,0 0,-6.223 0,-7.408333 0,-1.185333 0.804333,-1.883833 1.735666,-1.883833 0.931334,0 1.756834,0.592666 1.756834,1.883833 0,7.408333 0,7.408333 0,7.408333 4.085166,0 4.085166,0 4.085166,0 0,-8.001 0,-8.001 0,-8.001 0,-0.592666 -0.127,-1.164166 -0.127,-1.524 4.0851668,10.710333 4.0851668,10.710333 4.0851668,10.710333 0.3386667,0.8255 0.2328333,1.883834 -1.2911666,1.883834 -1.5028333,0 -1.5028333,0 -1.5028333,0 -1.3969999,3.280833 -1.3969999,3.280833 -1.3969999,3.280833 0,0 1.8626665,0 3.2596665,0 1.5028333,0 3.8523332,0 5.2493332,-4.106333 4.8894999,-14.351 4.8894999,-14.351 4.8894999,-14.351 z m -93.5143317,9.292166 c -6.159497,0 -6.159497,0 -6.159497,0 0,-2.243666 0,-2.243666 0,-2.243666 4.423831,0 4.423831,0 4.423831,0 0,-2.582333 0,-2.582333 0,-2.582333 -4.423831,0 -4.423831,0 -4.423831,0 0,-2.010834 0,-2.010834 0,-2.010834 6.159497,0 6.159497,0 6.159497,0 -0.5715,0.9525 -0.804333,2.116667 -0.804333,3.302 0,1.291167 0.232833,2.4765 0.804333,3.534833 z m 16.340667,-2.116666 c 1.629833,-4.953 1.629833,-4.953 1.629833,-4.953 1.735667,4.953 1.735667,4.953 1.735667,4.953 z m 28.215166,0.465666 c 0,0.6985 -0.465667,2.116667 -2.2225,2.116667 -1.058333,0 -1.397,-0.592667 -1.397,-1.058333 0,-0.592667 0.105833,-1.058334 0.931333,-1.291167 0.6985,-0.232833 1.756833,-0.359833 2.688167,-0.8255"
         style="fill:#000000;fill-opacity:1;fill-rule:nonzero;stroke:none;stroke-width:0.35277778"
         id="path14289"
         inkscape:connector-curvature="0" />
    </g>
  </g>
</svg>
