<?xml version="1.0" encoding="UTF-8"?>
<svg id="svg817" width="1811.1mm" height="264.58mm" version="1.1" viewBox="0 0 5134.4 750.1" xmlns="http://www.w3.org/2000/svg" xmlns:cc="http://creativecommons.org/ns#" xmlns:dc="http://purl.org/dc/elements/1.1/" xmlns:rdf="http://www.w3.org/1999/02/22-rdf-syntax-ns#" xmlns:xlink="http://www.w3.org/1999/xlink">
 <metadata id="metadata823">
  <rdf:RDF>
   <cc:Work rdf:about="">
    <dc:format>image/svg+xml</dc:format>
    <dc:type rdf:resource="http://purl.org/dc/dcmitype/StillImage"/>
    <dc:title/>
   </cc:Work>
  </rdf:RDF>
 </metadata>
 <defs id="defs821">
  <radialGradient id="radialGradient1005" cx="34" cy="4" r="12" gradientTransform="matrix(-2 0 0 -2 55.272 31.355)" gradientUnits="userSpaceOnUse">
   <stop id="stop999" stop-color="#3b4de7" offset="0"/>
   <stop id="stop1001" stop-color="#161616" offset="1"/>
  </radialGradient>
  <radialGradient id="radialGradient1648" cx="30.5" cy="11.5" r="2.5" gradientTransform="matrix(.94281 -.94281 .70711 .70711 -6.3873 32.124)" gradientUnits="userSpaceOnUse">
   <stop id="stop1642" stop-color="#9f9fec" offset="0"/>
   <stop id="stop1644" stop-color="#9f9fec" stop-opacity="0" offset="1"/>
  </radialGradient>
 </defs>
 <g id="g1728" transform="matrix(31.254 0 0 31.254 -141.23 -125.01)">
  <g id="g1767">
   <path id="path1742" d="m87.325 6.0002h-18.561l-0.20989 6.2668h0.5997c0.11994-3.6282 2.2489-5.6971 5.7571-5.6971h0.89954v18.86h-2.5787v0.56971h9.5651v-0.56971h-2.5487v-18.86h1.0495c2.1289 0 3.2084 0.44977 4.1979 1.7391 0.83957 1.0795 1.2893 2.3688 1.3793 3.958h0.56971z" dominant-baseline="auto" style="font-feature-settings:normal;font-variant-alternates:normal;font-variant-caps:normal;font-variant-ligatures:normal;font-variant-numeric:normal;font-variant-position:normal;paint-order:normal;shape-padding:0;text-decoration-color:#000000;text-decoration-line:none;text-decoration-style:solid;text-indent:0;text-orientation:mixed;text-transform:none;white-space:normal"/>
   <path id="path1748" d="m18.162 6.0002h-0.56971c-0.05997 0.86956-0.23988 1.1394-0.71964 1.1394-0.3898 0-0.56971-0.05997-1.4393-0.47976-1.7691-0.83957-3.0285-1.1694-4.4377-1.1694-1.8591 0-3.5682 0.65966-4.8275 1.8591-1.1094 1.0795-1.6492 2.3688-1.6492 4.1079 0 1.3493 0.32983 2.5487 1.0195 3.5982 0.92953 1.4093 1.6192 1.7691 5.1274 2.6686l1.7391 0.41979c1.6192 0.41979 2.4588 0.71963 3.1184 1.1694 0.80959 0.53972 1.2594 1.4992 1.2594 2.6986 0 2.2189-1.7991 3.868-4.2578 3.868-2.0689 0-3.988-1.0795-5.5472-3.1184-0.92953-1.1994-1.4393-2.3988-1.889-4.3178h-0.56971l0.11994 7.5562h0.53973c0.05997-0.65966 0.50974-1.3493 0.86956-1.3493 0.20989 0 0.20989 0 1.3193 0.53973l0.47976 0.17991c2.2489 0.86956 3.2384 1.1094 4.6776 1.1094 4.0479 0 6.9565-2.8186 6.9565-6.7466 0-2.8785-1.1694-4.7076-3.6881-5.7871-0.80959-0.35982-0.80959-0.35982-3.5382-0.92953l-0.89954-0.17991c-1.6791-0.32983-2.7886-0.71963-3.2683-1.1394-0.62968-0.53973-1.0195-1.3493-1.0195-2.0989 0-2.009 1.7691-3.5082 4.1379-3.5082 1.889 0 3.3883 0.74962 4.5277 2.2189 0.89954 1.1994 1.5592 2.6387 1.8291 4.1079h0.5997z" dominant-baseline="auto" style="font-feature-settings:normal;font-variant-alternates:normal;font-variant-caps:normal;font-variant-ligatures:normal;font-variant-numeric:normal;font-variant-position:normal;paint-order:normal;shape-padding:0;text-decoration-color:#000000;text-decoration-line:none;text-decoration-style:solid;text-indent:0;text-orientation:mixed;text-transform:none;white-space:normal"/>
   <path id="path1739" d="m90.55 6.0002v0.56971h2.3388v18.86h-2.3388v0.56971h9.4752c4.018 0 6.2368-0.62968 8.0959-2.2788 2.069-1.7991 3.3283-4.7676 3.3283-7.796 0-3.5082-1.3793-6.1769-4.1679-8.0659-1.889-1.2893-4.018-1.8591-6.9864-1.8591zm6.7766 0.56971h2.9085c4.8575 0 6.4767 2.3688 6.4767 9.4452 0 3.4782-0.56972 5.967-1.6792 7.4362-0.9895 1.3493-2.7586 1.979-5.4572 1.979h-2.2489z" dominant-baseline="auto" style="font-feature-settings:normal;font-variant-alternates:normal;font-variant-caps:normal;font-variant-ligatures:normal;font-variant-numeric:normal;font-variant-position:normal;paint-order:normal;shape-padding:0;text-decoration-color:#000000;text-decoration-line:none;text-decoration-style:solid;text-indent:0;text-orientation:mixed;text-transform:none;white-space:normal"/>
   <path id="path1736" d="m117.8 25.43h-2.3388v0.56971h9.0854v-0.56971h-2.3388v-18.86h2.3388v-0.56971h-9.0854v0.56971h2.3388z" dominant-baseline="auto" style="font-feature-settings:normal;font-variant-alternates:normal;font-variant-caps:normal;font-variant-ligatures:normal;font-variant-numeric:normal;font-variant-position:normal;paint-order:normal;shape-padding:0;text-decoration-color:#000000;text-decoration-line:none;text-decoration-style:solid;text-indent:0;text-orientation:mixed;text-transform:none;white-space:normal"/>
   <path id="path1733" d="m143.16 6.0002h-0.56971c-0.06 0.86956-0.23988 1.1394-0.71963 1.1394-0.3898 0-0.56971-0.05997-1.4393-0.47976-1.7691-0.83957-3.0285-1.1694-4.4377-1.1694-1.8591 0-3.5682 0.65966-4.8276 1.8591-1.1094 1.0795-1.6492 2.3688-1.6492 4.1079 0 1.3493 0.32983 2.5487 1.0195 3.5982 0.92953 1.4093 1.6192 1.7691 5.1274 2.6686l1.7391 0.41979c1.6192 0.41979 2.4588 0.71963 3.1184 1.1694 0.80959 0.53972 1.2594 1.4992 1.2594 2.6986 0 2.2189-1.7991 3.868-4.2578 3.868-2.069 0-3.988-1.0795-5.5472-3.1184-0.92953-1.1994-1.4393-2.3988-1.889-4.3178h-0.56971l0.11994 7.5562h0.53972c0.06-0.65966 0.50975-1.3493 0.86956-1.3493 0.2099 0 0.2099 0 1.3193 0.53973l0.47976 0.17991c2.2488 0.86956 3.2384 1.1094 4.6776 1.1094 4.0479 0 6.9565-2.8186 6.9565-6.7466 0-2.8785-1.1694-4.7076-3.6881-5.7871-0.80959-0.35982-0.80959-0.35982-3.5382-0.92953l-0.89955-0.17991c-1.6791-0.32983-2.7886-0.71963-3.2683-1.1394-0.62968-0.53973-1.0195-1.3493-1.0195-2.0989 0-2.009 1.7691-3.5082 4.1379-3.5082 1.889 0 3.3883 0.74962 4.5277 2.2189 0.89954 1.1994 1.5592 2.6387 1.8291 4.1079h0.59969z" dominant-baseline="auto" style="font-feature-settings:normal;font-variant-alternates:normal;font-variant-caps:normal;font-variant-ligatures:normal;font-variant-numeric:normal;font-variant-position:normal;paint-order:normal;shape-padding:0;text-decoration-color:#000000;text-decoration-line:none;text-decoration-style:solid;text-indent:0;text-orientation:mixed;text-transform:none;white-space:normal"/>
   <path id="path1730" d="m158.49 12.627 3.7781-3.6881c1.6192-1.5892 3.3883-2.3688 5.3673-2.3688h0.35982v-0.56971h-7.4362v0.56971h0.98949c0.74962 0 1.0794 0.14992 1.0794 0.50974 0 0.3898-0.47975 1.0195-1.7991 2.3088l-5.907 5.877v-8.6956h2.3388v-0.56971h-9.0554v0.56971h2.3388v18.86h-2.3388v0.56971h9.0554v-0.56971h-2.3388v-9.3852l0.41979-0.3898 6.1169 9.775h-2.1289v0.56971h9.4752v-0.56971h-2.0689z" dominant-baseline="auto" style="font-feature-settings:normal;font-variant-alternates:normal;font-variant-caps:normal;font-variant-ligatures:normal;font-variant-numeric:normal;font-variant-position:normal;paint-order:normal;shape-padding:0;text-decoration-color:#000000;text-decoration-line:none;text-decoration-style:solid;text-indent:0;text-orientation:mixed;text-transform:none;white-space:normal"/>
   <path id="path1745" d="m61.033 20.153h0.56971v-8.9954h-0.56971v0.20989c0 1.7091-0.08995 2.0689-0.5997 2.7286-0.71963 0.86956-1.6791 1.2594-3.2384 1.2594h-1.919v-8.7855h4.2578c1.1994 0 2.1589 0.23988 3.0584 0.74962 1.4093 0.80959 2.3988 2.4887 2.3988 4.1379v0.14992h0.53972l-0.059969-5.6071h-17.001v0.56971h2.3388v18.86h-2.3388v0.56971h9.2953v-0.56971h-2.4887v-9.5052h1.8591c1.4093 0 2.0989 0.20989 2.7886 0.80959 0.80959 0.71963 1.1094 1.5592 1.1094 3.1484z" dominant-baseline="auto" style="font-feature-settings:normal;font-variant-alternates:normal;font-variant-caps:normal;font-variant-ligatures:normal;font-variant-numeric:normal;font-variant-position:normal;paint-order:normal;shape-padding:0;text-decoration-color:#000000;text-decoration-line:none;text-decoration-style:solid;text-indent:0;text-orientation:mixed;text-transform:none;white-space:normal"/>
   <circle id="path989" transform="matrix(-.70711 .70711 .70711 .70711 0 0)" cx="-12.728" cy="35.355" r="12" fill="url(#radialGradient1005)" style="paint-order:normal"/>
   <path id="Selection" d="m26.375 12.089 4.714-4.714 3.5355 3.5355-4.714 4.714-3.5355-3.5355z" fill="url(#radialGradient1648)"/>
  </g>
 </g>
</svg>
