<?xml version="1.0" encoding="UTF-8" standalone="no"?>
<!-- Created with Inkscape (http://www.inkscape.org/) -->

<svg
   width="541.86664mm"
   height="123.61275mm"
   viewBox="0 0 541.86664 123.61275"
   version="1.1"
   id="svg6420"
   xmlns="http://www.w3.org/2000/svg"
   xmlns:svg="http://www.w3.org/2000/svg">
  <defs
     id="defs6417" />
  <g
     id="layer1"
     transform="translate(-95.634496,-146.12204)">
    <path
       d="m 158.14916,178.90744 c -8.8889,0 -13.56781,-0.91866 -17.81946,-2.08546 -4.2725,-1.16679 -7.33621,-5.07481 -5.36669,-8.25322 2.35515,-3.80345 16.7878,-22.32121 23.18615,-22.44616 6.40874,-0.11816 20.82063,18.64271 23.18612,22.44616 1.96966,3.17841 -1.08379,7.08613 -5.36667,8.25322 -4.25164,1.1668 -8.94098,2.07365 -17.81945,2.08546"
       style="fill:#a81f23;fill-opacity:1;fill-rule:nonzero;stroke:none;stroke-width:10.4207"
       id="path573" />
    <path
       d="m 186.46229,208.62731 c -0.0208,-8.86793 0.90655,-13.54692 2.0633,-17.81945 1.18807,-4.25157 5.08534,-7.3257 8.26365,-5.34569 3.80357,2.35426 22.32122,16.76698 22.44626,23.16514 0.12406,6.42948 -18.64269,20.83097 -22.44626,23.18612 -3.17831,1.97912 -7.07567,-1.08408 -8.26365,-5.35632 -1.15675,-4.25156 -2.0633,-8.95123 -2.0633,-17.8298"
       style="fill:#015f91;fill-opacity:1;fill-rule:nonzero;stroke:none;stroke-width:10.4207"
       id="path575" />
    <path
       d="m 156.73193,236.94053 c 8.86805,0 13.55738,0.91571 17.81946,2.09432 4.2725,1.1668 7.32578,5.07482 5.35626,8.25322 -2.34451,3.79312 -16.77737,22.31058 -23.17572,22.44617 -6.42959,0.11816 -20.84145,-18.65305 -23.18612,-22.44617 -1.98,-3.1784 1.08379,-7.08613 5.35624,-8.25322 4.25168,-1.17861 8.94101,-2.07364 17.82988,-2.09432"
       style="fill:#da8a27;fill-opacity:1;fill-rule:nonzero;stroke:none;stroke-width:10.4207"
       id="path577" />
    <path
       d="m 128.4188,207.22066 c 0.0104,8.87827 -0.90655,13.55726 -2.09461,17.8298 -1.17743,4.25156 -5.06448,7.32569 -8.24283,5.34569 -3.79314,-2.35427 -22.321213,-16.76698 -22.446252,-23.17549 -0.124064,-6.41943 18.653112,-20.83126 22.446252,-23.18612 3.17835,-1.97912 7.06528,1.09295 8.24283,5.36666 1.18806,4.25157 2.08398,8.95124 2.09461,17.81946"
       style="fill:#0d7c42;fill-opacity:1;fill-rule:nonzero;stroke:none;stroke-width:10.4207"
       id="path579" />
    <path
       d="m 544.10181,216.41175 h -22.72767 v -9.37866 c 0,-11.20241 -5.13715,-16.77761 -15.40169,-16.77761 h -7.80511 v 68.37058 h -33.97173 v -80.58352 h 52.79168 c 18.07969,0 27.11452,9.68084 27.11452,28.99055 z"
       style="fill:#1c1312;fill-opacity:1;fill-rule:nonzero;stroke:none;stroke-width:10.4207"
       id="path581" />
    <path
       d="m 401.20232,173.77 c -33.461,0 -50.27996,17.55893 -50.27996,44.19432 0,26.64574 16.81896,44.18399 50.27996,44.18399 33.461,0 50.27996,-17.53825 50.27996,-44.18399 0,-26.63539 -16.81896,-44.19432 -50.27996,-44.19432 m -5.63753,75.5607 c -12.43212,0 -22.48811,-10.03502 -22.48811,-31.36638 0,-21.34169 10.05599,-31.3457 22.48811,-31.3457 13.28638,0 22.47747,10.00401 22.47747,31.3457 0,21.35204 -9.19109,31.36638 -22.47747,31.36638"
       style="fill:#1c1312;fill-opacity:1;fill-rule:nonzero;stroke:none;stroke-width:10.4207"
       id="path583" />
    <path
       d="m 308.4995,260.6684 c 18.04868,0 32.67939,-14.63072 32.67939,-32.68973 0,-18.03834 -14.63071,-32.46051 -32.67939,-32.46051 h -23.16515 c -8.47211,0 -15.34999,-6.62769 -15.34999,-15.08945 0,-8.49279 6.87788,-15.54761 15.34999,-15.54761 h 46.40355 v -13.02585 l -57.35576,-0.11816 c -16.30853,0 -29.52196,13.22377 -29.52196,29.5323 0,16.30853 13.21343,29.38667 29.52196,29.38667 h 12.90091 c 9.62856,0 17.44431,7.66953 17.44431,17.30872 0,9.6392 -7.81575,16.75664 -17.44431,16.75664 h -40.31791 v 15.77683 z"
       style="fill:#1c1312;fill-opacity:1;fill-rule:nonzero;stroke:none;stroke-width:10.4207"
       id="path585" />
    <path
       d="m 627.49893,187.11901 c -6.56506,-6.02331 -16.06867,-9.07647 -28.50049,-9.07647 h -42.56879 v 12.21294 h 31.27274 c 10.27458,0 15.40168,5.5752 15.40168,16.77761 l -0.14769,2.0825 h -25.48899 c -6.06496,0 -11.66085,1.60398 -16.79829,4.7623 -7.17977,4.4601 -10.77497,11.08779 -10.77497,19.91407 0,8.94089 3.5952,15.61023 10.77497,20.07033 5.13744,3.17841 10.73333,4.7623 16.79829,4.7623 h 60.03377 v -46.22632 c 0,-10.92089 -3.33466,-19.33067 -10.01434,-25.28073 m -24.38452,59.49202 h -15.44333 c -3.80375,0 -7.09647,-0.96888 -9.85808,-2.85643 -3.39729,-2.27155 -5.08545,-5.59588 -5.08545,-9.96206 0,-4.25156 1.68668,-7.5239 5.08545,-9.81643 2.7619,-1.87573 6.05433,-2.80326 9.85808,-2.80326 h 15.44333 z"
       style="fill:#1c1312;fill-opacity:1;fill-rule:nonzero;stroke:none;stroke-width:10.4207"
       id="path587" />
  </g>
</svg>
