<?xml version="1.0" encoding="UTF-8" standalone="no"?>
<svg
   xmlns:dc="http://purl.org/dc/elements/1.1/"
   xmlns:cc="http://creativecommons.org/ns#"
   xmlns:rdf="http://www.w3.org/1999/02/22-rdf-syntax-ns#"
   xmlns:svg="http://www.w3.org/2000/svg"
   xmlns="http://www.w3.org/2000/svg"
   height="200"
   width="435.724"
   xml:space="preserve"
   viewBox="0 0 435.72399 200"
   y="0px"
   x="0px"
   id="Layer_1"
   version="1.1"><defs
     id="defs15" /><g
     transform="matrix(1.4151477,0,0,1.4151477,-87.880675,-39.867542)"
     id="g22"><rect
       style="fill:#d11138"
       x="229.8"
       y="130.8"
       class="st0"
       width="140.2"
       height="2.7"
       id="rect6" /><path
       style="fill:#12100b"
       class="st1"
       d="m 249.1,53.1 h -13.8 c -3,0 -5.4,2.4 -5.4,5.4 v 23.3 c -0.1,2 1,3.8 2.7,4.8 l 13.1,7.5 c 0.4,0.3 0.6,0.8 0.6,1.3 l 0.1,16.8 c 0,0.7 -0.6,1.3 -1.4,1.3 0,0 0,0 0,0 h -5.6 c -0.7,0 -1.3,-0.5 -1.3,-1.2 0,0 0,-0.1 0,-0.1 V 98.3 h -8.3 v 18 c 0,3 2.4,5.4 5.4,5.4 H 249 c 3,0 5.4,-2.4 5.4,-5.4 V 92.9 c 0,-2 -1,-3.8 -2.7,-4.8 l -13.1,-7.5 c -0.4,-0.2 -0.7,-0.7 -0.7,-1.2 V 62.7 c 0,-0.7 0.5,-1.4 1.3,-1.4 0,0 0,0 0,0 h 5.6 c 0.8,0 1.4,0.6 1.4,1.4 v 13.7 h 8.2 V 58.5 c 0.1,-3 -2.3,-5.4 -5.3,-5.4 z m 38.4,0 h -8.2 v 59.1 c 0,0.7 -0.6,1.3 -1.4,1.3 0,0 0,0 -0.1,0 h -5.6 c -0.7,0 -1.3,-0.5 -1.3,-1.1 0,0 0,-0.1 0,-0.1 V 53.1 h -8.3 v 63.2 c 0,3 2.4,5.4 5.4,5.4 h 19.2 z M 337,121.7 V 58.5 c 0,-3 -2.5,-5.5 -5.5,-5.5 h -35.7 v 68.7 h 8.3 V 61.2 h 6.8 c 0.8,0 1.4,0.6 1.4,1.4 v 59.1 h 8.2 V 61.2 h 6.8 c 0.8,0 1.4,0.6 1.4,1.4 v 59.1 z m 27.6,-68.6 h -13.8 c -3,0 -5.4,2.4 -5.4,5.4 v 57.8 c 0,3 2.4,5.4 5.4,5.4 h 13.8 c 3,0 5.4,-2.4 5.4,-5.4 V 58.5 c 0,-3 -2.4,-5.4 -5.4,-5.4 z m -2.7,59.1 c 0,0.7 -0.6,1.3 -1.4,1.3 0,0 0,0 -0.1,0 h -5.6 c -0.7,0 -1.2,-0.5 -1.3,-1.2 0,0 0,-0.1 0,-0.1 V 62.7 c -0.1,-0.7 0.5,-1.4 1.2,-1.4 0,0 0,0 0.1,0 h 5.6 c 0.8,0 1.4,0.6 1.4,1.4 z m -119.2,31.5 c -1.4,-0.5 -3.6,-0.8 -6.7,-0.8 h -4.2 v 21 h 6.5 c 2.6,0 4.5,-0.4 6,-1.1 1.5,-0.8 2.7,-2.1 3.5,-3.6 0.9,-1.7 1.4,-3.6 1.3,-5.6 0.1,-2.2 -0.5,-4.4 -1.7,-6.3 -1.1,-1.7 -2.8,-3 -4.7,-3.6 z m 2.9,14.9 c -0.9,1.3 -2.1,2.3 -3.6,2.8 -1.9,0.4 -3.9,0.6 -5.9,0.5 h -2.4 V 145 h 1.4 c 2.9,0 5.1,0.2 6.3,0.6 1.6,0.5 3.1,1.5 4,2.9 1,1.5 1.5,3.4 1.4,5.2 0.1,1.8 -0.3,3.4 -1.2,4.9 z m 13.4,5.3 h 2.1 v -21 H 259 Z m 25.1,-8 h 6.6 c -0.2,1.8 -1.2,3.5 -2.6,4.7 -1.5,1.2 -3.4,1.9 -5.4,1.8 -1.7,0 -3.3,-0.4 -4.8,-1.2 -1.4,-0.8 -2.6,-1.9 -3.4,-3.3 -0.8,-1.4 -1.2,-2.9 -1.3,-4.5 0,-3.2 1.8,-6.1 4.6,-7.6 1.4,-0.8 3,-1.2 4.6,-1.2 1.4,0 2.7,0.3 4,0.9 1.4,0.6 2.7,1.5 3.8,2.6 l 1.6,-1.6 c -1.3,-1.3 -2.8,-2.3 -4.5,-3.1 -1.6,-0.6 -3.2,-1 -4.9,-1 -2,0 -4,0.4 -5.8,1.4 -1.7,1 -3.1,2.3 -4,4 -1,1.7 -1.5,3.6 -1.4,5.6 0,2.6 0.9,5.1 2.5,7.1 2.2,2.7 5.2,4 9,4 3.1,0 5.6,-1 7.5,-2.9 1.9,-1.9 2.9,-4.5 2.9,-7.8 h -8.9 z m 18.7,8.1 h 2 v -21 h -2 z m 11,-21.1 v 2.1 h 4.6 v 19 h 2.1 v -19 h 4.6 v -2.1 z m 25.9,0 -9.6,21 h 2.3 l 3.2,-6.9 h 8.9 l 3.1,6.9 h 2.2 l -9.6,-21 z m -3.2,12.1 3.5,-7.6 3.5,7.6 z m 24.7,6.9 V 143 h -2.1 v 21 h 10 v -2.1 z"
       id="path8" /><path
       style="fill:#d11138"
       class="st0"
       d="m 189.3,82.3 c 0.3,1 0.8,2 1.2,3 -0.1,-0.6 -0.3,-1.2 -0.5,-1.7 -0.1,-0.5 -0.3,-0.9 -0.7,-1.3 z M 187.6,77 c -0.6,0.4 0.6,2 0.9,2.3 -0.3,-0.7 -0.6,-1.5 -0.9,-2.3 z M 176.9,62.9 c -0.2,-0.2 -0.4,-0.3 -0.6,-0.4 -1.6,-1.5 0.1,0.9 0.6,0.4 z m 32.5,38.5 c -0.1,-1.4 -0.3,-2.7 -0.5,-4.1 -0.1,-4 -0.7,-8 -1.6,-12 -0.9,-3.8 -2,-7.4 -3.5,-11 -0.2,-1.2 -0.8,0.2 -0.9,-1 -0.6,-1.8 -1.4,-3.5 -2.3,-5.1 -1.1,-1.9 -2.1,-3.8 -3.1,-5.4 -1.2,-1.9 -2.6,-3.6 -3.9,-5.5 -1.4,-1.7 -2.7,-3.6 -4.3,-5.2 -3.1,-3.6 -6.8,-6.7 -10.8,-9.3 -0.4,-0.4 -0.8,-0.7 -1.3,-1 -0.5,-0.3 -1,-0.6 -1.5,-0.9 -0.9,-0.5 -1.8,-1 -2.6,-1.6 -0.6,0 -1.6,-0.9 -2.9,-1.3 -0.4,-0.4 -1.6,-0.7 -1.9,-1.4 8.4,3.5 16,8.9 21.9,15.8 0.4,-0.5 -0.9,-1.4 -1.3,-1.9 -0.5,-0.7 -1.1,-1.3 -1.7,-1.9 -1.7,-1.6 -3.5,-3.2 -5.3,-4.6 -0.9,-0.7 -1.8,-1.3 -2.7,-1.9 -0.9,-0.6 -1.8,-1.2 -2.7,-1.8 -6.5,-4 -14.3,-6.8 -21.8,-8.7 -0.4,-0.1 -0.9,-0.1 -1.3,-0.2 l -1.4,-0.2 -2.7,-0.5 c -1.8,-0.3 -3.5,-0.3 -4.4,-0.8 2.2,-0.3 4.5,-0.2 6.7,0.1 l 1.7,0.2 c 0.6,0.1 1.2,0.2 1.8,0.3 1.2,0.2 2.6,0.4 4,0.6 -1.5,-0.4 -3,-0.8 -4.6,-1.3 -0.8,-0.2 -1.6,-0.4 -2.4,-0.6 -0.8,-0.2 -1.7,-0.3 -2.5,-0.5 -2,-0.4 -4.2,-0.2 -6.2,-0.3 -2.3,-0.2 -4.5,-0.2 -6.8,-0.2 -2.3,-0.1 -4.5,0.1 -6.7,0.1 l -1.6,0.1 h -0.5 -0.4 -0.2 l -0.7,0.1 c -1,0.1 -1.9,0.3 -2.9,0.5 -0.5,0.1 -0.9,0.2 -1.4,0.3 -0.5,0.1 -1.1,0.3 -1.6,0.4 -1.1,0.3 -2.1,0.6 -3.1,1 -1.2,0.1 -2.3,0.3 -3.5,0.6 -1.2,0.2 -2.3,0.5 -3.4,0.9 -1.4,0.6 -3.4,1.2 -5.3,2.1 -1.5,0.7 -3,1.5 -4.5,2.4 -0.3,0.2 -0.5,0 -0.7,0.2 -2.1,1.2 -4.2,2.6 -6.1,4.2 l -1.4,1.1 c -0.5,0.4 -1,0.7 -1.4,1.2 -0.9,0.8 -1.8,1.6 -2.8,2.4 -1,0.8 -1.9,1.6 -2.7,2.5 -1,0.9 -1.9,1.9 -2.8,3 -0.9,1.1 -1.7,2.1 -2.5,3.2 -0.8,1 -1.4,2.1 -1.9,3 -0.7,0.7 -1.4,1.4 -2,2.2 -0.3,0.4 -0.5,1.1 -0.8,1.4 -0.2,0 -0.3,0.1 -0.5,0.1 -0.2,0.1 -0.3,0.4 -0.5,0.5 -1.4,2.4 -2.6,5 -4,7.6 -0.6,1.3 -0.5,2.6 -1.2,3.9 l -0.9,2.1 -0.8,2.1 c -0.5,1.4 -1.8,3 -2.2,4.4 -0.4,1.4 -0.1,2.7 -0.5,4.1 l -0.3,1.1 -0.1,0.5 v 0.1 l -0.1,0.4 -0.1,0.2 c -0.1,0.6 -0.2,1.3 -0.4,1.9 -0.1,0.3 -0.1,0.6 -0.2,1 0,0.4 -0.1,0.8 -0.1,1.2 -0.1,0.8 -0.2,1.6 -0.2,2.3 -0.3,1 -0.5,2 -0.6,3 -0.1,1.3 -0.7,3.1 -0.7,4.6 0,1.5 0,3 0,3.9 0,0.3 0.2,0.4 0.2,0.6 0.4,4.9 1.9,9.4 3.5,14.4 0.2,0.5 0.3,1.1 0.5,1.6 -0.8,-1.2 -1.6,-2.4 -2.3,-3.6 -0.3,-0.5 -0.5,-1 -0.8,-1.4 -0.3,-0.5 -0.7,-1.7 -1.3,-3.2 0.3,1.6 0.7,3.1 1.2,4.6 0.3,0.7 0.7,1.5 1,2.2 0.8,1.8 4.2,8 5.2,9.6 L 69,128.8 c 1,2.2 2.2,4.3 3.5,6.3 2.2,3.4 4.8,6.6 7.6,9.5 0.5,0.6 1.4,1.4 2.1,2.2 0.7,0.8 1.9,2 2.2,2.4 0.2,0.2 0.4,0.2 0.6,0.3 0.6,0.5 0.2,1 0.8,1.5 0.6,0.5 2.2,0.9 2.8,1.3 1.1,0.9 2.3,1.7 3.5,2.5 1.1,0.8 1.4,1.4 2.6,2.1 1.2,0.7 2.6,1.3 3.9,1.9 0.7,0.2 1.3,0.4 2,0.6 0.4,0.3 0.8,0.5 1.3,0.7 0.4,0.1 1.2,0.4 1.7,0.5 2.9,0.9 5.9,1.5 8.9,1.9 l 1.1,0.1 c 0.3,0 -0.1,-0.3 -0.1,-0.4 0,-0.2 1.1,0.5 1.2,0.6 1.9,0.2 3.9,0.3 5.9,0.4 0.7,0 -0.8,-1.2 -0.1,-1.2 0.6,0 3.4,1.1 4,1 1.2,-0.1 2.5,-0.2 3.7,-0.4 0.4,-0.1 0.9,0 1.4,0 0.7,-0.1 1.4,-0.4 2,-0.5 1.1,-0.2 2.3,-0.4 3.4,-0.5 l 0.8,-0.1 h 0.2 l 0.5,-0.1 0.3,-0.1 c 0.2,-0.1 0.4,-0.1 0.6,-0.2 0.3,-0.1 0.5,-0.2 0.8,-0.4 0.3,-0.1 0.6,-0.2 1,-0.2 0.4,-0.1 0.6,-0.3 1,-0.4 0.1,0 0.3,-0.1 0.4,-0.2 3.6,-0.7 7.1,-1.7 10.5,-3 0.7,-0.3 0.6,-0.6 1.2,-0.9 12.7,-6.1 20,-13.7 25.1,-22.2 0.1,-0.2 1,-0.2 1,-0.4 7.4,-16.4 3.1,-33.4 -8.2,-37.7 -0.4,-0.1 -1.9,-1.1 -2.3,-1.2 -3.3,-1 -8.2,-1.5 -13.3,-2.3 -0.1,0 -0.2,-0.3 -0.3,-0.3 -3.6,-0.5 -7.4,-1.1 -10.9,-1.7 -0.2,0 -0.5,-0.2 -0.7,-0.3 -9.4,-1.7 -16.1,-4 -10.9,-8.7 3.3,-3.1 6.9,-5.8 10.9,-7.9 v 0 c 2.8,-1.1 5.1,-2 7.1,-2.7 l 0.5,-0.2 c 1.2,-0.4 2.4,-0.8 3.4,-1.2 2.2,-0.7 4.4,-1.2 6.7,-1.5 0.2,0 2.9,0 3.1,-0.3 0.2,-0.3 -1.3,-2.5 -2.1,-2.9 -3.6,-1.5 -3.8,-2 -7.5,-3.2 -2.4,-0.8 -4.9,-1.2 -7.5,-1.1 -5.2,0 -12.3,1.6 -21.9,6.4 -0.4,0.2 -0.8,0.4 -1.3,0.7 -0.2,0.1 -0.3,0.7 -0.4,0.8 -0.3,0.2 -0.7,-0.2 -1.1,0 l -0.5,0.3 c -0.2,0.1 -0.2,0.2 -0.3,0.3 -0.2,0.1 -0.3,0.1 -0.4,0.1 -2.2,1.2 -4.3,2.5 -6.3,4 -0.1,0.1 -0.1,0.4 -0.3,0.5 -1.4,1 -2.7,2.1 -4,3.2 -0.1,0.1 -0.3,0.1 -0.4,0.2 -1.9,1.8 -1.2,1.6 -2.1,3.2 -0.1,0.1 0,0.3 0,0.4 -0.7,1.2 -1.2,2.5 -1.4,3.9 0,0.1 -0.1,-0.1 -0.1,0 -0.1,0.5 -0.1,0.9 -0.2,1.4 -0.4,1.9 -0.8,5.8 0.3,9.1 0.2,0.5 -0.3,-2.5 0,-4.5 0,-0.1 0,-0.1 0,-0.2 0.3,1.6 0.8,3.1 1.4,4.6 0.5,1.2 2.3,2.6 3.6,3.5 v 0 c 1.5,1.1 3.2,2 5,2.6 0.3,0.1 0,-0.3 -0.8,-1 0.8,0.2 1.6,0.4 2.5,0.5 0.2,0 0.5,0 0.7,0.1 0.2,0.1 0.5,0 0.7,0 0.2,0 0.3,0.2 0.4,0.2 1.3,0.2 2.6,1.3 3.9,1.4 0.5,0.1 1.1,0.1 1.6,0.2 0.3,0 3.1,0.9 3.3,0.9 7,0.6 10.9,2.5 15.1,3.6 4.2,1.1 3.5,1.3 6.1,1.8 0.2,0.1 0.4,0.2 0.6,0.3 0.3,0.2 0.8,0.2 1.1,0.4 4.4,2.1 2.8,10.1 2.7,10.2 -0.2,0.5 -0.5,0.9 -0.8,1.4 -0.1,0.2 0.1,1.2 0,1.4 -0.1,0.2 -0.4,0 -0.5,0.1 -1.7,2.4 -2.2,4 -5.3,6.3 -0.4,0.3 -0.2,0.4 -0.6,0.6 -0.2,0.1 -1.1,0.3 -1.3,0.4 -0.3,0.2 -0.5,0.6 -0.8,0.8 -0.6,0.5 -1.3,1 -2,1.4 -0.3,0.1 -1.5,0.8 -1.8,1 -0.3,0.1 -0.5,0.7 -1.1,0.5 -0.4,-0.2 -0.8,0.4 -1.3,0.6 -5.7,2.6 -11.8,4 -18.1,4.1 h -0.1 c -1.2,0.8 -4.1,1.4 -4.9,1.2 -0.7,-0.2 -8.2,1.8 -0.1,-0.5 0.7,-0.2 1.5,-0.5 2.1,-0.8 -0.6,0 -1.3,-0.1 -1.9,-0.2 -0.7,0.1 -1.4,0.1 -2.1,-0.1 -0.7,-0.3 -7.9,0.8 -0.7,-0.4 -7.8,-1.5 -15.8,-5.8 -22.9,-14.6 -1.6,-3 -2.8,-6.1 -3.6,-9.3 -1,-3.6 -1,-6.9 -1.3,-10 0,-0.5 -0.6,-1.2 -0.6,-1.7 0,-0.5 0.3,-1.7 0.3,-2.2 -0.1,-1.7 -0.2,-1.7 -0.2,-2.4 0,-0.5 0.1,-0.8 0.1,-1.3 V 95 c 0,-0.1 0,-0.2 0,-0.3 l 0.6,0.3 0.3,-2.2 0.3,-0.5 0.2,-0.9 0.5,-3 c 0.2,-1.1 0.6,-2.2 0.9,-3.3 0.6,-2.2 1.4,-4.3 2.3,-6.5 0.2,-0.8 0.8,-1.5 0.7,-2.3 0.9,-1.9 1.9,-3.6 2.9,-5.3 0.1,-0.2 -0.1,-0.4 0,-0.5 0.1,-0.2 0.5,-0.3 0.6,-0.4 1.3,-2.1 2.7,-4.1 4.2,-6 2.6,-3.2 5.7,-5.9 9.3,-8 l 1.6,-0.9 0.8,-0.5 c 0.2,-0.1 0.5,-0.4 0.1,-0.3 -1.4,0.8 -3,1.9 -4,2 0.8,-0.9 1.8,-1.6 2.9,-2.1 0.2,-0.4 -0.3,-1 0.3,-1.4 0.4,-0.3 0.9,-0.5 1.3,-0.7 0.4,-0.2 0.9,-0.4 1.3,-0.7 l 1.3,-0.7 c 0.4,-0.2 0.9,-0.4 1.3,-0.6 0.9,-0.4 1.8,-0.9 2.8,-1.3 1,-0.4 2.1,-0.7 3.3,-1 0.5,-0.2 0.9,-0.5 1.4,-0.7 l 1.4,-0.6 c 0.5,-0.2 1,-0.4 1.5,-0.6 l 1.9,-0.5 c 0.9,-0.1 1.9,-0.2 2.8,-0.4 l 0.3,-0.1 v 0 h -0.2 0.1 0.2 l 0.6,-0.1 c 0.4,-0.1 0.8,-0.1 1.2,-0.2 1.5,-0.3 2.9,-0.5 4.4,-0.5 0.9,0.2 0.4,-0.6 1.1,-0.5 0.4,-0.2 1,-0.2 1.4,-0.3 1,0 2,-0.1 3,-0.1 1,0 1.9,0 2.8,0.1 0.9,0 1.8,0 2.7,0.1 l 2.6,0.3 c 1.7,0.2 3.5,0.4 5.2,0.8 l 1.3,0.2 c 0.4,0.1 0.9,0.2 1.3,0.3 l 2.7,0.7 c 0.9,0.3 1.8,0.7 2.7,1.2 0.9,0.5 1.7,1 2.5,1.6 0.8,0.5 1.7,0.9 2.6,1.3 l 2.5,1.4 c 0.4,0.2 0.8,0.4 1.3,0.7 l 1.2,0.8 1.2,0.8 c 0.4,0.2 0.8,0.5 1.2,0.8 l 2.4,1.7 2.4,1.9 c 0.4,0.3 0.8,0.7 1.1,1.1 l 1.1,1.1 c 0.7,0.8 1.4,1.6 2,2.4 0.4,0.5 0.8,0.9 1.1,1.5 0.3,0.4 0.4,0.8 0.3,1.3 -1.3,-1 -2.6,-2.1 -3.8,-3.3 -1.4,-1.1 -2.6,-2.1 -4.1,-2.4 0.5,0.7 1.1,1.4 1.8,2 0.8,0.6 1.4,1.3 2.1,2 0.7,0.6 1.4,1.3 2,2 0.6,0.7 1.2,1.4 1.9,2.1 1.8,2.9 3.6,5.5 4.9,8.1 0.4,0.6 0.7,1.3 1,2 0.3,0.7 0.6,1.3 0.9,2 0.5,1.3 0.9,2.6 1.1,4 0.3,0.6 0.6,1.2 1,1.8 0.3,0.7 0.6,1.5 0.7,2.3 0.3,0.6 0.9,-0.8 1.2,0.3 0.1,0.8 0.2,1.6 0.6,2.3 0.3,1.7 0.5,3.2 0.8,4.8 0.2,1.6 0.4,3.2 0.4,4.8 0.1,1.5 0.4,4.7 0.4,6.3 0,1.6 -0.1,3.1 -0.3,4.7 l -0.1,1.2 -0.2,1.2 c -0.1,0.7 -0.2,1.6 -0.4,2.2 l -0.2,1.1 c -0.1,0.4 -0.2,0.8 -0.3,1.1 l -0.7,2.3 c -2.1,6 -5,11.6 -8.7,16.8 -0.9,0.7 0.6,0.5 -0.3,1.2 -1,1.4 -1.8,3.1 -3.1,4.7 -2.4,3 -5.6,5.8 -9,8.8 -5.5,4.7 -11.6,8.6 -18.2,11.8 0.6,-0.2 0.6,0.1 0.1,0.4 -2,1.1 -3.2,-0.2 -5.6,0.6 -0.7,0.5 -1.6,0.8 -2.5,1 -0.6,0.3 -1.1,1 -2,0.7 -0.2,0.6 -1.1,0.9 -2,1.1 -1,0.1 -1.8,0.1 -2.7,0.1 0,0.9 2,0.5 3.1,0.7 0.6,-0.4 1,-0.1 1.6,0 0.6,0.1 1.7,-0.3 1.7,0.3 -0.4,0.2 -1.7,0 -1.5,0.4 1.1,-0.2 0.5,0.3 -0.3,0.2 -0.1,-0.7 -0.2,0 -0.7,0.1 0.1,-0.3 -1.3,0.1 -1.3,0.3 0.6,0 1.3,0 1.9,-0.1 l 1.8,-0.2 c 1.2,-0.2 2.3,-0.4 3.5,-0.7 2.3,-0.5 4.8,0.4 6.9,-0.5 2.2,-0.9 4.4,-1.9 6.5,-3 2.2,-1.2 4.3,-2.5 6.4,-3.9 0.2,0.2 0.9,-0.5 1.1,-0.1 -0.2,0.2 -0.5,0.3 -0.4,0.5 0.3,-0.2 0.5,-0.1 0.9,-0.4 3.6,-1.8 7.4,-4.6 10.2,-6.6 2.2,-2.2 4.8,-4.2 7,-6.6 0.7,-0.8 1.2,-1.6 1.9,-2.5 0.7,-0.8 1.6,-1.7 2.3,-2.6 4.5,-5.7 8.3,-12 10.4,-17.8 0.2,-0.2 0.4,-0.4 0.4,-0.6 0,-0.1 0.1,-0.3 0.1,-0.4 l 0.1,-0.2 v 0 0 l 0.1,-0.2 v 0 -0.1 -0.1 c 0.1,-0.6 0.3,-1.1 0.7,-1.1 -1.2,5.4 -4.6,11.7 -7.9,17 -1.3,2 -2.7,3.8 -3.3,5.4 1.2,-1.9 2,-2.3 3.4,-4.6 2.5,-3.6 4.7,-7.4 6.4,-11.5 0.4,-1 0.8,-1.9 1.2,-2.9 l 0.6,-1.7 0.4,-1.3 0.4,-1.4 0.4,-1.7 0.4,-1.7 0.2,-1.6 c 0.5,-2.8 0.8,-5.7 0.8,-8.6 0.2,-1.7 -0.1,-4.8 -0.2,-6.3 z M 82.3,53.8 c 0.1,0.1 -0.1,0.4 -0.3,0.6 l -0.6,0.7 c -0.4,-0.2 0.7,-0.9 0.9,-1.3 z m -0.2,2.1 c -0.9,0.9 -1.7,1.7 -2.3,1.6 1.3,-2 2.8,-3 4.2,-4.4 -0.4,1.1 -1.1,2 -1.9,2.8 z m 16,98.1 c 0.2,0.5 1.1,0.9 2,1.4 2.4,1.2 6.4,2.1 6.6,2.3 0.7,0.8 1.7,0.4 1.9,0.6 0.7,0.9 0.3,0.6 0.3,0.6 -5.3,-0.1 -12.1,-5.1 -12.1,-5.1 -0.3,-0.7 1.3,0.1 1.3,0.2 z M 95,152.1 c 0.1,0.2 -0.1,0.5 -1.2,-0.5 -1.8,-1.6 -3.4,-2.1 -3.6,-2.8 -0.1,0 4.7,3.1 4.8,3.3 z m 73.7,-94.5 c 0.2,0.1 0.5,0.4 0.7,0.2 -0.4,-0.1 -1,-0.9 -1.2,-0.6 z m 35,15.9 c -0.2,-0.5 -0.4,-1 -0.7,-0.7 l 0.2,0.6 c 0.2,-0.2 0.4,0 0.5,0.1 z m -9.1,-16 c 1.1,1.6 2.3,3.2 3.2,4.8 1.9,3.2 3.6,6.4 5.2,9.8 -1.9,-5 -4.5,-9.7 -7.8,-14 -0.8,-1.3 -1.7,-2.5 -2.6,-3.6 -0.2,-0.2 -0.5,-0.7 -0.8,-1 -0.3,-0.3 -0.7,-0.6 -1,-0.4 0.7,0.7 1.3,1.4 1.9,2.1 0.6,0.7 1.3,1.4 1.9,2.3 z m -95.9,71.1 c 1,0.7 1.1,0.3 0.5,0.2 -1.1,-0.9 -1,-0.5 -0.5,-0.2 z m 68.6,-72.1 c -1.1,-0.5 -1.1,-0.1 -0.5,-0.1 1.1,0.7 1,0.3 0.5,0.1 z m -66.8,73.6 c 0.2,0.2 0.6,0.3 0.9,0.2 -0.5,-0.5 -1.2,-0.8 -1.8,-1 0.2,0.3 0.6,0.6 0.9,0.8 z m -9.9,-9.7 c 0.1,0.2 0.3,0.4 0.5,0.5 1.2,1.7 0.1,-0.8 -0.5,-0.5 z m 66.8,-67.8 c 0.5,-0.2 2.1,0.5 1.4,0.1 -0.7,-0.4 -1.5,-0.6 -2.3,-0.5 0.4,0.1 0.7,0.2 0.9,0.4 z m -13.7,-2.8 1,0.1 c 0.3,0 0.7,0.1 0.8,-0.1 -0.6,0.1 -1.7,-0.3 -1.8,0 z m 20.6,5.5 c 0.6,0.3 1.3,0.6 2,0.6 -0.4,-0.2 -0.7,-0.4 -1.1,-0.6 -0.3,-0.1 -0.6,-0.1 -0.9,0 z m -2.7,-1.2 c 0.7,0.3 1.4,0.7 1.8,0.4 -0.6,-0.2 -1.5,-0.9 -1.8,-0.4 z m -64.7,72.8 c 0.3,0.2 0.8,1.1 1.1,0.8 l -0.5,-0.5 c -0.3,-0.1 -0.5,-0.4 -0.6,-0.3 z"
       id="path10" /></g><metadata
     id="metadata24"><rdf:RDF><cc:Work
         rdf:about=""><dc:title></dc:title></cc:Work></rdf:RDF></metadata></svg>