<?xml version="1.0" encoding="UTF-8" standalone="no"?>
<svg
   xmlns:dc="http://purl.org/dc/elements/1.1/"
   xmlns:cc="http://creativecommons.org/ns#"
   xmlns:rdf="http://www.w3.org/1999/02/22-rdf-syntax-ns#"
   xmlns:svg="http://www.w3.org/2000/svg"
   xmlns="http://www.w3.org/2000/svg"
   xmlns:sodipodi="http://sodipodi.sourceforge.net/DTD/sodipodi-0.dtd"
   xmlns:inkscape="http://www.inkscape.org/namespaces/inkscape"
   sodipodi:docname="Takara.svg"
   inkscape:version="1.0 (4035a4fb49, 2020-05-01)"
   id="svg5831"
   version="1.1"
   viewBox="0 0 105.32294 18.979441"
   height="18.979441mm"
   width="105.32294mm">
  <defs
     id="defs5825">
	
	
</defs>
  <sodipodi:namedview
     inkscape:window-maximized="1"
     inkscape:window-y="-8"
     inkscape:window-x="-8"
     inkscape:window-height="1017"
     inkscape:window-width="1920"
     fit-margin-bottom="0"
     fit-margin-right="0"
     fit-margin-left="0"
     fit-margin-top="0"
     showgrid="false"
     inkscape:document-rotation="0"
     inkscape:current-layer="layer1"
     inkscape:document-units="mm"
     inkscape:cy="-41.794474"
     inkscape:cx="423.42693"
     inkscape:zoom="0.98994949"
     inkscape:pageshadow="2"
     inkscape:pageopacity="0.0"
     borderopacity="1.0"
     bordercolor="#666666"
     pagecolor="#ffffff"
     id="base" />
  <metadata
     id="metadata5828">
    <rdf:RDF>
      <cc:Work
         rdf:about="">
        <dc:format>image/svg+xml</dc:format>
        <dc:type
           rdf:resource="http://purl.org/dc/dcmitype/StillImage" />
        <dc:title></dc:title>
      </cc:Work>
    </rdf:RDF>
  </metadata>
  <g
     transform="translate(-46.197907,-131.5802)"
     id="layer1"
     inkscape:groupmode="layer"
     inkscape:label="Layer 1">
    <g
       transform="matrix(0.26458333,0,0,0.26458333,39.69209,111.98083)"
       id="g12"
       style="fill:#000000">
	</g>
    <path
       style="fill:#ef3821;fill-opacity:1;stroke-width:0.352777"
       id="path244-1"
       class="st2"
       d="m 141.48318,143.85686 c -1.02306,0 -1.94028,0.45862 -2.54,1.16417 l 2.57528,-6.49111 2.46944,6.45583 c -0.59972,-0.70555 -1.48167,-1.12889 -2.50472,-1.12889 m -36.12445,0 c -1.02305,0 -1.94027,0.45862 -2.54,1.16417 l 2.57528,-6.49111 2.46945,6.49111 c -0.56445,-0.74083 -1.48167,-1.16417 -2.50473,-1.16417 M 70.645403,143.6452 c -0.91722,0 -1.76389,0.35278 -2.39889,0.9525 l 2.43417,-6.10306 2.32833,6.10306 c -0.59972,-0.59972 -1.44638,-0.9525 -2.36361,-0.9525 m 80.821387,6.06778 -6.24417,-17.25084 c -0.17639,-0.45861 -0.70555,-0.81139 -1.16416,-0.81139 h -5.11528 c -0.49389,0 -1.02306,0.35278 -1.16417,0.81139 0,0 -4.26861,11.85334 -5.92666,16.36889 h -0.70556 l -2.68111,-4.19805 c 2.46944,-0.88195 4.23333,-3.45723 4.23333,-6.31473 0,-3.56305 -2.82222,-6.6675 -6.35,-6.6675 v 0 0 h -10.4775 v 17.18028 h -0.84666 l -5.92667,-16.33361 c -0.17639,-0.45861 -0.70556,-0.81139 -1.16417,-0.81139 h -5.11528 c -0.49388,0 -1.02305,0.35278 -1.16416,0.81139 0,0 -3.386667,9.31333 -5.221107,14.46389 l -5.04472,-6.59695 5.64444,-7.58472 c 0.42333,-0.49389 0,-1.19944 -0.56444,-1.19944 h -3.81 c -0.49389,0 -1.12889,0.3175 -1.44639,0.67028 l -4.62139,6.59694 v -6.31472 c 0,-0.49389 -0.38806,-0.88195 -0.88195,-0.88195 h -3.88055 c -0.49389,0 -0.88195,0.38806 -0.88195,0.88195 v 16.29833 h -0.67027 l -5.92667,-16.33361 c -0.17639,-0.45861 -0.70556,-0.81139 -1.16417,-0.81139 h -5.11527 c -0.49389,0 -1.02306,0.35278 -1.16417,0.81139 0,0 -4.26861,11.85333 -5.92667,16.36889 h -2.61055 V 136.3427 h 5.11527 c 0.49389,0 0.88195,-0.38806 0.88195,-0.88195 v -2.92805 c 0,-0.49389 -0.38806,-0.88195 -0.88195,-0.88195 H 47.079851 c -0.493889,0 -0.881944,0.38806 -0.881944,0.88195 v 2.92805 c 0,0.49389 0.388055,0.88195 0.881944,0.88195 h 5.326944 v 13.335 c 0,0.49389 0.388056,0.88194 0.881948,0.88194 h 11.7475 c 0.49389,0 1.02305,-0.35278 1.19944,-0.81139 l 0.98778,-2.46944 c 0.0705,1.83444 1.5875,3.28083 3.42194,3.28083 1.79917,0 3.28084,-1.41111 3.42195,-3.175 l 0.91722,2.32834 c 0.17639,0.45861 0.70555,0.81138 1.19944,0.81138 h 9.525 c 0.49389,0 0.88195,-0.38805 0.88195,-0.88194 v -7.69056 l 5.85611,7.86695 c 0.3175,0.35278 0.9525,0.70555 1.44639,0.70555 h 5.85611 c 0.493887,0 1.023047,-0.35277 1.199437,-0.81138 l 0.88195,-2.2225 0.17639,-0.49389 c 0,0.0706 0,0.10583 0,0.17639 0,1.83444 1.48166,3.35138 3.35138,3.35138 1.83445,0 3.35139,-1.48166 3.35139,-3.35138 0,-0.0353 0,-0.0353 0,-0.0706 l 0.14111,0.35277 0.84667,2.25778 c 0.17639,0.45861 0.70556,0.81139 1.19945,0.81139 h 9.45444 c 0.0353,0 0.0706,0 0.10583,0 0.0353,0 0.0706,0 0.10584,0 0.17639,-0.0353 0.3175,-0.21167 0.3175,-0.38806 0,0 0,0 0,-0.0353 0,-0.0353 0,0 0,-0.0353 v -13.86415 h 4.62139 c 1.02305,0.0353 1.86972,1.05833 1.86972,2.08139 0,0.9525 -0.70556,1.94027 -1.62278,2.08138 h -2.82222 c -0.0353,0 -0.0705,0 -0.0705,0 -0.0353,0 -0.0706,0 -0.0706,0 -0.74084,0.0353 -1.30528,0.635 -1.30528,1.37584 0,0.35278 0.17639,0.59972 0.3175,0.88194 v 0 l 4.72722,7.90222 h 9.38389 c 0.49389,0 1.02305,-0.35277 1.19944,-0.81138 0,0 0.88195,-2.2225 0.88195,-2.18723 l 0.21166,-0.49389 c 0,0.0353 0,0.10584 0,0.14112 0,1.83444 1.48167,3.35138 3.35139,3.35138 1.83445,0 3.35139,-1.48166 3.35139,-3.31611 l 0.14111,0.35278 c 0,-0.0353 0.88195,2.18722 0.88195,2.18722 0.17639,0.45861 0.70555,0.81139 1.19944,0.81139 h 3.88055 c 0.35278,0 0.635,-0.38805 0.45862,-0.84666" />
  </g>
  <style
     type="text/css"
     id="style6494">
	.st0{fill:#0052A4;}
	.st1{fill:none;stroke:#FFFFFF;stroke-width:0.7;}
	.st2{fill:#FFFFFF;}
</style>
</svg>
