<svg xmlns="http://www.w3.org/2000/svg" xmlns:xlink="http://www.w3.org/1999/xlink" xml:space="preserve" viewBox="0 0 571 150.6"><defs><clipPath id="b"><use xlink:href="#a" width="100%" height="100%" overflow="visible"/></clipPath><path id="a" d="m 544.6,32.1 c -5,-9.2 -14.7,-15 -25.2,-15 l -40.1,-0.2 v 32.7 l 32.9,0.1 c -27,43.3 -32.9,68 -32.9,81.3 H 512 c 0,-12.6 12.3,-40 31.4,-69.6 5.8,-8.8 6.2,-20.1 1.2,-29.3 z"/></defs><path d="M564.5,39.6c4-4,6.5-9.5,6.5-15.6c0-12.1-9.8-21.9-21.9-21.9c-3.7,0-7.1,0.9-10.2,2.5c-0.5-0.2-1-0.5-1.7-0.8 c-5.6-2.4-11.7-3.7-17.9-3.7c0,0-45.5-0.1-46.6-0.2c0,0-2.4,0-2.4,0c-12.2,0-23.6,4.7-32.3,13.3c-6.3,6.3-10.6,14.2-12.4,22.7 c-8.8-7.3-20.2-11-34.1-11c-3.7,0-7.5,0.4-11.5,1.3c-3.8,0.9-7.6,2.1-11,3.6c-1.4,0.6-2.8,1.3-4.2,2c-3.1-1.9-6.6-3.5-10.6-4.8 c-4.6-1.5-9.7-2.2-15.6-2.2c-6.4,0-12.8,1.3-19,3.7c-2.2-1-4.5-1.5-7.1-1.5h-30c-6.7,0-12.5,3.9-15.3,9.5c-5-4.1-10.8-7.2-17.4-9.2 c-6.5-2-13.7-3.1-21.4-3.1c-12.4,0-22.7,1.5-31.3,4.7c-8.4,3.1-15,6.6-20.2,10.8c-0.5,0.4-1,0.9-1.5,1.3c-5.5-5.7-12-10-19.3-12.8 c-7.2-2.8-14.8-4.2-22.8-4.2c-10.1,0-19.3,1.9-27.2,5.7c-4.3,2.1-8.3,4.5-11.9,7.3c-2.7-5.9-8.6-10-15.5-10h-1.3V17.1 c0-1.2-0.1-2.3-0.3-3.4C75.7,5.9,68.8,0,60.6,0c0,0-2.4,0-2.4,0C46,0,34.5,4.7,25.9,13.3c-4.1,4.1-7.3,8.8-9.6,14 C7.2,27.7,0,35.1,0,44.3v24.4C0,76.4,5.2,83,12.3,85v15.6c0,26.1,21.2,47.3,47.3,47.3h19.4c6.8,0,12.6-4,15.4-9.8 c11.1,8.2,25.6,12.4,43.1,12.4c5.2,0,10.3-0.4,15.1-1.3c4.4-0.8,8.5-1.7,12.2-2.8c3.9-1.2,7.2-2.4,10.2-3.8c2.3-1.1,4.3-2,6-3 c0.9,0.8,1.9,1.6,2.8,2.3c4.4,3.2,9.4,5.6,14.7,6.9c4.5,1.1,8.9,1.7,13.1,1.7c8.1,0,15-1.2,21.1-3.6c0.3-0.1,0.6-0.2,0.8-0.4 c1.8,0.7,3.8,1,5.8,1h29.2c2.5,0,4.8-0.5,6.9-1.5c2.1,0.9,4.4,1.5,6.9,1.5h31.1c5.2,0,9.8-2.3,13-6c3.1,3.7,7.8,6,13,6h29.2 c5.2,0,9.8-2.3,13-6c3.1,3.7,7.8,6,13,6h31.1c2.8,0,5.4-0.7,7.7-1.9c2.4,1.3,5.2,2.1,8.2,2.1l70.4,0c9.4,0,17-7.6,17-17 c0-6.6,8.9-29.6,28.6-60.2c5.7-8.9,8.1-19.3,7-29.5C564.6,40.6,564.5,40.1,564.5,39.6z"/><path fill="#fff" d="M60.6,99.8V68.7h18.3V44.3H60.6V17.1c0,0,0,0,0,0v-0.1l-2.2,0c0,0-0.1,0-0.1,0c-7.7,0-14.8,3-20.3,8.4 c-5.1,5.1-8.1,11.8-8.4,18.9H17v24.4h12.3v32c0,16.7,13.6,30.3,30.3,30.3h19.4V99.8H60.6z"/><path fill="#fff" d="M173.6,124.4c-1.5,0.9-3.3,1.8-5.6,2.8c-2.3,1-4.9,2-8,2.9c-3.1,0.9-6.5,1.7-10.3,2.4c-3.8,0.7-7.8,1-12.1,1 c-15.9,0-28.1-4-36.6-12c-8.5-8-12.7-19.3-12.7-33.7c0-5.8,0.9-11.4,2.8-17c1.8-5.6,4.6-10.5,8.4-14.9c3.7-4.3,8.5-7.9,14.2-10.6 c5.7-2.7,12.3-4,19.9-4c5.9,0,11.4,1,16.6,3c5.2,2,9.7,5.1,13.6,9.2c3.9,4.1,6.9,9.3,9.1,15.4c2.2,6.2,3.3,13.5,3.3,21.8v5.9 h-58.5c0.1,1.5,0.5,3,1.2,4.6c0.7,1.6,1.8,3.1,3.5,4.5c1.7,1.4,3.9,2.5,6.6,3.4c2.8,0.9,6.2,1.3,10.2,1.3c5.3,0,10.1-0.7,14.4-2 c4.3-1.3,7.7-2.8,10.2-4.2L173.6,124.4z M148.6,78.3c0-1.5-0.3-3-0.9-4.6c-0.6-1.6-1.6-3.1-2.8-4.4c-1.3-1.3-2.9-2.5-4.8-3.4 c-1.9-0.9-4.2-1.4-6.9-1.4c-2.6,0-4.8,0.5-6.8,1.4c-2,0.9-3.6,2.1-4.8,3.4c-1.2,1.4-2.1,2.8-2.8,4.4c-0.6,1.6-0.9,3.1-0.9,4.6 H148.6z"/><path fill="#fff" d="M238.4,122.6c-3.9,4.2-7.9,7-11.9,8.6c-4,1.6-8.9,2.4-14.8,2.4c-2.8,0-5.8-0.4-9-1.2c-3.2-0.8-6.1-2.2-8.8-4.1 c-2.7-2-4.9-4.6-6.6-8c-1.7-3.4-2.6-7.6-2.6-12.8c0-5.1,1.1-9.7,3.3-13.7c2.2-4,5.2-7.3,9-9.9c3.8-2.6,8.2-4.6,13.2-6 c5-1.3,10.3-2,15.8-2c2.8,0,5.1,0.1,6.7,0.2c1.7,0.1,3.5,0.3,5.6,0.6V75c0-2.2-0.5-4-1.4-5.4c-0.9-1.4-2.1-2.5-3.5-3.3 c-1.4-0.8-2.9-1.3-4.6-1.7c-1.7-0.3-3.3-0.5-4.9-0.5c-5.5,0-10.4,0.7-14.5,2.1c-4.2,1.4-7.5,3-10.1,4.9l-11.8-17.8 c3.7-2.9,8.8-5.6,15.4-8.1c6.6-2.4,15.1-3.7,25.4-3.7c6,0,11.5,0.8,16.4,2.3c4.9,1.5,9.1,3.9,12.7,7c3.6,3.1,6.3,7,8.3,11.6 c2,4.6,2.9,10,2.9,16.1v52.2h-29.2L238.4,122.6z M238.4,93.3c-2.1-0.5-4.9-0.7-8.5-0.7c-5.1,0-8.9,1-11.4,3 c-2.5,2-3.7,4.4-3.7,7.3c0,6.4,3.4,9.6,10.3,9.6c1.6,0,3.2-0.2,4.8-0.6c1.6-0.4,3-1.2,4.2-2.2c1.2-1,2.2-2.4,3-4.1 c0.8-1.7,1.2-3.9,1.2-6.4V93.3z"/><path fill="#fff" d="M282.5,44.3h30l1.1,9.6c3.3-4.2,7.2-7.2,11.7-9c4.5-1.8,8.9-2.8,13.3-2.8c4,0,7.5,0.5,10.4,1.4c2.9,0.9,5.3,2,7.3,3.3 c2,1.3,3.5,2.6,4.6,3.9c1.1,1.3,2,2.3,2.6,3c1.3-1.5,3.1-2.9,5.3-4.3c2.2-1.4,4.6-2.7,7.1-3.8c2.5-1.1,5.1-2,7.9-2.6 c2.8-0.6,5.4-0.9,7.8-0.9c11.1,0,19.6,3.1,25.5,9.2c5.8,6.1,8.7,14.5,8.7,25v54.4h-31.1V84.5c0-4.7-0.9-8.3-2.8-11 c-1.8-2.7-4.8-4-9-4c-4.2,0-7.6,1.3-10.2,4c-2.6,2.7-4,6.4-4,11v46.1h-29.2V84.5c0-4.7-0.9-8.3-2.7-11c-1.8-2.7-4.8-4-9.1-4 c-3.9,0-7.3,1.3-10,4c-2.8,2.7-4.1,6.4-4.1,11v46.1h-31.1V44.3z"/><path fill="#fff" d="M543.6,23.6c0-3.1,2.5-5.5,5.6-5.5c3.1,0,5.6,2.5,5.6,5.5c0,3.1-2.5,5.6-5.6,5.6C546.1,29.2,543.6,26.7,543.6,23.6z M553.7,23.6c0-2.5-2-4.5-4.5-4.5c-2.5,0-4.5,2-4.5,4.5c0,2.5,2,4.5,4.5,4.5C551.7,28.1,553.7,26.1,553.7,23.6z M552,26.7h-1.4 l-1.3-2.6h-1.2v2.6h-1.2v-6.1h2.9c0.5,0,1.2,0,1.6,0.3c0.5,0.4,0.7,0.9,0.7,1.6c0,1.1-0.6,1.6-1.7,1.6L552,26.7z M549.8,23.2 c0.7,0,1.1-0.1,1.1-0.9c0-0.8-0.9-0.8-1.4-0.8h-1.5v1.7H549.8z"/><path fill="#7317ba" d="M470.5,16.6c0,0-0.1,0-0.1,0c-7.7,0-14.8,3-20.3,8.4c-5.5,5.4-8.5,12.7-8.5,20.4v85.5h31.1V16.7L470.5,16.6z"/><path fill="#7317ba" d="m 544.6,32.1 c -5,-9.2 -14.7,-15 -25.2,-15 l -40.1,-0.2 v 32.7 l 32.9,0.1 c -27,43.3 -32.9,68 -32.9,81.3 H 512 c 0,-12.6 12.3,-40 31.4,-69.6 5.8,-8.8 6.2,-20.1 1.2,-29.3 z"/><path fill="#381970" d="m 605.1,-7.9 c -3,-13 -13.6,-21.1 -27.8,-21.1 l -53.9,-0.2 -10.4,33 18,10 c 51.9,51.9 -50.2,51.5 -50.7,128.9 L 521,131 C 526.2,113.2 553.9,74.9 591.6,33.3 602.9,20.8 608.1,5 605.1,-7.9 Z" clip-path="url(#b)"/></svg>