<svg xmlns:svg="http://www.w3.org/2000/svg" xmlns="http://www.w3.org/2000/svg" width="205" height="45.92" version="1.1"><path d="M22.96 0C10.3 0 0 10.3 0 22.96c0 12.66 10.3 22.96 22.96 22.96 12.66 0 22.96-10.3 22.96-22.96C45.92 10.3 35.62 0 22.96 0ZM22.96 2.38c11.35 0 20.58 9.23 20.58 20.58 0 11.35-9.23 20.58-20.58 20.58-11.34 0-20.58-9.23-20.58-20.58 0-11.35 9.23-20.58 20.58-20.58zm-0.21 1.72c-0.43 0-0.78 0.35-0.78 0.78l0 0.77-4.66 0c-0.43 0-0.77 0.33-0.77 0.73 0 0.41 0.35 0.74 0.77 0.74l4.66 0 0 0.93-4.27 0c-0.59 0-1.06 0.48-1.06 1.06l0 4.2c0 0.58 0.47 1.05 1.06 1.05l1.76 0c0 0-1.25 1.27-2.62 1.87-0.04 0.01-0.07 0.03-0.1 0.05-0.49 0.28-0.47 0.78-0.47 0.79 0.05 0.87 0.89 0.94 1.14 0.86 0.64-0.13 2.8-1.09 4.56-3.39l0 2.67c0 0.43 0.35 0.78 0.78 0.78l0.38 0c0.43 0 0.78-0.35 0.78-0.78l0-2.67c1.77 2.29 3.92 3.25 4.56 3.39 0.26 0.08 1.1 0.01 1.14-0.86 0-0.01 0.02-0.5-0.47-0.79-0.03-0.02-0.07-0.04-0.1-0.05-1.37-0.6-2.62-1.87-2.62-1.87l1.75 0c0.58 0 1.06-0.47 1.06-1.05l0-4.2c0-0.58-0.47-1.06-1.06-1.06l-4.26 0 0-0.93 4.65 0c0.43 0 0.78-0.33 0.78-0.74 0-0.41-0.35-0.73-0.78-0.73l-4.65 0 0-0.77c0-0.43-0.35-0.78-0.78-0.78l-0.38 0zm-3.95 5.42 3.17 0 0 0.98-2.37 0c-0.43 0-0.78 0.33-0.78 0.74 0 0.41 0.35 0.73 0.78 0.73l2.37 0 0 0.91-3.17 0c-0.22 0-0.34-0.15-0.34-0.34l0-2.68c0-0.19 0.15-0.33 0.34-0.33zm5.11 0 3.17 0c0.17 0 0.33 0.16 0.33 0.33l0 2.69c0 0.17-0.12 0.33-0.33 0.34l-3.17 0 0-0.91 2.37 0c0.42 0 0.77-0.33 0.77-0.73 0-0.41-0.35-0.74-0.77-0.74l-2.37 0 0-0.98zm44.09 2.03 0 1.91-9.92 0 0 2.08 9.92 0 0 1.57-8.96 0 0 10.56 6.06 0c-2.94 2.68-7.05 4.73-7.05 4.73l0 1.61c5.42-1.8 8.45-4.5 9.94-5.98l0 6.02 2.08 0 0-6c1.51 1.49 4.53 4.16 9.92 5.95l0-1.6c0 0-4.11-2.05-7.05-4.73l6.09 0 0-10.56-8.96 0 0-1.57 9.93 0 0.01 0 0-2.08-9.93 0 0-1.91-2.08 0zm25.01 0 0 2.04-8.94 0 0 4.49 0 0 2.08 0 0-2.41 15.81 0 0 2.4 2.08 0 0-4.48-8.96 0 0-2.04-2.08 0zm19.9 0 0 3.7-3.63 0 0 2.1 3.34 0c-1.11 4.78-3.51 7.77-3.51 7.77l0 2.04c0 0 2.29-1.82 3.8-4.78l0 11.66 2.1 0 0-12.29c0.6 0.81 1.68 1.61 2.39 1.98l0-2.04c0 0-1.65-2.04-2.39-3.5l0-0.83 2.55 0 0-2.1-2.55 0 0-3.7-2.1 0zm11.21 0 0 3.5-2.57 0c0.39-1.64 0.35-2.96 0.35-2.96l-1.96 0.01c-0.26 4.34-1.95 5.78-1.95 5.78l0 2.46c1.37-0.79 2.26-1.97 2.84-3.19l3.3 0 0 3.76-6.12 0 0 2.1 4.69 0c-1.31 3.88-5.09 7.43-5.09 7.43l0 2.04c3.31-1.95 5.89-5.91 6.52-7.07l0 8.62 2.1 0 0-8.58c0.71 1.42 3.02 5.01 6.09 7l0-2.06c0 0-3.29-3.29-4.65-7.39l4.03 0 0-2.1-5.48 0 0-3.76 5.12 0 0-2.1-5.12 0 0-3.5-2.1 0zm23.72 0c0.01 1.67 0.01 3.5 0.01 3.5l-12.91 0 0 2.1 12.88 0c0.4 14.74 8.02 17.13 8.02 17.13l0-1.87c-5.77-4.72-5.68-13.67-5.72-15.27l5.9 0 0-2.1-5.92 0 0-3.5-2.26 0zm38.18 0 0 4.01-3.57 0 0 2.1 6.2 0c-0.12 2.62-2.44 5.35-2.44 5.35-1.89 2.4-4.33 4.14-4.33 4.14l0 1.68c0 0 2-0.73 4.14-2.7l0 8.15 2.1 0 0-8.52c0.9 0.62 2.3 1.63 3.54 2.68l0-2.54c0 0-0.75-0.94-3.22-2.47 0.81-1.19 2.67-4.32 2.75-7.88l-0.06 0.05 0.02-0.05-3.04 0 0-4.01-2.1 0zm10.95 0 0 5.92-4.97 0 0 2.1 4.97 0 0 12.36-6.24 0 0 2.1 14.27 0 0-2.1-5.92 0 0-12.36 5.29 0 0-2.1-5.29 0 0-5.92-2.1 0zm-44.35 0.01 0 2.15 2.1 0 0-2.15-2.1 0zm15.12 0.02c-3.21 4.82-9.51 5.67-9.51 5.67l0 2.08c6.88-0.85 10.45-5.48 10.45-5.48 0 0 3.56 4.63 10.45 5.48l0-2.08c0 0-6.31-0.85-9.52-5.67l-0.93 0-0.94 0zM22.74 18.69c-0.43 0-0.78 0.35-0.78 0.78l0 0.89-4.57 0c-0.78 0-0.79 0.78-0.79 0.78l0 1.21 0 0c0 0.43 0.35 0.78 0.78 0.78l0.38 0c0.43 0 0.78-0.35 0.78-0.78l0-0.52 8.74 0 0 0.5c0 0.43 0.35 0.78 0.77 0.78l0.38 0c0.43 0 0.78-0.35 0.78-0.78l0-1.2c0 0 0-0.77-0.78-0.77l-4.54 0 0-0.89c0-0.43-0.35-0.78-0.78-0.78l-0.38 0zm38.37 0.5 6.88 0 0 2.18-6.88 0 0-2.18zm8.96 0 6.88 0 0 2.18-6.88 0 0-2.18zm13.99 0 0 2.08 8.94 0 0 3.72-8.3 0 0 2.08 8.3 0 0 4.22-9.45 0 0 2.08 20.99 0 0-2.08-9.46 0 0-4.22 8.32 0 0-2.08-8.32 0 0-3.72 8.95 0 0-2.08-19.97 0zm77.62 0 0 2.1 14.01 0 0-2.1-14.01 0zm-26.11 1.85 0 2.1 4.27 0 0 7.7c-2.77 0.49-5.04 0.64-5.04 0.64l0 2.05c6.39-0.12 13-2.56 13-2.56l0-2.27c-1.54 0.71-3.72 1.29-5.86 1.74l0-7.3 4.4 0 0-2.1-10.77 0zm-74.46 2.41 6.88 0 0 2.15-6.88 0 0-2.15zm8.96 0 6.88 0 0 2.15-6.88 0 0-2.15zm-52.68 0.04c-0.43 0-0.78 0.33-0.78 0.73 0 0.41 0.35 0.74 0.78 0.74l4.57 0 0 1.12-4.57 0c-0.43 0-0.78 0.33-0.78 0.73 0 0.41 0.35 0.74 0.78 0.74l4.57 0 0 1.62-4.67 0c-0.42 0-0.77 0.33-0.77 0.74 0 0.41 0.35 0.74 0.77 0.74l11.26 0c0.42 0 0.78-0.33 0.78-0.74 0-0.4-0.35-0.74-0.78-0.74l-1 0 0-1.62 0.89 0c0.43 0 0.78-0.33 0.78-0.74 0-0.41-0.35-0.73-0.78-0.73l-4.54 0 0-1.12 4.54 0c0.43 0 0.78-0.34 0.78-0.74 0-0.41-0.35-0.73-0.78-0.73l-11.05 0zm140.79 0.8 0 2.1 4.89 0c-1.23 3.24-2.26 4.5-2.26 4.5-0.38 0.53-1.04 0.89-1.21 0.97l-0.08 0 0 2.1 17.71 0c0.97-0.14 0.63-1.02 0.63-1.02l-3.18-5.2-2.4 0 2.26 4.12-11.77 0c1.15-2.11 2.43-4.63 2.77-5.47l13.6 0 0-2.1-20.96 0zm-134.28 3.27 1.79 0 0 1.62-1.79 0 0-1.62zm75.92 0.65 0 1.93 2.1 0 0-1.93-2.1 0z" fill="#231f20"/></svg>