<?xml version="1.0" encoding="UTF-8" standalone="no"?>
<!-- Created with Inkscape (http://www.inkscape.org/) -->
<svg id="svg2" xmlns:rdf="http://www.w3.org/1999/02/22-rdf-syntax-ns#" xmlns="http://www.w3.org/2000/svg" xml:space="preserve" height="131.1475" viewBox="0 0 580.30493 131.14751" width="580.3049" version="1.1" xmlns:cc="http://creativecommons.org/ns#" xmlns:dc="http://purl.org/dc/elements/1.1/"><metadata id="metadata8"><rdf:RDF><cc:Work rdf:about=""><dc:format>image/svg+xml</dc:format><dc:type rdf:resource="http://purl.org/dc/dcmitype/StillImage"/><dc:title/></cc:Work></rdf:RDF></metadata><defs id="defs6"><clipPath id="clipPath216" clipPathUnits="userSpaceOnUse"><path id="path218" d="m0 841.89h595.276v-841.89h-595.276v841.89z"/></clipPath><linearGradient id="linearGradient256" gradientUnits="userSpaceOnUse" gradientTransform="matrix(0 -18.92757 -18.92757 0 366.7441 416.4824)"><stop id="stop258" stop-color="#ed1c24" offset="0"/><stop id="stop260" stop-color="#fddd04" offset="1"/></linearGradient><clipPath id="clipPath268" clipPathUnits="userSpaceOnUse"><path id="path270" d="m0 841.89h595.276v-841.89h-595.276v841.89z"/></clipPath><linearGradient id="linearGradient308" gradientUnits="userSpaceOnUse" gradientTransform="matrix(0 -37.22707 -37.22707 0 143.2031 434.7671)"><stop id="stop310" stop-color="#1c63b7" offset="0"/><stop id="stop312" stop-color="#4cbbee" offset=".5"/><stop id="stop314" stop-color="#1c63b7" offset="1"/></linearGradient></defs><g id="g10" transform="matrix(1.25 0 0 -1.25 -44.31388 578.0579)"><g id="g212"><g id="g214" clip-path="url(#clipPath216)"><g id="g220" transform="translate(421.2266,408.1328)"><path id="path222" d="m0 0c6.811 2.409 11.453 7.951 11.375 9.316 0 0.563-0.386 1.044-0.928 0.884-3.869-1.045-8.358-4.9-10.447-10.2m20.935-3.452c-4.684-5.864-13.197-13.415-20.858-13.415-5.649 0-8.28 5.221-8.434 10.522-4.726-4.291-12.335-11.646-18.42-11.646-3.018 0-4.875 2.168-4.875 5.382 0 2.149 0.661 4.563 1.448 6.64-3.782-3.01-12.715-10.415-16.845-10.415-2.32 0-3.559 2.088-3.559 4.256 0 5.061 5.339 11.164 8.126 14.94-13.388-9.238-17.258-17.751-19.734-17.751-2.709 0-3.095 6.264-3.095 8.112l0.011 0.709-14.554-11.311c-8.125-13.412-14.935-18.552-17.953-18.552-1.084 0-1.779 0.883-1.779 1.927 0 5.783 11.762 15.903 16.019 19.115l5.416 11.003c-2.941-3.052-11.067-10.36-15.323-10.36-3.887 0-5.47 4.72-5.755 8.242-3.646-4.431-9.947-10.732-15.438-10.732-4.564 0-6.655 5.461-6.655 9.557 0 9.798 9.674 19.356 14.316 19.356 1.316 0 3.406-0.481 3.406-2.248 0-4.017-7.662-11.165-10.912-13.493-0.619-3.293 0.542-5.061 4.102-5.061 4.101 0 11.368 5.939 11.368 5.939 2.058 9.504 17.05 16.91 22.594 17.433 1.083 0.081 4.1-0.241 4.1-2.007 0-1.446-1.547-2.57-2.552-3.293l-8.823-4.98c-4.953-2.57-10.601-4.98-9.905-10.843 0.077-0.641 0.542-0.803 1.237-0.803 2.167-0.241 6.657 1.928 9.829 4.98l8.281 9.477c0.696 0.883 1.702 2.249 2.94 2.249 1.548 0 2.942-2.731 2.942-4.096 0-1.204-1.084-3.052-1.626-4.096l-5.805-11.244 11.084 7.973c0.781 3.219 2.307 6.008 4.155 9.134 9.132 15.661 23.354 27.361 25.985 27.361 1.239 0 3.329-0.562 3.329-2.168 0-5.462-23.432-29.611-28.385-34.671v-3.131c3.792 3.131 17.877 15.982 22.133 15.982 1.857 0 3.715-2.007 3.715-3.856 0-1.525-3.097-5.059-4.025-6.184-4.798-6.023-4.566-6.264-4.566-7.067 0-1.044 0.774-1.686 1.703-1.686 1.478 0 3.995 1.454 6.287 2.974 0 0 8.721 8.43 11.584 13.49-4.721 0-3.251 0.322-7.352-0.321l0.852 1.445c4.256 6.988 4.798 8.353 13.079 8.674 2.321 3.293 4.023 7.068 8.512 7.068 1.005 0 2.476-0.24 2.476-1.526 0-1.446-2.245-4.095-3.018-5.22l4.798-0.401c-3.637-7.631-4.256-10.602-12.768-10.04-2.633-3.534-7.043-10.12-7.043-14.938 0-1.768 0.542-2.812 2.321-2.812 2.468 0 5.243 2.392 13.224 8.289 2.453 8.776 11.826 16.517 20.363 16.448 2.477 0 5.574-0.642 5.574-3.855 0-3.936-3.793-9.879-18.652-14.939l-0.154-1.766c-0.155-3.052 2.321-4.096 4.799-4.096 4.424 0 9.502 3.803 13.453 7.045 1.172 1.245 2.21 2.607 3.18 4.038-1.625 0.161-2.088 0.803-2.088 2.489 0 5.784 7.893 11.566 9.75 11.566 0.774 0 1.393-0.643 1.393-1.365 0-0.803-0.231-1.526-0.542-2.249 7.276 1.044 11.53 2.008 12.305 1.044 1.161-1.526 1.702-2.812 1.856-4.256 0-2.491-1.469-3.696-3.249-5.221-2.245-2.008-6.037-5.944-6.037-9.156 0-1.285 1.239-2.249 2.401-2.249 3.327 0 24.148 17.925 26.701 19.932l0.542-2.971c-2.941-3.454-27.786-25.073-32.198-25.073-3.249 0-5.261 3.133-5.261 6.184 0 5.461 4.024 9.719 7.119 13.574l-8.202-1.687c-1.342-2.188-2.817-3.805-4.368-5.299m-123.761 17.186c-1.858 0-3.096 1.526-3.096 3.454 0 3.292 3.714 6.184 6.733 6.184 1.393 0 2.553-1.045 2.553-2.491 0-3.212-2.863-7.147-6.19-7.147m-28.686-15.581-13.233-14.458c-2.709-2.811-12.073-11.805-15.632-11.805-1.084 0-1.857 0.882-1.857 2.007 0 2.249 3.327 6.345 4.72 8.032 2.477 2.731 4.643 4.096 8.047 5.059l9.055 9.96-11.53-0.965c-0.541 0-3.792-0.079-3.947 1.045-0.309 2.248 0 4.176 2.012 5.541 2.398 1.608 7.584 3.053 10.447 3.856l11.84 2.329c2.554 3.534 8.822 14.618 8.822 18.553 0 1.606-1.161 1.526-2.476 1.526-0.154 0-0.542 0.322-6.423-0.643-8.899-1.525-21.822-7.629-21.822-7.629 0.541 0 1.469 0.08 1.469-0.724 0-0.963-1.702-1.204-2.321-1.365l-8.977-2.891c-5.262-1.767-5.959-0.723-5.959 0.723 0 2.329 4.488 10.28 5.959 12.288 3.095 3.856 7.197 4.658 11.685 5.863 20.276 4.658 26.079 5.06 30.646 5.06 2.786 0 7.97-0.321 7.97-4.257 0-5.943-8.667-21.684-12.149-26.986l5.185-0.883-3.096-5.14c-0.542-1.045-1.083-2.089-2.089-2.57-1.703-0.804-4.566-1.125-6.346-1.526" fill="#fff"/></g><g id="g224" transform="translate(421.2266,408.1328)"><path id="path226" stroke-linejoin="round" d="m0 0c6.811 2.409 11.453 7.951 11.375 9.316 0 0.563-0.386 1.044-0.928 0.884-3.869-1.045-8.358-4.9-10.447-10.2zm20.935-3.452c-4.684-5.864-13.197-13.415-20.858-13.415-5.649 0-8.28 5.221-8.434 10.522-4.726-4.291-12.335-11.646-18.42-11.646-3.018 0-4.875 2.168-4.875 5.382 0 2.149 0.661 4.563 1.448 6.64-3.782-3.01-12.715-10.415-16.845-10.415-2.32 0-3.559 2.088-3.559 4.256 0 5.061 5.339 11.164 8.126 14.94-13.388-9.238-17.258-17.751-19.734-17.751-2.709 0-3.095 6.264-3.095 8.112l0.011 0.709-14.554-11.311c-8.125-13.412-14.935-18.552-17.953-18.552-1.084 0-1.779 0.883-1.779 1.927 0 5.783 11.762 15.903 16.019 19.115l5.416 11.003c-2.941-3.052-11.067-10.36-15.323-10.36-3.887 0-5.47 4.72-5.755 8.242-3.646-4.431-9.947-10.732-15.438-10.732-4.564 0-6.655 5.461-6.655 9.557 0 9.798 9.674 19.356 14.316 19.356 1.316 0 3.406-0.481 3.406-2.248 0-4.017-7.662-11.165-10.912-13.493-0.619-3.293 0.542-5.061 4.102-5.061 4.101 0 11.368 5.939 11.368 5.939 2.058 9.504 17.05 16.91 22.594 17.433 1.083 0.081 4.1-0.241 4.1-2.007 0-1.446-1.547-2.57-2.552-3.293l-8.823-4.98c-4.953-2.57-10.601-4.98-9.905-10.843 0.077-0.641 0.542-0.803 1.237-0.803 2.167-0.241 6.657 1.928 9.829 4.98l8.281 9.477c0.696 0.883 1.702 2.249 2.94 2.249 1.548 0 2.942-2.731 2.942-4.096 0-1.204-1.084-3.052-1.626-4.096l-5.805-11.244 11.084 7.973c0.781 3.219 2.307 6.008 4.155 9.134 9.132 15.661 23.354 27.361 25.985 27.361 1.239 0 3.329-0.562 3.329-2.168 0-5.462-23.432-29.611-28.385-34.671v-3.131c3.792 3.131 17.877 15.982 22.133 15.982 1.857 0 3.715-2.007 3.715-3.856 0-1.525-3.097-5.059-4.025-6.184-4.798-6.023-4.566-6.264-4.566-7.067 0-1.044 0.774-1.686 1.703-1.686 1.478 0 3.995 1.454 6.287 2.974 0 0 8.721 8.43 11.584 13.49-4.721 0-3.251 0.322-7.352-0.321l0.852 1.445c4.256 6.988 4.798 8.353 13.079 8.674 2.321 3.293 4.023 7.068 8.512 7.068 1.005 0 2.476-0.24 2.476-1.526 0-1.446-2.245-4.095-3.018-5.22l4.798-0.401c-3.637-7.631-4.256-10.602-12.768-10.04-2.633-3.534-7.043-10.12-7.043-14.938 0-1.768 0.542-2.812 2.321-2.812 2.468 0 5.243 2.392 13.224 8.289 2.453 8.776 11.826 16.517 20.363 16.448 2.477 0 5.574-0.642 5.574-3.855 0-3.936-3.793-9.879-18.652-14.939l-0.154-1.766c-0.155-3.052 2.321-4.096 4.799-4.096 4.424 0 9.502 3.803 13.453 7.045 1.172 1.245 2.21 2.607 3.18 4.038-1.625 0.161-2.088 0.803-2.088 2.489 0 5.784 7.893 11.566 9.75 11.566 0.774 0 1.393-0.643 1.393-1.365 0-0.803-0.231-1.526-0.542-2.249 7.276 1.044 11.53 2.008 12.305 1.044 1.161-1.526 1.702-2.812 1.856-4.256 0-2.491-1.469-3.696-3.249-5.221-2.245-2.008-6.037-5.944-6.037-9.156 0-1.285 1.239-2.249 2.401-2.249 3.327 0 24.148 17.925 26.701 19.932l0.542-2.971c-2.941-3.454-27.786-25.073-32.198-25.073-3.249 0-5.261 3.133-5.261 6.184 0 5.461 4.024 9.719 7.119 13.574l-8.202-1.687c-1.342-2.188-2.817-3.805-4.368-5.299zm-123.761 17.186c-1.858 0-3.096 1.526-3.096 3.454 0 3.292 3.714 6.184 6.733 6.184 1.393 0 2.553-1.045 2.553-2.491 0-3.212-2.863-7.147-6.19-7.147zm-28.686-15.581-13.233-14.458c-2.709-2.811-12.073-11.805-15.632-11.805-1.084 0-1.857 0.882-1.857 2.007 0 2.249 3.327 6.345 4.72 8.032 2.477 2.731 4.643 4.096 8.047 5.059l9.055 9.96-11.53-0.965c-0.541 0-3.792-0.079-3.947 1.045-0.309 2.248 0 4.176 2.012 5.541 2.398 1.608 7.584 3.053 10.447 3.856l11.84 2.329c2.554 3.534 8.822 14.618 8.822 18.553 0 1.606-1.161 1.526-2.476 1.526-0.154 0-0.542 0.322-6.423-0.643-8.899-1.525-21.822-7.629-21.822-7.629 0.541 0 1.469 0.08 1.469-0.724 0-0.963-1.702-1.204-2.321-1.365l-8.977-2.891c-5.262-1.767-5.959-0.723-5.959 0.723 0 2.329 4.488 10.28 5.959 12.288 3.095 3.856 7.197 4.658 11.685 5.863 20.276 4.658 26.079 5.06 30.646 5.06 2.786 0 7.97-0.321 7.97-4.257 0-5.943-8.667-21.684-12.149-26.986l5.185-0.883-3.096-5.14c-0.542-1.045-1.083-2.089-2.089-2.57-1.703-0.804-4.566-1.125-6.346-1.526z" stroke="#fff" stroke-miterlimit="3.864" stroke-width="13.247" fill="none"/></g><g id="g228" transform="translate(420.0488,408.7217)"><path id="path230" d="m0 0c6.811 2.409 11.453 7.951 11.375 9.316 0 0.563-0.386 1.044-0.928 0.883-3.869-1.044-8.357-4.899-10.447-10.199m20.936-3.452c-4.685-5.864-13.198-13.415-20.859-13.415-5.649 0-8.28 5.221-8.434 10.522-4.726-4.291-12.335-11.645-18.42-11.645-3.018 0-4.875 2.168-4.875 5.381 0 2.149 0.662 4.562 1.448 6.64-3.782-3.01-12.715-10.416-16.844-10.416-2.321 0-3.56 2.089-3.56 4.257 0 5.06 5.339 11.165 8.126 14.939-13.388-9.237-17.257-17.75-19.734-17.75-2.709 0-3.095 6.265-3.095 8.111l0.011 0.71-14.554-11.31c-8.125-13.414-14.935-18.553-17.953-18.553-1.084 0-1.779 0.883-1.779 1.927 0 5.783 11.762 15.903 16.019 19.115l5.417 11.003c-2.941-3.052-11.068-10.36-15.323-10.36-3.888 0-5.471 4.72-5.756 8.242-3.646-4.432-9.946-10.732-15.437-10.732-4.565 0-6.655 5.461-6.655 9.557 0 9.798 9.673 19.356 14.315 19.356 1.317 0 3.406-0.481 3.406-2.248 0-4.017-7.661-11.165-10.912-13.493-0.619-3.293 0.542-5.06 4.102-5.06 4.101 0 11.368 5.938 11.368 5.938 2.058 9.504 17.05 16.91 22.594 17.433 1.083 0.081 4.1-0.241 4.1-2.007 0-1.446-1.547-2.57-2.552-3.294l-8.822-4.98c-4.954-2.569-10.602-4.979-9.906-10.842 0.077-0.642 0.542-0.803 1.237-0.803 2.167-0.241 6.657 1.928 9.829 4.98l8.281 9.477c0.696 0.883 1.703 2.249 2.94 2.249 1.548 0 2.942-2.731 2.942-4.096 0-1.205-1.084-3.051-1.626-4.096l-5.804-11.244 11.084 7.973c0.781 3.218 2.306 6.007 4.154 9.134 9.132 15.661 23.355 27.361 25.986 27.361 1.238 0 3.328-0.562 3.328-2.168 0-5.462-23.432-29.611-28.385-34.671v-3.131c3.792 3.131 17.877 15.982 22.133 15.982 1.857 0 3.715-2.007 3.715-3.856 0-1.525-3.096-5.059-4.025-6.184-4.798-6.023-4.566-6.264-4.566-7.067 0-1.045 0.774-1.686 1.703-1.686 1.478 0 3.995 1.454 6.287 2.974 0 0 8.721 8.431 11.585 13.49-4.722 0-3.252 0.322-7.353-0.321l0.852 1.445c4.256 6.988 4.798 8.353 13.079 8.674 2.321 3.293 4.023 7.068 8.512 7.068 1.006 0 2.476-0.241 2.476-1.526 0-1.446-2.244-4.095-3.017-5.22l4.797-0.401c-3.637-7.63-4.256-10.602-12.768-10.04-2.633-3.534-7.043-10.12-7.043-14.939 0-1.767 0.542-2.811 2.322-2.811 2.467 0 5.242 2.392 13.223 8.289 2.453 8.776 11.826 16.517 20.364 16.448 2.476 0 5.573-0.642 5.573-3.856 0-3.935-3.793-9.879-18.652-14.938l-0.154-1.767c-0.155-3.051 2.321-4.096 4.799-4.096 4.424 0 9.502 3.804 13.453 7.046 1.173 1.245 2.211 2.607 3.18 4.038-1.624 0.16-2.088 0.803-2.088 2.489 0 5.784 7.893 11.565 9.75 11.565 0.775 0 1.393-0.642 1.393-1.365 0-0.802-0.231-1.526-0.542-2.248 7.276 1.044 11.531 2.008 12.305 1.044 1.161-1.526 1.702-2.812 1.857-4.256 0-2.491-1.47-3.696-3.25-5.221-2.245-2.008-6.037-5.943-6.037-9.156 0-1.285 1.239-2.248 2.401-2.248 3.327 0 24.148 17.924 26.701 19.931l0.542-2.972c-2.941-3.453-27.786-25.072-32.198-25.072-3.249 0-5.261 3.132-5.261 6.185 0 5.461 4.024 9.718 7.119 13.573l-8.202-1.687c-1.342-2.189-2.817-3.805-4.367-5.299m-123.762 17.186c-1.858 0-3.096 1.526-3.096 3.454 0 3.292 3.714 6.184 6.733 6.184 1.393 0 2.553-1.045 2.553-2.491 0-3.212-2.863-7.147-6.19-7.147m-28.686-15.582-13.233-14.457c-2.709-2.81-12.073-11.806-15.632-11.806-1.084 0-1.857 0.883-1.857 2.008 0 2.249 3.327 6.345 4.72 8.031 2.477 2.732 4.644 4.097 8.048 5.06l9.054 9.96-11.53-0.964c-0.541 0-3.792-0.08-3.947 1.043-0.309 2.25 0 4.178 2.012 5.542 2.398 1.607 7.584 3.054 10.447 3.857l11.84 2.328c2.555 3.534 8.822 14.618 8.822 18.553 0 1.606-1.161 1.526-2.476 1.526-0.154 0-0.542 0.322-6.422-0.643-8.9-1.525-21.823-7.63-21.823-7.63 0.541 0 1.469 0.081 1.469-0.723 0-0.963-1.702-1.205-2.321-1.365l-8.977-2.891c-5.262-1.768-5.959-0.723-5.959 0.723 0 2.328 4.489 10.279 5.959 12.288 3.095 3.856 7.197 4.658 11.685 5.863 20.276 4.658 26.079 5.06 30.646 5.06 2.786 0 7.97-0.321 7.97-4.257 0-5.943-8.667-21.685-12.149-26.987l5.185-0.882-3.096-5.141c-0.542-1.043-1.083-2.088-2.089-2.569-1.703-0.804-4.566-1.125-6.346-1.527" fill="#231f20"/></g><g id="g232" transform="translate(420.0488,408.7217)"><path id="path234" stroke-linejoin="round" d="m0 0c6.811 2.409 11.453 7.951 11.375 9.316 0 0.563-0.386 1.044-0.928 0.883-3.869-1.044-8.357-4.899-10.447-10.199zm20.936-3.452c-4.685-5.864-13.198-13.415-20.859-13.415-5.649 0-8.28 5.221-8.434 10.522-4.726-4.291-12.335-11.645-18.42-11.645-3.018 0-4.875 2.168-4.875 5.381 0 2.149 0.662 4.562 1.448 6.64-3.782-3.01-12.715-10.416-16.844-10.416-2.321 0-3.56 2.089-3.56 4.257 0 5.06 5.339 11.165 8.126 14.939-13.388-9.237-17.257-17.75-19.734-17.75-2.709 0-3.095 6.265-3.095 8.111l0.011 0.71-14.554-11.31c-8.125-13.414-14.935-18.553-17.953-18.553-1.084 0-1.779 0.883-1.779 1.927 0 5.783 11.762 15.903 16.019 19.115l5.417 11.003c-2.941-3.052-11.068-10.36-15.323-10.36-3.888 0-5.471 4.72-5.756 8.242-3.646-4.432-9.946-10.732-15.437-10.732-4.565 0-6.655 5.461-6.655 9.557 0 9.798 9.673 19.356 14.315 19.356 1.317 0 3.406-0.481 3.406-2.248 0-4.017-7.661-11.165-10.912-13.493-0.619-3.293 0.542-5.06 4.102-5.06 4.101 0 11.368 5.938 11.368 5.938 2.058 9.504 17.05 16.91 22.594 17.433 1.083 0.081 4.1-0.241 4.1-2.007 0-1.446-1.547-2.57-2.552-3.294l-8.822-4.98c-4.954-2.569-10.602-4.979-9.906-10.842 0.077-0.642 0.542-0.803 1.237-0.803 2.167-0.241 6.657 1.928 9.829 4.98l8.281 9.477c0.696 0.883 1.703 2.249 2.94 2.249 1.548 0 2.942-2.731 2.942-4.096 0-1.205-1.084-3.051-1.626-4.096l-5.804-11.244 11.084 7.973c0.781 3.218 2.306 6.007 4.154 9.134 9.132 15.661 23.355 27.361 25.986 27.361 1.238 0 3.328-0.562 3.328-2.168 0-5.462-23.432-29.611-28.385-34.671v-3.131c3.792 3.131 17.877 15.982 22.133 15.982 1.857 0 3.715-2.007 3.715-3.856 0-1.525-3.096-5.059-4.025-6.184-4.798-6.023-4.566-6.264-4.566-7.067 0-1.045 0.774-1.686 1.703-1.686 1.478 0 3.995 1.454 6.287 2.974 0 0 8.721 8.431 11.585 13.49-4.722 0-3.252 0.322-7.353-0.321l0.852 1.445c4.256 6.988 4.798 8.353 13.079 8.674 2.321 3.293 4.023 7.068 8.512 7.068 1.006 0 2.476-0.241 2.476-1.526 0-1.446-2.244-4.095-3.017-5.22l4.797-0.401c-3.637-7.63-4.256-10.602-12.768-10.04-2.633-3.534-7.043-10.12-7.043-14.939 0-1.767 0.542-2.811 2.322-2.811 2.467 0 5.242 2.392 13.223 8.289 2.453 8.776 11.826 16.517 20.364 16.448 2.476 0 5.573-0.642 5.573-3.856 0-3.935-3.793-9.879-18.652-14.938l-0.154-1.767c-0.155-3.051 2.321-4.096 4.799-4.096 4.424 0 9.502 3.804 13.453 7.046 1.173 1.245 2.211 2.607 3.18 4.038-1.624 0.16-2.088 0.803-2.088 2.489 0 5.784 7.893 11.565 9.75 11.565 0.775 0 1.393-0.642 1.393-1.365 0-0.802-0.231-1.526-0.542-2.248 7.276 1.044 11.531 2.008 12.305 1.044 1.161-1.526 1.702-2.812 1.857-4.256 0-2.491-1.47-3.696-3.25-5.221-2.245-2.008-6.037-5.943-6.037-9.156 0-1.285 1.239-2.248 2.401-2.248 3.327 0 24.148 17.924 26.701 19.931l0.542-2.972c-2.941-3.453-27.786-25.072-32.198-25.072-3.249 0-5.261 3.132-5.261 6.185 0 5.461 4.024 9.718 7.119 13.573l-8.202-1.687c-1.342-2.189-2.817-3.805-4.367-5.299zm-123.762 17.186c-1.858 0-3.096 1.526-3.096 3.454 0 3.292 3.714 6.184 6.733 6.184 1.393 0 2.553-1.045 2.553-2.491 0-3.212-2.863-7.147-6.19-7.147zm-28.686-15.582-13.233-14.457c-2.709-2.81-12.073-11.806-15.632-11.806-1.084 0-1.857 0.883-1.857 2.008 0 2.249 3.327 6.345 4.72 8.031 2.477 2.732 4.644 4.097 8.048 5.06l9.054 9.96-11.53-0.964c-0.541 0-3.792-0.08-3.947 1.043-0.309 2.25 0 4.178 2.012 5.542 2.398 1.607 7.584 3.054 10.447 3.857l11.84 2.328c2.555 3.534 8.822 14.618 8.822 18.553 0 1.606-1.161 1.526-2.476 1.526-0.154 0-0.542 0.322-6.422-0.643-8.9-1.525-21.823-7.63-21.823-7.63 0.541 0 1.469 0.081 1.469-0.723 0-0.963-1.702-1.205-2.321-1.365l-8.977-2.891c-5.262-1.768-5.959-0.723-5.959 0.723 0 2.328 4.489 10.279 5.959 12.288 3.095 3.856 7.197 4.658 11.685 5.863 20.276 4.658 26.079 5.06 30.646 5.06 2.786 0 7.97-0.321 7.97-4.257 0-5.943-8.667-21.685-12.149-26.987l5.185-0.882-3.096-5.141c-0.542-1.043-1.083-2.088-2.089-2.569-1.703-0.804-4.566-1.125-6.346-1.527z" stroke="#231f20" stroke-miterlimit="3.864" stroke-width="8.831" fill="none"/></g><g id="g236" transform="translate(419.4609,409.8994)"><path id="path238" d="m0 0c6.81 2.409 11.452 7.951 11.375 9.316 0 0.563-0.387 1.044-0.929 0.884-3.87-1.045-8.358-4.9-10.446-10.2m20.934-3.452c-4.684-5.864-13.197-13.415-20.858-13.415-5.648 0-8.279 5.221-8.434 10.522-4.726-4.292-12.335-11.645-18.419-11.645-3.019 0-4.876 2.167-4.876 5.381 0 2.149 0.661 4.562 1.448 6.64-3.781-3.01-12.715-10.416-16.844-10.416-2.321 0-3.56 2.089-3.56 4.257 0 5.06 5.339 11.164 8.127 14.939-13.389-9.237-17.258-17.75-19.735-17.75-2.709 0-3.095 6.264-3.095 8.111l0.011 0.71-14.553-11.311c-8.125-13.413-14.935-18.552-17.954-18.552-1.084 0-1.779 0.883-1.779 1.927 0 5.783 11.762 15.903 16.019 19.115l5.417 11.003c-2.941-3.052-11.068-10.36-15.324-10.36-3.887 0-5.47 4.72-5.754 8.241-3.647-4.431-9.947-10.731-15.439-10.731-4.564 0-6.654 5.461-6.654 9.557 0 9.798 9.673 19.356 14.316 19.356 1.316 0 3.405-0.481 3.405-2.248 0-4.017-7.661-11.165-10.912-13.493-0.619-3.293 0.542-5.061 4.103-5.061 4.1 0 11.367 5.939 11.367 5.939 2.059 9.504 17.05 16.91 22.594 17.433 1.083 0.081 4.101-0.241 4.101-2.007 0-1.446-1.547-2.57-2.553-3.294l-8.822-4.98c-4.954-2.569-10.602-4.979-9.906-10.842 0.077-0.642 0.542-0.803 1.237-0.803 2.167-0.241 6.657 1.928 9.829 4.98l8.281 9.477c0.696 0.883 1.703 2.249 2.94 2.249 1.548 0 2.942-2.731 2.942-4.096 0-1.205-1.084-3.052-1.626-4.096l-5.804-11.244 11.084 7.973c0.781 3.218 2.306 6.007 4.154 9.134 9.133 15.661 23.354 27.361 25.985 27.361 1.239 0 3.329-0.562 3.329-2.168 0-5.462-23.432-29.611-28.384-34.671v-3.131c3.791 3.131 17.876 15.982 22.132 15.982 1.857 0 3.715-2.007 3.715-3.856 0-1.525-3.097-5.059-4.025-6.184-4.798-6.023-4.566-6.264-4.566-7.067 0-1.045 0.775-1.686 1.703-1.686 1.478 0 3.995 1.454 6.287 2.974 0 0 8.721 8.43 11.584 13.49-4.721 0-3.25 0.322-7.352-0.321l0.852 1.445c4.256 6.988 4.798 8.353 13.079 8.674 2.321 3.293 4.023 7.068 8.513 7.068 1.004 0 2.475-0.241 2.475-1.526 0-1.446-2.245-4.095-3.018-5.22l4.799-0.401c-3.638-7.631-4.256-10.602-12.769-10.04-2.632-3.534-7.043-10.12-7.043-14.939 0-1.767 0.542-2.811 2.321-2.811 2.468 0 5.243 2.392 13.224 8.289 2.452 8.776 11.826 16.516 20.364 16.447 2.477 0 5.573-0.641 5.573-3.855 0-3.935-3.793-9.879-18.652-14.938l-0.154-1.767c-0.155-3.051 2.321-4.096 4.799-4.096 4.425 0 9.503 3.804 13.454 7.045 1.172 1.246 2.209 2.608 3.18 4.039-1.625 0.16-2.089 0.803-2.089 2.489 0 5.784 7.893 11.565 9.75 11.565 0.774 0 1.393-0.642 1.393-1.365 0-0.803-0.231-1.526-0.542-2.248 7.276 1.044 11.53 2.008 12.306 1.044 1.16-1.526 1.701-2.812 1.855-4.256 0-2.491-1.469-3.696-3.249-5.221-2.245-2.008-6.036-5.944-6.036-9.156 0-1.285 1.238-2.249 2.4-2.249 3.327 0 24.148 17.925 26.702 19.931l0.541-2.971c-2.94-3.453-27.785-25.072-32.198-25.072-3.249 0-5.261 3.132-5.261 6.184 0 5.461 4.024 9.719 7.119 13.574l-8.201-1.687c-1.343-2.189-2.818-3.805-4.369-5.299m-123.761 17.186c-1.858 0-3.095 1.526-3.095 3.454 0 3.292 3.713 6.183 6.732 6.183 1.393 0 2.553-1.044 2.553-2.49 0-3.212-2.863-7.147-6.19-7.147m-28.686-15.582-13.233-14.457c-2.709-2.811-12.072-11.806-15.632-11.806-1.084 0-1.857 0.883-1.857 2.008 0 2.249 3.327 6.345 4.72 8.031 2.477 2.732 4.644 4.097 8.048 5.06l9.055 9.96-11.531-0.965c-0.541 0-3.791-0.079-3.947 1.044-0.309 2.249 0 4.177 2.013 5.542 2.398 1.607 7.583 3.053 10.446 3.856l11.84 2.329c2.555 3.534 8.822 14.617 8.822 18.553 0 1.606-1.161 1.525-2.476 1.525-0.154 0-0.542 0.322-6.422-0.642-8.9-1.526-21.823-7.63-21.823-7.63 0.541 0 1.47 0.081 1.47-0.723 0-0.963-1.703-1.205-2.322-1.365l-8.977-2.891c-5.262-1.768-5.958-0.724-5.958 0.723 0 2.328 4.488 10.279 5.958 12.288 3.096 3.855 7.197 4.658 11.685 5.863 20.276 4.658 26.079 5.06 30.646 5.06 2.786 0 7.97-0.321 7.97-4.257 0-5.943-8.667-21.685-12.149-26.987l5.185-0.882-3.096-5.141c-0.542-1.044-1.083-2.088-2.089-2.569-1.703-0.804-4.566-1.125-6.346-1.527" fill="#fff"/></g><g id="g240" transform="translate(419.4609,409.8994)"><path id="path242" stroke-linejoin="round" d="m0 0c6.81 2.409 11.452 7.951 11.375 9.316 0 0.563-0.387 1.044-0.929 0.884-3.87-1.045-8.358-4.9-10.446-10.2zm20.934-3.452c-4.684-5.864-13.197-13.415-20.858-13.415-5.648 0-8.279 5.221-8.434 10.522-4.726-4.292-12.335-11.645-18.419-11.645-3.019 0-4.876 2.167-4.876 5.381 0 2.149 0.661 4.562 1.448 6.64-3.781-3.01-12.715-10.416-16.844-10.416-2.321 0-3.56 2.089-3.56 4.257 0 5.06 5.339 11.164 8.127 14.939-13.389-9.237-17.258-17.75-19.735-17.75-2.709 0-3.095 6.264-3.095 8.111l0.011 0.71-14.553-11.311c-8.125-13.413-14.935-18.552-17.954-18.552-1.084 0-1.779 0.883-1.779 1.927 0 5.783 11.762 15.903 16.019 19.115l5.417 11.003c-2.941-3.052-11.068-10.36-15.324-10.36-3.887 0-5.47 4.72-5.754 8.241-3.647-4.431-9.947-10.731-15.439-10.731-4.564 0-6.654 5.461-6.654 9.557 0 9.798 9.673 19.356 14.316 19.356 1.316 0 3.405-0.481 3.405-2.248 0-4.017-7.661-11.165-10.912-13.493-0.619-3.293 0.542-5.061 4.103-5.061 4.1 0 11.367 5.939 11.367 5.939 2.059 9.504 17.05 16.91 22.594 17.433 1.083 0.081 4.101-0.241 4.101-2.007 0-1.446-1.547-2.57-2.553-3.294l-8.822-4.98c-4.954-2.569-10.602-4.979-9.906-10.842 0.077-0.642 0.542-0.803 1.237-0.803 2.167-0.241 6.657 1.928 9.829 4.98l8.281 9.477c0.696 0.883 1.703 2.249 2.94 2.249 1.548 0 2.942-2.731 2.942-4.096 0-1.205-1.084-3.052-1.626-4.096l-5.804-11.244 11.084 7.973c0.781 3.218 2.306 6.007 4.154 9.134 9.133 15.661 23.354 27.361 25.985 27.361 1.239 0 3.329-0.562 3.329-2.168 0-5.462-23.432-29.611-28.384-34.671v-3.131c3.791 3.131 17.876 15.982 22.132 15.982 1.857 0 3.715-2.007 3.715-3.856 0-1.525-3.097-5.059-4.025-6.184-4.798-6.023-4.566-6.264-4.566-7.067 0-1.045 0.775-1.686 1.703-1.686 1.478 0 3.995 1.454 6.287 2.974 0 0 8.721 8.43 11.584 13.49-4.721 0-3.25 0.322-7.352-0.321l0.852 1.445c4.256 6.988 4.798 8.353 13.079 8.674 2.321 3.293 4.023 7.068 8.513 7.068 1.004 0 2.475-0.241 2.475-1.526 0-1.446-2.245-4.095-3.018-5.22l4.799-0.401c-3.638-7.631-4.256-10.602-12.769-10.04-2.632-3.534-7.043-10.12-7.043-14.939 0-1.767 0.542-2.811 2.321-2.811 2.468 0 5.243 2.392 13.224 8.289 2.452 8.776 11.826 16.516 20.364 16.447 2.477 0 5.573-0.641 5.573-3.855 0-3.935-3.793-9.879-18.652-14.938l-0.154-1.767c-0.155-3.051 2.321-4.096 4.799-4.096 4.425 0 9.503 3.804 13.454 7.045 1.172 1.246 2.209 2.608 3.18 4.039-1.625 0.16-2.089 0.803-2.089 2.489 0 5.784 7.893 11.565 9.75 11.565 0.774 0 1.393-0.642 1.393-1.365 0-0.803-0.231-1.526-0.542-2.248 7.276 1.044 11.53 2.008 12.306 1.044 1.16-1.526 1.701-2.812 1.855-4.256 0-2.491-1.469-3.696-3.249-5.221-2.245-2.008-6.036-5.944-6.036-9.156 0-1.285 1.238-2.249 2.4-2.249 3.327 0 24.148 17.925 26.702 19.931l0.541-2.971c-2.94-3.453-27.785-25.072-32.198-25.072-3.249 0-5.261 3.132-5.261 6.184 0 5.461 4.024 9.719 7.119 13.574l-8.201-1.687c-1.343-2.189-2.818-3.805-4.369-5.299zm-123.761 17.186c-1.858 0-3.095 1.526-3.095 3.454 0 3.292 3.713 6.183 6.732 6.183 1.393 0 2.553-1.044 2.553-2.49 0-3.212-2.863-7.147-6.19-7.147zm-28.686-15.582-13.233-14.457c-2.709-2.811-12.072-11.806-15.632-11.806-1.084 0-1.857 0.883-1.857 2.008 0 2.249 3.327 6.345 4.72 8.031 2.477 2.732 4.644 4.097 8.048 5.06l9.055 9.96-11.531-0.965c-0.541 0-3.791-0.079-3.947 1.044-0.309 2.249 0 4.177 2.013 5.542 2.398 1.607 7.583 3.053 10.446 3.856l11.84 2.329c2.555 3.534 8.822 14.617 8.822 18.553 0 1.606-1.161 1.525-2.476 1.525-0.154 0-0.542 0.322-6.422-0.642-8.9-1.526-21.823-7.63-21.823-7.63 0.541 0 1.47 0.081 1.47-0.723 0-0.963-1.703-1.205-2.322-1.365l-8.977-2.891c-5.262-1.768-5.958-0.724-5.958 0.723 0 2.328 4.488 10.279 5.958 12.288 3.096 3.855 7.197 4.658 11.685 5.863 20.276 4.658 26.079 5.06 30.646 5.06 2.786 0 7.97-0.321 7.97-4.257 0-5.943-8.667-21.685-12.149-26.987l5.185-0.882-3.096-5.141c-0.542-1.044-1.083-2.088-2.089-2.569-1.703-0.804-4.566-1.125-6.346-1.527z" stroke="#fff" stroke-miterlimit="3.864" stroke-width="2.944" fill="none"/></g></g></g><g id="g244"><g id="g246"><g id="g252"><g id="g254"><path id="path262" fill="url(#linearGradient256)" d="m267.827 444.354c-4.488-1.205-8.588-2.008-11.685-5.863-1.47-2.008-5.958-9.96-5.958-12.288 0-1.446 0.696-2.49 5.958-0.723l8.977 2.891c0.619 0.16 2.322 0.402 2.322 1.365 0 0.804-0.929 0.723-1.47 0.723 0 0 12.923 6.105 21.823 7.63 5.88 0.964 6.267 0.642 6.421 0.642 1.316 0 2.477 0.081 2.477-1.525 0-3.935-6.267-15.019-8.822-18.553l-11.84-2.329c-2.863-0.802-8.049-2.248-10.446-3.855-2.013-1.365-2.322-3.293-2.013-5.542 0.156-1.123 3.406-1.044 3.947-1.044l11.531 0.965-9.055-9.961c-3.404-0.963-5.571-2.327-8.048-5.06-1.393-1.685-4.721-5.781-4.721-8.03 0-1.125 0.774-2.009 1.858-2.009 3.559 0 12.923 8.996 15.632 11.806l13.233 14.458c1.779 0.401 4.643 0.723 6.346 1.526 1.006 0.482 1.547 1.526 2.089 2.57l3.096 5.14-5.185 0.883c3.483 5.302 12.15 21.043 12.15 26.986 0 3.937-5.185 4.257-7.972 4.257-4.566 0-10.369-0.401-30.645-5.06m91.042-27.307c-1.849-3.126-3.373-5.915-4.154-9.134l-11.084-7.973 5.804 11.245c0.542 1.044 1.625 2.891 1.625 4.096 0 1.364-1.393 4.095-2.941 4.095-1.237 0-2.244-1.366-2.94-2.249l-8.28-9.477c-3.174-3.051-7.663-5.22-9.83-4.979-0.695 0-1.16 0.16-1.237 0.803-0.696 5.863 4.952 8.272 9.907 10.841l8.821 4.981c1.007 0.723 2.553 1.847 2.553 3.294 0 1.765-3.019 2.088-4.101 2.007-5.544-0.524-20.536-7.93-22.594-17.434 0 0-7.267-5.939-11.367-5.939-3.56 0-4.722 1.768-4.103 5.061 3.252 2.328 10.912 9.476 10.912 13.493 0 1.767-2.089 2.249-3.405 2.249-4.643 0-14.317-9.558-14.317-19.356 0-4.097 2.09-9.557 6.655-9.557 5.492 0 11.792 6.299 15.439 10.73 0.283-3.52 1.866-8.241 5.754-8.241 4.256 0 12.383 7.308 15.324 10.361l-5.417-11.004c-4.257-3.212-16.019-13.332-16.019-19.115 0-1.044 0.695-1.927 1.78-1.927 3.018 0 9.828 5.139 17.952 18.553l14.554 11.31-0.011-0.71c0-1.847 0.386-8.111 3.095-8.111 2.477 0 6.346 8.514 19.734 17.75-2.787-3.774-8.126-9.879-8.126-14.939 0-2.168 1.239-4.257 3.56-4.257 4.129 0 13.062 7.406 16.843 10.417-0.786-2.078-1.448-4.491-1.448-6.641 0-3.214 1.858-5.381 4.877-5.381 6.083 0 13.693 7.353 18.419 11.646 0.155-5.302 2.785-10.523 8.434-10.523 7.661 0 16.174 7.551 20.857 13.415 1.552 1.494 3.027 3.111 4.37 5.299l8.201 1.688c-3.095-3.856-7.119-8.114-7.119-13.575 0-3.052 2.012-6.183 5.261-6.183 4.413 0 29.258 21.618 32.198 25.071l-0.541 2.971c-2.554-2.006-23.375-19.931-26.703-19.931-1.161 0-2.399 0.964-2.399 2.249 0 3.212 3.791 7.149 6.036 9.157 1.78 1.525 3.249 2.729 3.249 5.22-0.154 1.444-0.695 2.73-1.855 4.256-0.775 0.965-5.031 0-12.306-1.044 0.31 0.723 0.542 1.446 0.542 2.249 0 0.723-0.619 1.365-1.393 1.365-1.857 0-9.75-5.782-9.75-11.565 0-1.686 0.463-2.329 2.089-2.489-0.971-1.432-2.008-2.794-3.18-4.039-3.951-3.241-9.03-7.046-13.454-7.046-2.478 0-4.955 1.045-4.799 4.096l0.154 1.768c14.858 5.059 18.652 11.002 18.652 14.937 0 3.214-3.096 3.856-5.573 3.856-8.538 0.069-17.912-7.672-20.364-16.448-7.982-5.896-10.756-8.289-13.223-8.289-1.78 0-2.322 1.044-2.322 2.811 0 4.819 4.412 11.406 7.043 14.939 8.512-0.562 9.131 2.409 12.768 10.04l-4.798 0.401c0.774 1.125 3.018 3.775 3.018 5.22 0 1.286-1.471 1.526-2.476 1.526-4.49 0-6.191-3.774-8.512-7.067-8.282-0.322-8.824-1.687-13.079-8.675l-0.852-1.445c4.102 0.643 2.632 0.321 7.352 0.321-2.864-5.059-11.584-13.49-11.584-13.49-2.292-1.52-4.809-2.974-6.287-2.974-0.928 0-1.703 0.641-1.703 1.686 0 0.803-0.232 1.044 4.566 7.068 0.928 1.125 4.025 4.658 4.025 6.183 0 1.849-1.858 3.856-3.716 3.856-4.255 0-18.34-12.851-22.132-15.982v3.131c4.953 5.061 28.385 29.209 28.385 34.672 0 1.605-2.09 2.167-3.33 2.167-2.63 0-16.851-11.7-25.984-27.361m71.039 3.052c0.541 0.16 0.928-0.321 0.928-0.884 0.077-1.365-4.565-6.906-11.375-9.315 2.088 5.299 6.577 9.154 10.447 10.199m-116.369 6.988c0-1.928 1.238-3.453 3.094-3.453 3.328 0 6.192 3.934 6.192 7.146 0 1.447-1.161 2.491-2.555 2.491-3.018 0-6.731-2.891-6.731-6.184"/></g></g></g></g><g id="g264"><g id="g266" clip-path="url(#clipPath268)"><g id="g272" transform="translate(110.7676,422.5928)"><path id="path274" d="m0 0c-1.812 0-3.019 1.471-3.019 3.328 0 3.173 3.623 5.959 6.567 5.959 1.359 0 2.492-1.006 2.492-2.399 0-3.096-2.794-6.888-6.04-6.888m-50.275 1.935 4.226 0.232c0.606 0 3.021 0.387 3.021-0.774 0-1.162-2.718-1.393-3.323-1.547-6.87-1.394-11.473-4.491-12.682-4.491-1.434 0-1.66 3.174-1.66 4.103 0 3.638 1.208 7.43 3.85 9.906 4.076 3.87 26.723 15.635 32.159 15.866 2.717 0 5.058-4.953 5.058-6.036 0-1.548-2.039-4.566-2.868-5.882-13.513-22.058-16.08-28.947-16.232-31.191-0.151-1.857 0.302-5.03 1.963-4.488 2.039 0.697 5.587 2.631 21.365 28.248-0.831 4.877 6.19 14.164 8.531 13.313 3.321-1.161 1.81-10.758-17.439-36.608-2.416-3.25-9.436-13.467-13.513-13.467-3.021 0-8.682 4.877-8.532 10.681 0.077 3.095 1.284 9.751 15.627 34.054-6.944-3.173-13.889-6.579-19.703-11.765l0.152-0.154zm118.801-16.486 7.474 6.889c1.51 1.547 8.983 8.823 10.87 8.823 0.605 0 1.436-0.232 1.737-4.257 0.152-1.858-1.887-3.637-3.094-4.72-2.416-2.246-7.776-8.36-7.776-11.843 0-1.237 0.678-1.702 1.887-1.702 2.127 0 6.247 2.98 9.158 5.277 3.091 8.639 19.724 16.649 27.588 16.858 3.472 0.078 4.907-2.786 4.907-3.715 0-0.928-1.963-1.704-2.642-1.935 1.433-0.618 2.188-1.47 2.188-3.173 0-2.476-6.567-7.894-6.567-11.532 0-1.315 1.133-1.858 2.34-1.858 3.171 0 7.473 3.948 10.719 6.192l0.605-2.864c-3.246-3.792-13.362-12.073-17.061-12.073-2.492 0-3.624 1.856-3.624 4.102 0 2.477 1.812 6.578 2.793 8.607l-7.096-5.589c-1.435-1.161-6.266-5.186-8.001-5.186-1.851 0-5.436 3.912-6.404 7.64-4.173-4.168-9.94-9.497-14.263-9.497-2.793 0-4.454 2.4-4.454 5.109 0 2.321 0.83 4.488 1.586 6.501-3.095-2.478-8.154-9.443-12.306-9.443-3.699 0-5.737 4.335-5.737 7.662l0.011 0.607c-4.631-4.389-11.686-10.9-17.376-10.9-2.944 0-4.756 2.089-4.756 5.185 0 2.555 0.982 5.495 1.963 7.74l-4.002-3.018s-10.373-8.204-13.803-8.204c-3.17 0-5.133 3.018-5.133 5.959 0 5.263 3.926 9.365 6.945 13.08l-8.001-1.626c-1.565-2.521-4.973-6.733-4.973-6.733-3.397-4.257-10.041-11.222-15.778-11.222-4.453 0-6.492 5.262-6.492 9.21 0 9.442 9.437 18.652 13.966 18.652 1.283 0 3.322-0.464 3.322-2.167 0-3.87-7.474-10.759-10.644-13.003-0.605-3.173 0.528-4.876 4.001-4.876 2.528 0 5.026 1.638 7.284 3.41 0 0 3.5 4.098 4.934 6.188-1.585 0.154-2.038 0.773-2.038 2.398 0 5.574 7.701 11.145 9.512 11.145 0.756 0 1.359-0.618 1.359-1.316 0-0.773-0.226-1.47-0.529-2.167 7.097 1.007 11.248 1.936 12.004 1.007 1.133-1.47 1.66-2.71 1.811-4.102 0-2.4-1.434-3.561-3.17-5.031-2.19-1.934-5.888-5.727-5.888-8.823 0-1.238 1.208-2.167 2.34-2.167 3.247 0 10.766 5.482 10.766 5.482 3.488 2.998 6.607 6.314 8.85 10.23-4.606 0-3.171 0.309-7.172-0.309l0.831 1.392c4.151 6.734 4.68 8.049 12.758 8.359 2.265 3.173 3.925 6.81 8.305 6.81 0.98 0 2.415-0.231 2.415-1.47 0-1.394-2.19-3.947-2.945-5.031l4.681-0.386c-3.548-7.353-4.151-10.216-12.456-9.674-2.567-3.407-6.87-9.753-6.87-14.396 0-1.703 0.529-2.709 2.265-2.709 2.371 0 5.031 2.234 12.548 7.731 1.757 5.654 5.947 10.811 9.648 13.242 1.056 0.775 2.038 0.852 3.322 0.852 1.057 0 4.906 0.697 4.604-1.625-0.151-1.239-2.188-3.406-2.944-4.179-2.34-2.71-2.868-3.329-5.812-5.496-2.341-1.703-4.152-3.406-4.152-6.656 0-0.386 0.075-1.16 0.604-1.16 1.358 0 5.434 2.321 9.058 5.494m45.428 7.715c-17.968-5.669-20.156-10.406-20.156-14.211 0.075-0.389 0.377-1.784 1.509-1.553 1.51 0.311 3.851 0.079 18.798 15.609l-0.151 0.155z" fill="#fff"/></g><g id="g276" transform="translate(110.7676,422.5928)"><path id="path278" stroke-linejoin="round" d="m0 0c-1.812 0-3.019 1.471-3.019 3.328 0 3.173 3.623 5.959 6.567 5.959 1.359 0 2.492-1.006 2.492-2.399 0-3.096-2.794-6.888-6.04-6.888zm-50.275 1.935 4.226 0.232c0.606 0 3.021 0.387 3.021-0.774 0-1.162-2.718-1.393-3.323-1.547-6.87-1.394-11.473-4.491-12.682-4.491-1.434 0-1.66 3.174-1.66 4.103 0 3.638 1.208 7.43 3.85 9.906 4.076 3.87 26.723 15.635 32.159 15.866 2.717 0 5.058-4.953 5.058-6.036 0-1.548-2.039-4.566-2.868-5.882-13.513-22.058-16.08-28.947-16.232-31.191-0.151-1.857 0.302-5.03 1.963-4.488 2.039 0.697 5.587 2.631 21.365 28.248-0.831 4.877 6.19 14.164 8.531 13.313 3.321-1.161 1.81-10.758-17.439-36.608-2.416-3.25-9.436-13.467-13.513-13.467-3.021 0-8.682 4.877-8.532 10.681 0.077 3.095 1.284 9.751 15.627 34.054-6.944-3.173-13.889-6.579-19.703-11.765l0.152-0.154zm118.801-16.486 7.474 6.889c1.51 1.547 8.983 8.823 10.87 8.823 0.605 0 1.436-0.232 1.737-4.257 0.152-1.858-1.887-3.637-3.094-4.72-2.416-2.246-7.776-8.36-7.776-11.843 0-1.237 0.678-1.702 1.887-1.702 2.127 0 6.247 2.98 9.158 5.277 3.091 8.639 19.724 16.649 27.588 16.858 3.472 0.078 4.907-2.786 4.907-3.715 0-0.928-1.963-1.704-2.642-1.935 1.433-0.618 2.188-1.47 2.188-3.173 0-2.476-6.567-7.894-6.567-11.532 0-1.315 1.133-1.858 2.34-1.858 3.171 0 7.473 3.948 10.719 6.192l0.605-2.864c-3.246-3.792-13.362-12.073-17.061-12.073-2.492 0-3.624 1.856-3.624 4.102 0 2.477 1.812 6.578 2.793 8.607l-7.096-5.589c-1.435-1.161-6.266-5.186-8.001-5.186-1.851 0-5.436 3.912-6.404 7.64-4.173-4.168-9.94-9.497-14.263-9.497-2.793 0-4.454 2.4-4.454 5.109 0 2.321 0.83 4.488 1.586 6.501-3.095-2.478-8.154-9.443-12.306-9.443-3.699 0-5.737 4.335-5.737 7.662l0.011 0.607c-4.631-4.389-11.686-10.9-17.376-10.9-2.944 0-4.756 2.089-4.756 5.185 0 2.555 0.982 5.495 1.963 7.74l-4.002-3.018s-10.373-8.204-13.803-8.204c-3.17 0-5.133 3.018-5.133 5.959 0 5.263 3.926 9.365 6.945 13.08l-8.001-1.626c-1.565-2.521-4.973-6.733-4.973-6.733-3.397-4.257-10.041-11.222-15.778-11.222-4.453 0-6.492 5.262-6.492 9.21 0 9.442 9.437 18.652 13.966 18.652 1.283 0 3.322-0.464 3.322-2.167 0-3.87-7.474-10.759-10.644-13.003-0.605-3.173 0.528-4.876 4.001-4.876 2.528 0 5.026 1.638 7.284 3.41 0 0 3.5 4.098 4.934 6.188-1.585 0.154-2.038 0.773-2.038 2.398 0 5.574 7.701 11.145 9.512 11.145 0.756 0 1.359-0.618 1.359-1.316 0-0.773-0.226-1.47-0.529-2.167 7.097 1.007 11.248 1.936 12.004 1.007 1.133-1.47 1.66-2.71 1.811-4.102 0-2.4-1.434-3.561-3.17-5.031-2.19-1.934-5.888-5.727-5.888-8.823 0-1.238 1.208-2.167 2.34-2.167 3.247 0 10.766 5.482 10.766 5.482 3.488 2.998 6.607 6.314 8.85 10.23-4.606 0-3.171 0.309-7.172-0.309l0.831 1.392c4.151 6.734 4.68 8.049 12.758 8.359 2.265 3.173 3.925 6.81 8.305 6.81 0.98 0 2.415-0.231 2.415-1.47 0-1.394-2.19-3.947-2.945-5.031l4.681-0.386c-3.548-7.353-4.151-10.216-12.456-9.674-2.567-3.407-6.87-9.753-6.87-14.396 0-1.703 0.529-2.709 2.265-2.709 2.371 0 5.031 2.234 12.548 7.731 1.757 5.654 5.947 10.811 9.648 13.242 1.056 0.775 2.038 0.852 3.322 0.852 1.057 0 4.906 0.697 4.604-1.625-0.151-1.239-2.188-3.406-2.944-4.179-2.34-2.71-2.868-3.329-5.812-5.496-2.341-1.703-4.152-3.406-4.152-6.656 0-0.386 0.075-1.16 0.604-1.16 1.358 0 5.434 2.321 9.058 5.494zm45.428 7.715c-17.968-5.669-20.156-10.406-20.156-14.211 0.075-0.389 0.377-1.784 1.509-1.553 1.51 0.311 3.851 0.079 18.798 15.609l-0.151 0.155z" stroke="#fff" stroke-miterlimit="3.864" stroke-width="13.247" fill="none"/></g><g id="g280" transform="translate(110.1787,423.1816)"><path id="path282" d="m0 0c-1.812 0-3.019 1.471-3.019 3.328 0 3.173 3.623 5.959 6.567 5.959 1.359 0 2.492-1.006 2.492-2.399 0-3.096-2.794-6.888-6.04-6.888m-50.275 1.935 4.227 0.232c0.605 0 3.02 0.387 3.02-0.774 0-1.162-2.718-1.393-3.323-1.547-6.869-1.394-11.473-4.491-12.681-4.491-1.435 0-1.661 3.174-1.661 4.103 0 3.638 1.208 7.43 3.85 9.906 4.076 3.87 26.723 15.635 32.159 15.866 2.717 0 5.058-4.953 5.058-6.036 0-1.548-2.039-4.567-2.868-5.882-13.513-22.058-16.081-28.947-16.232-31.19-0.15-1.858 0.302-5.031 1.963-4.489 2.039 0.696 5.587 2.631 21.365 28.248-0.831 4.877 6.19 14.164 8.531 13.313 3.321-1.161 1.81-10.758-17.439-36.608-2.416-3.25-9.436-13.467-13.513-13.467-3.02 0-8.682 4.876-8.532 10.681 0.077 3.096 1.284 9.751 15.627 34.054-6.944-3.173-13.889-6.579-19.703-11.765l0.152-0.154zm118.801-16.486 7.474 6.889c1.51 1.548 8.983 8.823 10.87 8.823 0.606 0 1.436-0.232 1.737-4.257 0.152-1.858-1.887-3.637-3.094-4.72-2.416-2.246-7.776-8.36-7.776-11.843 0-1.238 0.678-1.702 1.887-1.702 2.127 0 6.248 2.979 9.158 5.277 3.091 8.638 19.724 16.648 27.588 16.857 3.472 0.079 4.906-2.785 4.906-3.714s-1.962-1.704-2.641-1.935c1.433-0.619 2.188-1.471 2.188-3.174 0-2.476-6.567-7.894-6.567-11.531 0-1.316 1.133-1.857 2.34-1.857 3.171 0 7.473 3.947 10.719 6.191l0.605-2.864c-3.246-3.792-13.362-12.074-17.061-12.074-2.492 0-3.624 1.858-3.624 4.102 0 2.477 1.812 6.58 2.793 8.608l-7.096-5.588c-1.435-1.163-6.266-5.186-8.001-5.186-1.851 0-5.436 3.912-6.404 7.639-4.173-4.168-9.94-9.497-14.263-9.497-2.793 0-4.454 2.399-4.454 5.108 0 2.322 0.83 4.489 1.586 6.502-3.095-2.478-8.154-9.443-12.306-9.443-3.698 0-5.737 4.334-5.737 7.662l0.011 0.607c-4.631-4.389-11.686-10.9-17.376-10.9-2.944 0-4.756 2.089-4.756 5.185 0 2.555 0.982 5.495 1.963 7.739l-4.002-3.017s-10.372-8.204-13.803-8.204c-3.17 0-5.133 3.017-5.133 5.959 0 5.262 3.926 9.365 6.945 13.08l-8.002-1.626c-1.564-2.521-4.972-6.733-4.972-6.733-3.397-4.257-10.041-11.223-15.778-11.223-4.453 0-6.492 5.263-6.492 9.211 0 9.441 9.437 18.652 13.966 18.652 1.283 0 3.322-0.464 3.322-2.167 0-3.87-7.474-10.759-10.645-13.003-0.604-3.173 0.529-4.876 4.002-4.876 2.528 0 5.026 1.638 7.284 3.41 0 0 3.5 4.097 4.934 6.188-1.585 0.155-2.038 0.773-2.038 2.398 0 5.574 7.7 11.145 9.512 11.145 0.756 0 1.359-0.618 1.359-1.316 0-0.773-0.225-1.47-0.529-2.167 7.097 1.007 11.249 1.936 12.004 1.007 1.133-1.47 1.66-2.71 1.811-4.101 0-2.401-1.434-3.561-3.169-5.032-2.191-1.934-5.889-5.727-5.889-8.823 0-1.239 1.208-2.167 2.34-2.167 3.246 0 10.767 5.482 10.767 5.482 3.487 2.998 6.606 6.314 8.849 10.229-4.606 0-3.171 0.311-7.172-0.308l0.831 1.392c4.151 6.734 4.68 8.049 12.758 8.359 2.266 3.173 3.925 6.81 8.305 6.81 0.98 0 2.415-0.231 2.415-1.47 0-1.394-2.19-3.947-2.945-5.031l4.681-0.386c-3.548-7.352-4.151-10.216-12.456-9.674-2.567-3.407-6.869-9.752-6.869-14.397 0-1.703 0.528-2.709 2.264-2.709 2.371 0 5.031 2.236 12.548 7.732 1.757 5.655 5.947 10.811 9.649 13.242 1.055 0.775 2.037 0.852 3.321 0.852 1.057 0 4.906 0.697 4.604-1.625-0.151-1.239-2.188-3.406-2.944-4.179-2.34-2.709-2.868-3.329-5.812-5.496-2.341-1.703-4.152-3.406-4.152-6.656 0-0.387 0.074-1.161 0.604-1.161 1.358 0 5.434 2.322 9.058 5.495m45.428 7.714c-17.967-5.668-20.156-10.405-20.156-14.21 0.075-0.389 0.377-1.784 1.51-1.553 1.509 0.311 3.85 0.078 18.797 15.609l-0.151 0.154z" fill="#231f20"/></g><g id="g284" transform="translate(110.1787,423.1816)"><path id="path286" stroke-linejoin="round" d="m0 0c-1.812 0-3.019 1.471-3.019 3.328 0 3.173 3.623 5.959 6.567 5.959 1.359 0 2.492-1.006 2.492-2.399 0-3.096-2.794-6.888-6.04-6.888zm-50.275 1.935 4.227 0.232c0.605 0 3.02 0.387 3.02-0.774 0-1.162-2.718-1.393-3.323-1.547-6.869-1.394-11.473-4.491-12.681-4.491-1.435 0-1.661 3.174-1.661 4.103 0 3.638 1.208 7.43 3.85 9.906 4.076 3.87 26.723 15.635 32.159 15.866 2.717 0 5.058-4.953 5.058-6.036 0-1.548-2.039-4.567-2.868-5.882-13.513-22.058-16.081-28.947-16.232-31.19-0.15-1.858 0.302-5.031 1.963-4.489 2.039 0.696 5.587 2.631 21.365 28.248-0.831 4.877 6.19 14.164 8.531 13.313 3.321-1.161 1.81-10.758-17.439-36.608-2.416-3.25-9.436-13.467-13.513-13.467-3.02 0-8.682 4.876-8.532 10.681 0.077 3.096 1.284 9.751 15.627 34.054-6.944-3.173-13.889-6.579-19.703-11.765l0.152-0.154zm118.801-16.486 7.474 6.889c1.51 1.548 8.983 8.823 10.87 8.823 0.606 0 1.436-0.232 1.737-4.257 0.152-1.858-1.887-3.637-3.094-4.72-2.416-2.246-7.776-8.36-7.776-11.843 0-1.238 0.678-1.702 1.887-1.702 2.127 0 6.248 2.979 9.158 5.277 3.091 8.638 19.724 16.648 27.588 16.857 3.472 0.079 4.906-2.785 4.906-3.714s-1.962-1.704-2.641-1.935c1.433-0.619 2.188-1.471 2.188-3.174 0-2.476-6.567-7.894-6.567-11.531 0-1.316 1.133-1.857 2.34-1.857 3.171 0 7.473 3.947 10.719 6.191l0.605-2.864c-3.246-3.792-13.362-12.074-17.061-12.074-2.492 0-3.624 1.858-3.624 4.102 0 2.477 1.812 6.58 2.793 8.608l-7.096-5.588c-1.435-1.163-6.266-5.186-8.001-5.186-1.851 0-5.436 3.912-6.404 7.639-4.173-4.168-9.94-9.497-14.263-9.497-2.793 0-4.454 2.399-4.454 5.108 0 2.322 0.83 4.489 1.586 6.502-3.095-2.478-8.154-9.443-12.306-9.443-3.698 0-5.737 4.334-5.737 7.662l0.011 0.607c-4.631-4.389-11.686-10.9-17.376-10.9-2.944 0-4.756 2.089-4.756 5.185 0 2.555 0.982 5.495 1.963 7.739l-4.002-3.017s-10.372-8.204-13.803-8.204c-3.17 0-5.133 3.017-5.133 5.959 0 5.262 3.926 9.365 6.945 13.08l-8.002-1.626c-1.564-2.521-4.972-6.733-4.972-6.733-3.397-4.257-10.041-11.223-15.778-11.223-4.453 0-6.492 5.263-6.492 9.211 0 9.441 9.437 18.652 13.966 18.652 1.283 0 3.322-0.464 3.322-2.167 0-3.87-7.474-10.759-10.645-13.003-0.604-3.173 0.529-4.876 4.002-4.876 2.528 0 5.026 1.638 7.284 3.41 0 0 3.5 4.097 4.934 6.188-1.585 0.155-2.038 0.773-2.038 2.398 0 5.574 7.7 11.145 9.512 11.145 0.756 0 1.359-0.618 1.359-1.316 0-0.773-0.225-1.47-0.529-2.167 7.097 1.007 11.249 1.936 12.004 1.007 1.133-1.47 1.66-2.71 1.811-4.101 0-2.401-1.434-3.561-3.169-5.032-2.191-1.934-5.889-5.727-5.889-8.823 0-1.239 1.208-2.167 2.34-2.167 3.246 0 10.767 5.482 10.767 5.482 3.487 2.998 6.606 6.314 8.849 10.229-4.606 0-3.171 0.311-7.172-0.308l0.831 1.392c4.151 6.734 4.68 8.049 12.758 8.359 2.266 3.173 3.925 6.81 8.305 6.81 0.98 0 2.415-0.231 2.415-1.47 0-1.394-2.19-3.947-2.945-5.031l4.681-0.386c-3.548-7.352-4.151-10.216-12.456-9.674-2.567-3.407-6.869-9.752-6.869-14.397 0-1.703 0.528-2.709 2.264-2.709 2.371 0 5.031 2.236 12.548 7.732 1.757 5.655 5.947 10.811 9.649 13.242 1.055 0.775 2.037 0.852 3.321 0.852 1.057 0 4.906 0.697 4.604-1.625-0.151-1.239-2.188-3.406-2.944-4.179-2.34-2.709-2.868-3.329-5.812-5.496-2.341-1.703-4.152-3.406-4.152-6.656 0-0.387 0.074-1.161 0.604-1.161 1.358 0 5.434 2.322 9.058 5.495zm45.428 7.714c-17.967-5.668-20.156-10.405-20.156-14.21 0.075-0.389 0.377-1.784 1.51-1.553 1.509 0.311 3.85 0.078 18.797 15.609l-0.151 0.154z" stroke="#231f20" stroke-miterlimit="3.864" stroke-width="8.831" fill="none"/></g><g id="g288" transform="translate(109.5898,424.3594)"><path id="path290" d="m0 0c-1.812 0-3.019 1.47-3.019 3.328 0 3.173 3.623 5.959 6.568 5.959 1.359 0 2.491-1.006 2.491-2.4 0-3.095-2.794-6.887-6.04-6.887m-50.275 1.935 4.227 0.232c0.605 0 3.021 0.386 3.021-0.774 0-1.162-2.719-1.393-3.323-1.548-6.87-1.393-11.474-4.49-12.682-4.49-1.435 0-1.661 3.173-1.661 4.103 0 3.637 1.208 7.429 3.85 9.906 4.076 3.87 26.724 15.635 32.159 15.866 2.717 0 5.058-4.953 5.058-6.036 0-1.548-2.038-4.567-2.868-5.882-13.513-22.058-16.08-28.947-16.232-31.191-0.151-1.857 0.302-5.03 1.963-4.488 2.039 0.696 5.587 2.631 21.365 28.248-0.831 4.876 6.19 14.163 8.531 13.313 3.321-1.161 1.81-10.758-17.439-36.609-2.416-3.25-9.436-13.466-13.513-13.466-3.02 0-8.682 4.876-8.531 10.681 0.076 3.096 1.284 9.751 15.627 34.054-6.945-3.173-13.89-6.579-19.704-11.765l0.152-0.154zm118.801-16.486 7.474 6.889c1.51 1.547 8.983 8.823 10.871 8.823 0.605 0 1.435-0.233 1.736-4.258 0.152-1.857-1.887-3.636-3.094-4.72-2.416-2.245-7.776-8.359-7.776-11.842 0-1.238 0.679-1.702 1.887-1.702 2.127 0 6.248 2.979 9.158 5.276 3.091 8.639 19.724 16.649 27.588 16.858 3.472 0.079 4.907-2.785 4.907-3.715 0-0.928-1.963-1.703-2.642-1.934 1.433-0.619 2.188-1.471 2.188-3.174 0-2.476-6.567-7.894-6.567-11.531 0-1.316 1.133-1.858 2.34-1.858 3.171 0 7.473 3.948 10.719 6.192l0.605-2.864c-3.246-3.792-13.362-12.074-17.061-12.074-2.492 0-3.624 1.858-3.624 4.102 0 2.477 1.812 6.579 2.793 8.608l-7.096-5.589c-1.434-1.162-6.266-5.186-8.001-5.186-1.851 0-5.436 3.912-6.404 7.64-4.172-4.168-9.94-9.497-14.263-9.497-2.793 0-4.454 2.399-4.454 5.108 0 2.322 0.831 4.489 1.586 6.502-3.095-2.479-8.154-9.443-12.306-9.443-3.698 0-5.737 4.334-5.737 7.662l0.011 0.607c-4.631-4.389-11.686-10.9-17.376-10.9-2.944 0-4.756 2.089-4.756 5.185 0 2.555 0.982 5.494 1.963 7.739l-4.002-3.018s-10.372-8.203-13.803-8.203c-3.17 0-5.133 3.017-5.133 5.959 0 5.262 3.926 9.365 6.945 13.08l-8.001-1.626c-1.565-2.521-4.972-6.733-4.972-6.733-3.398-4.257-10.042-11.223-15.779-11.223-4.453 0-6.492 5.263-6.492 9.211 0 9.441 9.437 18.652 13.966 18.652 1.283 0 3.322-0.464 3.322-2.167 0-3.87-7.474-10.759-10.644-13.003-0.604-3.174 0.528-4.876 4.001-4.876 2.528 0 5.026 1.638 7.284 3.409 0 0 3.5 4.098 4.934 6.189-1.585 0.155-2.038 0.773-2.038 2.398 0 5.574 7.701 11.145 9.512 11.145 0.756 0 1.359-0.619 1.359-1.316 0-0.773-0.225-1.47-0.529-2.167 7.098 1.006 11.249 1.936 12.004 1.006 1.133-1.469 1.66-2.709 1.811-4.1 0-2.401-1.434-3.562-3.169-5.032-2.191-1.934-5.889-5.728-5.889-8.823 0-1.239 1.208-2.167 2.341-2.167 3.246 0 10.766 5.482 10.766 5.482 3.487 2.998 6.606 6.314 8.849 10.229-4.606 0-3.171 0.311-7.172-0.308l0.831 1.392c4.151 6.734 4.68 8.049 12.759 8.359 2.264 3.173 3.924 6.81 8.304 6.81 0.98 0 2.415-0.231 2.415-1.47 0-1.394-2.19-3.947-2.944-5.031l4.68-0.386c-3.548-7.353-4.151-10.217-12.455-9.674-2.568-3.407-6.87-9.753-6.87-14.397 0-1.703 0.528-2.709 2.264-2.709 2.371 0 5.032 2.236 12.548 7.731 1.757 5.656 5.947 10.812 9.648 13.243 1.056 0.775 2.038 0.851 3.322 0.851 1.057 0 4.906 0.698 4.604-1.625-0.151-1.238-2.188-3.405-2.944-4.178-2.34-2.709-2.868-3.329-5.812-5.496-2.341-1.703-4.152-3.406-4.152-6.656 0-0.387 0.075-1.161 0.604-1.161 1.358 0 5.434 2.322 9.058 5.495m45.428 7.714c-17.968-5.668-20.156-10.405-20.156-14.21 0.075-0.389 0.377-1.784 1.509-1.554 1.51 0.311 3.851 0.079 18.798 15.61l-0.151 0.154z" fill="#fff"/></g><g id="g292" transform="translate(109.5898,424.3594)"><path id="path294" stroke-linejoin="round" d="m0 0c-1.812 0-3.019 1.47-3.019 3.328 0 3.173 3.623 5.959 6.568 5.959 1.359 0 2.491-1.006 2.491-2.4 0-3.095-2.794-6.887-6.04-6.887zm-50.275 1.935 4.227 0.232c0.605 0 3.021 0.386 3.021-0.774 0-1.162-2.719-1.393-3.323-1.548-6.87-1.393-11.474-4.49-12.682-4.49-1.435 0-1.661 3.173-1.661 4.103 0 3.637 1.208 7.429 3.85 9.906 4.076 3.87 26.724 15.635 32.159 15.866 2.717 0 5.058-4.953 5.058-6.036 0-1.548-2.038-4.567-2.868-5.882-13.513-22.058-16.08-28.947-16.232-31.191-0.151-1.857 0.302-5.03 1.963-4.488 2.039 0.696 5.587 2.631 21.365 28.248-0.831 4.876 6.19 14.163 8.531 13.313 3.321-1.161 1.81-10.758-17.439-36.609-2.416-3.25-9.436-13.466-13.513-13.466-3.02 0-8.682 4.876-8.531 10.681 0.076 3.096 1.284 9.751 15.627 34.054-6.945-3.173-13.89-6.579-19.704-11.765l0.152-0.154zm118.801-16.486 7.474 6.889c1.51 1.547 8.983 8.823 10.871 8.823 0.605 0 1.435-0.233 1.736-4.258 0.152-1.857-1.887-3.636-3.094-4.72-2.416-2.245-7.776-8.359-7.776-11.842 0-1.238 0.679-1.702 1.887-1.702 2.127 0 6.248 2.979 9.158 5.276 3.091 8.639 19.724 16.649 27.588 16.858 3.472 0.079 4.907-2.785 4.907-3.715 0-0.928-1.963-1.703-2.642-1.934 1.433-0.619 2.188-1.471 2.188-3.174 0-2.476-6.567-7.894-6.567-11.531 0-1.316 1.133-1.858 2.34-1.858 3.171 0 7.473 3.948 10.719 6.192l0.605-2.864c-3.246-3.792-13.362-12.074-17.061-12.074-2.492 0-3.624 1.858-3.624 4.102 0 2.477 1.812 6.579 2.793 8.608l-7.096-5.589c-1.434-1.162-6.266-5.186-8.001-5.186-1.851 0-5.436 3.912-6.404 7.64-4.172-4.168-9.94-9.497-14.263-9.497-2.793 0-4.454 2.399-4.454 5.108 0 2.322 0.831 4.489 1.586 6.502-3.095-2.479-8.154-9.443-12.306-9.443-3.698 0-5.737 4.334-5.737 7.662l0.011 0.607c-4.631-4.389-11.686-10.9-17.376-10.9-2.944 0-4.756 2.089-4.756 5.185 0 2.555 0.982 5.494 1.963 7.739l-4.002-3.018s-10.372-8.203-13.803-8.203c-3.17 0-5.133 3.017-5.133 5.959 0 5.262 3.926 9.365 6.945 13.08l-8.001-1.626c-1.565-2.521-4.972-6.733-4.972-6.733-3.398-4.257-10.042-11.223-15.779-11.223-4.453 0-6.492 5.263-6.492 9.211 0 9.441 9.437 18.652 13.966 18.652 1.283 0 3.322-0.464 3.322-2.167 0-3.87-7.474-10.759-10.644-13.003-0.604-3.174 0.528-4.876 4.001-4.876 2.528 0 5.026 1.638 7.284 3.409 0 0 3.5 4.098 4.934 6.189-1.585 0.155-2.038 0.773-2.038 2.398 0 5.574 7.701 11.145 9.512 11.145 0.756 0 1.359-0.619 1.359-1.316 0-0.773-0.225-1.47-0.529-2.167 7.098 1.006 11.249 1.936 12.004 1.006 1.133-1.469 1.66-2.709 1.811-4.1 0-2.401-1.434-3.562-3.169-5.032-2.191-1.934-5.889-5.728-5.889-8.823 0-1.239 1.208-2.167 2.341-2.167 3.246 0 10.766 5.482 10.766 5.482 3.487 2.998 6.606 6.314 8.849 10.229-4.606 0-3.171 0.311-7.172-0.308l0.831 1.392c4.151 6.734 4.68 8.049 12.759 8.359 2.264 3.173 3.924 6.81 8.304 6.81 0.98 0 2.415-0.231 2.415-1.47 0-1.394-2.19-3.947-2.944-5.031l4.68-0.386c-3.548-7.353-4.151-10.217-12.455-9.674-2.568-3.407-6.87-9.753-6.87-14.397 0-1.703 0.528-2.709 2.264-2.709 2.371 0 5.032 2.236 12.548 7.731 1.757 5.656 5.947 10.812 9.648 13.243 1.056 0.775 2.038 0.851 3.322 0.851 1.057 0 4.906 0.698 4.604-1.625-0.151-1.238-2.188-3.405-2.944-4.178-2.34-2.709-2.868-3.329-5.812-5.496-2.341-1.703-4.152-3.406-4.152-6.656 0-0.387 0.075-1.161 0.604-1.161 1.358 0 5.434 2.322 9.058 5.495zm45.428 7.714c-17.968-5.668-20.156-10.405-20.156-14.21 0.075-0.389 0.377-1.784 1.509-1.554 1.51 0.311 3.851 0.079 18.798 15.61l-0.151 0.154z" stroke="#fff" stroke-miterlimit="3.864" stroke-width="2.944" fill="none"/></g></g></g><g id="g296"><g id="g298"><g id="g304"><g id="g306"><path id="path316" fill="url(#linearGradient308)" d="m52.747 433.723c-2.642-2.476-3.851-6.268-3.851-9.906 0-0.93 0.227-4.102 1.661-4.102 1.208 0 5.813 3.096 12.683 4.489 0.603 0.155 3.322 0.387 3.322 1.548 0 1.16-2.415 0.774-3.02 0.774l-4.228-0.232-0.151 0.154c5.813 5.187 12.759 8.592 19.704 11.766-14.343-24.304-15.552-30.96-15.627-34.055-0.151-5.805 5.511-10.681 8.531-10.681 4.077 0 11.097 10.216 13.513 13.466 19.249 25.851 20.76 35.448 17.438 36.609-2.34 0.851-9.361-8.436-8.531-13.312-15.777-25.618-19.324-27.552-21.364-28.249-1.661-0.542-2.114 2.631-1.963 4.488 0.151 2.244 2.719 9.134 16.232 31.192 0.83 1.315 2.868 4.333 2.868 5.881 0 1.084-2.341 6.037-5.058 6.037-5.435-0.232-28.083-11.996-32.159-15.867m103.099-5.262c-8.08-0.309-8.608-1.625-12.759-8.359l-0.831-1.392c4.001 0.619 2.567 0.308 7.172 0.308-2.244-3.915-5.362-7.231-8.849-10.229 0 0-7.52-5.481-10.767-5.481-1.133 0-2.341 0.927-2.341 2.166 0 3.095 3.699 6.889 5.889 8.824 1.735 1.47 3.17 2.631 3.17 5.031-0.151 1.391-0.679 2.631-1.812 4.1-0.754 0.93-4.906 0-12.003-1.005 0.303 0.697 0.529 1.393 0.529 2.167 0 0.697-0.604 1.315-1.359 1.315-1.811 0-9.512-5.571-9.512-11.145 0-1.624 0.453-2.242 2.038-2.398-1.434-2.091-4.934-6.189-4.934-6.189-2.258-1.771-4.757-3.409-7.285-3.409-3.472 0-4.604 1.703-4 4.876 3.171 2.245 10.644 9.134 10.644 13.003 0 1.704-2.039 2.167-3.323 2.167-4.529 0-13.965-9.211-13.965-18.652 0-3.948 2.039-9.211 6.492-9.211 5.737 0 12.381 6.966 15.778 11.223 0 0 3.408 4.213 4.973 6.734l8.001 1.625c-3.019-3.714-6.945-7.818-6.945-13.08 0-2.941 1.963-5.959 5.132-5.959 3.432 0 13.805 8.203 13.805 8.203l4.001 3.018c-0.981-2.244-1.963-5.183-1.963-7.738 0-3.097 1.812-5.186 4.756-5.186 5.69 0 12.746 6.512 17.376 10.901l-0.012-0.608c0-3.328 2.04-7.663 5.738-7.663 4.152 0 9.21 6.966 12.306 9.444-0.756-2.012-1.586-4.179-1.586-6.501 0-2.709 1.66-5.109 4.454-5.109 4.322 0 10.091 5.329 14.263 9.497 0.968-3.728 4.553-7.639 6.403-7.639 1.736 0 6.568 4.024 8.001 5.185l7.097 5.59c-0.981-2.03-2.793-6.132-2.793-8.609 0-2.244 1.132-4.101 3.625-4.101 3.698 0 13.814 8.281 17.06 12.073l-0.605 2.864c-3.246-2.244-7.549-6.192-10.72-6.192-1.207 0-2.34 0.542-2.34 1.859 0 3.636 6.568 9.054 6.568 11.53 0 1.704-0.755 2.556-2.188 3.175 0.679 0.231 2.642 1.005 2.642 1.934 0 0.93-1.435 3.793-4.907 3.715-7.864-0.209-24.497-8.22-27.588-16.859-2.91-2.297-7.031-5.276-9.158-5.276-1.209 0-1.887 0.464-1.887 1.702 0 3.483 5.359 9.598 7.776 11.842 1.207 1.084 3.245 2.863 3.094 4.721-0.301 4.025-1.131 4.258-1.736 4.258-1.888 0-9.362-7.277-10.871-8.824l-7.474-6.888c-3.624-3.174-7.7-5.496-9.058-5.496-0.529 0-0.604 0.774-0.604 1.161 0 3.25 1.811 4.954 4.152 6.656 2.943 2.168 3.472 2.787 5.812 5.496 0.756 0.773 2.792 2.94 2.945 4.179 0.301 2.322-3.548 1.624-4.605 1.624-1.284 0-2.266-0.075-3.323-0.85-3.7-2.431-7.89-7.588-9.647-13.244-7.517-5.494-10.178-7.731-12.548-7.731-1.737 0-2.265 1.007-2.265 2.709 0 4.644 4.302 10.991 6.871 14.397 8.303-0.543 8.907 2.321 12.455 9.675l-4.68 0.386c0.754 1.083 2.944 3.637 2.944 5.03 0 1.239-1.435 1.47-2.416 1.47-4.379 0-6.04-3.636-8.303-6.81m47.541-25.148c0 3.804 2.189 8.541 20.157 14.21l0.151-0.155c-14.947-15.532-17.288-15.298-18.798-15.609-0.086-0.017-0.167-0.025-0.243-0.025-0.934 0-1.197 1.219-1.267 1.579m-96.815 24.374c0-1.857 1.207-3.328 3.017-3.328 3.247 0 6.041 3.793 6.041 6.888 0 1.393-1.132 2.399-2.491 2.399-2.945 0-6.567-2.785-6.567-5.959"/></g></g></g></g></g></svg>
