<?xml version="1.0" encoding="UTF-8" standalone="no"?>
<svg
   width="752.78003pt"
   height="261.17459pt"
   viewBox="0 0 752.78003 261.17459"
   version="1.1"
   id="svg20"
   sodipodi:docname="Wcw_logo.svg"
   inkscape:version="1.1.1 (3bf5ae0d25, 2021-09-20)"
   xmlns:inkscape="http://www.inkscape.org/namespaces/inkscape"
   xmlns:sodipodi="http://sodipodi.sourceforge.net/DTD/sodipodi-0.dtd"
   xmlns="http://www.w3.org/2000/svg"
   xmlns:svg="http://www.w3.org/2000/svg">
  <defs
     id="defs24" />
  <sodipodi:namedview
     id="namedview22"
     pagecolor="#ffffff"
     bordercolor="#111111"
     borderopacity="1"
     inkscape:pageshadow="0"
     inkscape:pageopacity="0"
     inkscape:pagecheckerboard="1"
     inkscape:document-units="pt"
     showgrid="false"
     fit-margin-top="0"
     fit-margin-left="0"
     fit-margin-right="0"
     fit-margin-bottom="0"
     inkscape:zoom="1.6434982"
     inkscape:cx="658.65604"
     inkscape:cy="300.8826"
     inkscape:window-width="1920"
     inkscape:window-height="1001"
     inkscape:window-x="-9"
     inkscape:window-y="-9"
     inkscape:window-maximized="1"
     inkscape:current-layer="svg20" />
  <path
     fill="#030303"
     d="m 363.04,7.2187443 c 21.34,-7.99999999 45.01,-9.25 67.2,-4.25 9.98,22.2899997 20.2,44.4799997 30.15,66.7899997 -21.11,-6.28 -43.98,-9.58 -65.6,-3.89 -15.21,3.86 -29.08,13.27 -37.53,26.6 -16.57,26.459996 -11.72,64.489996 11.42,85.609996 13.36,12.53 31.71,19.66 50.05,19.18 16.75,-0.12 32.99,-6.29 46.86,-15.42 12.85,-8.38 23.85,-19.27 33.61,-31.03 0.05,23.19 0.02,46.38 0.02,69.57 -12.57,13.25 -27.5,24.49 -44.43,31.54 -17,7.22 -35.72,10.27 -54.13,8.96 -32.22,-2.19 -63.23,-17.01 -85.76,-40.06 -16.72,-16.78 -28.47,-38.49 -33.05,-61.75 -6.29,-30.3 -1.36,-62.619996 12.96,-89.989996 14.34,-27.86 38.63,-50.98 68.23,-61.8599997 z"
     id="path2" />
  <path
     fill="#030303"
     d="m 0,5.4887443 c 24.37,0.02 48.75,-0.02 73.12,0.02 15.39,30.4399997 30.9,60.8099997 46.22,91.2899997 13.41,-30.51 26.74,-61.06 40.17,-91.5599997 C 173.89,25.358744 188.1,45.598744 202.44,65.738744 174.75,128.19874 147.13,190.68874 119.39,253.12874 79.53,170.60874 39.7,88.078744 0,5.4887443 Z"
     id="path4" />
  <path
     fill="#030303"
     d="m 239.8,5.4587443 c 23.09,0.08 46.18,0 69.27,0.04 C 273.12,88.108744 237,170.63874 200.98,253.20874 c -12.23,-24.78 -24.3,-49.64 -36.6,-74.38 25.15,-57.78 50.16,-115.629996 75.42,-173.3699957 z"
     id="path6" />
  <path
     fill="#030303"
     d="m 443.6,5.4887443 c 24.42,0.02 48.84,-0.02 73.26,0.02 15.38,30.4499997 30.83,60.8699997 46.27,91.2899997 13.28,-30.54 26.7,-61.03 40.09,-91.5399997 14.4,20.1199997 28.66,40.3299997 42.91,60.5599997 C 618.43,128.26874 590.79,190.73874 563.12,253.19874 523.24,170.64874 483.49,88.028744 443.6,5.4887443 Z"
     id="path8" />
  <path
     fill="#030303"
     d="m 683.4,5.5287443 c 23.13,-0.09 46.26,0.02 69.38,-0.06 C 716.85,88.088744 680.72,170.61874 644.71,253.19874 c -12.22,-24.78 -24.37,-49.59 -36.59,-74.38 25.02,-57.79 50.21,-115.519996 75.28,-173.2899957 z"
     id="path10" />
  <path
     id="path841"
     style="stroke-width:1.33333"
     d="M 899.40234 305.57422 C 897.91029 305.55792 896.39591 305.74854 894.89258 306.17188 C 889.81258 307.19854 885.34651 310.67854 882.83984 315.17188 C 877.53318 324.23854 881.58654 337.41102 891.5332 341.29102 C 902.30654 346.43768 916.44039 338.625 917.40039 326.625 C 919.27872 315.89167 909.84674 305.68833 899.40234 305.57422 z M 899.11914 310.39453 C 899.35466 310.39859 899.59097 310.40979 899.82617 310.42578 C 900.06138 310.44177 900.29499 310.46252 900.5293 310.49023 C 900.7636 310.51795 900.99765 310.55256 901.23047 310.5918 C 901.46329 310.63103 901.69503 310.67602 901.92578 310.72656 C 902.15654 310.77711 902.38713 310.83288 902.61523 310.89453 C 902.84334 310.95619 903.07005 311.02314 903.29492 311.0957 C 903.5198 311.16826 903.74183 311.24682 903.96289 311.33008 C 904.18395 311.41333 904.40247 311.50195 904.61914 311.5957 C 904.83581 311.68945 905.05003 311.78854 905.26172 311.89258 C 905.47341 311.99662 905.68255 312.10463 905.88867 312.21875 C 906.0948 312.33287 906.29806 312.45217 906.49805 312.57617 C 906.69803 312.70017 906.89464 312.82922 907.08789 312.96289 C 907.28115 313.09656 907.47226 313.23577 907.6582 313.37891 C 907.84415 313.52205 908.02507 313.66986 908.20312 313.82227 C 908.38118 313.97467 908.55503 314.13151 908.72461 314.29297 C 908.89419 314.45443 909.06018 314.61875 909.2207 314.78906 C 909.38122 314.95938 909.53662 315.13549 909.6875 315.31445 C 909.83838 315.49341 909.98434 315.67588 910.125 315.86328 C 910.26566 316.05068 910.4014 316.24186 910.53125 316.4375 C 910.6611 316.63314 910.78583 316.83344 910.9043 317.03711 C 911.02276 317.24078 911.13569 317.44866 911.24219 317.66016 C 911.34868 317.87166 911.44903 318.08752 911.54297 318.30664 C 911.63691 318.52576 911.72389 318.74807 911.80469 318.97461 C 911.88549 319.20115 911.96026 319.43031 912.02734 319.66406 C 912.12984 319.92198 912.22131 320.18367 912.30469 320.44531 C 912.38807 320.70696 912.46263 320.96978 912.52734 321.23438 C 912.59206 321.49897 912.64686 321.76448 912.69336 322.03125 C 912.73986 322.29802 912.77789 322.56581 912.80664 322.83398 C 912.83539 323.10215 912.85574 323.36988 912.86719 323.63867 C 912.87864 323.90747 912.88234 324.17667 912.87695 324.44531 C 912.87156 324.71396 912.85771 324.98228 912.83594 325.25 C 912.81416 325.51772 912.7838 325.78477 912.74609 326.05078 C 912.70839 326.3168 912.66256 326.58217 912.60938 326.8457 C 912.55619 327.10924 912.49594 327.37253 912.42773 327.63281 C 912.35953 327.8931 912.28394 328.14999 912.20117 328.40625 C 912.1184 328.66251 912.02852 328.91652 911.93164 329.16797 C 911.83477 329.41942 911.72967 329.66819 911.61914 329.91406 C 911.50861 330.15993 911.3913 330.40306 911.26758 330.64258 C 911.14385 330.88209 911.01537 331.11918 910.87891 331.35156 C 910.74244 331.58395 910.59797 331.81263 910.44922 332.03711 C 910.30047 332.26159 910.14691 332.48147 909.98633 332.69727 C 909.82575 332.91306 909.65828 333.12374 909.48633 333.33008 C 909.31438 333.53642 909.13795 333.73749 908.95508 333.93359 C 908.77221 334.1297 908.58396 334.32076 908.39062 334.50586 C 908.19729 334.69096 907.99826 334.87161 907.79492 335.04492 C 907.59158 335.21824 907.38281 335.38417 907.16992 335.54492 C 906.95703 335.70568 906.73956 335.86039 906.51758 336.00781 C 906.29559 336.15523 906.07047 336.29638 905.83984 336.42969 C 905.60922 336.56299 905.37357 336.68822 905.13477 336.80664 C 904.89596 336.92506 904.65279 337.03591 904.40625 337.13867 C 904.15971 337.24143 903.91006 337.33751 903.65625 337.42383 C 903.40244 337.51015 903.14539 337.58714 902.88477 337.65625 C 902.62414 337.72536 902.36074 337.78482 902.09375 337.83594 C 901.82676 337.88706 901.55609 337.93054 901.2832 337.96289 C 901.01031 337.99525 900.73342 338.01648 900.45508 338.0293 C 900.17674 338.04211 899.89661 338.04656 899.61328 338.03906 C 899.35161 338.06573 899.09138 338.08246 898.83203 338.0918 C 898.57268 338.10113 898.31516 338.10315 898.05859 338.0957 C 897.80203 338.08826 897.54629 338.07251 897.29297 338.04883 C 897.03965 338.02515 896.78867 337.99249 896.53906 337.95312 C 896.28946 337.91376 896.04034 337.86701 895.79492 337.8125 C 895.5495 337.75799 895.30718 337.69605 895.06641 337.62695 C 894.82563 337.55785 894.58722 337.48158 894.35156 337.39844 C 894.1159 337.31529 893.88242 337.22555 893.65234 337.12891 C 893.42227 337.03227 893.19473 336.92795 892.9707 336.81836 C 892.74667 336.70877 892.52611 336.59269 892.30859 336.4707 C 892.09108 336.34871 891.87655 336.22173 891.66602 336.08789 C 891.45548 335.95405 891.24997 335.81507 891.04688 335.66992 C 890.84378 335.52477 890.6444 335.3727 890.44922 335.2168 C 890.25404 335.06089 890.0618 334.90049 889.875 334.73438 C 889.6882 334.56826 889.50608 334.39648 889.32812 334.2207 C 889.15017 334.04492 888.97724 333.86458 888.80859 333.67969 C 888.63995 333.49479 888.47527 333.30674 888.31641 333.11328 C 888.15754 332.91982 888.00409 332.72101 887.85547 332.51953 C 887.70684 332.31805 887.5637 332.11325 887.42578 331.9043 C 887.28787 331.69534 887.15604 331.4815 887.0293 331.26562 C 886.90256 331.04975 886.78111 330.83163 886.66602 330.60938 C 886.55092 330.38712 886.44088 330.16168 886.33789 329.93359 C 886.2349 329.70551 886.13924 329.47555 886.04883 329.24219 C 885.95842 329.00882 885.87424 328.7713 885.79688 328.5332 C 885.71951 328.2951 885.64785 328.05478 885.58398 327.8125 C 885.52012 327.57022 885.46395 327.326 885.41406 327.08008 C 885.36417 326.83416 885.3206 326.5869 885.28516 326.33789 C 885.24971 326.08888 885.22171 325.83945 885.20117 325.58789 C 885.18063 325.33633 885.16728 325.08363 885.16211 324.83008 C 885.15694 324.57653 885.1612 324.3214 885.17188 324.06641 C 885.18255 323.81141 885.19958 323.55668 885.22656 323.30078 C 885.25354 323.04488 885.29023 322.7875 885.33398 322.53125 C 885.36815 322.23125 885.41084 321.93205 885.46484 321.63477 C 885.51885 321.33748 885.58293 321.04332 885.65625 320.75 C 885.72957 320.45668 885.81219 320.16505 885.9043 319.87695 C 885.9964 319.58886 886.09862 319.3031 886.20898 319.02148 C 886.31935 318.73987 886.43831 318.46138 886.56641 318.1875 C 886.6945 317.91362 886.83126 317.64379 886.97656 317.37891 C 887.12186 317.11402 887.27552 316.85424 887.4375 316.59961 C 887.59948 316.34498 887.77109 316.09664 887.94922 315.85352 C 888.12734 315.61039 888.31211 315.37294 888.50586 315.14258 C 888.69961 314.91222 888.90053 314.689 889.10938 314.47266 C 889.31822 314.25632 889.53636 314.04677 889.75977 313.8457 C 889.98317 313.64464 890.21372 313.45211 890.45117 313.26758 C 890.68862 313.08305 890.93263 312.90698 891.18359 312.74023 C 891.43455 312.57349 891.69113 312.41527 891.95508 312.26758 C 892.21902 312.11988 892.48922 311.98286 892.76562 311.85547 C 893.04203 311.72808 893.32495 311.61169 893.61328 311.50586 C 893.83036 311.40711 894.05006 311.3137 894.27148 311.22852 C 894.49291 311.14333 894.71622 311.06596 894.94141 310.99414 C 895.1666 310.92232 895.39273 310.85749 895.62109 310.79883 C 895.84946 310.74017 896.07958 310.68633 896.31055 310.64062 C 896.54151 310.59492 896.77484 310.55639 897.00781 310.52344 C 897.24079 310.49048 897.47458 310.46377 897.70898 310.44336 C 897.94339 310.42295 898.17685 310.40846 898.41211 310.40039 C 898.64736 310.39232 898.88362 310.39047 899.11914 310.39453 z "
     transform="scale(0.75)" />
  <path
     id="path1004"
     style="stroke-width:1.33333"
     d="M 899.29688 314.25586 C 896.73673 314.25845 894.1557 314.46612 891.62695 314.3457 L 891.62695 333.66406 L 896.29297 333.66406 C 896.27964 330.98406 896.29365 328.305 896.32031 325.625 C 896.94698 325.65167 898.19951 325.69174 898.82617 325.70508 C 900.11951 328.47841 901.54716 331.18516 903.17383 333.78516 C 904.40049 333.73182 906.86708 333.63766 908.09375 333.59766 C 906.61375 331.03766 905.16062 328.47865 903.64062 325.94531 C 909.17396 325.73198 910.46599 317.55846 905.97266 315.0918 C 903.79766 314.41055 901.55583 314.25358 899.29688 314.25586 z M 900.22266 317.9375 C 900.41754 317.93445 900.60974 317.93557 900.80078 317.94141 C 900.99182 317.94724 901.1822 317.95857 901.36719 317.97656 C 901.45968 317.98556 901.55006 317.99711 901.64062 318.00977 C 901.73119 318.02242 901.82179 318.03602 901.91016 318.05273 C 901.99852 318.06945 902.08403 318.08818 902.16992 318.10938 C 902.25581 318.13057 902.34069 318.15361 902.42383 318.17969 C 902.50696 318.20577 902.58982 318.23425 902.66992 318.26562 C 902.75002 318.297 902.8275 318.33206 902.9043 318.36914 C 902.98109 318.40622 903.05569 318.44703 903.12891 318.49023 C 903.20212 318.53343 903.27439 318.57918 903.34375 318.62891 C 903.41311 318.67863 903.4797 318.7324 903.54492 318.78906 C 903.61015 318.84573 903.67356 318.90474 903.73438 318.96875 C 903.79519 319.03276 903.85403 319.10011 903.91016 319.17188 C 903.96628 319.24364 904.0211 319.32046 904.07227 319.40039 C 904.12343 319.48033 904.17087 319.56383 904.2168 319.65234 C 904.26273 319.74086 904.30529 319.83414 904.3457 319.93164 C 904.33195 320.05456 904.31539 320.17286 904.29297 320.28516 C 904.27055 320.39745 904.24356 320.50333 904.21289 320.60547 C 904.18222 320.7076 904.14786 320.80599 904.10938 320.89844 C 904.07089 320.99088 904.02831 321.07693 903.98242 321.16016 C 903.93653 321.24338 903.88686 321.32202 903.83398 321.39648 C 903.78111 321.47095 903.72544 321.54124 903.66602 321.60742 C 903.60659 321.67361 903.54408 321.73656 903.47852 321.79492 C 903.41295 321.85329 903.34276 321.90797 903.27148 321.95898 C 903.20021 322.01 903.12735 322.05743 903.05078 322.10156 C 902.97422 322.1457 902.89393 322.18689 902.8125 322.22461 C 902.73107 322.26233 902.64838 322.29635 902.5625 322.32812 C 902.47662 322.3599 902.38873 322.38972 902.29883 322.41602 C 902.20893 322.44231 902.11694 322.46504 902.02344 322.48633 C 901.92993 322.50761 901.83496 322.52623 901.73828 322.54297 C 901.6416 322.55971 901.5428 322.57522 901.44336 322.58789 C 901.34392 322.60056 901.24435 322.61008 901.14258 322.61914 C 900.93904 322.63727 900.72987 322.64974 900.51953 322.65625 C 900.30919 322.66276 900.09658 322.66348 899.88281 322.66211 C 899.66905 322.66074 899.45404 322.65784 899.24023 322.65234 C 899.02643 322.64685 898.81398 322.6387 898.60352 322.63281 C 898.39305 322.62693 898.18422 322.62167 897.98047 322.61914 C 897.77672 322.61661 897.57842 322.61848 897.38477 322.62305 C 897.19111 322.62762 897.00245 322.63498 896.82227 322.65039 C 896.73217 322.6581 896.64468 322.66857 896.55859 322.67969 C 896.4725 322.69081 896.38831 322.70375 896.30664 322.71875 L 896.30664 317.9707 C 896.38664 317.98404 896.46774 317.99625 896.55078 318.00586 C 896.63382 318.01547 896.71889 318.02301 896.80469 318.0293 C 896.97629 318.04188 897.15298 318.04901 897.33398 318.05078 C 897.51499 318.05255 897.70048 318.04872 897.88867 318.04297 C 898.07687 318.03721 898.26776 318.02953 898.46094 318.01953 C 898.84729 317.99953 899.24172 317.97432 899.63477 317.95703 C 899.83129 317.94839 900.02777 317.94055 900.22266 317.9375 z "
     transform="scale(0.75)" />
</svg>
